<?xml version="1.0" encoding="UTF-8" standalone="no"?>
<svg width="17px" height="17px" viewBox="0 0 17 17" version="1.1" xmlns="http://www.w3.org/2000/svg" xmlns:xlink="http://www.w3.org/1999/xlink">
    <!-- Generator: Sketch 42 (36781) - http://www.bohemiancoding.com/sketch -->
    <title>icon-cc-master</title>
    <desc>Created with Sketch.</desc>
    <defs></defs>
    <g id="Icon-Font" stroke="none" stroke-width="1" fill="none" fill-rule="evenodd">
        <g id="icon-cc-master" fill="#000000">
            <path d="M11.1864607,4.5 L11.817102,4.5 C11.8456058,4.51425185 11.874109,4.52137767 11.9026127,4.52137767 L11.9988123,4.52137767 C12.0344419,4.52137767 12.0665081,4.52494058 12.0950118,4.53206651 C12.1235155,4.53919243 12.1520188,4.54275534 12.1805225,4.54275534 C12.4085521,4.5855109 12.6330154,4.63895455 12.8539191,4.70308788 C13.0748229,4.76722122 13.2885974,4.84916814 13.4952493,4.94893111 C13.7019012,5.04869408 13.8978612,5.1662701 14.0831353,5.3016627 C14.2684094,5.4370553 14.4465549,5.59026042 14.6175771,5.76128265 C14.9026141,6.03206785 15.1413291,6.32066354 15.3337291,6.62707837 C15.5261291,6.9334932 15.6757713,7.25415507 15.7826602,7.58907361 C15.8895491,7.92399214 15.9572444,8.2731573 15.9857481,8.63657954 C16.0142518,9.00000178 16.0000002,9.3741073 15.9429927,9.75890732 C15.9002372,10.0011888 15.8432306,10.2399038 15.7719714,10.4750593 C15.7007121,10.7102149 15.6080765,10.9346782 15.4940616,11.148456 C15.3800468,11.3622338 15.2482192,11.5653196 15.0985747,11.7577197 C14.9489303,11.9501197 14.7814735,12.1318281 14.5961994,12.3028503 C14.3396661,12.5451318 14.065322,12.7517805 13.773159,12.9228028 C13.4809961,13.093825 13.1817116,13.2292156 12.8752968,13.3289785 C12.568882,13.4287415 12.2482201,13.489311 11.9133016,13.5106888 C11.578383,13.5320665 11.2327808,13.5213778 10.8764845,13.4786223 C10.6627067,13.4501185 10.4596208,13.4073636 10.2672208,13.3503562 C10.0748208,13.2933488 9.88954951,13.2256535 9.71140135,13.1472683 C9.53325319,13.0688831 9.35510771,12.9762475 9.17695955,12.8693586 C8.99881139,12.7624697 8.83135464,12.6448937 8.67458426,12.516627 L8.58907357,12.4311163 C8.57482172,12.4168645 8.56057008,12.4061757 8.54631823,12.3990498 C8.53206637,12.3919239 8.51781473,12.3812352 8.50356288,12.3669833 L8.48218521,12.388361 C8.31116298,12.5308795 8.13301749,12.6662701 7.94774341,12.7945367 C7.76246933,12.9228034 7.5700722,13.0332536 7.37054626,13.1258907 C7.17102033,13.2185277 6.96437156,13.2933488 6.75059378,13.3503562 C6.53681599,13.4073636 6.31591558,13.4501185 6.08788594,13.4786223 C5.95961927,13.507126 5.83491743,13.5249405 5.71377668,13.5320664 C5.59263594,13.5391924 5.4679341,13.5391924 5.33966742,13.5320664 C5.21140075,13.5249405 5.08669891,13.5142518 4.96555816,13.4999999 C4.84441741,13.4857481 4.71971557,13.4643706 4.5914489,13.4358669 C4.33491555,13.3788595 4.0962006,13.3076013 3.87529689,13.2220902 C3.65439317,13.1365791 3.44061859,13.0332547 3.23396673,12.9121139 C3.02731486,12.7909732 2.83135483,12.6520197 2.64608075,12.4952493 C2.46080666,12.338479 2.28266118,12.1674593 2.11163895,11.9821852 C1.95486857,11.811163 1.819478,11.6294546 1.70546318,11.4370546 C1.59144836,11.2446546 1.48812397,11.0486945 1.39548693,10.8491686 C1.30284989,10.6496427 1.22802879,10.4429939 1.17102138,10.2292161 C1.11401397,10.0154383 1.07125905,9.79453791 1.04275534,9.56650827 C1.04275534,9.53800457 1.03919243,9.5130642 1.03206651,9.49168642 C1.02494058,9.47030864 1.02137767,9.44893118 1.02137767,9.4275534 L1.02137767,9.36342039 C1.02137767,9.34204261 1.01425185,9.31710224 1,9.28859853 L1,8.75415673 C1,8.73990488 1.00356291,8.73277906 1.01068884,8.73277906 C1.01781476,8.73277906 1.02137767,8.72921615 1.02137767,8.72209023 L1.02137767,8.69002372 C1.02137767,8.64726816 1.02494058,8.60451324 1.03206651,8.56175769 C1.03919243,8.51900213 1.04631825,8.4726843 1.05344418,8.42280282 C1.06057011,8.37292133 1.06769593,8.32660351 1.07482185,8.28384795 C1.08194778,8.24109239 1.08551069,8.19833747 1.08551069,8.15558192 C1.1425181,7.89904857 1.21377629,7.6532078 1.29928741,7.41805223 C1.38479852,7.18289666 1.48812291,6.95843335 1.60926365,6.74465556 C1.7304044,6.53087777 1.87292079,6.32779192 2.03681709,6.13539191 C2.2007134,5.9429919 2.37529597,5.7612835 2.56057006,5.59026127 C2.73159229,5.44774275 2.90973777,5.31591509 3.09501186,5.19477434 C3.28028594,5.07363359 3.47268307,4.97030921 3.672209,4.8847981 C3.87173494,4.79928698 4.0783837,4.72446588 4.29216149,4.66033254 C4.50593928,4.5961992 4.72683968,4.54988138 4.95486933,4.52137767 L5.09382419,4.52137767 C5.11520197,4.52137767 5.13657943,4.51781476 5.15795721,4.51068884 C5.17933499,4.50356291 5.20427536,4.5 5.23277906,4.5 L5.78859853,4.5 C5.81710224,4.51425185 5.84560552,4.52137767 5.87410922,4.52137767 L5.95961991,4.52137767 C5.98812362,4.52137767 6.01306398,4.52494058 6.03444176,4.53206651 C6.05581954,4.53919243 6.08075991,4.54275534 6.10926361,4.54275534 C6.3230414,4.57125905 6.53325308,4.61401397 6.73990494,4.67102138 C6.9465568,4.72802879 7.14607975,4.80284989 7.33847976,4.89548693 C7.53087977,4.98812397 7.71615107,5.09144836 7.89429923,5.20546318 C8.07244739,5.319478 8.24702996,5.44061693 8.41805219,5.5688836 C8.41805219,5.58313545 8.4216151,5.59382418 8.42874103,5.60095011 C8.43586696,5.60807604 8.44655569,5.61520186 8.46080754,5.62232778 C8.47505939,5.62945371 8.48574812,5.63657953 8.49287405,5.64370545 L8.50356288,5.65439429 C8.51781473,5.65439429 8.53206637,5.65083138 8.54631823,5.64370545 C8.56057008,5.63657953 8.57125881,5.6258908 8.57838473,5.61163895 C8.58551066,5.59738709 8.59263648,5.58669836 8.59976241,5.57957244 L8.63182891,5.54750593 C8.80285115,5.4049874 8.98099663,5.27672265 9.16627071,5.16270783 C9.3515448,5.04869301 9.54037901,4.94893154 9.73277902,4.86342042 C9.92517903,4.77790931 10.124702,4.70665111 10.3313538,4.6496437 C10.5380057,4.59263629 10.7553432,4.54988138 10.9833728,4.52137767 L11.0581947,4.52137767 C11.0795725,4.52137767 11.1009499,4.51781476 11.1223277,4.51068884 C11.1437055,4.50356291 11.1650829,4.5 11.1864607,4.5 Z M1.81235154,7.92042752 C1.78384783,8.10570161 1.75534455,8.29453582 1.72684085,8.48693583 C1.69833714,8.67933584 1.66627096,8.86817006 1.63064132,9.05344414 C1.59501169,9.23871823 1.56294551,9.42755244 1.5344418,9.61995245 C1.5059381,9.81235246 1.47743482,10.0011867 1.44893111,10.1864608 L1.89786223,10.1864608 C1.91211408,10.0439422 1.93349154,9.90142585 1.96199524,9.75890732 C1.99049895,9.61638879 2.01543931,9.4738724 2.03681709,9.33135388 L2.10095011,8.90380044 C2.12232789,8.76128191 2.14726826,8.61876552 2.17577196,8.476247 L2.19714963,8.476247 L2.19714963,8.90380044 C2.19714963,9.04631896 2.20071254,9.18883535 2.20783847,9.33135388 C2.2149644,9.4738724 2.21852731,9.61638879 2.21852731,9.75890732 L2.21852731,10.1864608 L2.54988122,10.1864608 C2.55700715,10.1864608 2.56057006,10.1828978 2.56057006,10.1757719 C2.56057006,10.168646 2.56769588,10.1579573 2.58194773,10.1437054 C2.62470329,10.0296906 2.66389529,9.91211457 2.69952493,9.79097383 C2.73515456,9.66983308 2.77434656,9.55225706 2.81710212,9.43824224 C2.85985768,9.32422742 2.9026126,9.2066514 2.94536815,9.08551065 C2.98812371,8.9643699 3.03087863,8.84679388 3.07363419,8.73277906 C3.08788604,8.70427536 3.09857477,8.67933499 3.10570069,8.65795721 L3.14845604,8.52969118 C3.15558197,8.5083134 3.16627069,8.48337303 3.18052255,8.45486933 C3.16627069,8.59738785 3.14489324,8.74346715 3.11638953,8.8931116 C3.08788583,9.04275605 3.06294546,9.18883535 3.04156768,9.33135388 L2.97743466,9.75890732 C2.95605688,9.90142585 2.93111652,10.0439422 2.90261281,10.1864608 L3.39429927,10.1864608 C3.42280297,10.0011867 3.45130625,9.81235246 3.47980996,9.61995245 C3.50831366,9.42755244 3.54037985,9.23871823 3.57600948,9.05344414 C3.61163911,8.86817006 3.6437053,8.67933584 3.672209,8.48693583 C3.70071271,8.29453582 3.72921599,8.10570161 3.75771969,7.92042752 L3.00950117,7.92042752 L2.99881233,7.93111636 C2.99168641,7.93824229 2.9881235,7.94893102 2.9881235,7.96318287 C2.95961979,8.03444213 2.93467943,8.10926324 2.91330165,8.18764842 C2.89192387,8.26603361 2.8669835,8.34085472 2.83847979,8.41211398 C2.80997609,8.48337324 2.78503572,8.55819435 2.76365794,8.63657954 C2.74228016,8.71496473 2.7173398,8.78978583 2.68883609,8.86104509 C2.67458424,8.90380065 2.66389551,8.94299266 2.65676958,8.97862229 C2.64964366,9.01425192 2.63895493,9.04988102 2.62470307,9.08551065 L2.58194773,9.19239901 C2.56769588,9.22802864 2.56057006,9.26722065 2.56057006,9.30997621 L2.53919239,9.30997621 L2.53919239,8.96793345 C2.53919239,8.85391863 2.53562948,8.73634261 2.52850355,8.61520187 C2.52137762,8.49406112 2.51781471,8.3764851 2.51781471,8.26247028 L2.51781471,7.92042752 L1.81235154,7.92042752 Z M14.9809975,8.56175769 L14.9703087,8.56175769 C14.9631827,8.56175769 14.9596198,8.55819478 14.9596198,8.55106885 L14.9596198,8.54038001 L14.8527315,8.43349165 C14.8242278,8.40498795 14.7957245,8.38361049 14.7672208,8.36935864 C14.7387171,8.35510678 14.703088,8.34085515 14.6603324,8.32660329 C14.6175769,8.31235144 14.574822,8.30522562 14.5320664,8.30522562 C14.4893108,8.30522562 14.442993,8.30878853 14.3931115,8.31591446 C14.34323,8.32304038 14.3004751,8.33729202 14.2648455,8.3586698 C14.2292159,8.38004758 14.1935868,8.40498795 14.1579571,8.43349165 C14.1223275,8.46199536 14.0831355,8.49762446 14.0403799,8.54038001 C13.9691207,8.62589113 13.9085512,8.71852678 13.8586697,8.81828975 C13.8087882,8.91805272 13.7731591,9.01781419 13.7517814,9.11757716 C13.7304036,9.21734013 13.7197149,9.32066451 13.7197149,9.4275534 C13.7197149,9.5344423 13.7339665,9.6448925 13.7624702,9.75890732 C13.7909739,9.88717399 13.8408546,9.98693546 13.9121139,10.0581947 C13.9833732,10.129454 14.0653201,10.1757718 14.1579571,10.1971496 C14.2505942,10.2185274 14.3467927,10.2185274 14.4465557,10.1971496 C14.5463187,10.1757718 14.6389543,10.1223282 14.7244654,10.0368171 L14.7351543,10.0368171 C14.7422802,10.0368171 14.7458431,10.0332541 14.7458431,10.0261282 C14.7458431,10.0190023 14.7529689,10.0154394 14.7672208,10.0154394 C14.7529689,10.0296912 14.7458431,10.0439429 14.7458431,10.0581947 L14.7458431,10.1864608 L15.1947742,10.1864608 C15.2232779,10.0011867 15.2517812,9.81235246 15.2802849,9.61995245 C15.3087886,9.42755244 15.3408548,9.23871823 15.3764844,9.05344414 C15.4121141,8.86817006 15.4441803,8.67933584 15.472684,8.48693583 C15.5011877,8.29453582 15.5296909,8.10570161 15.5581947,7.92042752 L15.0878859,7.92042752 C15.073634,7.94893123 15.0665082,7.9738716 15.0665082,7.99524938 C15.0665082,8.01662716 15.0629453,8.04156752 15.0558194,8.07007123 C15.0486934,8.09857493 15.0451305,8.12707821 15.0451305,8.15558192 C15.0451305,8.18408562 15.0380047,8.2125889 15.0237529,8.2410926 C15.0237529,8.25534446 15.0201899,8.27672192 15.013064,8.30522562 C15.0059381,8.33372933 15.0023752,8.3622326 15.0023752,8.39073631 C15.0023752,8.41924001 14.9988123,8.44774329 14.9916863,8.476247 C14.9845604,8.5047507 14.9809975,8.53325398 14.9809975,8.56175769 Z M4.93349165,10.1864608 C4.94774351,10.1437052 4.95843223,10.1045132 4.96555816,10.0688836 C4.97268409,10.0332539 4.976247,9.99406193 4.976247,9.95130637 C4.976247,9.90855081 4.97980991,9.86579589 4.98693583,9.82304034 C4.99406176,9.78028478 5.00475049,9.74465568 5.01900234,9.71615197 C5.01900234,9.64489271 5.02612816,9.57719743 5.04038001,9.51306409 C5.05463187,9.44893075 5.0653206,9.38123547 5.07244652,9.30997621 C5.07957245,9.23871694 5.08669827,9.17102166 5.09382419,9.10688832 C5.10095012,9.04275499 5.11163885,8.9750597 5.1258907,8.90380044 C5.14014255,8.81828932 5.13657964,8.73990531 5.11520187,8.66864605 C5.09382409,8.59738678 5.0617579,8.53681732 5.01900234,8.48693583 C4.97624678,8.43705435 4.92280314,8.39786234 4.8586698,8.36935864 C4.79453646,8.34085493 4.71971536,8.31947747 4.63420424,8.30522562 L4.324228,8.30522562 C4.27434652,8.30522562 4.22446578,8.31235144 4.1745843,8.32660329 C4.12470281,8.34085515 4.07125917,8.35510678 4.01425176,8.36935864 C3.9999999,8.36935864 3.98574826,8.37292155 3.97149641,8.38004747 L3.92874107,8.40142515 C3.91448922,8.40855107 3.90380049,8.4192398 3.89667456,8.43349165 C3.88954863,8.44774351 3.88598572,8.46912096 3.88598572,8.49762467 C3.88598572,8.51187652 3.88242281,8.53325398 3.87529689,8.56175769 C3.86817096,8.59026139 3.86460805,8.61876467 3.86460805,8.64726837 C3.86460805,8.67577208 3.86104514,8.70427536 3.85391922,8.73277906 C3.84679329,8.76128277 3.84323038,8.78266023 3.84323038,8.79691208 L3.89667456,8.79691208 C3.90380049,8.79691208 3.91448922,8.78978626 3.92874107,8.77553441 C3.97149663,8.76128255 4.01781445,8.75059382 4.06769594,8.7434679 C4.11757742,8.73634197 4.16389525,8.73277906 4.2066508,8.73277906 L4.50593821,8.73277906 L4.5914489,8.77553441 C4.61995261,8.78978626 4.64133006,8.80760081 4.65558192,8.82897859 C4.66983377,8.85035636 4.67695959,8.87885964 4.67695959,8.91448927 C4.67695959,8.95011891 4.66983377,8.98218509 4.65558192,9.0106888 L4.31353916,9.0106888 C4.28503546,9.0106888 4.25653218,9.01425171 4.22802848,9.02137763 L4.14251779,9.04275531 C4.11401408,9.04988123 4.0819479,9.05700705 4.04631826,9.06413298 C4.01068863,9.0712589 3.97862245,9.08194763 3.95011874,9.09619949 C3.87885948,9.13895504 3.81829001,9.18883578 3.76840853,9.24584319 C3.71852704,9.3028506 3.67933504,9.36342007 3.65083133,9.4275534 C3.62232763,9.49168674 3.60451308,9.55938202 3.59738715,9.63064129 C3.59026123,9.70190055 3.59382413,9.77315874 3.60807599,9.84441801 L3.65083133,9.97268404 C3.66508318,10.0154396 3.68289773,10.0510687 3.70427551,10.0795724 C3.72565329,10.1080761 3.75415657,10.1330165 3.7897862,10.1543943 C3.82541583,10.175772 3.86460784,10.1935866 3.9073634,10.2078384 C3.96437081,10.2220903 4.02137736,10.2292161 4.07838477,10.2292161 C4.13539218,10.2292161 4.18883583,10.2220903 4.23871731,10.2078384 C4.2885988,10.1935866 4.33491662,10.1722091 4.37767218,10.1437054 L4.50593821,10.0581947 C4.50593821,10.0439429 4.50950112,10.0368171 4.51662705,10.0368171 C4.52375297,10.0368171 4.52731588,10.0332541 4.52731588,10.0261282 L4.52731588,9.99406171 C4.52731588,10.0083136 4.53087879,10.0154394 4.53800472,10.0154394 L4.54869356,10.0154394 L4.54869356,10.1864608 L4.93349165,10.1864608 Z M12.6080759,10.1864608 C12.6080759,10.1579571 12.6116388,10.1258909 12.6187647,10.0902612 L12.6401424,9.98337288 C12.6472683,9.94774324 12.6508313,9.91211415 12.6508313,9.87648452 C12.6508313,9.84085488 12.6579571,9.8087887 12.6722089,9.78028499 C12.6722089,9.75178129 12.6757718,9.7197151 12.6828978,9.68408547 L12.7042754,9.57719711 C12.7114014,9.54156748 12.7149643,9.50593838 12.7149643,9.47030875 C12.7149643,9.43467912 12.7220901,9.40261293 12.7363419,9.37410922 C12.7363419,9.33135366 12.7399049,9.28503584 12.7470308,9.23515435 C12.7541567,9.18527287 12.7612825,9.13895504 12.7684085,9.09619949 C12.7755344,9.05344393 12.7790973,9.01068901 12.7790973,8.96793345 C12.7790973,8.9251779 12.7862231,8.87529716 12.800475,8.81828975 C12.800475,8.76128234 12.7897862,8.70427578 12.7684085,8.64726837 C12.7470307,8.59026096 12.7185274,8.54038023 12.6828978,8.49762467 C12.6472681,8.45486911 12.6045132,8.41924001 12.5546317,8.39073631 C12.5047502,8.3622326 12.4441808,8.34085515 12.3729215,8.32660329 C12.3159141,8.31235144 12.2589076,8.30522562 12.2019001,8.30522562 L12.0308788,8.30522562 C11.9738714,8.30522562 11.9168648,8.31235144 11.8598574,8.32660329 L11.688836,8.36935864 C11.6603323,8.36935864 11.6389549,8.37292155 11.624703,8.38004747 C11.6104511,8.3871734 11.5997624,8.39429922 11.5926365,8.40142515 C11.5855106,8.40855107 11.5783847,8.4192398 11.5712588,8.43349165 C11.5641329,8.44774351 11.56057,8.46199514 11.56057,8.476247 C11.56057,8.5047507 11.5570071,8.53325398 11.5498811,8.56175769 C11.5427552,8.59026139 11.5391923,8.61876467 11.5391923,8.64726837 C11.5391923,8.67577208 11.5356294,8.70071245 11.5285035,8.72209023 C11.5213775,8.743468 11.5178146,8.76840837 11.5178146,8.79691208 L11.5819477,8.79691208 C11.6247032,8.78266023 11.671021,8.76840859 11.7209025,8.75415673 C11.770784,8.73990488 11.8206647,8.73277906 11.8705462,8.73277906 L12.1805225,8.73277906 C12.223278,8.74703091 12.2553442,8.76128255 12.276722,8.77553441 C12.2980998,8.78978626 12.3159143,8.80760081 12.3301662,8.82897859 C12.344418,8.85035636 12.3479809,8.87885964 12.340855,8.91448927 C12.3337291,8.95011891 12.3230404,8.98218509 12.3087885,9.0106888 L11.9881234,9.0106888 C11.9596197,9.0106888 11.9311164,9.01425171 11.9026127,9.02137763 C11.874109,9.02850356 11.8420428,9.03562938 11.8064132,9.04275531 C11.7707836,9.04988123 11.7387174,9.05700705 11.7102137,9.06413298 C11.68171,9.0712589 11.6532067,9.08194763 11.624703,9.09619949 C11.5391919,9.13895504 11.4679337,9.19952451 11.4109263,9.2779097 C11.3539189,9.35629489 11.3147269,9.4346789 11.2933491,9.51306409 C11.2719713,9.59144928 11.2648455,9.6733962 11.2719714,9.75890732 C11.2790973,9.84441843 11.2969119,9.91567663 11.3254156,9.97268404 L11.3681709,10.0581947 C11.3824228,10.0866984 11.4002373,10.1080759 11.4216151,10.1223277 C11.4429929,10.1365796 11.4679333,10.1508312 11.496437,10.1650831 L11.5819477,10.2078384 C11.6389551,10.2220903 11.6959616,10.2292161 11.752969,10.2292161 C11.8099764,10.2292161 11.8634201,10.2220903 11.9133016,10.2078384 C11.9631831,10.1935866 12.0095009,10.1722091 12.0522564,10.1437054 C12.095012,10.1152017 12.1377669,10.0795726 12.1805225,10.0368171 L12.1912113,10.0368171 C12.1983372,10.0368171 12.2019001,10.0332541 12.2019001,10.0261282 C12.2019001,10.0190023 12.2054631,10.0154394 12.212589,10.0154394 L12.2232778,10.0154394 L12.2232778,10.1864608 L12.6080759,10.1864608 Z M8.7173396,9.41686457 C8.7173396,9.38836086 8.72090251,9.35273176 8.72802844,9.30997621 L8.74940611,9.18171017 C8.75653204,9.13895462 8.76365786,9.09976261 8.77078378,9.06413298 C8.77790971,9.02850335 8.78147262,8.98931134 8.78147262,8.94655578 C8.76722077,8.83254096 8.7422804,8.73277949 8.70665077,8.64726837 C8.67102113,8.56175726 8.61757749,8.49049906 8.54631823,8.43349165 C8.47505896,8.37648424 8.39311204,8.33729224 8.300475,8.31591446 C8.20783796,8.29453668 8.10451357,8.29097377 7.99049875,8.30522562 C7.91923949,8.31947747 7.85510712,8.33729202 7.79809971,8.3586698 C7.74109229,8.38004758 7.69121156,8.41211377 7.648456,8.45486933 C7.60570044,8.49762488 7.56650844,8.5403798 7.5308788,8.58313536 C7.49524917,8.62589092 7.46318299,8.67577165 7.43467928,8.73277906 C7.39192372,8.80403832 7.35985754,8.87529652 7.33847976,8.94655578 C7.31710198,9.01781504 7.29928743,9.08907324 7.28503558,9.1603325 C7.27078372,9.23159177 7.2636579,9.30284996 7.2636579,9.37410922 C7.2636579,9.44536849 7.27078372,9.51662668 7.28503558,9.58788594 C7.29928743,9.67339706 7.32066489,9.75534398 7.34916859,9.83372917 C7.3776723,9.91211436 7.42042721,9.97624674 7.47743462,10.0261282 C7.53444204,10.0760097 7.59857441,10.1187646 7.66983367,10.1543943 C7.74109294,10.1900239 7.81947695,10.2149643 7.90498807,10.2292161 L8.21496431,10.2292161 C8.26484579,10.2292161 8.31472653,10.2220903 8.36460801,10.2078384 C8.4144895,10.1935866 8.46793314,10.1864608 8.52494055,10.1864608 C8.53919241,10.1722089 8.54988114,10.1650831 8.55700706,10.1650831 C8.56413299,10.1650831 8.57125881,10.1615202 8.57838473,10.1543943 C8.58551066,10.1472683 8.59263648,10.1365796 8.59976241,10.1223277 C8.60688833,10.1080759 8.61045124,10.0938243 8.61045124,10.0795724 L8.61045124,10.0047505 C8.61045124,9.99762462 8.61757706,9.99406171 8.63182891,9.99406171 L8.63182891,9.91923986 C8.63182891,9.89786208 8.63539182,9.87292171 8.64251775,9.84441801 C8.64964368,9.8159143 8.65320659,9.79097393 8.65320659,9.76959616 C8.65320659,9.74821838 8.66033241,9.72327801 8.67458426,9.6947743 C8.66033241,9.6947743 8.65320659,9.69833721 8.65320659,9.70546314 C8.65320659,9.71258907 8.64964368,9.71615197 8.64251775,9.71615197 L8.63182891,9.71615197 C8.5748215,9.74465568 8.51781495,9.76603314 8.46080754,9.78028499 C8.40380013,9.79453684 8.35035648,9.80522557 8.300475,9.8123515 C8.25059351,9.81947743 8.19714987,9.81947743 8.14014246,9.8123515 C8.08313505,9.80522557 8.02612849,9.79453684 7.96912108,9.78028499 C7.94061738,9.78028499 7.9121141,9.76959626 7.88361039,9.74821848 C7.85510669,9.7268407 7.83016632,9.70190034 7.80878854,9.67339663 C7.78741076,9.64489293 7.76959621,9.61638965 7.75534436,9.58788594 C7.74109251,9.55938224 7.73396669,9.52375314 7.73396669,9.48099758 C7.73396669,9.46674573 7.7375296,9.456057 7.74465552,9.44893107 L7.7660332,9.4275534 C7.77315912,9.42042748 7.78384785,9.41686457 7.79809971,9.41686457 L8.7173396,9.41686457 Z M11.3895486,8.476247 C11.4038005,8.43349144 11.4144892,8.39429943 11.4216151,8.3586698 C11.428741,8.32304017 11.4323039,8.28384816 11.4323039,8.2410926 C11.4323039,8.19833705 11.4358669,8.15914504 11.4429928,8.12351541 C11.4501187,8.08788578 11.4608074,8.04869377 11.4750593,8.00593821 L11.4750593,7.99524938 C11.4750593,7.98812345 11.4714964,7.98456054 11.4643705,7.98456054 C11.4572445,7.98456054 11.4536816,7.98099763 11.4536816,7.9738717 C11.4536816,7.96674578 11.4465558,7.96318287 11.4323039,7.96318287 C11.4180521,7.96318287 11.4038005,7.95961996 11.3895486,7.95249403 L11.3467933,7.93111636 C11.3325414,7.92399043 11.3147269,7.92042752 11.2933491,7.92042752 C11.2719713,7.92042752 11.2541568,7.91330171 11.2399049,7.89904985 C11.1258901,7.87054615 11.0190028,7.85629451 10.9192398,7.85629451 C10.8194769,7.85629451 10.7232783,7.87054615 10.6306412,7.89904985 C10.5380042,7.92755356 10.4524944,7.97387138 10.3741092,8.03800472 C10.295724,8.10213806 10.2209029,8.17695916 10.1496436,8.26247028 C10.0641325,8.36223325 10.0000001,8.46912054 9.95724458,8.58313536 C9.91448902,8.69715018 9.88242283,8.80760038 9.86104506,8.91448927 C9.83966728,9.02137817 9.83254146,9.13539128 9.83966738,9.25653203 C9.84679331,9.37767277 9.86460786,9.49524879 9.89311156,9.60926361 C9.90736342,9.69477473 9.93230378,9.76959583 9.96793342,9.83372917 C10.003563,9.89786251 10.046318,9.95486906 10.0961994,10.0047505 C10.1460809,10.054632 10.2030875,10.0973869 10.2672208,10.1330166 C10.3313542,10.1686462 10.4061753,10.1935866 10.4916864,10.2078384 C10.5344419,10.2220903 10.5843227,10.232779 10.6413301,10.2399049 C10.6983375,10.2470309 10.7517811,10.2470309 10.8016626,10.2399049 C10.8515441,10.232779 10.9014248,10.2220903 10.9513063,10.2078384 C11.0011878,10.1935866 11.0475056,10.1864608 11.0902612,10.1864608 L11.1330165,10.1437054 C11.1330165,10.1152017 11.1365795,10.0866984 11.1437054,10.0581947 C11.1508313,10.029691 11.1543942,10.0011877 11.1543942,9.97268404 C11.1543942,9.94418033 11.1579571,9.91923997 11.165083,9.89786219 C11.172209,9.87648441 11.1757719,9.85154404 11.1757719,9.82304034 C11.1757719,9.80878848 11.1793348,9.79453684 11.1864607,9.78028499 C11.1935866,9.76603314 11.1971496,9.7517815 11.1971496,9.73752965 L11.1971496,9.67339663 C11.1686459,9.67339663 11.1437055,9.67695954 11.1223277,9.68408547 C11.1009499,9.69121139 11.0795725,9.70190012 11.0581947,9.71615197 C11.0368169,9.73040383 11.0118765,9.74109256 10.9833728,9.74821848 C10.9548691,9.75534441 10.9334917,9.75890732 10.9192398,9.75890732 C10.8479806,9.77315917 10.7802853,9.77672208 10.7161519,9.76959616 C10.6520186,9.76247023 10.595012,9.74109277 10.5451306,9.70546314 C10.4952491,9.66983351 10.4560571,9.62707859 10.4275534,9.57719711 C10.3990497,9.52731562 10.3776722,9.46674616 10.3634203,9.39548689 C10.3491685,9.33847948 10.3420427,9.28503584 10.3420427,9.23515435 L10.3420427,9.08551065 C10.3420427,9.03562917 10.3491685,8.98574843 10.3634203,8.93586695 C10.3776722,8.88598546 10.3919238,8.83254182 10.4061757,8.77553441 C10.4489313,8.69002329 10.498812,8.61163928 10.5558194,8.54038001 C10.6128268,8.46912075 10.6769592,8.41924001 10.7482184,8.39073631 C10.8194777,8.3622326 10.8978617,8.34798097 10.9833728,8.34798097 C11.068884,8.34798097 11.1615196,8.36935842 11.2612826,8.41211398 C11.2755344,8.41211398 11.2862232,8.41567689 11.2933491,8.42280282 C11.300475,8.42992874 11.3111637,8.43705456 11.3254156,8.44418049 C11.3396674,8.45130642 11.3503562,8.45486933 11.3574821,8.45486933 C11.364608,8.45486933 11.3752968,8.46199514 11.3895486,8.476247 Z M6.38717335,8.34798097 L6.38717335,8.32660329 C6.33016594,8.32660329 6.27315939,8.32304038 6.21615197,8.31591446 C6.15914456,8.30878853 6.10213801,8.30522562 6.0451306,8.30522562 L5.88479806,8.30522562 C5.83491657,8.30522562 5.78147293,8.31235144 5.72446552,8.32660329 C5.62470255,8.34085515 5.53562981,8.37648424 5.45724462,8.43349165 C5.37885943,8.49049906 5.32185287,8.56175726 5.28622324,8.64726837 C5.25059361,8.73277949 5.23277906,8.82185223 5.23277906,8.91448927 C5.23277906,9.00712632 5.25415652,9.09619906 5.29691208,9.18171017 C5.31116393,9.21021388 5.32897848,9.23871716 5.35035626,9.26722086 C5.37173404,9.29572457 5.3966744,9.32066494 5.42517811,9.34204271 C5.45368182,9.36342049 5.48218509,9.38123504 5.5106888,9.39548689 C5.5391925,9.40973875 5.5748216,9.42399039 5.61757716,9.43824224 C5.61757716,9.45249409 5.62470298,9.46318282 5.63895483,9.47030875 L5.72446552,9.51306409 C5.73871737,9.52019002 5.75296901,9.52375293 5.76722086,9.52375293 L5.79928737,9.55581943 C5.8064133,9.56294536 5.81353912,9.57363409 5.82066504,9.58788594 C5.82779097,9.6021378 5.83135388,9.61638943 5.83135388,9.63064129 L5.83135388,9.67339663 C5.83135388,9.68764848 5.82779097,9.70190012 5.82066504,9.71615197 C5.81353912,9.73040383 5.8064133,9.74109256 5.79928737,9.74821848 C5.79216144,9.75534441 5.78147271,9.76247023 5.76722086,9.76959616 C5.75296901,9.77672208 5.73871737,9.78028499 5.72446552,9.78028499 C5.72446552,9.79453684 5.7173397,9.80166266 5.70308785,9.80166266 C5.68883599,9.80166266 5.67458435,9.80522557 5.6603325,9.8123515 C5.64608065,9.81947743 5.63182901,9.82304034 5.61757716,9.82304034 L5.57482181,9.82304034 C5.54631811,9.80878848 5.51068901,9.80166266 5.46793345,9.80166266 C5.4251779,9.80166266 5.38598589,9.79809975 5.35035626,9.79097383 C5.31472663,9.7838479 5.27909753,9.78028499 5.2434679,9.78028499 C5.20783827,9.78028499 5.16864626,9.77315917 5.1258907,9.75890732 C5.11163885,9.78741102 5.10451303,9.81947721 5.10451303,9.85510684 C5.10451303,9.89073647 5.10095012,9.92280266 5.09382419,9.95130637 C5.08669827,9.97981007 5.07957245,10.0118763 5.07244652,10.0475059 C5.0653206,10.0831355 5.06175769,10.1152017 5.06175769,10.1437054 L5.06175769,10.1543943 C5.06175769,10.1615202 5.0653206,10.1650831 5.07244652,10.1650831 C5.07957245,10.1650831 5.08669827,10.168646 5.09382419,10.1757719 L5.10451303,10.1864608 C5.16152044,10.2007126 5.21496409,10.2114013 5.26484557,10.2185273 C5.31472705,10.2256532 5.3681707,10.2292161 5.42517811,10.2292161 L5.59619949,10.2292161 C5.6532069,10.2292161 5.71021345,10.2220903 5.76722086,10.2078384 C5.80997642,10.2078384 5.84916843,10.2042755 5.88479806,10.1971496 C5.92042769,10.1900237 5.95605679,10.1793349 5.99168642,10.1650831 C6.02731605,10.1508312 6.05938224,10.1330167 6.08788594,10.1116389 C6.11638965,10.0902611 6.14489293,10.0653208 6.17339663,10.0368171 C6.23040404,9.95130594 6.26959605,9.86579611 6.29097383,9.78028499 C6.31235161,9.69477388 6.31591452,9.60570113 6.30166266,9.51306409 C6.28741081,9.42042705 6.25178171,9.33848013 6.1947743,9.26722086 C6.13776689,9.1959616 6.05938288,9.13895504 5.95961991,9.09619949 C5.94536806,9.08194763 5.93111642,9.0712589 5.91686457,9.06413298 L5.83135388,9.02137763 C5.81710203,9.01425171 5.80285039,9.0106888 5.78859853,9.0106888 C5.78859853,8.99643695 5.78503562,8.98574822 5.7779097,8.97862229 L5.75653203,8.95724462 C5.7494061,8.95011869 5.74584319,8.94299287 5.74584319,8.93586695 L5.74584319,8.90380044 C5.73159134,8.88954859 5.72802843,8.87173404 5.73515435,8.85035626 C5.74228028,8.82897848 5.75296901,8.81116393 5.76722086,8.79691208 C5.78147271,8.78266023 5.79572435,8.7719715 5.80997621,8.76484557 C5.82422806,8.75771964 5.84560552,8.75415673 5.87410922,8.75415673 C5.88836108,8.75415673 5.90617562,8.75059382 5.9275534,8.7434679 C5.94893118,8.73634197 5.97030864,8.73277906 5.99168642,8.73277906 L6.10926361,8.73277906 C6.13776732,8.73277906 6.15914478,8.73634197 6.17339663,8.7434679 C6.18764848,8.75059382 6.20190012,8.75415673 6.21615197,8.75415673 L6.32304034,8.75415673 C6.32304034,8.72565303 6.32660324,8.69358684 6.33372917,8.65795721 L6.37648452,8.44418049 C6.38361044,8.40855086 6.38717335,8.37648467 6.38717335,8.34798097 Z M7.15676954,9.78028499 L6.98574817,9.78028499 C6.97149632,9.78028499 6.95724468,9.77672208 6.94299282,9.76959616 C6.92874097,9.76247023 6.91805224,9.7517815 6.91092632,9.73752965 L6.88954864,9.6947743 C6.88242272,9.68052245 6.87885981,9.66627081 6.87885981,9.65201896 L6.87885981,9.58788594 C6.89311166,9.51662668 6.90380039,9.4524943 6.91092632,9.39548689 C6.91805224,9.33847948 6.92874097,9.27791002 6.94299282,9.21377668 C6.95724468,9.14964335 6.96793341,9.08551097 6.97505933,9.02137763 C6.98218526,8.9572443 6.99287399,8.89667483 7.00712584,8.83966742 L7.00712584,8.80760091 C7.00712584,8.80047499 7.01068875,8.79691208 7.01781468,8.79691208 L7.2636579,8.79691208 C7.2636579,8.75415652 7.26722081,8.71496451 7.27434674,8.67933488 L7.29572441,8.57244652 C7.30285034,8.53681689 7.30641325,8.49762488 7.30641325,8.45486933 C7.30641325,8.41211377 7.31353907,8.37648467 7.32779092,8.34798097 L7.07125886,8.34798097 C7.07125886,8.31947726 7.07482177,8.29453689 7.08194769,8.27315911 C7.08907362,8.25178133 7.09619944,8.22684097 7.10332536,8.19833726 C7.11045129,8.16983356 7.1140142,8.14489319 7.1140142,8.12351541 C7.1140142,8.10213763 7.12114002,8.07719726 7.13539187,8.04869356 L6.78266028,8.04869356 C6.74703065,8.04869356 6.70783865,8.05581938 6.66508309,8.07007123 L6.64370542,8.0914489 L6.64370542,8.11282657 C6.62945356,8.22684139 6.61163901,8.3408545 6.59026124,8.45486933 L6.52612822,8.79691208 C6.50475044,8.9109269 6.48693589,9.02494001 6.47268404,9.13895483 C6.45843219,9.25296965 6.43705473,9.36698276 6.40855102,9.48099758 C6.40855102,9.50950129 6.40498811,9.54156748 6.39786219,9.57719711 C6.39073626,9.61282674 6.38717335,9.64489293 6.38717335,9.67339663 C6.38717335,9.70190034 6.38361044,9.73040361 6.37648452,9.75890732 C6.36935859,9.78741102 6.36579568,9.82304012 6.36579568,9.86579568 C6.38004753,9.92280309 6.39429917,9.97624674 6.40855102,10.0261282 C6.42280288,10.0760097 6.44774324,10.1152017 6.48337288,10.1437054 C6.51900251,10.1722091 6.55819451,10.1935866 6.60095007,10.2078384 C6.64370563,10.2220903 6.70071218,10.2292161 6.77197145,10.2292161 L6.82541563,10.2292161 C6.84679341,10.2292161 6.86460796,10.2256532 6.87885981,10.2185273 C6.89311166,10.2114013 6.91092621,10.2078384 6.93230399,10.2078384 L6.98574817,10.2078384 C7.01425187,10.2078384 7.03562933,10.2042755 7.04988118,10.1971496 C7.06413304,10.1900237 7.07838468,10.1793349 7.09263653,10.1650831 C7.10688838,10.1508312 7.1140142,10.1365796 7.1140142,10.1223277 C7.1140142,10.1080759 7.12114002,10.0866984 7.13539187,10.0581947 L7.13539187,9.99406171 C7.13539187,9.96555801 7.13895478,9.94061764 7.14608071,9.91923986 C7.15320663,9.89786208 7.15676954,9.87648462 7.15676954,9.85510684 L7.15676954,9.78028499 Z M8.76009495,10.1864608 L9.23040373,10.1864608 L9.2517814,10.1650831 L9.2517814,10.1437054 C9.26603326,10.1009499 9.27672198,10.0581949 9.28384791,10.0154394 C9.29097384,9.97268383 9.29809966,9.926366 9.30522558,9.87648452 C9.31235151,9.82660303 9.31947733,9.7802852 9.32660326,9.73752965 C9.33372918,9.69477409 9.34441791,9.65201917 9.35866976,9.60926361 C9.35866976,9.5522562 9.36579558,9.50237547 9.38004744,9.45961991 C9.39429929,9.41686435 9.40498802,9.37054653 9.41211394,9.32066504 C9.41923987,9.27078356 9.4299286,9.22446573 9.44418045,9.18171017 L9.4869358,9.05344414 C9.4869358,9.02494044 9.49406161,8.99643716 9.50831347,8.96793345 C9.52256532,8.93942975 9.54037987,8.91805229 9.56175765,8.90380044 C9.58313543,8.88954859 9.60807579,8.87885986 9.6365795,8.87173393 C9.6650832,8.864608 9.69358648,8.86104509 9.72209019,8.86104509 L9.74346786,8.86104509 C9.74346786,8.83254139 9.74703077,8.80760102 9.7541567,8.78622324 L9.79691204,8.65795721 C9.80403797,8.63657943 9.80760088,8.61163906 9.80760088,8.58313536 C9.82185273,8.5688835 9.83254146,8.55106896 9.83966738,8.52969118 L9.86104506,8.46555816 C9.86817098,8.44418038 9.87885971,8.42280292 9.89311156,8.40142515 C9.90736342,8.38004737 9.91448924,8.355107 9.91448924,8.32660329 C9.85748183,8.31235144 9.80760109,8.31235144 9.76484553,8.32660329 C9.72208997,8.34085515 9.68289797,8.3622326 9.64726834,8.39073631 C9.6116387,8.41924001 9.57957252,8.4513062 9.55106881,8.48693583 C9.52256511,8.52256546 9.49406183,8.56175747 9.46555812,8.60451303 C9.46555812,8.57600932 9.46912103,8.55106896 9.47624696,8.52969118 C9.48337289,8.5083134 9.4869358,8.48693594 9.4869358,8.46555816 C9.4869358,8.44418038 9.49049871,8.42280292 9.49762463,8.40142515 C9.50475056,8.38004737 9.50831347,8.36223282 9.50831347,8.34798097 L9.05938235,8.34798097 C9.0451305,8.50475134 9.02375304,8.65795646 8.99524934,8.80760091 C8.96674563,8.95724537 8.94180527,9.11045048 8.92042749,9.26722086 C8.89904971,9.42399124 8.87410934,9.57719636 8.84560563,9.72684081 C8.81710193,9.87648526 8.78859865,10.0296904 8.76009495,10.1864608 Z M13.7410925,8.86104509 C13.7553444,8.81828954 13.769596,8.77197171 13.7838479,8.72209023 C13.7980997,8.67220874 13.8123514,8.62589092 13.8266032,8.58313536 L13.9121139,8.32660329 C13.8551065,8.31235144 13.8052258,8.31235144 13.7624702,8.32660329 C13.7197146,8.34085515 13.6840855,8.3622326 13.6555818,8.39073631 C13.6270781,8.41924001 13.5985749,8.4513062 13.5700712,8.48693583 C13.5415674,8.52256546 13.5059384,8.56175747 13.4631828,8.60451303 C13.4774346,8.57600932 13.4845605,8.55106896 13.4845605,8.52969118 C13.4845605,8.5083134 13.4881234,8.48693594 13.4952493,8.46555816 C13.5023752,8.44418038 13.5059381,8.42280292 13.5059381,8.40142515 L13.5059381,8.34798097 L13.4952493,8.34798097 C13.4881234,8.34798097 13.4845605,8.34441806 13.4845605,8.33729213 C13.4845605,8.3301662 13.4809976,8.32660329 13.4738716,8.32660329 L13.12114,8.32660329 L13.1104512,8.33729213 C13.1033253,8.34441806 13.0961995,8.34798097 13.0890735,8.34798097 C13.0819476,8.34798097 13.0783847,8.35154387 13.0783847,8.3586698 L13.0783847,8.39073631 C13.049881,8.50475113 13.0249406,8.62589006 13.0035628,8.75415673 C12.9821851,8.88242341 12.9643705,9.00712525 12.9501187,9.12826599 C12.9358668,9.24940674 12.9180523,9.37410858 12.8966745,9.50237525 C12.8752967,9.63064193 12.8503563,9.75178086 12.8218526,9.86579568 L12.8218526,9.95130637 C12.8218526,9.97981007 12.8182897,10.0083134 12.8111638,10.0368171 C12.8040379,10.0653208 12.7969121,10.0902611 12.7897861,10.1116389 C12.7826602,10.1330167 12.7790973,10.1579571 12.7790973,10.1864608 L13.2494061,10.1864608 L13.2494061,10.1757719 C13.2494061,10.168646 13.252969,10.1650831 13.2600949,10.1650831 C13.2672208,10.1650831 13.2707837,10.1579573 13.2707837,10.1437054 C13.2707837,10.1009499 13.2743467,10.054632 13.2814726,10.0047505 C13.2885985,9.95486906 13.2992872,9.90142542 13.3135391,9.84441801 C13.3277909,9.7874106 13.3384797,9.73396695 13.3456056,9.68408547 C13.3527315,9.63420398 13.3634203,9.58788616 13.3776721,9.5451306 C13.3776721,9.50237504 13.381235,9.45962012 13.3883609,9.41686457 C13.3954869,9.37410901 13.4061756,9.33135409 13.4204274,9.28859853 C13.4346793,9.24584298 13.445368,9.20308806 13.452494,9.1603325 C13.4596199,9.11757694 13.4703086,9.07482203 13.4845605,9.03206647 C13.4988123,9.00356276 13.513064,8.9786224 13.5273158,8.95724462 C13.5415677,8.93586684 13.5593822,8.91805229 13.58076,8.90380044 C13.6021378,8.88954859 13.6235152,8.87885986 13.644893,8.87173393 C13.6662708,8.864608 13.698337,8.86104509 13.7410925,8.86104509 Z M14.8527315,8.98931113 L14.8527315,9.24584319 C14.8527315,9.2743469 14.8491686,9.30285017 14.8420426,9.33135388 C14.8349167,9.35985758 14.8277909,9.39192377 14.820665,9.4275534 C14.813539,9.46318303 14.8028503,9.49524922 14.7885985,9.52375293 L14.756532,9.55581943 C14.749406,9.56294536 14.7422802,9.57363409 14.7351543,9.58788594 L14.7137766,9.63064129 C14.7066507,9.64489314 14.695962,9.65914478 14.6817101,9.67339663 C14.6674582,9.68764848 14.6496437,9.70190012 14.6282659,9.71615197 C14.6068881,9.73040383 14.5819478,9.74109256 14.5534441,9.74821848 C14.5249404,9.75534441 14.4964371,9.75890732 14.4679334,9.75890732 L14.4038004,9.75890732 C14.3752967,9.74465547 14.3503563,9.73040383 14.3289785,9.71615197 C14.3076007,9.70190012 14.2897862,9.68408557 14.2755343,9.66270779 C14.2612825,9.64133002 14.2505937,9.61995256 14.2434678,9.59857478 C14.2363419,9.577197 14.232779,9.55938245 14.232779,9.5451306 C14.2185271,9.48812319 14.2114013,9.43824245 14.2114013,9.39548689 C14.2114013,9.35273134 14.2149642,9.30997642 14.2220901,9.26722086 C14.2292161,9.2244653 14.2399048,9.18171039 14.2541567,9.13895483 L14.296912,9.0106888 C14.296912,8.99643695 14.3040378,8.98218531 14.3182897,8.96793345 C14.3325415,8.9536816 14.3432303,8.93942996 14.3503562,8.92517811 C14.3574821,8.91092626 14.3681708,8.89667462 14.3824227,8.88242277 L14.425178,8.83966742 C14.4536817,8.81116372 14.4893108,8.78978626 14.5320664,8.77553441 C14.574822,8.76128255 14.6175769,8.75771964 14.6603324,8.76484557 C14.703088,8.7719715 14.74228,8.79334895 14.7779096,8.82897859 C14.8135393,8.86460822 14.8384796,8.91805186 14.8527315,8.98931113 Z M4.5914489,9.37410922 C4.5914489,9.40261293 4.58788599,9.43467912 4.58076006,9.47030875 C4.57363414,9.50593838 4.56294541,9.54156748 4.54869356,9.57719711 C4.5344417,9.61282674 4.52019007,9.64489293 4.50593821,9.67339663 C4.49168636,9.70190034 4.4703089,9.73040361 4.4418052,9.75890732 C4.41330149,9.77315917 4.39192403,9.78741081 4.37767218,9.80166266 C4.36342033,9.81591452 4.34560578,9.82304034 4.324228,9.82304034 L4.2066508,9.82304034 C4.19239895,9.82304034 4.17814731,9.81947743 4.16389546,9.8123515 C4.14964361,9.80522557 4.13895488,9.79809975 4.13182895,9.79097383 L4.07838477,9.73752965 C4.06413292,9.70902594 4.0570071,9.67695975 4.0570071,9.64133012 C4.0570071,9.60570049 4.06413292,9.5736343 4.07838477,9.5451306 C4.09263662,9.51662689 4.11045117,9.49168653 4.13182895,9.47030875 C4.15320673,9.44893097 4.1781471,9.43111642 4.2066508,9.41686457 C4.23515451,9.40261271 4.26365779,9.39192398 4.29216149,9.38479806 C4.3206652,9.37767213 4.35273138,9.37054631 4.38836102,9.36342039 C4.42399065,9.35629446 4.45605684,9.35273155 4.48456054,9.35273155 C4.51306425,9.35273155 4.54869334,9.35985737 4.5914489,9.37410922 Z M12.2660332,9.37410922 C12.2660332,9.40261293 12.2624702,9.43467912 12.2553443,9.47030875 C12.2482184,9.50593838 12.2375297,9.54156748 12.2232778,9.57719711 C12.209026,9.61282674 12.1947743,9.64489293 12.1805225,9.67339663 C12.1662706,9.70190034 12.1448932,9.72327779 12.1163895,9.73752965 C12.1021376,9.76603335 12.087886,9.7838479 12.0736341,9.79097383 C12.0593823,9.79809975 12.0415677,9.80522557 12.0201899,9.8123515 C11.9988122,9.81947743 11.9774347,9.82304034 11.9560569,9.82304034 L11.8812351,9.82304034 C11.8669832,9.82304034 11.8527316,9.81947743 11.8384797,9.8123515 L11.7957244,9.79097383 C11.7814725,9.7838479 11.7672209,9.76959626 11.752969,9.74821848 C11.7387172,9.7268407 11.7315914,9.70902616 11.7315914,9.6947743 L11.7315914,9.60926361 C11.7315914,9.58075991 11.7387172,9.55225663 11.752969,9.52375293 C11.7672209,9.49524922 11.7850354,9.47030885 11.8064132,9.44893107 C11.827791,9.4275533 11.8527314,9.41686457 11.8812351,9.41686457 L11.9667458,9.37410922 C11.9952495,9.35985737 12.0273156,9.35273155 12.0629453,9.35273155 L12.1591448,9.35273155 C12.1876485,9.35273155 12.2232776,9.35985737 12.2660332,9.37410922 Z M7.77672203,9.05344414 C7.79097389,8.99643673 7.80878843,8.94299309 7.83016621,8.8931116 C7.85154399,8.84323012 7.88004727,8.80403811 7.9156769,8.77553441 C7.95130653,8.7470307 7.98693563,8.72921615 8.02256526,8.72209023 C8.05819489,8.7149643 8.0973869,8.71140139 8.14014246,8.71140139 C8.16864616,8.72565324 8.19358653,8.73634197 8.21496431,8.7434679 C8.23634209,8.75059382 8.25415664,8.76128255 8.26840849,8.77553441 C8.28266034,8.78978626 8.29334907,8.80760081 8.300475,8.82897859 C8.30760092,8.85035636 8.31116383,8.87529673 8.31116383,8.90380044 C8.32541569,8.91805229 8.33254151,8.92874102 8.33254151,8.93586695 L8.33254151,8.96793345 C8.33254151,8.98218531 8.3289786,8.99643695 8.32185267,9.0106888 C8.31472674,9.02494065 8.31116383,9.03919229 8.31116383,9.05344414 L7.77672203,9.05344414 Z" id="icon3---payment-webfont"></path>
        </g>
    </g>
</svg>