<?xml version="1.0" encoding="UTF-8" standalone="no"?>
<svg width="17px" height="17px" viewBox="0 0 17 17" version="1.1" xmlns="http://www.w3.org/2000/svg" xmlns:xlink="http://www.w3.org/1999/xlink">
    <!-- Generator: Sketch 42 (36781) - http://www.bohemiancoding.com/sketch -->
    <title>icon-ncaaf</title>
    <desc>Created with Sketch.</desc>
    <defs></defs>
    <g id="Icon-Font" stroke="none" stroke-width="1" fill="none" fill-rule="evenodd">
        <g id="icon-ncaaf" fill="#000000">
            <path d="M10.1353895,10.8582463 L8.4918536,9.21471044 L7.19694654,10.5096175 L8.84048243,12.1531534 C8.94009116,12.2416945 8.98989478,12.3551361 8.98989478,12.4934815 C8.98989478,12.631827 8.94009116,12.7508023 8.84048243,12.850411 C8.79621188,12.9057492 8.74364139,12.9444854 8.68276939,12.9666206 C8.62189738,12.9887559 8.55825943,12.9998234 8.4918536,12.9998234 C8.42544778,12.9998234 8.36180982,12.9887559 8.30093782,12.9666206 C8.24006582,12.9444854 8.18749533,12.9057492 8.14322478,12.850411 L6.4996889,11.2068751 L1.95091282,15.7556512 C2.02838628,15.7888541 2.10862544,15.8165228 2.19163272,15.8386581 C2.27464,15.8607934 2.3604129,15.8773946 2.44895399,15.8884622 C2.88059184,15.9327328 3.40076298,15.9659352 4.00948301,15.9880704 C4.61820305,16.0102057 5.27118384,16.0019051 5.96844497,15.9631684 C6.66570611,15.9244317 7.38785859,15.8386588 8.13492409,15.7058471 C8.88198959,15.5730355 9.60967581,15.3682872 10.3180046,15.0915963 C10.4397486,15.0473258 10.5642576,15.0528595 10.6915355,15.1081977 C10.8188133,15.1635359 10.9101199,15.2576094 10.9654581,15.390421 C11.0097287,15.512165 11.0041949,15.6366741 10.9488567,15.7639519 C10.8935186,15.8912297 10.7994451,15.9825364 10.6666334,16.0378746 C10.1685897,16.2260244 9.65948607,16.380969 9.13930713,16.502713 C8.61912819,16.624457 8.10449079,16.7240642 7.59537949,16.8015377 C7.08626818,16.8790112 6.58546512,16.9315816 6.09295527,16.9592507 C5.60044542,16.9869198 5.13284477,17.0007542 4.69013929,17.0007542 C4.22529853,17.0007542 3.79643403,16.9896867 3.40353291,16.9675514 C3.0106318,16.9454161 2.65923959,16.9177475 2.34934576,16.8845446 C1.76276099,16.8292064 1.25642419,16.5884889 0.830320169,16.1623849 C0.404216142,15.7362808 0.163498648,15.229944 0.108160462,14.6433593 C0.04175464,13.9018276 0.0057853592,13.0302642 0.000251540678,12.0286431 C-0.00528227784,11.0270219 0.0804906226,9.99498026 0.257572815,8.9324871 C0.434655008,7.86999395 0.739010461,6.82135107 1.17064831,5.786527 C1.60228615,4.75170294 2.22206453,3.83586971 3.03000203,3.03899984 C3.8268719,2.23106234 4.74270513,1.61128396 5.77752919,1.17964612 C6.81235325,0.748008274 7.86099613,0.440885953 8.92348929,0.258269941 C9.98598245,0.0756539302 11.0180241,-0.0101189703 12.0196453,0.000948666727 C13.0212664,0.0120163038 13.8928298,0.0507524524 14.6343614,0.117158275 C15.2209462,0.17249646 15.727283,0.413213955 16.153387,0.839317981 C16.5794911,1.26542201 16.8202086,1.77175881 16.8755467,2.35834357 C16.9087497,2.74571087 16.9391852,3.1801091 16.9668543,3.66155132 C16.9945234,4.14299353 17.002824,4.65209719 16.9917564,5.18887759 C16.9806887,5.72565799 16.9474863,6.28179841 16.8921481,6.85731553 C16.8368099,7.43283266 16.7482702,8.01387489 16.6265262,8.60045965 C16.5933232,8.7332713 16.5186178,8.83841227 16.4024076,8.91588573 C16.2861974,8.99335919 16.1616884,9.02102787 16.0288767,8.99889259 C15.8960651,8.96568968 15.7909241,8.89098425 15.7134507,8.77477406 C15.6359772,8.65856387 15.6138423,8.53405483 15.6470452,8.40124318 C15.7577215,7.84786133 15.8407276,7.29448778 15.8960658,6.74110592 C15.9514039,6.18772407 15.9818395,5.65648546 15.9873733,5.14737416 C15.9929071,4.63826286 15.9846065,4.15682787 15.9624713,3.70305475 C15.940336,3.24928163 15.9126673,2.83425146 15.8794644,2.45795181 C15.8683968,2.36941071 15.8517955,2.28363781 15.8296603,2.20063053 C15.807525,2.11762325 15.7798563,2.03738409 15.7466534,1.95991063 L11.1978773,6.50868671 L12.8414132,8.15222259 C12.9410219,8.25183133 12.9908256,8.37080664 12.9908256,8.5091521 C12.9908256,8.64749757 12.9410219,8.76093914 12.8414132,8.84948024 C12.7971427,8.90481842 12.7445722,8.94355457 12.6837002,8.96568985 C12.6228282,8.98782512 12.5591902,8.99889259 12.4927844,8.99889259 C12.4263786,8.99889259 12.3627406,8.98782512 12.3018686,8.96568985 C12.2409966,8.94355457 12.1884261,8.90481842 12.1441556,8.84948024 L10.4840183,7.20594436 L9.20571262,8.50085142 L10.8492485,10.1443873 C10.9488572,10.243996 10.9986609,10.3629713 10.9986609,10.5013168 C10.9986609,10.6396623 10.9488572,10.7586376 10.8492485,10.8582463 C10.7939103,10.9025169 10.7358061,10.9384861 10.6749341,10.9661552 C10.6140621,10.9938243 10.5504241,11.0076587 10.4840183,11.0076587 C10.4286801,11.0076587 10.3705759,10.9938243 10.3097039,10.9661552 C10.2488319,10.9384861 10.1907277,10.9025169 10.1353895,10.8582463 Z M6.48308752,9.79575848 L7.77799458,8.50085142 L6.1344587,6.85731553 C6.03484997,6.7577068 5.98504635,6.63873149 5.98504635,6.50038602 C5.98504635,6.36204056 6.03484997,6.24306525 6.1344587,6.14345651 C6.23406743,6.04384778 6.35304275,5.99404416 6.49138821,5.99404416 C6.62973367,5.99404416 6.74870899,6.04384778 6.84831772,6.14345651 L8.4918536,7.7869924 L9.78676066,6.50868671 L8.14322478,4.84854945 C8.04361605,4.76000836 7.99381243,4.64656678 7.99381243,4.50822132 C7.99381243,4.36987585 8.04361605,4.25090054 8.14322478,4.15129181 C8.23176588,4.05168307 8.34520745,4.00187945 8.48355292,4.00187945 C8.62189838,4.00187945 8.74087369,4.05168307 8.84048243,4.15129181 L10.4840183,5.79482769 L15.0327944,1.24605161 C14.9553209,1.2128487 14.8750818,1.18518002 14.7920745,1.16304475 C14.7090672,1.14090947 14.6232943,1.12430827 14.5347532,1.11324063 C13.8374921,1.04683481 13.0184992,1.00809866 12.0777501,0.99703102 C11.1370009,0.985963383 10.1713641,1.06343568 9.18081056,1.22945024 C8.19025705,1.39546479 7.2163196,1.67215157 6.25896899,2.05951886 C5.30161839,2.44688616 4.45772372,3.00579345 3.72725968,3.73625749 C2.99679563,4.46672154 2.43788835,5.3106162 2.05052105,6.26796681 C1.66315375,7.22531741 1.38646698,8.20202173 1.22045242,9.19810906 C1.05443787,10.1941964 0.976965571,11.1598332 0.988033208,12.0950486 C0.999100845,13.0302639 1.03783699,13.8464899 1.10424282,14.543751 C1.11531045,14.6322921 1.13191166,14.718065 1.15404693,14.8010723 C1.17618221,14.8840796 1.20385089,14.9643187 1.2370538,15.0417922 L5.78582988,10.4930161 L4.14229399,8.84948024 C4.04268526,8.76093914 3.99288164,8.64749757 3.99288164,8.5091521 C3.99288164,8.37080664 4.04268526,8.25183133 4.14229399,8.15222259 C4.24190273,8.05261386 4.36087804,8.00281024 4.4992235,8.00281024 C4.63756897,8.00281024 4.75101054,8.05261386 4.83955164,8.15222259 L6.48308752,9.79575848 Z M16.4937152,12.5017822 C16.3498359,12.5017822 16.2308606,12.4519786 16.1367857,12.3523698 C16.0427108,12.2527611 15.995674,12.1365527 15.995674,12.003741 L15.995674,11.5056998 C15.995674,11.3618206 15.9458704,11.2428453 15.8462616,11.1487703 C15.7466529,11.0546954 15.6304445,11.0076587 15.4976328,11.0076587 L14.4849491,11.0076587 C14.0754465,11.0076587 13.7240543,11.1543027 13.4307619,11.447595 C13.1374696,11.7408874 12.9908256,12.0922796 12.9908256,12.5017822 L12.9908256,14.4939469 C12.9908256,14.9145171 13.1374696,15.2714431 13.4307619,15.5647354 C13.7240543,15.8580278 14.0754465,16.0046718 14.4849491,16.0046718 L15.4976328,16.0046718 C15.6304445,16.0046718 15.7466529,15.9548682 15.8462616,15.8552595 C15.9458704,15.7556507 15.995674,15.6394423 15.995674,15.5066306 L15.995674,15.0085895 C15.995674,14.8647102 16.0427108,14.742968 16.1367857,14.6433593 C16.2308606,14.5437505 16.3498359,14.4939469 16.4937152,14.4939469 C16.6265268,14.4939469 16.7427353,14.5437505 16.842344,14.6433593 C16.9419527,14.742968 16.9917564,14.8647102 16.9917564,15.0085895 L16.9917564,15.5066306 C16.9917564,15.9161332 16.8451124,16.2675254 16.55182,16.5608178 C16.2585276,16.8541102 15.9071354,17.0007542 15.4976328,17.0007542 L14.4849491,17.0007542 C13.7987556,17.0007542 13.2121796,16.7572698 12.7252036,16.2702938 C12.2382276,15.7833177 11.9947432,15.191208 11.9947432,14.4939469 L11.9947432,12.5017822 C11.9947432,11.8155887 12.2382276,11.2262459 12.7252036,10.733736 C13.2121796,10.2412262 13.7987556,9.99497495 14.4849491,9.99497495 L15.4976328,9.99497495 C15.9071354,9.99497495 16.2585276,10.1416189 16.55182,10.4349113 C16.8451124,10.7282037 16.9917564,11.0851296 16.9917564,11.5056998 L16.9917564,12.003741 C16.9917564,12.1365527 16.9419527,12.2527611 16.842344,12.3523698 C16.7427353,12.4519786 16.6265268,12.5017822 16.4937152,12.5017822 Z" id="CFB---icomoon"></path>
        </g>
    </g>
</svg>