<?xml version="1.0" encoding="UTF-8" standalone="no"?>
<svg width="17px" height="17px" viewBox="0 0 17 17" version="1.1" xmlns="http://www.w3.org/2000/svg" xmlns:xlink="http://www.w3.org/1999/xlink">
    <!-- Generator: Sketch 42 (36781) - http://www.bohemiancoding.com/sketch -->
    <title>icon-numberfire-nf</title>
    <desc>Created with Sketch.</desc>
    <defs></defs>
    <g id="Icon-Font" stroke="none" stroke-width="1" fill="none" fill-rule="evenodd">
        <g id="icon-numberfire-nf" fill="#000000">
            <path d="M0.430000007,14.2376195 L0.430000007,5.94131526 L2.75553081,5.94131526 L2.75553081,7.1176569 C3.29101488,6.42113882 3.97949439,5.78653346 5.15755934,5.78653346 C6.91700699,5.78653346 7.94207649,6.96287511 7.94207649,8.86669119 L7.94207649,14.2376195 L5.61654568,14.2376195 L5.61654568,9.60964381 C5.61654568,8.49521488 5.09636116,7.92252224 4.20898756,7.92252224 C3.32161397,7.92252224 2.75553081,8.49521488 2.75553081,9.60964381 L2.75553081,14.2376195 L0.430000007,14.2376195 Z M12.4854598,4.8269198 L12.4854598,7.40019299 L16.0978964,7.40019299 L16.0978964,9.58601948 L12.4854598,9.58601948 L12.4854598,14.2376195 L9.63,14.2376195 L9.63,2.5 L16.5749262,2.5 L16.5749262,4.8269198 L12.4854598,4.8269198 Z" id="Combined-Shape"></path>
        </g>
    </g>
</svg>