<?xml version="1.0" encoding="UTF-8" standalone="no"?>
<svg width="17px" height="17px" viewBox="0 0 17 17" version="1.1" xmlns="http://www.w3.org/2000/svg" xmlns:xlink="http://www.w3.org/1999/xlink">
    <!-- Generator: Sketch 42 (36781) - http://www.bohemiancoding.com/sketch -->
    <title>icon-user</title>
    <desc>Created with Sketch.</desc>
    <defs></defs>
    <g id="Icon-Font" stroke="none" stroke-width="1" fill="none" fill-rule="evenodd">
        <g id="icon-user" fill="#000000">
            <g id="Page-1" transform="translate(0.000000, 2.000000)">
                <path d="M11.4610647,9.04211246 C11.2064257,8.95003275 10.8425165,9.03175996 10.6374752,9.20672563 C10.6374752,9.20672563 10.0069284,10 8.5,10 C6.99307163,10 6.36252476,9.20672563 6.36252476,9.20672563 C6.16230787,9.02373258 5.79724236,8.94514797 5.52862058,9.03697524 C5.52862058,9.03697524 3.23184167,9.83301389 2.39884167,10.0346528 C0.981230556,10.3774861 0.19748563,12.5371577 0.19748563,12.5371577 C0.0884173283,12.7930392 0.214942813,13.0004663 0.49044323,13.0004586 L16.5095568,13.0000136 C16.7804211,13.0000061 16.9144633,12.7991073 16.794583,12.5374489 C16.794583,12.5374489 15.8897583,10.217875 14.6010639,10.0346528 C13.8785639,9.93218056 11.4610647,9.04211246 11.4610647,9.04211246 Z" id="Fill-1"></path>
                <path d="M8.54172243,8.99998178 C10.4839724,8.99172285 12.0456113,6.17680282 12.0338058,3.55092062 C12.021528,0.925038421 10.1482224,-0.00684463881 8.5006391,3.78062378e-05 C6.85305577,0.00737908096 4.98825021,0.955321179 5.00005577,3.58120338 C5.01233354,6.20708558 6.59947243,9.00824072 8.54172243,8.99998178" id="Fill-4"></path>
            </g>
        </g>
    </g>
</svg>