<?xml version="1.0" encoding="UTF-8" standalone="no"?>
<svg width="17px" height="17px" viewBox="0 0 17 17" version="1.1" xmlns="http://www.w3.org/2000/svg" xmlns:xlink="http://www.w3.org/1999/xlink">
    <!-- Generator: Sketch 42 (36781) - http://www.bohemiancoding.com/sketch -->
    <title>icon-exclude</title>
    <desc>Created with Sketch.</desc>
    <defs></defs>
    <g id="Icon-Font" stroke="none" stroke-width="1" fill="none" fill-rule="evenodd">
        <g id="icon-exclude" fill-rule="nonzero" fill="#000000">
            <path d="M4.51027625,13.6318594 C5.61158694,14.4892953 6.99615273,15 8.5,15 C12.0898509,15 15,12.0898509 15,8.5 C15,6.99615273 14.4892953,5.61158694 13.6318594,4.51027625 L4.51027625,13.6318594 Z M3.13821702,12.1754915 L12.1754915,3.13821702 C11.1300549,2.42019804 9.8640987,2 8.5,2 C4.91014913,2 2,4.91014913 2,8.5 C2,9.8640987 2.42019804,11.1300549 3.13821702,12.1754915 Z M8.5,17 C3.80557963,17 0,13.1944204 0,8.5 C0,3.80557963 3.80557963,-8.8817842e-16 8.5,-8.8817842e-16 C13.1944204,-8.8817842e-16 17,3.80557963 17,8.5 C17,13.1944204 13.1944204,17 8.5,17 Z" id="Combined-Shape"></path>
        </g>
    </g>
</svg>