<?xml version="1.0" encoding="UTF-8" standalone="no"?>
<svg width="17px" height="17px" viewBox="0 0 17 17" version="1.1" xmlns="http://www.w3.org/2000/svg" xmlns:xlink="http://www.w3.org/1999/xlink">
    <!-- Generator: Sketch 42 (36781) - http://www.bohemiancoding.com/sketch -->
    <title>icon-help</title>
    <desc>Created with Sketch.</desc>
    <defs></defs>
    <g id="Icon-Font" stroke="none" stroke-width="1" fill="none" fill-rule="evenodd">
        <g id="icon-help" fill="#000000">
            <path d="M8.5,17 C3.80557963,17 0,13.1944204 0,8.5 C0,3.80557963 3.80557963,0 8.5,0 C13.1944204,0 17,3.80557963 17,8.5 C17,13.1944204 13.1944204,17 8.5,17 Z M7.70897948,10.3347223 L9.25203504,10.3347223 C9.03814615,8.36388894 11.4214795,7.67638894 11.4214795,5.73611116 C11.4214795,4.07083338 10.2450906,3.20000005 8.59509059,3.20000005 C7.47981282,3.20000005 6.57842393,3.75000005 5.92147948,4.52916671 L6.89925726,5.4305556 C7.34231282,4.94166671 7.84647948,4.63611116 8.47286837,4.63611116 C9.25203504,4.63611116 9.71036837,5.12500005 9.71036837,5.85833338 C9.71036837,7.23333338 7.38814615,8.10416671 7.70897948,10.3347223 Z M7.35759059,12.6111112 C7.35759059,13.2986112 7.84647948,13.8027778 8.48814615,13.8027778 C9.12981282,13.8027778 9.63397948,13.2986112 9.63397948,12.6111112 C9.63397948,11.9236112 9.12981282,11.4194445 8.48814615,11.4194445 C7.84647948,11.4194445 7.35759059,11.9236112 7.35759059,12.6111112 Z" id="Combined-Shape"></path>
        </g>
    </g>
</svg>