<?xml version="1.0" encoding="UTF-8" standalone="no"?>
<svg width="17px" height="17px" viewBox="0 0 17 17" version="1.1" xmlns="http://www.w3.org/2000/svg" xmlns:xlink="http://www.w3.org/1999/xlink">
    <!-- Generator: Sketch 42 (36781) - http://www.bohemiancoding.com/sketch -->
    <title>icon-dome</title>
    <desc>Created with Sketch.</desc>
    <defs></defs>
    <g id="Icon-Font" stroke="none" stroke-width="1" fill="none" fill-rule="evenodd">
        <g id="icon-dome" fill="#000000">
            <g id="Page-1" transform="translate(-0.750000, 3.000000)">
                <path d="M11.8681459,1.22556216 C14.0969838,1.75945405 15.8332811,2.94899459 16.4103622,4.38342703 C15.7854973,4.72158919 14.8670378,5.09834595 13.5851459,5.38183243 C13.4266324,3.68321081 12.7921189,2.20053514 11.8681459,1.22556216 Z M4.10794404,7.12665069 C3.91025701,7.05670345 3.75,6.82581329 3.75,6.59326172 L3.75,6.74765778 C3.75,6.33473779 4.06220821,6.12261963 4.4529161,6.25752485 C4.4529161,6.25752485 6.02045946,7 9.25,7 C12.48,7 14.2940608,6.17418671 14.2940608,6.17418671 C14.5458691,6.07798604 14.75,6.23193359 14.75,6.5 L14.75,6.59326172 C14.75,6.81789707 14.5873209,7.05955982 14.3798848,7.13073254 C14.3798848,7.13073254 12.1795135,8 9.25,8 C6.32094595,8 4.10794404,7.12665069 4.10794404,7.12665069 Z M4.95328108,5.38091351 C3.67184865,5.09696757 2.75338919,4.71975135 2.12898378,4.38112973 C2.70744324,2.94761622 4.4464973,1.75945405 6.67441622,1.22556216 C5.75044324,2.20053514 5.11317297,3.68229189 4.95328108,5.38091351 Z M12.6855243,5.55275135 C11.7211189,5.70850811 10.5972811,5.81050811 9.27128108,5.81050811 C7.9462,5.81050811 6.82282162,5.70850811 5.85841622,5.55275135 C6.07574054,2.98299459 7.54692973,0.919102703 9.27128108,0.919102703 C10.9956324,0.919102703 12.4686595,2.98253514 12.6855243,5.55275135 Z M17.1951189,3.88583243 C16.1866054,1.64091351 13.0259838,0.000183783784 9.27128108,0.000183783784 C5.51703784,0.000183783784 2.35641622,1.64045405 1.34744324,3.88491351 C0.924671111,3.54628322 0.75,4 0.75,4 L1.15121609,8.0121609 C1.20577294,8.55772937 1.6523668,9.17748666 2.16889073,9.39036795 C2.16889073,9.39036795 5.52424324,11 9.25,11 C12.9748378,11 16.3309508,9.39036795 16.3309508,9.39036795 C16.8385276,9.17477369 17.2943717,8.55628335 17.3487839,8.0121609 L17.75,4 C17.75,4 17.53811,3.57463288 17.1951189,3.88583243 Z" id="Fill-1"></path>
            </g>
        </g>
    </g>
</svg>