<?xml version="1.0" encoding="UTF-8"?>
<svg width="17px" height="17px" viewBox="0 0 17 17" version="1.1" xmlns="http://www.w3.org/2000/svg" xmlns:xlink="http://www.w3.org/1999/xlink">
    <!-- Generator: Sketch 45.2 (43514) - http://www.bohemiancoding.com/sketch -->
    <title>Icon/Stadium</title>
    <desc>Created with Sketch.</desc>
    <defs></defs>
    <g id="Symbols" stroke="none" stroke-width="1" fill="none" fill-rule="evenodd">
        <g id="Icon/Stadium" fill="#000000">
            <g id="stadium" transform="translate(0.000000, 1.000000)">
                <path d="M0.19800464,8.18802784 L0.0861953197,7.51717192 L0.479587511,7.21932134 C0.684418845,7.31027397 0.889250179,7.39774237 1.09408151,7.48172654 L1.28587743,8.63250205 C0.923051573,8.49472304 0.560422319,8.34656075 0.19800464,8.18802784 Z M1.90409741,12.3418219 C4.11680088,13.4501408 6.31233376,14 8.5,14 C10.6876662,14 12.8831991,13.4501408 15.0959026,12.3418219 L15.7141226,8.63250205 C13.3165596,9.54294938 10.9104119,10 8.5,10 C6.08958811,10 3.68344037,9.54294938 1.28587743,8.63250205 L1.90409741,12.3418219 Z M0,7 C2.83333333,8.33333333 5.66666667,9 8.5,9 C11.3333333,9 14.1666667,8.33333333 17,7 L16.0822965,12.5062209 C16.0297405,12.8215572 15.8295861,13.0927598 15.543752,13.235931 C13.1958346,14.411977 10.8479173,15 8.5,15 C6.15208268,15 3.80416535,14.411977 1.45624803,13.235931 C1.17041392,13.0927598 0.970259538,12.8215572 0.917703489,12.5062209 L0,7 Z" id="Rectangle-7-Copy" fill-rule="nonzero"></path>
                <path d="M12.5,11 L12.5,11 L12.5,11 C12.7761424,11 13,11.2238576 13,11.5 L13,14 L12,14 L12,11.5 L12,11.5 C12,11.2238576 12.2238576,11 12.5,11 Z" id="Rectangle-10"></path>
                <path d="M4.5,11 L4.5,11 L4.5,11 C4.77614237,11 5,11.2238576 5,11.5 L5,14 L4,14 L4,11.5 L4,11.5 C4,11.2238576 4.22385763,11 4.5,11 Z" id="Rectangle-10-Copy"></path>
                <path d="M8.5,11 L8.5,11 L8.5,11 C9.32842712,11 10,11.6715729 10,12.5 L10,14 C9.34835209,14.2724402 8.86157172,14.4086603 8.53965892,14.4086603 C8.21774611,14.4086603 7.70452647,14.2724402 7,14 L7,12.5 L7,12.5 C7,11.6715729 7.67157288,11 8.5,11 Z" id="Rectangle-10-Copy-2"></path>
                <path d="M11.3657527,8.38802313 C10.6366771,8.14499792 9.60823636,8 8.5,8 C7.39176364,8 6.36332286,8.14499792 5.63424725,8.38802313 C5.52480112,8.42450517 5.42547785,8.46219383 5.33732226,8.5 C5.42547785,8.53780617 5.52480112,8.57549483 5.63424725,8.61197687 C6.36332286,8.85500208 7.39176364,9 8.5,9 C9.60823636,9 10.6366771,8.85500208 11.3657527,8.61197687 C11.4751989,8.57549483 11.5745222,8.53780617 11.6626777,8.5 C11.5745222,8.46219383 11.4751989,8.42450517 11.3657527,8.38802313 Z M8.5,10 C6.01471863,10 4,9.32842712 4,8.5 C4,7.67157288 6.01471863,7 8.5,7 C10.9852814,7 13,7.67157288 13,8.5 C13,9.32842712 10.9852814,10 8.5,10 Z" id="Oval-4-Copy-5" fill-rule="nonzero"></path>
                <path d="M8.5,9 C12.6604745,9 16,7.82134395 16,7 C16,6.17865605 12.6604745,5 8.5,5 C4.33952549,5 1,6.17865605 1,7 C1,7.82134395 4.33952549,9 8.5,9 Z M8.5,10 C3.80557963,10 0,8.65685425 0,7 C0,5.34314575 3.80557963,4 8.5,4 C13.1944204,4 17,5.34314575 17,7 C17,8.65685425 13.1944204,10 8.5,10 Z" id="Oval-4-Copy-2" fill-rule="nonzero"></path>
                <polygon id="Rectangle-11" points="4 1 5 2 5 5 4 5"></polygon>
                <polygon id="Rectangle-11-Copy-2" points="4 1 7 2 4 3"></polygon>
                <polygon id="Rectangle-11-Copy-5" points="12 1 13 2 13 5 12 5"></polygon>
                <polygon id="Rectangle-11-Copy-4" points="12 1 15 2 12 3"></polygon>
                <polygon id="Rectangle-11-Copy-3" points="8 0 11 1 8 2"></polygon>
                <polygon id="Rectangle-11-Copy" points="8 0 9 1 9 5 8 5"></polygon>
            </g>
        </g>
    </g>
</svg>