<?xml version="1.0" encoding="UTF-8" standalone="no"?>
<svg width="17px" height="17px" viewBox="0 0 17 17" version="1.1" xmlns="http://www.w3.org/2000/svg" xmlns:xlink="http://www.w3.org/1999/xlink">
    <!-- Generator: Sketch 42 (36781) - http://www.bohemiancoding.com/sketch -->
    <title>icon-soccer</title>
    <desc>Created with Sketch.</desc>
    <defs></defs>
    <g id="Icon-Font" stroke="none" stroke-width="1" fill="none" fill-rule="evenodd">
        <g id="icon-soccer" fill="#000000">
            <path d="M8.5,0 C9.67318295,0 10.7771758,0.221351953 11.8120117,0.6640625 C12.8468476,1.10677305 13.7488568,1.71272402 14.5180664,2.48193359 C15.287276,3.25114317 15.893227,4.15315238 16.3359375,5.18798828 C16.778648,6.22282418 17,7.32681705 17,8.5 C17,9.67318295 16.778648,10.7771758 16.3359375,11.8120117 C15.893227,12.8468476 15.287276,13.7488568 14.5180664,14.5180664 C13.7488568,15.287276 12.8468476,15.893227 11.8120117,16.3359375 C10.7771758,16.778648 9.67318295,17 8.5,17 C7.32681705,17 6.22282418,16.778648 5.18798828,16.3359375 C4.15315238,15.893227 3.25114317,15.287276 2.48193359,14.5180664 C1.71272402,13.7488568 1.10677305,12.8468476 0.6640625,11.8120117 C0.221351953,10.7771758 0,9.67318295 0,8.5 C0,7.32681705 0.221351953,6.22282418 0.6640625,5.18798828 C1.10677305,4.15315238 1.71272402,3.25114317 2.48193359,2.48193359 C3.25114317,1.71272402 4.15315238,1.10677305 5.18798828,0.6640625 C6.22282418,0.221351953 7.32681705,0 8.5,0 Z M13.5800781,3.00488281 C13.3587229,2.80566307 13.1290702,2.61751391 12.8911133,2.44042969 C12.6531564,2.26334547 12.4069023,2.1028653 12.1523438,1.95898438 L12.3847656,2.72265625 C12.4069012,2.81119836 12.4539384,2.88037084 12.5258789,2.93017578 C12.5978194,2.97998072 12.6780595,3.00488281 12.7666016,3.00488281 L13.5800781,3.00488281 Z M5.62792969,3.02148438 C5.60579416,3.08789096 5.57812517,3.15152964 5.54492188,3.21240234 C5.51171858,3.27327504 5.47851579,3.33137993 5.4453125,3.38671875 L6.60742188,5.08007812 C6.68489622,5.0579426 6.7623694,5.0385743 6.83984375,5.02197266 C6.9173181,5.00537101 6.99479128,4.99707031 7.07226562,4.99707031 L9.92773438,4.99707031 C10.0052087,4.99707031 10.0826819,5.00537101 10.1601562,5.02197266 C10.2376306,5.0385743 10.3151038,5.0579426 10.3925781,5.08007812 L11.5878906,3.33691406 C11.5546873,3.29264301 11.5242514,3.24283882 11.496582,3.1875 C11.4689126,3.13216118 11.4495443,3.07682319 11.4384766,3.02148438 L10.9404297,1.41113281 C10.553058,1.27831965 10.1573913,1.17594437 9.75341797,1.10400391 C9.34944459,1.03206344 8.93164278,0.99609375 8.5,0.99609375 C8.09049274,0.99609375 7.68652543,1.02929654 7.28808594,1.09570312 C6.88964645,1.16210971 6.50228053,1.26171809 6.12597656,1.39453125 L5.62792969,3.02148438 Z M10.4091797,6.35839844 C10.3759764,6.2477208 10.3151046,6.15918002 10.2265625,6.09277344 C10.1380204,6.02636686 10.038412,5.99316406 9.92773438,5.99316406 L7.07226563,5.99316406 C6.96158799,5.99316406 6.86197961,6.02636686 6.7734375,6.09277344 C6.68489539,6.15918002 6.6240236,6.2477208 6.59082031,6.35839844 L5.67773438,9.31347656 C5.65559885,9.41308644 5.65836575,9.51269481 5.68603516,9.61230469 C5.71370457,9.71191456 5.77180945,9.78938774 5.86035156,9.84472656 L8.20117188,11.6376953 C8.28971398,11.7041019 8.38932236,11.7373047 8.5,11.7373047 C8.61067764,11.7373047 8.71028602,11.7041019 8.79882812,11.6376953 L11.1396484,9.84472656 C11.2281905,9.78938774 11.2862954,9.71191456 11.3139648,9.61230469 C11.3416343,9.51269481 11.3444012,9.41308644 11.3222656,9.31347656 L10.4091797,6.35839844 Z M4.9140625,1.90917969 C4.64843617,2.06412838 4.38834763,2.23290924 4.13378906,2.41552734 C3.8792305,2.59814544 3.64127715,2.7945953 3.41992188,3.00488281 L4.29980469,3.00488281 C4.3883468,3.00488281 4.46581998,2.97998072 4.53222656,2.93017578 C4.59863314,2.88037084 4.64290354,2.81119836 4.66503906,2.72265625 L4.9140625,1.90917969 Z M2.09179688,12.3681641 L2.49023438,11.0898438 C2.5123699,11.0123694 2.509603,10.9348962 2.48193359,10.8574219 C2.45426418,10.7799475 2.40722689,10.7190757 2.34082031,10.6748047 L1.11230469,9.72851562 C1.18977903,10.2044295 1.31152261,10.6637348 1.47753906,11.1064453 C1.64355552,11.5491559 1.84830607,11.9697246 2.09179688,12.3681641 Z M1.01269531,8.38378906 L2.95507812,9.87792969 L3.08789062,10.0107422 L4.66503906,9.46289062 C4.66503906,9.38541628 4.67057286,9.31071 4.68164062,9.23876953 C4.69270839,9.16682907 4.70930979,9.09212278 4.73144531,9.01464844 L5.64453125,6.05957031 C5.66666678,5.99316373 5.69156887,5.92952504 5.71923828,5.86865234 C5.74690769,5.80777964 5.78287738,5.74967476 5.82714844,5.69433594 L4.61523438,3.95117188 C4.57096332,3.96223964 4.52115913,3.97330724 4.46582031,3.984375 C4.41048149,3.99544276 4.35514351,4.00097656 4.29980469,4.00097656 L2.50683594,4.00097656 C2.05305763,4.60970356 1.6933607,5.28759392 1.42773438,6.03466797 C1.16210805,6.78174202 1.02376308,7.56477455 1.01269531,8.38378906 Z M2.82226562,13.3808594 C3.24284064,13.8789087 3.72428114,14.3133119 4.26660156,14.684082 C4.80892198,15.0548521 5.38997086,15.3509104 6.00976562,15.5722656 L7.68652344,14.2773438 C7.74186226,14.2441405 7.79720024,14.2137046 7.85253906,14.1860352 C7.90787788,14.1583657 7.96321587,14.1334637 8.01855469,14.1113281 C8.01855469,14.0891926 8.01578779,14.0698243 8.01025391,14.0532227 C8.00472002,14.036621 8.00195312,14.0172527 8.00195312,13.9951172 L8.00195312,12.6503906 C7.92447878,12.6282551 7.85253939,12.5978192 7.78613281,12.559082 C7.71972623,12.5203449 7.65332064,12.4788414 7.58691406,12.4345703 L5.24609375,10.6416016 C5.2018227,10.6083983 5.1603192,10.5696617 5.12158203,10.5253906 C5.08284486,10.4811196 5.04687517,10.442383 5.01367188,10.4091797 L3.48632812,10.9238281 C3.49739589,11.0013025 3.49739589,11.0787757 3.48632812,11.15625 C3.47526036,11.2337243 3.45865896,11.3111975 3.43652344,11.3886719 L2.82226562,13.3808594 Z M8.5,16.0039062 C8.72135527,16.0039062 8.94270723,15.9928387 9.1640625,15.9707031 C9.38541777,15.9485676 9.60123593,15.9153648 9.81152344,15.8710938 L8.765625,15.0742188 C8.69921842,15.0299477 8.62174523,15.0078125 8.53320312,15.0078125 C8.44466102,15.0078125 8.36165403,15.0299477 8.28417969,15.0742188 L7.23828125,15.8876953 C7.44856876,15.9208986 7.65885312,15.9485676 7.86914062,15.9707031 C8.07942813,15.9928387 8.28971249,16.0039062 8.5,16.0039062 Z M11.0234375,15.5556641 C11.6543,15.323241 12.2408827,15.0188821 12.7832031,14.6425781 C13.3255235,14.2662742 13.806964,13.8291041 14.2275391,13.3310547 L13.6132812,11.3886719 C13.5911457,11.3111975 13.5773112,11.2364912 13.5717773,11.1645508 C13.5662435,11.0926103 13.5634766,11.017904 13.5634766,10.9404297 L11.9863281,10.4091797 C11.9531248,10.442383 11.9171551,10.4811196 11.878418,10.5253906 C11.8396808,10.5696617 11.7981773,10.6083983 11.7539062,10.6416016 L9.41308594,12.4345703 C9.34667936,12.4788414 9.28027377,12.5203449 9.21386719,12.559082 C9.14746061,12.5978192 9.07552122,12.6282551 8.99804688,12.6503906 L8.99804688,13.9951172 C8.99804688,14.0172527 8.99527998,14.0338541 8.98974609,14.0449219 C8.98421221,14.0559896 8.98144531,14.0670572 8.98144531,14.078125 C9.04785189,14.1002605 9.11425748,14.1279295 9.18066406,14.1611328 C9.24707064,14.1943361 9.31347623,14.2330727 9.37988281,14.2773438 L11.0234375,15.5556641 Z M14.1113281,9.87792969 L16.0039062,8.43359375 C15.9928385,7.60351147 15.8544935,6.81217824 15.5888672,6.05957031 C15.3232409,5.30696238 14.9580101,4.62077133 14.4931641,4.00097656 L12.7666016,4.00097656 C12.700195,4.00097656 12.6337894,3.99544276 12.5673828,3.984375 C12.5009762,3.97330724 12.4401044,3.95670584 12.3847656,3.93457031 L11.1728516,5.69433594 C11.2171226,5.74967476 11.2530923,5.80777964 11.2807617,5.86865234 C11.3084311,5.92952504 11.3333332,5.99316373 11.3554688,6.05957031 L12.2685547,9.01464844 C12.2906902,9.09212278 12.3072916,9.16682907 12.3183594,9.23876953 C12.3294271,9.31071 12.3349609,9.38541628 12.3349609,9.46289062 L13.9619141,10.0273438 C13.9840496,9.99414046 14.0061848,9.96647146 14.0283203,9.94433594 C14.0504558,9.92220041 14.0781248,9.90006521 14.1113281,9.87792969 Z M14.9414063,12.3017578 C15.1738293,11.9254538 15.3702791,11.5242534 15.5307617,11.0981445 C15.6912443,10.6720356 15.810221,10.2320986 15.8876953,9.77832031 L14.7089844,10.6748047 C14.6425778,10.7190757 14.5983074,10.7799475 14.5761719,10.8574219 C14.5540363,10.9348962 14.5540363,11.0123694 14.5761719,11.0898438 L14.9414063,12.3017578 Z" id="SOC---icomoon"></path>
        </g>
    </g>
</svg>