<?xml version="1.0" encoding="UTF-8" standalone="no"?>
<svg width="17px" height="17px" viewBox="0 0 17 17" version="1.1" xmlns="http://www.w3.org/2000/svg" xmlns:xlink="http://www.w3.org/1999/xlink">
    <!-- Generator: Sketch 42 (36781) - http://www.bohemiancoding.com/sketch -->
    <title>icon-cc-american</title>
    <desc>Created with Sketch.</desc>
    <defs></defs>
    <g id="Icon-Font" stroke="none" stroke-width="1" fill="none" fill-rule="evenodd">
        <g id="icon-cc-american" fill="#000000">
            <path d="M14.8229376,8.31781377 C14.8028168,8.31781377 14.7826963,8.32287444 14.7625755,8.33299595 L14.7022133,8.36336032 C14.6820925,8.37348183 14.6670021,8.38360319 14.6569416,8.3937247 L14.6418511,8.40890688 L14.6418511,8.25708502 L13.555332,8.25708502 C13.5352112,8.25708502 13.5050304,8.2621457 13.4647887,8.27226721 C13.4245471,8.28238871 13.3893362,8.28744939 13.3591549,8.28744939 L13.2686117,8.28744939 C13.2384304,8.28744939 13.2032195,8.29757075 13.1629779,8.31781377 L13.1177062,8.33299595 C13.087525,8.34311746 13.0674045,8.35323882 13.0573441,8.36336032 C13.0472837,8.37348183 13.0321933,8.38360319 13.0120724,8.3937247 L12.9818913,8.40890688 L12.9818913,8.25708502 L10.9295775,8.25708502 L10.9295775,8.40890688 L10.9144869,8.3937247 C10.9044265,8.38360319 10.8893361,8.37348183 10.8692153,8.36336032 C10.8490945,8.35323882 10.8289739,8.34817814 10.8088531,8.34817814 C10.7887323,8.34817814 10.7686118,8.33805678 10.7484909,8.31781377 C10.7283701,8.31781377 10.7032195,8.31275309 10.6730382,8.30263158 C10.642857,8.29251007 10.6126762,8.28744939 10.582495,8.28744939 L10.4919517,8.28744939 C10.4617705,8.28744939 10.4366198,8.27732804 10.416499,8.25708502 L9.02816901,8.25708502 L9.02816901,8.40890688 C9.00804819,8.38866387 8.98792767,8.37348183 8.96780684,8.36336032 C8.94768602,8.35323882 8.92253536,8.34311746 8.89235412,8.33299595 C8.86217289,8.32287444 8.83702223,8.31275309 8.81690141,8.30263158 C8.79678058,8.29251007 8.77666006,8.28744939 8.75653924,8.28744939 L8.56036217,8.28744939 C8.53018094,8.28744939 8.50000015,8.28238871 8.46981891,8.27226721 C8.43963768,8.2621457 8.41448702,8.25708502 8.3943662,8.25708502 L6.94567404,8.25708502 L6.58350101,8.62145749 L6.25150905,8.25708502 L3.98792757,8.25708502 L3.98792757,10.7165992 L6.22132797,10.7165992 L6.58350101,10.3522267 L6.91549296,10.7165992 L8.27364185,10.7165992 L8.27364185,10.1396761 L8.72635815,10.1396761 C8.74647897,10.1194331 8.77162963,10.1093117 8.80181087,10.1093117 C8.8319921,10.1093117 8.86217289,10.1042511 8.89235412,10.0941296 C8.92253536,10.084008 8.94265589,10.0738867 8.9527163,10.0637652 L8.96780684,10.048583 L8.96780684,10.7165992 L10.1146881,10.7165992 L10.1146881,10.0789474 L10.2052314,10.0789474 C10.2253522,10.0789474 10.2354125,10.084008 10.2354125,10.0941296 L10.2354125,10.7165992 L13.7967807,10.7165992 C13.8571432,10.7165992 13.9175047,10.7115385 13.9778672,10.701417 C14.0382297,10.6912955 14.088531,10.6761135 14.1287726,10.6558704 C14.1690143,10.6356274 14.1941649,10.6153847 14.2042254,10.5951417 L14.2193159,10.5647773 L14.2193159,10.7165992 L15.471831,10.7165992 C15.522133,10.7165992 15.5674042,10.7115385 15.6076459,10.701417 C15.6478875,10.6912955 15.6931587,10.6811741 15.7434608,10.6710526 C15.7937628,10.6609311 15.839034,10.6457491 15.8792757,10.6255061 L15.8792757,16 L1,16 L1,7.68016194 L1.75452716,7.68016194 L1.9054326,7.2854251 L2.26760563,7.2854251 L2.41851107,7.68016194 L3.83702213,7.68016194 L3.83702213,7.40688259 L3.95774648,7.68016194 L4.71227364,7.68016194 L4.83299799,7.40688259 L4.83299799,7.68016194 L8.33400402,7.68016194 L8.33400402,7.04251012 L8.3943662,7.04251012 C8.41448702,7.04251012 8.42957741,7.0475708 8.43963783,7.05769231 C8.44969824,7.06781382 8.45472837,7.07793517 8.45472837,7.08805668 L8.45472837,7.68016194 L10.2655936,7.68016194 L10.2655936,7.52834008 L10.2806841,7.54352227 C10.2907445,7.55364378 10.310865,7.56376513 10.3410463,7.57388664 C10.3712275,7.58400815 10.3963782,7.5941295 10.416499,7.60425101 C10.4366198,7.61437252 10.4567403,7.6194332 10.4768612,7.6194332 C10.5372236,7.63967621 10.6026153,7.65485825 10.6730382,7.66497976 C10.7434611,7.67510127 10.8138829,7.68016194 10.8843058,7.68016194 L11.6841046,7.68016194 L11.8651911,7.2854251 L12.2273642,7.2854251 L12.3782696,7.68016194 L13.8269618,7.68016194 L13.8269618,7.31578947 L14.0684105,7.68016194 L15.2454728,7.68016194 L15.2454728,5.25101215 L14.0684105,5.25101215 L14.0684105,5.5242915 L13.917505,5.25101215 L12.7102616,5.25101215 L12.7102616,5.5242915 L12.5895372,5.25101215 L10.7032193,5.25101215 C10.6730381,5.25101215 10.6428573,5.25607282 10.6126761,5.26619433 C10.5824948,5.27631584 10.5573442,5.28137652 10.5372233,5.28137652 L10.4768612,5.28137652 C10.4567403,5.30161953 10.4315897,5.31680157 10.4014085,5.32692308 C10.3712272,5.33704459 10.3460766,5.34716594 10.3259557,5.35728745 C10.3058349,5.36740896 10.2907445,5.37246964 10.2806841,5.37246964 L10.2655936,5.37246964 L10.2655936,5.25101215 L9.14889336,5.25101215 L9.14889336,5.37246964 L9.02816901,5.31174089 C8.98792736,5.29149787 8.94265619,5.27631584 8.89235412,5.26619433 C8.84205206,5.25607282 8.78672062,5.25101215 8.72635815,5.25101215 L4.62173038,5.25101215 L4.31991952,5.8582996 L4.04828974,5.25101215 L2.7806841,5.25101215 L2.7806841,5.5242915 L2.62977867,5.25101215 L1.54325956,5.25101215 L1.03018109,6.4048583 L1,6.46558704 L1,1 L15.8792757,1 L15.8792757,8.25708502 L15.2605634,8.25708502 C15.2102613,8.25708502 15.15996,8.2621457 15.1096579,8.27226721 C15.0593559,8.28238871 15.0090546,8.28744939 14.9587525,8.28744939 C14.9084505,8.28744939 14.8631793,8.29757075 14.8229376,8.31781377 Z M7.21730382,5.94939271 L6.25150905,5.94939271 L6.25150905,6.25303644 L7.21730382,6.25303644 L7.21730382,6.64777328 L6.25150905,6.64777328 L6.25150905,6.98178138 L7.21730382,6.98178138 L7.21730382,7.34615385 L5.82897384,7.34615385 L5.82897384,5.58502024 L7.21730382,5.58502024 L7.21730382,5.94939271 Z M9.87323944,5.58502024 L9.87323944,7.34615385 L9.45070423,7.34615385 L9.45070423,5.58502024 L9.87323944,5.58502024 Z M5.52716298,5.58502024 L5.52716298,7.34615385 L5.10462777,7.34615385 L5.10462777,6.01012146 L4.83299799,6.55668016 L4.50100604,7.34615385 L4.10865191,7.34615385 L3.89738431,6.82995951 L3.50503018,5.97975709 L3.50503018,7.34615385 L2.65995976,7.34615385 L2.50905433,6.951417 L1.63380282,6.951417 L1.48289738,7.31578947 L1.4527163,7.34615385 L1,7.34615385 L1.75452716,5.58502024 L2.38832998,5.58502024 L2.53923541,5.94939271 L3.05231388,7.16396761 L3.08249497,7.25506073 L3.08249497,5.58502024 L3.77665996,5.58502024 L4.16901408,6.43522267 L4.31991952,6.76923077 L4.71227364,5.88866397 L4.83299799,5.58502024 L5.52716298,5.58502024 Z M1.78470825,6.58704453 L2.32796781,6.58704453 L2.23742455,6.28340081 L2.05633803,5.91902834 L1.81488934,6.52631579 L1.78470825,6.58704453 Z M10.6277666,6.10121457 C10.6076458,6.10121457 10.5975855,6.10627525 10.5975855,6.11639676 C10.5975855,6.12651827 10.5925554,6.13663963 10.582495,6.14676113 C10.5724346,6.15688264 10.5623743,6.17206468 10.5523139,6.19230769 L10.5372233,6.22267206 C10.5372233,6.2631581 10.5321932,6.30364352 10.5221328,6.34412955 C10.5120724,6.38461559 10.5070423,6.42510101 10.5070423,6.46558704 C10.5070423,6.50607308 10.5120724,6.5465585 10.5221328,6.58704453 C10.5321932,6.62753057 10.5372233,6.66801599 10.5372233,6.70850202 C10.5372233,6.72874504 10.5472836,6.75404843 10.5674044,6.78441296 C10.5875253,6.81477748 10.6026156,6.84008087 10.6126761,6.86032389 C10.6227365,6.8805669 10.6378269,6.89574894 10.6579477,6.90587045 C10.6780685,6.91599195 10.698189,6.93117399 10.7183099,6.951417 C10.7585515,6.951417 10.7937624,6.95647768 10.8239437,6.96659919 C10.8541249,6.9767207 10.8843057,6.98178138 10.9144869,6.98178138 L11.110664,6.98178138 C11.110664,6.96153836 11.1156941,6.93623497 11.1257545,6.90587045 C11.1358149,6.87550592 11.1509053,6.84514185 11.1710262,6.81477733 C11.191147,6.7844128 11.2012072,6.75910941 11.2012072,6.7388664 L11.2012072,6.70850202 L11.6841046,5.58502024 L12.3179074,5.58502024 L13.0120724,7.22469636 L13.0422535,6.70850202 L13.0422535,5.58502024 L13.6760563,5.58502024 L13.7364185,5.70647773 L14.0382294,6.19230769 L14.1287726,6.31376518 L14.4004024,6.79959514 L14.4004024,5.58502024 L14.8229376,5.58502024 L14.8229376,7.34615385 L14.249497,7.34615385 L13.4346076,6.04048583 L13.4346076,7.34615385 L12.5895372,7.34615385 L12.4386318,6.951417 L11.5633803,6.951417 L11.4124748,7.34615385 L10.7334004,7.34615385 C10.7032192,7.34615385 10.6730384,7.34109317 10.6428571,7.33097166 C10.6126759,7.32085015 10.5875253,7.3107288 10.5674044,7.30060729 C10.5472836,7.29048578 10.5271631,7.2854251 10.5070423,7.2854251 L10.3863179,7.22469636 C10.3460763,7.20445334 10.3158955,7.17914995 10.2957746,7.14878543 C10.2756538,7.1184209 10.2505032,7.08805683 10.2203219,7.05769231 C10.1901407,7.02732778 10.1750503,6.99190304 10.1750503,6.951417 C10.1549295,6.93117399 10.1398391,6.9058706 10.1297787,6.87550607 L10.0995976,6.78441296 C10.0895372,6.75404843 10.084507,6.72368436 10.084507,6.69331984 L10.084507,6.298583 C10.084507,6.26821847 10.0895372,6.2378544 10.0995976,6.20748988 C10.109658,6.17712535 10.1197183,6.15182196 10.1297787,6.13157895 C10.1398391,6.11133593 10.1448692,6.08097186 10.1448692,6.04048583 C10.16499,6.02024281 10.1800804,5.99493942 10.1901408,5.9645749 C10.2002013,5.93421037 10.2152916,5.90384631 10.2354125,5.87348178 C10.2555333,5.84311726 10.280684,5.81781387 10.3108652,5.79757085 C10.3410464,5.77732783 10.3661971,5.75708512 10.3863179,5.73684211 C10.3863179,5.71659909 10.3963782,5.70141705 10.416499,5.69129555 C10.4366198,5.68117404 10.4517102,5.67611336 10.4617706,5.67611336 C10.471831,5.67611336 10.4818913,5.67105268 10.4919517,5.66093117 C10.5020121,5.65080967 10.5171025,5.64574899 10.5372233,5.64574899 C10.577465,5.62550597 10.6227362,5.61032394 10.6730382,5.60020243 C10.7233403,5.59008092 10.7686115,5.58502024 10.8088531,5.58502024 L11.3521127,5.58502024 L11.3521127,5.97975709 L11.2917505,5.9645749 C11.2515089,5.95445339 11.2062377,5.94939271 11.1559356,5.94939271 C11.1056336,5.94939271 11.0553322,5.95445339 11.0050302,5.9645749 C10.9547281,5.97469641 10.9094569,5.97975709 10.8692153,5.97975709 C10.8490945,5.97975709 10.8239438,5.98481776 10.7937626,5.99493927 C10.7635813,6.00506078 10.7384307,6.01012146 10.7183099,6.01012146 C10.698189,6.01012146 10.6830986,6.02024281 10.6730382,6.04048583 C10.6629778,6.06072885 10.6478874,6.08097156 10.6277666,6.10121457 Z M11.7746479,6.43522267 L11.7142857,6.58704453 L12.2877264,6.58704453 L12.2273642,6.43522267 L12.1368209,6.25303644 L12.0160966,5.91902834 L11.9255533,6.0708502 L11.7746479,6.43522267 Z M9.17907445,6.22267206 C9.17907445,6.2631581 9.16901419,6.29858284 9.14889336,6.32894737 C9.12877254,6.35931189 9.10865201,6.38461528 9.08853119,6.4048583 C9.06841036,6.42510132 9.04325971,6.44534403 9.01307847,6.46558704 C8.98289723,6.48583006 8.95774658,6.50607277 8.93762575,6.52631579 L8.98289738,6.57186235 C8.9929578,6.58198386 9.00301806,6.58704453 9.01307847,6.58704453 C9.02313888,6.58704453 9.03822928,6.59716589 9.0583501,6.61740891 L9.13380282,6.69331984 C9.14386323,6.70344135 9.15392349,6.71862338 9.1639839,6.7388664 C9.17404432,6.75910941 9.17907445,6.77935213 9.17907445,6.79959514 L9.17907445,6.96659919 C9.17907445,7.03744975 9.18410458,7.09817788 9.19416499,7.14878543 C9.2042254,7.19939297 9.2042254,7.24493907 9.19416499,7.2854251 L9.17907445,7.34615385 L8.75653924,7.34615385 L8.75653924,6.86032389 C8.73641841,6.86032389 8.72635815,6.85526321 8.72635815,6.8451417 C8.72635815,6.83502019 8.72132802,6.82489884 8.71126761,6.81477733 L8.66599598,6.76923077 C8.64587515,6.76923077 8.62575463,6.76417009 8.6056338,6.75404858 C8.58551298,6.74392707 8.56036232,6.73380572 8.53018109,6.72368421 C8.49999985,6.7135627 8.4748492,6.70850202 8.45472837,6.70850202 L7.9416499,6.70850202 L7.9416499,7.34615385 L7.51911469,7.34615385 L7.51911469,5.58502024 L8.68108652,5.58502024 C8.71126776,5.58502024 8.74144854,5.59008092 8.77162978,5.60020243 C8.80181102,5.61032394 8.82696167,5.61538462 8.84708249,5.61538462 C8.86720332,5.61538462 8.8973841,5.62550597 8.93762575,5.64574899 C8.95774658,5.64574899 8.9778671,5.65080967 8.99798793,5.66093117 C9.01810875,5.67105268 9.03822928,5.68623472 9.0583501,5.70647773 C9.07847093,5.72672075 9.09356132,5.74696346 9.10362173,5.76720648 C9.11368214,5.78744949 9.12877254,5.80769221 9.14889336,5.82793522 C9.16901419,5.84817824 9.18410458,5.87854231 9.19416499,5.91902834 C9.2042254,5.95951437 9.20925553,5.99493912 9.20925553,6.02530364 L9.20925553,6.11639676 C9.20925553,6.14676129 9.19919527,6.18218603 9.17907445,6.22267206 Z M8.66599598,6.31376518 C8.6861168,6.29352217 8.70120719,6.26821878 8.71126761,6.23785425 L8.74144869,6.14676113 C8.7515091,6.11639661 8.74647897,6.08603254 8.72635815,6.05566802 C8.70623732,6.02530349 8.6861168,6.0000001 8.66599598,5.97975709 L8.63581489,5.97975709 C8.61569406,5.97975709 8.60060367,5.97469641 8.59054326,5.9645749 C8.58048285,5.95445339 8.57042259,5.94939271 8.56036217,5.94939271 L7.9416499,5.94939271 L7.9416499,6.34412955 L8.54527163,6.34412955 C8.56539245,6.34412955 8.58551298,6.33906888 8.6056338,6.32894737 C8.62575463,6.31882586 8.64587515,6.31376518 8.66599598,6.31376518 Z M12.6197183,8.98582996 L11.6539235,8.98582996 L11.6539235,9.28947368 L12.6197183,9.28947368 L12.6197183,9.65384615 L11.6539235,9.65384615 L11.6539235,10.0182186 L12.6197183,10.0182186 L12.6197183,10.3825911 L11.2313883,10.3825911 L11.2313883,8.62145749 L12.6197183,8.62145749 L12.6197183,8.98582996 Z M13.7364185,9.98785425 L13.8269618,9.98785425 C13.8470826,9.98785425 13.862173,9.98279357 13.8722334,9.97267206 C13.8822938,9.96255056 13.8873239,9.94736852 13.8873239,9.92712551 L13.9024145,9.91194332 C13.9124749,9.90182181 13.917505,9.89170046 13.917505,9.88157895 L13.917505,9.80566802 L13.9024145,9.77530364 C13.8923541,9.75506063 13.8822938,9.74493927 13.8722334,9.74493927 C13.862173,9.74493927 13.8521127,9.73987859 13.8420523,9.72975709 C13.8319919,9.71963558 13.8169015,9.7145749 13.7967807,9.7145749 C13.7766599,9.7145749 13.7565393,9.70951422 13.7364185,9.69939271 C13.7162977,9.6892712 13.6961772,9.68421053 13.6760563,9.68421053 L13.3440644,9.68421053 C13.3038227,9.68421053 13.2686118,9.67914985 13.2384306,9.66902834 C13.2082493,9.65890683 13.1830987,9.6437248 13.1629779,9.62348178 C13.142857,9.62348178 13.1177064,9.6184211 13.0875252,9.6082996 C13.0573439,9.59817809 13.0321933,9.58299605 13.0120724,9.56275304 C12.9919516,9.54251002 12.9718311,9.52732799 12.9517103,9.51720648 C12.9315894,9.50708497 12.9215292,9.49190294 12.9215292,9.47165992 C12.8812875,9.41093087 12.8561369,9.35526341 12.8460765,9.30465587 C12.836016,9.25404833 12.8309859,9.19838087 12.8309859,9.13765182 C12.8309859,9.07692277 12.8410462,9.02125531 12.861167,8.97064777 C12.8812878,8.92004023 12.9114686,8.86437277 12.9517103,8.80364372 L13.027163,8.72773279 C13.0573442,8.69736827 13.0925551,8.67712556 13.1327968,8.66700405 L13.2535211,8.63663968 C13.2937628,8.62651817 13.3340038,8.62145749 13.3742455,8.62145749 L14.2796781,8.62145749 L14.2796781,8.98582996 L13.4949698,8.98582996 C13.474849,8.98582996 13.4547285,8.99089064 13.4346076,9.00101215 C13.4144868,9.01113365 13.3943663,9.01619433 13.3742455,9.01619433 C13.3541246,9.01619433 13.3440644,9.02631569 13.3440644,9.0465587 C13.3239436,9.0465587 13.3088532,9.05668006 13.2987928,9.07692308 C13.2887323,9.09716609 13.2837022,9.11740881 13.2837022,9.13765182 L13.2837022,9.19838057 C13.2837022,9.21862358 13.2937625,9.22874494 13.3138833,9.22874494 C13.3138833,9.24898796 13.3189134,9.25910931 13.3289738,9.25910931 C13.3390343,9.25910931 13.3490945,9.26416999 13.3591549,9.2742915 L13.3742455,9.28947368 L13.4044266,9.28947368 C13.4446682,9.28947368 13.4949695,9.29453436 13.555332,9.30465587 C13.6156945,9.31477738 13.6710259,9.31983806 13.721328,9.31983806 L13.8873239,9.31983806 C13.9476864,9.31983806 13.9979877,9.32995941 14.0382294,9.35020243 C14.0583502,9.35020243 14.0784707,9.35526311 14.0985915,9.36538462 L14.2193159,9.42611336 C14.2394367,9.43623487 14.249497,9.4514169 14.249497,9.47165992 C14.2696178,9.49190294 14.2897383,9.51720633 14.3098592,9.54757085 C14.32998,9.57793537 14.3400402,9.60829944 14.3400402,9.63866397 C14.3400402,9.66902849 14.3450704,9.69939256 14.3551308,9.72975709 C14.3651912,9.76012161 14.3702213,9.79554636 14.3702213,9.83603239 C14.3702213,9.8562754 14.3651912,9.8815788 14.3551308,9.91194332 C14.3450704,9.94230784 14.3400402,9.97267191 14.3400402,10.0030364 C14.3400402,10.033401 14.3350101,10.0587044 14.3249497,10.0789474 L14.2796781,10.1700405 L14.2193159,10.2307692 C14.1991951,10.2510122 14.1790745,10.2661943 14.1589537,10.2763158 L14.0080483,10.3522267 C13.9879275,10.3522267 13.9678069,10.3572874 13.9476861,10.3674089 C13.9275653,10.3775304 13.9074448,10.3825911 13.8873239,10.3825911 L12.861167,10.3825911 L12.861167,10.0182186 L13.4949698,10.0182186 C13.5955739,10.0182186 13.676056,10.0080973 13.7364185,9.98785425 Z M15.9094567,9.50202429 C15.9295776,9.52226731 15.944668,9.54251002 15.9547284,9.56275304 C15.9647888,9.58299605 15.974849,9.60829944 15.9849095,9.63866397 C15.9949699,9.66902849 16,9.69939256 16,9.72975709 L16,9.89676113 C16,9.91700415 15.9949699,9.94230754 15.9849095,9.97267206 L15.9547284,10.0637652 C15.944668,10.0941297 15.9295776,10.1194331 15.9094567,10.1396761 C15.9094567,10.1599191 15.8993965,10.1801618 15.8792757,10.2004049 L15.8189135,10.2611336 C15.7987927,10.2813766 15.773642,10.2965587 15.7434608,10.3066802 C15.7132795,10.3168017 15.6881289,10.3319837 15.668008,10.3522267 L15.5925553,10.3522267 C15.5623741,10.3522267 15.5372234,10.3572874 15.5171026,10.3674089 C15.4969818,10.3775304 15.4768613,10.3825911 15.4567404,10.3825911 L14.5211268,10.3825911 L14.5211268,10.0182186 L15.3963783,10.0182186 L15.4265594,10.0030364 C15.4466802,9.99291493 15.4617706,9.98279357 15.471831,9.97267206 L15.5171026,9.92712551 C15.5372234,9.90688249 15.5472837,9.88663978 15.5472837,9.86639676 C15.5472837,9.84615374 15.5422536,9.82591103 15.5321932,9.80566802 C15.5221327,9.785425 15.5120725,9.77024297 15.5020121,9.76012146 L15.4567404,9.7145749 L15.3661972,9.7145749 C15.3460764,9.69433188 15.3209257,9.68421053 15.2907445,9.68421053 L15.0643863,9.68421053 C15.0241447,9.68421053 14.9889338,9.67914985 14.9587525,9.66902834 C14.9285713,9.65890683 14.8983905,9.65384615 14.8682093,9.65384615 C14.838028,9.65384615 14.8078472,9.64878548 14.777666,9.63866397 C14.7474848,9.62854246 14.7223341,9.61336043 14.7022133,9.59311741 C14.6820925,9.59311741 14.6569418,9.58299605 14.6267606,9.56275304 C14.5965793,9.54251002 14.5764588,9.51720663 14.5663984,9.48684211 C14.556338,9.45647758 14.5412476,9.43117419 14.5211268,9.41093117 C14.5010059,9.39068816 14.4909457,9.36032409 14.4909457,9.31983806 C14.4909457,9.29959504 14.4859155,9.27429165 14.4758551,9.24392713 C14.4657947,9.2135626 14.4607646,9.18319853 14.4607646,9.15283401 C14.4607646,9.12246948 14.4657947,9.09210541 14.4758551,9.06174089 C14.4859155,9.03137637 14.4909457,9.00607298 14.4909457,8.98582996 L14.5362173,8.89473684 C14.5462777,8.87449383 14.5613681,8.84919044 14.5814889,8.81882591 C14.6016098,8.78846139 14.6217303,8.763158 14.6418511,8.74291498 C14.6619719,8.72267196 14.6820925,8.71255061 14.7022133,8.71255061 C14.7223341,8.69230759 14.7474848,8.67712556 14.777666,8.66700405 L14.8682093,8.63663968 C14.8983905,8.62651817 14.9235411,8.62145749 14.943662,8.62145749 L15.9094567,8.62145749 L15.9094567,8.98582996 L15.1247485,8.98582996 C15.1046277,8.98582996 15.0845071,8.99089064 15.0643863,9.00101215 C15.0442655,9.01113365 15.0291751,9.01619433 15.0191147,9.01619433 C15.0090543,9.01619433 14.998994,9.02125501 14.9889336,9.03137652 C14.9788732,9.04149803 14.9637828,9.0465587 14.943662,9.0465587 C14.943662,9.06680172 14.9386318,9.08198376 14.9285714,9.09210526 C14.918511,9.10222677 14.9134809,9.11234813 14.9134809,9.12246964 L14.9134809,9.19838057 C14.9134809,9.21862358 14.918511,9.23380562 14.9285714,9.24392713 C14.9386318,9.25404863 14.9537222,9.26416999 14.9738431,9.2742915 C14.9939639,9.28441301 15.0090543,9.28947368 15.0191147,9.28947368 L15.1247485,9.28947368 C15.1448693,9.28947368 15.1649898,9.29453436 15.1851107,9.30465587 C15.2052315,9.31477738 15.225352,9.31983806 15.2454728,9.31983806 L15.5472837,9.31983806 C15.5875254,9.31983806 15.6227363,9.32489873 15.6529175,9.33502024 L15.7434608,9.36538462 C15.773642,9.37550612 15.8038228,9.39068816 15.834004,9.41093117 C15.8641853,9.43117419 15.8893359,9.46153826 15.9094567,9.50202429 Z M8.66599598,8.65182186 C8.6861168,8.65182186 8.71629759,8.65688254 8.75653924,8.66700405 C8.79678089,8.67712556 8.8319918,8.69230759 8.86217304,8.71255061 L8.9527163,8.77327935 C8.98289754,8.79352237 9.00804819,8.82388644 9.02816901,8.86437247 C9.04828984,8.9048585 9.06338023,8.94028325 9.07344064,8.97064777 C9.08350106,9.0010123 9.09356132,9.03643704 9.10362173,9.07692308 C9.11368214,9.11740911 9.11871227,9.15283386 9.11871227,9.18319838 L9.11871227,9.28947368 C9.11871227,9.32995972 9.11368214,9.36032379 9.10362173,9.3805668 L9.07344064,9.44129555 C9.06338023,9.46153856 9.05331997,9.48684195 9.04325956,9.51720648 C9.03319914,9.547571 9.01810875,9.57287439 8.99798793,9.59311741 L8.89235412,9.69939271 C8.88229371,9.70951422 8.86720332,9.7145749 8.84708249,9.7145749 L8.75653924,9.76012146 C8.73641841,9.77024297 8.71126776,9.77530364 8.68108652,9.77530364 C8.65090528,9.77530364 8.6207245,9.78036432 8.59054326,9.79048583 C8.56036202,9.80060734 8.53521137,9.80566802 8.51509054,9.80566802 L7.88128773,9.80566802 L7.88128773,10.3825911 L7.06639839,10.3825911 L6.52313883,9.80566802 L6.28169014,10.1093117 L6.01006036,10.3825911 L4.3501006,10.3825911 L4.3501006,8.62145749 L6.04024145,8.62145749 L6.55331992,9.19838057 L7.09657948,8.62145749 L8.57545272,8.62145749 C8.59557354,8.62145749 8.62575433,8.63157885 8.66599598,8.65182186 Z M5.94969819,9.83603239 L6.25150905,9.50202429 L5.79879276,8.98582996 L4.77263581,8.98582996 L4.77263581,9.28947368 L5.67806841,9.28947368 L5.67806841,9.65384615 L4.77263581,9.65384615 L4.77263581,10.0182186 L5.79879276,10.0182186 L5.94969819,9.83603239 Z M7.42857143,8.8340081 L7.0362173,9.25910931 L6.8249497,9.50202429 L7.33802817,10.1093117 L7.42857143,10.2307692 L7.42857143,8.8340081 Z M8.63581489,9.31983806 L8.65090543,9.28947368 C8.66096585,9.26923067 8.66599598,9.24898796 8.66599598,9.22874494 L8.66599598,9.13765182 C8.64587515,9.11740881 8.63078476,9.09716609 8.62072435,9.07692308 C8.61066393,9.05668006 8.60060367,9.04149803 8.59054326,9.03137652 C8.58048285,9.02125501 8.56539245,9.01113365 8.54527163,9.00101215 C8.5251508,8.99089064 8.50503028,8.98582996 8.48490946,8.98582996 L7.88128773,8.98582996 L7.88128773,9.44129555 L8.45472837,9.44129555 C8.4748492,9.44129555 8.49496972,9.43117419 8.51509054,9.41093117 L8.54527163,9.41093117 C8.56539245,9.41093117 8.58048285,9.4058705 8.59054326,9.39574899 L8.62072435,9.36538462 C8.63078476,9.35526311 8.63581489,9.34008107 8.63581489,9.31983806 Z M10.9899396,9.19838057 C10.9899396,9.2388666 10.9798794,9.27429135 10.9597586,9.30465587 C10.9396377,9.33502039 10.9195172,9.37044514 10.8993964,9.41093117 C10.8792756,9.45141721 10.8541249,9.48178128 10.8239437,9.50202429 C10.7937624,9.52226731 10.7585515,9.54251002 10.7183099,9.56275304 L10.7635815,9.6082996 C10.7736419,9.6184211 10.7887323,9.62854246 10.8088531,9.63866397 L10.8993964,9.68421053 C10.9195172,9.70445354 10.9346076,9.72469626 10.944668,9.74493927 C10.9547284,9.76518229 10.9597586,9.79048568 10.9597586,9.8208502 C10.9597586,9.85121473 10.9647887,9.87651812 10.9748491,9.89676113 C10.9849095,9.91700415 10.9899396,9.93724686 10.9899396,9.95748988 L10.9899396,10.3825911 L10.5674044,10.3825911 L10.5674044,10.0941296 C10.5674044,10.043522 10.5573442,10.0080973 10.5372233,9.98785425 L10.5372233,9.92712551 C10.5372233,9.90688249 10.5321932,9.88663978 10.5221328,9.86639676 C10.5120724,9.84615374 10.496982,9.82591103 10.4768612,9.80566802 C10.4567403,9.785425 10.4366198,9.77530364 10.416499,9.77530364 C10.3762573,9.75506063 10.3410464,9.74493927 10.3108652,9.74493927 L9.75251509,9.74493927 L9.75251509,10.3825911 L9.29979879,10.3825911 L9.29979879,8.62145749 L10.4768612,8.62145749 C10.5171028,8.62145749 10.562374,8.62651817 10.6126761,8.63663968 C10.6629781,8.64676118 10.7082493,8.66194322 10.7484909,8.68218623 C10.7887326,8.70242925 10.8239435,8.72773264 10.8541247,8.75809717 L10.9295775,8.8340081 L10.9748491,8.92510121 C10.9849095,8.94534423 10.9899396,8.97064762 10.9899396,9.00101215 L10.9899396,9.19838057 Z M10.5070423,9.28947368 L10.5221328,9.25910931 C10.5321932,9.2388663 10.5372233,9.22368426 10.5372233,9.21356275 L10.5372233,9.10728745 L10.5221328,9.07692308 C10.5120724,9.05668006 10.496982,9.04149803 10.4768612,9.03137652 C10.4567403,9.02125501 10.4416499,9.01619433 10.4315895,9.01619433 L10.3863179,9.01619433 C10.3661971,8.99595132 10.3460766,8.98582996 10.3259557,8.98582996 L9.75251509,8.98582996 L9.75251509,9.3805668 L10.3259557,9.3805668 C10.3460766,9.3805668 10.3661971,9.37550612 10.3863179,9.36538462 C10.4064387,9.35526311 10.4215291,9.35020243 10.4315895,9.35020243 C10.4416499,9.35020243 10.4517102,9.34514175 10.4617706,9.33502024 L10.5070423,9.28947368 Z" id=""></path>
        </g>
    </g>
</svg>