<?xml version="1.0" encoding="UTF-8" standalone="no"?>
<svg width="17px" height="17px" viewBox="0 0 17 17" version="1.1" xmlns="http://www.w3.org/2000/svg" xmlns:xlink="http://www.w3.org/1999/xlink">
    <!-- Generator: Sketch 42 (36781) - http://www.bohemiancoding.com/sketch -->
    <title>icon-user-o</title>
    <desc>Created with Sketch.</desc>
    <defs></defs>
    <g id="Icon-Font" stroke="none" stroke-width="1" fill="none" fill-rule="evenodd">
        <g id="icon-user-o" fill="#000000">
            <path d="M8.5,16 C12.6421356,16 16,12.6421356 16,8.5 C16,4.35786438 12.6421356,1 8.5,1 C4.35786438,1 1,4.35786438 1,8.5 C1,12.6421356 4.35786438,16 8.5,16 Z M8.5,17 C3.80557963,17 0,13.1944204 0,8.5 C0,3.80557963 3.80557963,0 8.5,0 C13.1944204,0 17,3.80557963 17,8.5 C17,13.1944204 13.1944204,17 8.5,17 Z" id="Combined-Shape"></path>
            <path d="M11.4610647,12.0421125 C11.4610647,12.0421125 13.8785639,12.9321806 14.6010639,13.0346528 C15.8897583,13.217875 11.1539197,16.5745037 8.4880509,16.5745778 C5.82218206,16.5746518 0.981230556,13.3774861 2.39884167,13.0346528 C3.23184167,12.8330139 5.52862058,12.0369752 5.52862058,12.0369752 C5.79724236,11.945148 6.16230787,12.0237326 6.36252476,12.2067256 C6.36252476,12.2067256 6.99307163,13 8.5,13 C10.0069284,13 10.6374752,12.2067256 10.6374752,12.2067256 C10.8425165,12.03176 11.2064257,11.9500328 11.4610647,12.0421125 Z M12.0338058,6.55092062 C12.0456113,9.17680282 10.4839724,11.9917228 8.54172243,11.9999818 C6.59947243,12.0082407 5.01233354,9.20708558 5.00005577,6.58120338 C4.98825021,3.95532118 6.85305577,3.00737908 8.5006391,3.00003781 C10.1482224,2.99315536 12.021528,3.92503842 12.0338058,6.55092062 Z" id="Combined-Shape"></path>
        </g>
    </g>
</svg>