<?xml version="1.0" encoding="UTF-8" standalone="no"?>
<svg width="17px" height="17px" viewBox="0 0 17 17" version="1.1" xmlns="http://www.w3.org/2000/svg" xmlns:xlink="http://www.w3.org/1999/xlink">
    <!-- Generator: Sketch 42 (36781) - http://www.bohemiancoding.com/sketch -->
    <title>icon-google</title>
    <desc>Created with Sketch.</desc>
    <defs>
        <polygon id="path-1" points="17.1763784 17.5297622 17.1763784 0.000194594595 4.86486485e-05 0.000194594595 4.86486485e-05 17.5297622"></polygon>
    </defs>
    <g id="Icon-Font" stroke="none" stroke-width="1" fill="none" fill-rule="evenodd">
        <g id="icon-google">
            <g id="Page-1">
                <mask id="mask-2" fill="white">
                    <use xlink:href="#path-1"></use>
                </mask>
                <g id="Clip-2"></g>
                <path d="M8.66976411,7.28254655 L16.6934924,7.28254655 C16.7821888,7.777454 16.8274806,8.24924375 16.8274806,8.69980296 C16.8274806,10.3010574 16.4915663,11.7301085 15.8202095,12.9883718 C15.1488527,14.246635 14.1915913,15.2293731 12.94701,15.9380013 C11.7043158,16.6466295 10.2790389,17 8.66976411,17 C7.51104849,17 6.40847584,16.7773152 5.3611026,16.3310021 C4.31325757,15.8842172 3.40930841,15.2812699 2.64925513,14.5207449 C1.88920184,13.7616352 1.28531097,12.857686 0.839941444,11.8093692 C0.392684763,10.7615242 0.170000002,9.65847973 0.170000002,8.50023589 C0.170000002,7.34246385 0.392684763,6.23894763 0.839941444,5.19063081 C1.28531097,4.14325757 1.88920184,3.23930841 2.64925513,2.47878334 C3.40930841,1.71967363 4.31325757,1.11578275 5.3611026,0.669469653 C6.40847584,0.223156551 7.51104849,0 8.66976411,0 C10.882458,0 12.7842425,0.741653484 14.3689843,2.22496045 L12.0562709,4.44897733 C11.1490192,3.57192018 10.0209699,3.13174035 8.66976411,3.13174035 C7.71722061,3.13174035 6.83780451,3.37235312 6.03057226,3.85169151 C5.22192463,4.33102989 4.58123415,4.98257153 4.10991619,5.80490106 C3.63718286,6.62817417 3.40128799,7.52646185 3.40128799,8.50023589 C3.40128799,9.47448173 3.63718286,10.3727694 4.10991619,11.1950989 C4.58123415,12.018372 5.22192463,12.6694419 6.03057226,13.1487803 C6.83780451,13.6281187 7.71722061,13.8682597 8.66976411,13.8682597 C9.31234174,13.8682597 9.90113535,13.780035 10.440391,13.602642 C10.9796467,13.4257209 11.4217137,13.2039797 11.768951,12.9383621 C12.1157164,12.6727444 12.4176619,12.3703272 12.6757309,12.0311104 C12.9342716,11.6914218 13.1248747,11.3710765 13.2456529,11.0681875 C13.3683182,10.7657703 13.4508814,10.4775067 13.4957014,10.2048123 L8.66976411,10.2048123 L8.66976411,7.28254655 Z" id="Fill-1" fill="#000000" mask="url(#mask-2)"></path>
            </g>
        </g>
    </g>
</svg>