<?xml version="1.0" encoding="UTF-8" standalone="no"?>
<svg width="17px" height="17px" viewBox="0 0 17 17" version="1.1" xmlns="http://www.w3.org/2000/svg" xmlns:xlink="http://www.w3.org/1999/xlink">
    <!-- Generator: Sketch 42 (36781) - http://www.bohemiancoding.com/sketch -->
    <title>icon-player-news-new</title>
    <desc>Created with Sketch.</desc>
    <defs></defs>
    <g id="Icon-Font" stroke="none" stroke-width="1" fill="none" fill-rule="evenodd">
        <g id="icon-player-news-new" fill="#000000">
            <path d="M15.0012958,0 C15.5553152,0 16.0280713,0.195209834 16.4195783,0.585635359 C16.8110854,0.976060884 17.0068359,1.44751105 17.0068359,2 C17.0068359,2.55248895 16.8110854,3.02393912 16.4195783,3.41436464 C16.0280713,3.80479017 15.5553152,4 15.0012958,4 C14.4546633,4 13.9856006,3.80479017 13.5940936,3.41436464 C13.2025865,3.02393912 13.0068359,2.55248895 13.0068359,2 C13.0068359,1.44751105 13.2025865,0.976060884 13.5940936,0.585635359 C13.9856006,0.195209834 14.4546633,0 15.0012958,0 Z" id="news-new---icomoon-copy-2"></path>
            <g id="Page-1" transform="translate(0.000000, 1.000000)">
                <g>
                    <path d="M8.00017438,3.5 C8.00017438,3.77614237 8.21592698,4 8.49556337,4 L10.5047854,4 C10.7783812,4 11.0001744,3.76806641 11.0001744,3.5 L11.0001744,3.5 C11.0001744,3.22385763 10.7844218,3 10.5047854,3 L8.49556337,3 C8.22196758,3 8.00017438,3.23193359 8.00017438,3.5 L8.00017438,3.5 Z M8.00017438,5.5 C8.00017438,5.77614237 8.21501813,6 8.49787316,6 L12.5024756,6 C12.777347,6 13.0001744,5.76806641 13.0001744,5.5 L13.0001744,5.5 C13.0001744,5.22385763 12.7853306,5 12.5024756,5 L8.49787316,5 C8.22300172,5 8.00017438,5.23193359 8.00017438,5.5 L8.00017438,5.5 Z M8.00017438,7.5 C8.00017438,7.77614237 8.21523175,8 8.4906529,8 L11.5096959,8 C11.7805797,8 12.0001744,7.76806641 12.0001744,7.5 L12.0001744,7.5 C12.0001744,7.22385763 11.785117,7 11.5096959,7 L8.4906529,7 C8.21976909,7 8.00017438,7.23193359 8.00017438,7.5 L8.00017438,7.5 Z M2.00017438,9.5 C2.00017438,9.77614237 2.23097119,10 2.50061021,10 L9.49973855,10 C9.77612163,10 10.0001744,9.76806641 10.0001744,9.5 L10.0001744,9.5 C10.0001744,9.22385763 9.76937757,9 9.49973855,9 L2.50061021,9 C2.22422713,9 2.00017438,9.23193359 2.00017438,9.5 L2.00017438,9.5 Z M2.00017438,11.5 C2.00017438,11.7761424 2.22992501,12 2.50140522,12 L12.4989435,12 C12.7757657,12 13.0001744,11.7680664 13.0001744,11.5 L13.0001744,11.5 C13.0001744,11.2238576 12.7704237,11 12.4989435,11 L2.50140522,11 C2.22458307,11 2.00017438,11.2319336 2.00017438,11.5 L2.00017438,11.5 Z M2.00017438,13.5 C2.00017438,13.7761424 2.22264753,14 2.50984023,14 L10.4905085,14 C10.7719892,14 11.0001744,13.7680664 11.0001744,13.5 L11.0001744,13.5 C11.0001744,13.2238576 10.7777012,13 10.4905085,13 L2.50984023,13 C2.22835955,13 2.00017438,13.2319336 2.00017438,13.5 L2.00017438,13.5 Z" id="Combined-Shape"></path>
                    <path d="M-8.8817842e-16,15.0040002 C-1.14450513e-15,15.5540757 0.448920205,16 1.00748397,16 L13.992516,16 C14.5489341,16 15,15.5488281 15,14.9932159 L15,5.5 C15,5.22385763 14.7761424,5 14.5,5 C14.2238576,5 14,5.22385763 14,5.5 L14,14.5026144 C14,14.7773129 13.7743758,15 13.5062921,15 L1.49457959,15 C1.22191223,15 1.00085726,14.7771005 1.0008396,14.5038618 L1,1.5093689 C1,1.22192138 1.22087144,1 1.49871095,1 L10.5,1 C10.7761424,1 11,0.776142375 11,0.5 C11,0.223857625 10.7761424,0 10.5,0 L1.49871095,0 C0.667522305,0 5.40011215e-15,0.670695443 5.40011215e-15,1.5093689 L-8.8817842e-16,15.0040002 Z" id="Path-2" fill-rule="nonzero"></path>
                    <g id="Group-13" transform="translate(2.000000, 2.000000)">
                        <path d="M1.43833161,3.23161581 C1.57372208,3.46133067 1.73293492,3.64702351 1.91557309,3.78829415 C2.09860831,3.92956478 2.29434878,4 2.5035886,4 C2.7076669,4 2.90142218,3.92956478 3.08406035,3.78829415 C3.26709556,3.64702351 3.42591137,3.46133067 3.56130184,3.23161581 C3.69669231,3.00190095 3.80389297,2.74337169 3.88210976,2.45602801 C3.96032654,2.16868434 3.99963345,1.87893947 3.99963345,1.5871936 C4.00439792,1.29984992 3.96270877,1.05452726 3.87496304,0.850825413 C3.78721731,0.647523762 3.67088474,0.482241121 3.52596532,0.355377689 C3.3810459,0.228514257 3.21825971,0.137668834 3.03800377,0.0824412206 C2.8573508,0.0276138069 2.67908006,0 2.5035886,0 C2.32293563,0 2.14347377,0.0276138069 1.96560007,0.0824412206 C1.78732934,0.137668834 1.62732242,0.227313657 1.48478523,0.351775888 C1.34224805,0.476238119 1.22591548,0.64032016 1.13539047,0.844022011 C1.0452625,1.04732366 1,1.29504752 1,1.5871936 C1,1.87893947 1.03930691,2.16868434 1.11792073,2.45602801 C1.19613751,2.74337169 1.30294114,3.00190095 1.43833161,3.23161581" id="Fill-9"></path>
                        <path d="M5.01000023,4.78692458 C4.91314022,4.75281738 4.81001772,4.7130976 4.69228271,4.66042571 C4.4250827,4.54169811 3.90799889,4.19633443 3.90799889,4.19633443 C3.79237458,4.12095216 3.6127141,4.14473025 3.52174431,4.23065137 C3.52174431,4.23065137 3.35545754,4.41084472 3.14796003,4.52482322 C2.94088002,4.63836998 2.72461501,4.69492749 2.5,4.69492749 C2.25534499,4.69492749 2.02780748,4.63318914 1.81822247,4.5092807 C1.60863746,4.38537225 1.4334339,4.22569639 1.4334339,4.22569639 C1.33143715,4.13971967 1.160605,4.15293275 1.06461133,4.23902297 C1.06461133,4.23902297 0.824145038,4.4851406 0.541915025,4.61422988 C0.333165015,4.7096437 0.158232507,4.77483595 0,4.82491741 L0,6.00096828 L0.170757508,6.00096828 L2.62440512,6.00096828 L5.01000023,6.00096828 L5.01000023,4.78692458 Z" id="Fill-11"></path>
                    </g>
                </g>
            </g>
        </g>
    </g>
</svg>