<?xml version="1.0" encoding="UTF-8" standalone="no"?>
<svg width="17px" height="17px" viewBox="0 0 17 17" version="1.1" xmlns="http://www.w3.org/2000/svg" xmlns:xlink="http://www.w3.org/1999/xlink">
    <!-- Generator: Sketch 42 (36781) - http://www.bohemiancoding.com/sketch -->
    <title>icon-gears</title>
    <desc>Created with Sketch.</desc>
    <defs></defs>
    <g id="Icon-Font" stroke="none" stroke-width="1" fill="none" fill-rule="evenodd">
        <g id="icon-gears" fill="#000000">
            <path d="M2.93751061,8.50603641 C2.93751061,7.08766358 4.08704783,5.93797048 5.50522836,5.93797048 C6.92340888,5.93797048 8.0729461,7.08766358 8.0729461,8.50603641 C8.0729461,9.92440923 6.92340888,11.0741023 5.50522836,11.0741023 C4.08704783,11.0741023 2.93751061,9.92440923 2.93751061,8.50603641 Z M10.7621167,9.64467972 C10.894348,9.62465319 11.0011317,9.49087395 11.000666,9.35762304 L10.9947777,7.67292238 C10.9942936,7.53441188 10.8872429,7.40579183 10.7445933,7.38394452 L9.63464863,7.21395237 C9.56037421,6.97612591 9.45859074,6.73371411 9.32960388,6.48518852 C9.41885545,6.36168995 9.96080563,5.65968133 9.96080563,5.65968133 C10.0430036,5.55306258 10.0245624,5.38028048 9.94029561,5.29475094 L8.69659926,4.03241827 C8.60307396,3.93749153 8.44448685,3.92300021 8.323877,4.01401801 L7.47243767,4.65655374 C7.26917639,4.55231361 7.04604747,4.46091244 6.80396787,4.38112748 L6.63207336,3.25144738 C6.61204903,3.11984866 6.47838304,3.01234506 6.34525849,3.0114135 L4.6621555,2.99963567 C4.52377635,2.99866733 4.39158111,3.10517159 4.36766957,3.23811459 C4.36766957,3.23811459 4.27496964,3.70708206 4.19580472,4.38112748 C3.9628948,4.45541003 3.73762629,4.54956241 3.51969352,4.6635846 L2.69193954,4.02154236 C2.58274064,3.93684291 2.41611206,3.94564564 2.32091693,4.0400605 L1.04815215,5.30239318 C0.95244092,5.39731992 0.950084745,5.56842732 1.03240649,5.67192953 C1.03240649,5.67192953 1.47149227,6.21801587 1.66955739,6.500473 C1.54576669,6.7282117 1.44917937,6.95656178 1.37979545,7.18430048 L0.238627973,7.35621381 C0.105691064,7.37624034 -0.00127035624,7.51000315 -0.000357523519,7.64323543 L0.011183485,9.32770053 C0.0121323484,9.46619166 0.119559818,9.59424431 0.262209412,9.61535376 L1.37215405,9.77960461 C1.44153797,10.0226278 1.54332144,10.2677908 1.67719879,10.5153993 C1.58794723,10.6395093 1.04599704,11.341261 1.04599704,11.341261 C0.963799117,11.4478528 0.982651065,11.6206295 1.06732483,11.7061753 L2.31702706,12.9687482 C2.41100399,13.063693 2.5838263,13.0672006 2.68909374,12.9871812 L3.53436501,12.3446455 C3.73762629,12.4488856 3.9601439,12.5405925 4.20344612,12.6200717 L4.37534062,13.7497518 C4.39536496,13.8813506 4.52903095,13.9888213 4.6621555,13.9897156 L6.34525849,14.0010223 C6.48363763,14.0019519 6.61574788,13.8955013 6.63956431,13.7626534 C6.63956431,13.7626534 6.73183304,13.2941172 6.81099796,12.6200717 C7.04390787,12.5454835 7.26917639,12.4516368 7.48710916,12.3373089 L8.31486313,12.9857667 C8.42406204,13.0713124 8.5907201,13.0624734 8.68595117,12.967178 L9.95919642,11.6930725 C10.0549438,11.5972604 10.0645439,11.4342491 9.98300841,11.3315654 C9.98300841,11.3315654 9.51055227,10.7416096 9.33724528,10.493084 C9.43627785,10.3099759 9.53286516,10.0843771 9.62700723,9.81659304 L10.7621167,9.64467972 Z" id="Fill-1"></path>
            <path d="M11.8693717,3.50392905 C11.8693717,2.60130557 12.6009137,1.86966438 13.5034148,1.86966438 C14.4059159,1.86966438 15.1374579,2.60130557 15.1374579,3.50392905 C15.1374579,4.40655253 14.4059159,5.13819372 13.5034148,5.13819372 C12.6009137,5.13819372 11.8693717,4.40655253 11.8693717,3.50392905 Z M16.7621341,4.24166267 C16.8941427,4.22166985 17.0007753,4.09628861 17.0003098,3.96311454 L16.997141,3.05649914 C16.9966732,2.92265408 16.890228,2.79790681 16.7414438,2.77511996 L16.1312935,2.68167317 C16.0840268,2.53032527 16.0192538,2.37605936 15.9371693,2.21790275 C15.9939671,2.13931079 16.2813532,1.76723765 16.2813532,1.76723765 C16.3654186,1.65814811 16.3545499,1.4895123 16.2581619,1.39168001 L15.6019771,0.725662483 C15.5051035,0.627337265 15.3442616,0.609744109 15.2288008,0.69687619 L14.7553066,1.05419695 C14.6259553,0.987860661 14.4839606,0.929694824 14.3299061,0.878921301 L14.2336388,0.246258578 C14.2136482,0.114881368 14.0883722,0.00761585504 13.9553245,0.0066848283 L13.0495688,0.000346633368 C12.9158507,-0.000589084354 12.7857473,0.11641916 12.7628585,0.247364739 C12.7628585,0.247364739 12.7205033,0.449972571 12.6701244,0.878921301 C12.5219053,0.926193202 12.378549,0.986109849 12.239861,1.05867124 L11.7795385,0.701624925 C11.673351,0.619261245 11.5064049,0.632693558 11.4077642,0.730525847 L10.7362426,1.39654337 C10.6371048,1.49486859 10.6327499,1.66983338 10.7119139,1.76971093 C10.7119139,1.76971093 10.9364276,2.04787954 11.0624722,2.22762948 C10.9836943,2.37255774 10.9222281,2.51787506 10.8780736,2.66280332 L10.2389775,2.75908115 C10.1062644,2.77907398 9.99942703,2.90443996 10.0003393,3.0375954 L10.0065501,3.94408404 C10.007467,4.07791039 10.1142763,4.20209385 10.2630605,4.2241111 L10.8732108,4.31440183 C10.9173653,4.46905681 10.9821382,4.62507354 11.067335,4.78264654 C11.0105372,4.86162757 10.7231511,5.23354885 10.7231511,5.23354885 C10.6390857,5.34261482 10.650336,5.5112468 10.7471894,5.60909771 L11.406543,6.27524199 C11.5038844,6.37358593 11.6645092,6.39119425 11.7791336,6.30406217 L12.2491977,5.94674141 C12.378549,6.0130777 12.5201546,6.07143807 12.6749872,6.12201706 L12.7712545,6.75467978 C12.7912451,6.88605699 12.9165211,6.99329198 13.0495688,6.99418576 L13.9553245,7.00027043 C14.0890426,7.00116872 14.2190558,6.88422037 14.2418585,6.75336087 C14.2418585,6.75336087 14.284001,6.55096579 14.3343799,6.12201706 C14.482599,6.07455063 14.6259553,6.01482851 14.7646433,5.94207258 L15.2249658,6.30268662 C15.3311533,6.3858733 15.4981299,6.37236019 15.5968079,6.2736155 L16.268583,5.60138654 C16.3677582,5.50214432 16.3845832,5.34186352 16.2978557,5.23234963 C16.2978557,5.23234963 16.0523211,4.92660212 15.9420321,4.76844552 C16.0050544,4.65191931 16.0665206,4.50835279 16.1264307,4.33794051 L16.7621341,4.24166267 Z" id="Fill-1-Copy"></path>
            <path d="M11.8693717,13.503929 C11.8693717,12.6013056 12.6009137,11.8696644 13.5034148,11.8696644 C14.4059159,11.8696644 15.1374579,12.6013056 15.1374579,13.503929 C15.1374579,14.4065525 14.4059159,15.1381937 13.5034148,15.1381937 C12.6009137,15.1381937 11.8693717,14.4065525 11.8693717,13.503929 Z M16.7621341,14.2416627 C16.8941427,14.2216699 17.0007753,14.0962886 17.0003098,13.9631145 L16.997141,13.0564991 C16.9966732,12.9226541 16.890228,12.7979068 16.7414438,12.77512 L16.1312935,12.6816732 C16.0840268,12.5303253 16.0192538,12.3760594 15.9371693,12.2179028 C15.9939671,12.1393108 16.2813532,11.7672376 16.2813532,11.7672376 C16.3654186,11.6581481 16.3545499,11.4895123 16.2581619,11.39168 L15.6019771,10.7256625 C15.5051035,10.6273373 15.3442616,10.6097441 15.2288008,10.6968762 L14.7553066,11.0541969 C14.6259553,10.9878607 14.4839606,10.9296948 14.3299061,10.8789213 L14.2336388,10.2462586 C14.2136482,10.1148814 14.0883722,10.0076159 13.9553245,10.0066848 L13.0495688,10.0003466 C12.9158507,9.99941092 12.7857473,10.1164192 12.7628585,10.2473647 C12.7628585,10.2473647 12.7205033,10.4499726 12.6701244,10.8789213 C12.5219053,10.9261932 12.378549,10.9861098 12.239861,11.0586712 L11.7795385,10.7016249 C11.673351,10.6192612 11.5064049,10.6326936 11.4077642,10.7305258 L10.7362426,11.3965434 C10.6371048,11.4948686 10.6327499,11.6698334 10.7119139,11.7697109 C10.7119139,11.7697109 10.9364276,12.0478795 11.0624722,12.2276295 C10.9836943,12.3725577 10.9222281,12.5178751 10.8780736,12.6628033 L10.2389775,12.7590812 C10.1062644,12.779074 9.99942703,12.90444 10.0003393,13.0375954 L10.0065501,13.944084 C10.007467,14.0779104 10.1142763,14.2020939 10.2630605,14.2241111 L10.8732108,14.3144018 C10.9173653,14.4690568 10.9821382,14.6250735 11.067335,14.7826465 C11.0105372,14.8616276 10.7231511,15.2335489 10.7231511,15.2335489 C10.6390857,15.3426148 10.650336,15.5112468 10.7471894,15.6090977 L11.406543,16.275242 C11.5038844,16.3735859 11.6645092,16.3911943 11.7791336,16.3040622 L12.2491977,15.9467414 C12.378549,16.0130777 12.5201546,16.0714381 12.6749872,16.1220171 L12.7712545,16.7546798 C12.7912451,16.886057 12.9165211,16.993292 13.0495688,16.9941858 L13.9553245,17.0002704 C14.0890426,17.0011687 14.2190558,16.8842204 14.2418585,16.7533609 C14.2418585,16.7533609 14.284001,16.5509658 14.3343799,16.1220171 C14.482599,16.0745506 14.6259553,16.0148285 14.7646433,15.9420726 L15.2249658,16.3026866 C15.3311533,16.3858733 15.4981299,16.3723602 15.5968079,16.2736155 L16.268583,15.6013865 C16.3677582,15.5021443 16.3845832,15.3418635 16.2978557,15.2323496 C16.2978557,15.2323496 16.0523211,14.9266021 15.9420321,14.7684455 C16.0050544,14.6519193 16.0665206,14.5083528 16.1264307,14.3379405 L16.7621341,14.2416627 Z" id="Fill-1-Copy-2"></path>
        </g>
    </g>
</svg>