<?xml version="1.0" encoding="UTF-8"?>
<svg width="17px" height="17px" viewBox="0 0 17 17" version="1.1" xmlns="http://www.w3.org/2000/svg" xmlns:xlink="http://www.w3.org/1999/xlink">
    <!-- Generator: Sketch 45.2 (43514) - http://www.bohemiancoding.com/sketch -->
    <title>Icon/News Module</title>
    <desc>Created with Sketch.</desc>
    <defs></defs>
    <g id="Symbols" stroke="none" stroke-width="1" fill="none" fill-rule="evenodd">
        <g id="Icon/News-Module" fill="#000000">
            <g>
                <path d="M3.00747129,0 C2.45106026,0 2,0.443353176 2,1.0093689 L2,4 L1,4 C0.44771525,4 -6.50198311e-06,4.44748943 -1.45081535e-05,4.99850233 L-0.000174380735,16.0014977 C-0.000182393367,16.5529553 0.454520045,17 0.999771312,17 L15.9998509,17 C16.5521137,17 16.9998111,16.5452911 16.9998111,16.0000398 L16.9998111,0.999960201 C16.9998111,0.447697432 16.5508966,0 15.9923398,0 L3.00747129,0 Z M3,15.5009232 C3,15.7765557 3.22563934,16 3.49374104,16 L15.506259,16 C15.7789446,16 16,15.7763174 16,15.5009232 L16,1.49907684 C16,1.22344431 15.7743607,1 15.506259,1 L3.49374104,1 C3.22105539,1 3,1.2236826 3,1.49907684 L3,15.5009232 Z" id="Fill-1"></path>
                <path d="M4,7.00922203 C4,7.55641359 4.44371665,8 4.99980749,8 L8.00019251,8 C8.55237094,8 9,7.54902482 9,7.00922203 L9,2.99077797 C9,2.44358641 8.55628335,2 8.00019251,2 L4.99980749,2 C4.44762906,2 4,2.45097518 4,2.99077797 L4,7.00922203 Z" id="Fill-2"></path>
                <path d="M10,3 C10,3.55228475 10.4437166,4 10.9998075,4 L14.0001925,4 C14.5523709,4 15,3.55613518 15,3 L15,3 C15,2.44771525 14.5562834,2 14.0001925,2 L10.9998075,2 C10.4476291,2 10,2.44386482 10,3 L10,3 Z" id="Fill-3"></path>
                <path d="M10,5.5 C10,5.77614237 10.2148438,6 10.4976988,6 L14.5023012,6 C14.7771727,6 15,5.76806641 15,5.5 L15,5.5 C15,5.22385763 14.7851562,5 14.5023012,5 L10.4976988,5 C10.2228273,5 10,5.23193359 10,5.5 L10,5.5 Z" id="Fill-4"></path>
                <path d="M10,7.5 C10,7.77614237 10.2150574,8 10.4904785,8 L13.5095215,8 C13.7804053,8 14,7.76806641 14,7.5 L14,7.5 C14,7.22385763 13.7849426,7 13.5095215,7 L10.4904785,7 C10.2195947,7 10,7.23193359 10,7.5 L10,7.5 Z" id="Fill-5"></path>
                <path d="M4,9.5 C4,9.77614237 4.23079681,10 4.50043583,10 L11.4995642,10 C11.7759472,10 12,9.76806641 12,9.5 L12,9.5 C12,9.22385763 11.7692032,9 11.4995642,9 L4.50043583,9 C4.22405275,9 4,9.23193359 4,9.5 L4,9.5 Z" id="Fill-6"></path>
                <path d="M4,11.5 C4,11.7761424 4.22975063,12 4.50123084,12 L14.4987692,12 C14.7755913,12 15,11.7680664 15,11.5 L15,11.5 C15,11.2238576 14.7702494,11 14.4987692,11 L4.50123084,11 C4.22440869,11 4,11.2319336 4,11.5 L4,11.5 Z" id="Fill-7"></path>
                <path d="M4,13.5 C4,13.7761424 4.22247314,14 4.50966585,14 L12.4903342,14 C12.7718148,14 13,13.7680664 13,13.5 L13,13.5 C13,13.2238576 12.7775269,13 12.4903342,13 L4.50966585,13 C4.22818517,13 4,13.2319336 4,13.5 L4,13.5 Z" id="Fill-8"></path>
            </g>
        </g>
    </g>
</svg>