<?xml version="1.0" encoding="UTF-8" standalone="no"?>
<svg width="18px" height="18px" viewBox="0 0 18 18" version="1.1" xmlns="http://www.w3.org/2000/svg" xmlns:xlink="http://www.w3.org/1999/xlink">
    <!-- Generator: Sketch 40.3 (33839) - http://www.bohemiancoding.com/sketch -->
    <title>icon -</title>
    <desc>Created with Sketch.</desc>
    <defs>
        <polygon id="path-1" points="18 17.99985 18 0 5e-05 0 5e-05 17.99985 18 17.99985"></polygon>
    </defs>
    <g id="Icon-Font" stroke="none" stroke-width="1" fill="none" fill-rule="evenodd">
        <g id="icon--">
            <g id="Page-1">
                <path d="M4.21875,6.5825 L6.40625,9.7855 L10.18775,8.5515 L10.37525,4.723 C10.37525,4.723 6.82825,3.52 6.78125,3.52 L4.21875,6.5825 Z" id="Fill-1" fill="#000000"></path>
                <g id="Group-5">
                    <mask id="mask-2" fill="white">
                        <use xlink:href="#path-1"></use>
                    </mask>
                    <g id="Clip-4"></g>
                    <path d="M7.67955,17.00785 C8.13655,16.43435 8.45305,15.72335 8.45305,15.72335 C7.01555,14.78585 5.51555,13.30135 5.51555,13.30135 C4.21855,13.64485 2.76555,13.64485 2.76555,13.64485 C2.83205,13.93185 2.92605,14.21885 3.03055,14.49285 C1.87655,13.23985 1.10455,11.62985 0.91905,9.84385 C1.05855,8.92885 1.30455,7.56135 1.57805,7.17635 C1.57805,7.17635 1.46805,6.72985 1.38205,6.20185 C2.12005,4.19985 3.62055,2.56985 5.53455,1.66235 C6.10305,1.59485 6.57055,1.57535 6.57055,1.57535 C6.73605,1.40935 7.10555,1.20885 7.51505,1.01735 C7.99705,0.92785 8.49205,0.87485 9.00005,0.87485 C10.42955,0.87485 11.77205,1.24885 12.94005,1.89985 C13.11655,2.37185 13.33455,3.04685 13.34355,3.51985 C13.34355,3.51985 14.87505,4.37935 16.18755,5.97335 L16.44955,5.76585 C16.88205,6.75785 17.12505,7.85035 17.12505,8.99985 C17.12505,9.88435 16.97805,10.73385 16.71605,11.53135 C16.41205,10.33485 15.96855,9.62935 15.96855,9.62935 C14.28105,10.59835 13.01555,10.98885 13.01555,10.98885 C13.00005,12.22335 12.10955,14.61385 12.10955,14.61385 C12.94205,14.99435 13.66955,15.16935 14.18455,15.24985 C12.77655,16.41985 10.96955,17.12485 9.00005,17.12485 C8.54955,17.12485 8.11055,17.07885 7.67955,17.00785 M9.00005,-0.00015 C4.02955,-0.00015 5e-05,4.02935 5e-05,8.99985 C5e-05,13.97035 4.02955,17.99985 9.00005,17.99985 C13.97055,17.99985 18.00005,13.97035 18.00005,8.99985 C18.00005,4.02935 13.97055,-0.00015 9.00005,-0.00015" id="Fill-3" fill="#000000" mask="url(#mask-2)"></path>
                </g>
            </g>
        </g>
    </g>
</svg>