<?xml version="1.0" encoding="UTF-8" standalone="no"?>
<svg width="17px" height="17px" viewBox="0 0 17 17" version="1.1" xmlns="http://www.w3.org/2000/svg" xmlns:xlink="http://www.w3.org/1999/xlink">
    <!-- Generator: Sketch 42 (36781) - http://www.bohemiancoding.com/sketch -->
    <title>icon-swap</title>
    <desc>Created with Sketch.</desc>
    <defs></defs>
    <g id="Icon-Font" stroke="none" stroke-width="1" fill="none" fill-rule="evenodd">
        <g id="icon-swap" fill="#000000">
            <path d="M16.9667969,11.6787109 C16.9557291,11.7119142 16.9391277,11.7423501 16.9169922,11.7700195 C16.8948567,11.7976889 16.8727215,11.822591 16.8505859,11.8447266 L13.8457031,14.8496094 C13.8014321,14.8938804 13.748861,14.9298501 13.6879883,14.9575195 C13.6271156,14.9851889 13.5634769,14.9990234 13.4970703,14.9990234 C13.4306637,14.9990234 13.367025,14.9851889 13.3061523,14.9575195 C13.2452796,14.9298501 13.1927086,14.8938804 13.1484375,14.8496094 C13.0488276,14.7499995 12.9990234,14.6310228 12.9990234,14.4926758 C12.9990234,14.3543287 13.0488276,14.2353521 13.1484375,14.1357422 L15.2900391,11.9941406 L4.49902344,11.9941406 C4.36621027,11.9941406 4.2500005,11.9443364 4.15039062,11.8447266 C4.05078075,11.7451167 4.00097656,11.6289069 4.00097656,11.4960938 C4.00097656,11.3522128 4.05078075,11.2332361 4.15039062,11.1391602 C4.2500005,11.0450842 4.36621027,10.9980469 4.49902344,10.9980469 L15.2900391,10.9980469 L13.1484375,8.85644531 C13.0488276,8.75683544 12.9990234,8.63785876 12.9990234,8.49951172 C12.9990234,8.36116467 13.0488276,8.242188 13.1484375,8.14257812 C13.2480474,8.04296825 13.367024,7.99316406 13.5053711,7.99316406 C13.6437181,7.99316406 13.757161,8.04296825 13.8457031,8.14257812 L16.8505859,11.1474609 C16.8727215,11.1695965 16.8948567,11.1944986 16.9169922,11.222168 C16.9391277,11.2498374 16.9557291,11.2747395 16.9667969,11.296875 C16.9889324,11.3632816 17,11.4296872 17,11.4960938 C17,11.5625003 16.9889324,11.6233721 16.9667969,11.6787109 Z M3.8515625,8.14257812 C3.95117237,8.242188 4.00097656,8.36116467 4.00097656,8.49951172 C4.00097656,8.63785876 3.95117237,8.75683544 3.8515625,8.85644531 C3.80729145,8.90071637 3.75472036,8.93391916 3.69384766,8.95605469 C3.63297496,8.97819021 3.56933627,8.98925781 3.50292969,8.98925781 C3.43652311,8.98925781 3.37288442,8.97819021 3.31201172,8.95605469 C3.25113902,8.93391916 3.19856793,8.89518257 3.15429688,8.83984375 L0.149414062,5.8515625 C0.127278535,5.82942697 0.10514334,5.80452488 0.0830078125,5.77685547 C0.0608722852,5.74918606 0.0442708887,5.71875017 0.033203125,5.68554688 C0.0110675977,5.61914029 0,5.55273471 0,5.48632812 C0,5.41992154 0.0110675977,5.35904976 0.033203125,5.30371094 C0.0442708887,5.27050765 0.0608722852,5.24007175 0.0830078125,5.21240234 C0.10514334,5.18473293 0.127278535,5.15983084 0.149414062,5.13769531 L3.15429688,2.14941406 C3.24283898,2.04980419 3.35628186,2 3.49462891,2 C3.63297595,2 3.75195263,2.04980419 3.8515625,2.14941406 C3.95117237,2.23795617 4.00097656,2.35139905 4.00097656,2.48974609 C4.00097656,2.62809314 3.95117237,2.74706981 3.8515625,2.84667969 L1.70996094,4.98828125 L12.5009766,4.98828125 C12.6337897,4.98828125 12.7499995,5.03808544 12.8496094,5.13769531 C12.9492192,5.23730519 12.9990234,5.35351496 12.9990234,5.48632812 C12.9990234,5.63020905 12.9492192,5.75195263 12.8496094,5.8515625 C12.7499995,5.95117237 12.6337897,6.00097656 12.5009766,6.00097656 L1.70996094,6.00097656 L3.8515625,8.14257812 Z" id="qpr-icon---icomoon"></path>
        </g>
    </g>
</svg>