<?xml version="1.0" encoding="UTF-8" standalone="no"?>
<svg width="17px" height="17px" viewBox="0 0 17 17" version="1.1" xmlns="http://www.w3.org/2000/svg" xmlns:xlink="http://www.w3.org/1999/xlink">
    <!-- Generator: Sketch 42 (36781) - http://www.bohemiancoding.com/sketch -->
    <title>icon-arrow-up</title>
    <desc>Created with Sketch.</desc>
    <defs></defs>
    <g id="Icon-Font" stroke="none" stroke-width="1" fill="none" fill-rule="evenodd">
        <g id="icon-arrow-up" fill="#000000">
            <path d="M2.14941406,11.8476562 C2.24902394,11.9472661 2.36800061,11.9970703 2.50634766,11.9970703 C2.6446947,11.9970703 2.75813758,11.9472661 2.84667969,11.8476562 L8.49902344,6.1953125 L14.1513672,11.8476562 C14.2399093,11.9472661 14.3533522,11.9970703 14.4916992,11.9970703 C14.6300463,11.9970703 14.7490229,11.9472661 14.8486328,11.8476562 C14.9482427,11.7480464 14.9980469,11.6290697 14.9980469,11.4907227 C14.9980469,11.3523756 14.9482427,11.2333989 14.8486328,11.1337891 L8.84765625,5.1328125 C8.8033852,5.08854145 8.75081411,5.05533865 8.68994141,5.03320312 C8.62906871,5.0110676 8.56543002,5 8.49902344,5 C8.43261686,5 8.36897817,5.0110676 8.30810547,5.03320312 C8.24723277,5.05533865 8.19466168,5.08854145 8.15039062,5.1328125 L2.14941406,11.1337891 C2.04980419,11.2333989 2,11.3523756 2,11.4907227 C2,11.6290697 2.04980419,11.7480464 2.14941406,11.8476562 Z" id="arrow-up---icomoon"></path>
        </g>
    </g>
</svg>