<?xml version="1.0" encoding="UTF-8" standalone="no"?>
<svg width="18px" height="18px" viewBox="0 0 18 18" version="1.1" xmlns="http://www.w3.org/2000/svg" xmlns:xlink="http://www.w3.org/1999/xlink">
    <!-- Generator: Sketch 40.3 (33839) - http://www.bohemiancoding.com/sketch -->
    <title>icon -</title>
    <desc>Created with Sketch.</desc>
    <defs></defs>
    <g id="Icon-Font" stroke="none" stroke-width="1" fill="none" fill-rule="evenodd">
        <g id="icon--" fill="#000000">
            <path d="M2,4 C3.1045695,4 4,3.1045695 4,2 C4,0.8954305 3.1045695,0 2,0 C0.8954305,0 0,0.8954305 0,2 C0,3.1045695 0.8954305,4 2,4 Z M2,11 C3.1045695,11 4,10.1045695 4,9 C4,7.8954305 3.1045695,7 2,7 C0.8954305,7 0,7.8954305 0,9 C0,10.1045695 0.8954305,11 2,11 Z M2,18 C3.1045695,18 4,17.1045695 4,16 C4,14.8954305 3.1045695,14 2,14 C0.8954305,14 0,14.8954305 0,16 C0,17.1045695 0.8954305,18 2,18 Z M6,1 L12,1 L12,2 L6,2 L6,1 Z M6,3 L18,3 L18,4 L6,4 L6,3 Z M6,7.5 L9,7.5 L9,8.5 L6,8.5 L6,7.5 Z M6,9.5 L8,9.5 L8,10.5 L6,10.5 L6,9.5 Z M6,14.5 L7,14.5 L7,15.5 L6,15.5 L6,14.5 Z M6,16.5 L8,16.5 L8,17.5 L6,17.5 L6,16.5 Z" id="Combined-Shape"></path>
            <path d="M13.0054545,15.6827273 C11.5290909,15.6827273 10.3318182,14.4854545 10.3318182,13.0090909 C10.3318182,11.5327273 11.5290909,10.3354545 13.0054545,10.3354545 C14.4818182,10.3354545 15.6790909,11.5327273 15.6790909,13.0090909 C15.6790909,14.4854545 14.4818182,15.6827273 13.0054545,15.6827273 M16.7509091,14.1963636 L18,14.0072727 L17.9936364,12.0209091 L16.7581818,11.8318182 C16.69,11.6154545 16.5981818,11.3945455 16.4809091,11.1690909 C16.5618182,11.0572727 16.6836364,10.8981818 16.8454545,10.6927273 C17.0072727,10.4881818 17.19,10.2436364 17.19,10.2436364 L15.7518182,8.78454545 L14.7927273,9.50727273 C14.6081818,9.41272727 14.4054545,9.33 14.1854545,9.25727273 L13.9963636,8.01454545 L12.0109091,8 C12.0109091,8 11.8872727,8.64454545 11.8154545,9.25727273 C11.6036364,9.32454545 11.3990909,9.41 11.2009091,9.51363636 L10.2690909,8.79090909 L8.79727273,10.25 C8.79727273,10.25 9.33909091,10.9263636 9.51909091,11.1827273 C9.40636364,11.39 9.31909091,11.5972727 9.25636364,11.8045455 L8,11.9936364 L8.01363636,13.98 L9.24909091,14.1627273 C9.31181818,14.3836364 9.40454545,14.6063636 9.52636364,14.8318182 C9.44545455,14.9445455 9.32363636,15.1027273 9.16181818,15.3081818 C9,15.5127273 8.81727273,15.7572727 8.81727273,15.7572727 L10.2627273,17.2172727 L11.2136364,16.4936364 C11.3990909,16.5881818 11.6009091,16.6718182 11.8218182,16.7436364 L12.0109091,17.9872727 L13.9963636,18 C13.9963636,18 14.12,17.3563636 14.1918182,16.7436364 C14.4036364,16.6763636 14.6081818,16.5909091 14.8063636,16.4863636 L15.7381818,17.2172727 L17.21,15.7436364 C17.21,15.7436364 16.6454545,15.0363636 16.4872727,14.8109091 C16.5772727,14.6445455 16.6654545,14.44 16.7509091,14.1963636" id="Fill-12"></path>
        </g>
    </g>
</svg>