<?xml version="1.0" encoding="UTF-8" standalone="no"?>
<svg width="17px" height="17px" viewBox="0 0 17 17" version="1.1" xmlns="http://www.w3.org/2000/svg" xmlns:xlink="http://www.w3.org/1999/xlink">
    <!-- Generator: Sketch 42 (36781) - http://www.bohemiancoding.com/sketch -->
    <title>icon-cc-visa</title>
    <desc>Created with Sketch.</desc>
    <defs></defs>
    <g id="Icon-Font" stroke="none" stroke-width="1" fill="none" fill-rule="evenodd">
        <g id="icon-cc-visa" fill="#000000">
            <path d="M15.0843418,9.46066562 L15.0843418,9.47957636 L15.0843418,9.46066562 C15.0843418,9.48588007 15.0874935,9.50479062 15.0937971,9.51739784 C15.1001007,9.53000507 15.109556,9.5426121 15.1221632,9.55521933 C15.1347705,9.56782655 15.1505292,9.57728183 15.1694401,9.58358544 C15.1883509,9.58988905 15.2041097,9.59934433 15.2167169,9.61195155 C15.2293242,9.59934433 15.245083,9.58988905 15.2639938,9.58358544 C15.2829046,9.57728183 15.2986634,9.56782655 15.3112706,9.55521933 C15.3238779,9.5426121 15.3333331,9.53000507 15.3396368,9.51739784 C15.3459404,9.50479062 15.3490921,9.48588007 15.3490921,9.46066562 C15.3490921,9.4480584 15.3459404,9.4322996 15.3396368,9.41338877 C15.3333331,9.39447793 15.3238779,9.3818709 15.3112706,9.37556729 C15.2986634,9.36926367 15.2829046,9.3598084 15.2639938,9.34720117 C15.245083,9.33459395 15.2293242,9.33459395 15.2167169,9.34720117 C15.2041097,9.33459395 15.1883509,9.33459395 15.1694401,9.34720117 C15.1505292,9.3598084 15.1347705,9.36926367 15.1221632,9.37556729 C15.109556,9.3818709 15.1001007,9.39447793 15.0937971,9.41338877 C15.0874935,9.4322996 15.0843418,9.4480584 15.0843418,9.46066562 Z M15.2167169,9.55521933 L15.2167169,9.57413007 L15.2167169,9.55521933 C15.2041097,9.56782655 15.1915027,9.56782655 15.1788955,9.55521933 C15.1662882,9.5426121 15.156833,9.53630858 15.1505293,9.53630858 C15.1442257,9.53630858 15.1379222,9.52685331 15.1316186,9.50794247 L15.1221632,9.47957636 C15.1221632,9.45436191 15.125315,9.43860312 15.1316186,9.43229951 C15.1379222,9.4259959 15.1442257,9.41338886 15.1505293,9.39447803 C15.156833,9.37556719 15.1662882,9.36926367 15.1788955,9.37556729 C15.1915027,9.3818709 15.2041097,9.37871914 15.2167169,9.36611191 C15.2293242,9.37871914 15.2419312,9.3818709 15.2545384,9.37556729 C15.2671456,9.36926367 15.2797527,9.37556719 15.2923599,9.39447803 C15.3049671,9.41338886 15.3112706,9.4259959 15.3112706,9.43229951 L15.3112706,9.50794247 C15.3112706,9.52685331 15.3049671,9.53630858 15.2923599,9.53630858 C15.2797527,9.53630858 15.2671456,9.5426121 15.2545384,9.55521933 C15.2419312,9.56782655 15.2293242,9.56782655 15.2167169,9.55521933 Z M15.1978062,9.51739784 L15.1978062,9.53630858 L15.1978062,9.42284414 L15.2167169,9.44175488 L15.2167169,9.43229951 C15.2167169,9.43860312 15.2198687,9.43860312 15.2261723,9.43229951 C15.2324759,9.4259959 15.2356277,9.4259959 15.2356277,9.43229951 L15.2356277,9.42284414 L15.2356277,9.43229951 L15.2356277,9.43229951 L15.2356277,9.44175488 L15.2356277,9.44175488 L15.2356277,9.45121025 L15.2356277,9.45121025 L15.2356277,9.44175488 L15.2356277,9.45121025 C15.2356277,9.44490664 15.2324759,9.44490664 15.2261723,9.45121025 C15.2198687,9.45751386 15.2167169,9.45751386 15.2167169,9.45121025 L15.2167169,9.46066562 L15.1978062,9.44175488 L15.1978062,9.53630858 L15.1978062,9.46066562 L15.2167169,9.47957636 L15.2356277,9.51739784 L15.2734492,9.53630858 L15.2356277,9.46066562 C15.2482349,9.47327284 15.2545384,9.4764246 15.2545384,9.47012099 L15.2545384,9.45121025 L15.2545384,9.46066562 L15.2545384,9.4039334 C15.2545384,9.41654062 15.2513867,9.41969238 15.245083,9.41338877 C15.2387794,9.40708516 15.2356277,9.40708516 15.2356277,9.41338877 C15.2356277,9.41969238 15.2324759,9.41969238 15.2261723,9.41338877 C15.2198687,9.40708516 15.2167169,9.41023691 15.2167169,9.42284414 L15.1788955,9.4039334 L15.1788955,9.53630858 L15.1978062,9.51739784 Z M5.13729193,6.09455371 L5.13729193,6.11346445 L6.46104381,6.09455371 L4.49432674,10.9357034 L3.17057486,10.9167927 L2.05484114,6.71860816 C2.26916394,6.81946595 2.46772474,6.94868806 2.65052948,7.10627835 C2.83333422,7.26386865 2.99407392,7.4277601 3.13275338,7.59795762 C3.27143284,7.76815514 3.39750319,7.95095715 3.5109682,8.14636911 C3.62443321,8.34178108 3.71898597,8.53403836 3.79462932,8.72314672 L3.90809376,9.4039334 L5.13729193,6.09455371 Z M7.44440235,10.9357034 L6.19629344,10.9167927 L6.97163382,6.09455371 L8.21974273,6.07564296 L7.44440235,10.9357034 Z M11.9829802,6.22692889 L11.8127835,7.24810891 L11.6993191,7.21028743 C11.636283,7.17246576 11.570096,7.14725169 11.5007563,7.13464447 C11.4314166,7.12203724 11.3589261,7.10312669 11.2832828,7.07791224 C11.2076394,7.05269779 11.1256937,7.036939 11.0374432,7.03063539 C10.9491926,7.02433178 10.8546398,7.0148765 10.753782,7.00226928 C10.6277098,7.0148765 10.52055,7.0306353 10.4322994,7.04954613 C10.3440489,7.06845697 10.2715584,7.09997455 10.2148259,7.14409984 C10.1580934,7.18822512 10.1139688,7.23234974 10.0824507,7.27647502 C10.0509327,7.32060031 10.0351739,7.3741802 10.0351739,7.43721632 C10.0351739,7.48764522 10.0509327,7.54122512 10.0824507,7.59795762 C10.1139688,7.65469013 10.1612452,7.70196651 10.2242813,7.73978818 C10.2873174,7.77760985 10.3629596,7.82488623 10.4512102,7.88161874 C10.5394607,7.93835125 10.6340135,7.98562763 10.7348713,8.0234493 C10.9239797,8.12430709 11.0847193,8.21885985 11.2170952,8.30711041 C11.349471,8.39536098 11.4566308,8.49621726 11.5385778,8.60968227 C11.6205247,8.72314729 11.6835599,8.83976236 11.7276852,8.95953098 C11.7718105,9.07929961 11.7938728,9.21482523 11.7938728,9.36611191 C11.7938728,9.60564917 11.7402929,9.82942403 11.6331315,10.0374432 C11.5259701,10.2454624 11.3778374,10.4188091 11.1887291,10.5574886 C10.9996207,10.6961681 10.7726941,10.8064796 10.5079424,10.8884266 C10.2431907,10.9703735 9.94692539,11.0050429 9.61913757,10.9924356 C9.48045811,11.0050429 9.34178073,11.0018911 9.20310127,10.9829803 C9.06442181,10.9640694 8.9351997,10.9451589 8.81543108,10.9262481 C8.69566245,10.9073372 8.5853509,10.8789714 8.48449311,10.8411497 C8.38363532,10.803328 8.29538608,10.7718105 8.21974273,10.746596 L8.3899394,9.64977303 L8.56013607,9.74432674 C8.66099386,9.78214841 8.75554662,9.81996951 8.84379719,9.85779118 C8.93204776,9.89561285 9.020297,9.92082692 9.10854756,9.93343415 C9.19679813,9.94604137 9.29135089,9.96180016 9.39220868,9.980711 C9.49306647,9.99962184 9.60652978,10.0027736 9.73260202,9.99016637 C9.82085259,10.0027736 9.90910183,9.99647008 9.9973524,9.97125563 C10.085603,9.94604118 10.1675487,9.91767535 10.243192,9.8861573 C10.3188354,9.85463924 10.3787188,9.8042111 10.4228441,9.73487137 C10.4669694,9.66553164 10.4890317,9.5993447 10.4890317,9.53630858 C10.4890317,9.47327247 10.4764246,9.41969257 10.4512102,9.37556729 C10.4259957,9.331442 10.3881746,9.28416562 10.3377457,9.23373673 C10.2873168,9.18330783 10.2211299,9.13603145 10.139183,9.09190617 C10.057236,9.04778089 9.95322796,8.98789747 9.82715573,8.91225413 C9.71369071,8.86182523 9.59077212,8.7956383 9.45839627,8.71369135 C9.32602042,8.63174439 9.2062536,8.54034339 9.09909219,8.4394856 C8.99193079,8.33862781 8.90368155,8.21570922 8.83434182,8.07072615 C8.76500209,7.92574308 8.73663626,7.7713069 8.74924348,7.60741299 C8.74924348,7.36787574 8.79967162,7.15355615 8.90052941,6.9644478 C9.0013872,6.77533944 9.1463681,6.60514447 9.33547646,6.45385779 C9.52458481,6.3025711 9.74835968,6.19225955 10.0068078,6.12291982 C10.2652559,6.05358009 10.5457624,6.01260722 10.8483357,6 C10.974408,6.01260722 11.0910231,6.0220625 11.1981845,6.02836611 C11.3053459,6.03466972 11.4062021,6.05042852 11.5007563,6.07564296 C11.5953105,6.10085741 11.6835597,6.12291972 11.7655067,6.14183056 C11.8474536,6.16074139 11.9199441,6.18910722 11.9829802,6.22692889 Z M15.1788955,6.09455371 L15.1788955,6.11346445 L16.2000755,10.9167927 L15.0276095,10.9357034 C15.0276095,10.9230962 15.021306,10.8915786 15.0086988,10.8411497 C14.9960916,10.7907208 14.9834845,10.7213821 14.9708773,10.6331316 C14.9582701,10.544881 14.9425113,10.4629353 14.9236005,10.3872919 L14.8763236,10.1981845 C14.8258947,10.2107917 14.7218867,10.2139435 14.5642964,10.2076399 C14.4067061,10.2013363 14.2396629,10.2013363 14.0631617,10.2076399 C13.8866606,10.2139435 13.7196174,10.2139435 13.5620271,10.2076399 C13.4044368,10.2013363 13.3067323,10.204488 13.2689106,10.2170953 C13.2689106,10.2423097 13.2531518,10.2958896 13.2216338,10.3778366 C13.1901157,10.4597835 13.1585981,10.5385775 13.12708,10.6142208 C13.095562,10.6898642 13.0703479,10.7623546 13.0514371,10.8316943 C13.0325262,10.9010341 13.023071,10.9293999 13.023071,10.9167927 L11.6993191,10.9357034 L13.5525717,6.49167927 C13.5903934,6.42864315 13.6313663,6.36560798 13.6754915,6.30257186 C13.7196168,6.23953574 13.770045,6.19856288 13.8267775,6.17965204 C13.88351,6.1607412 13.9433934,6.14183065 14.0064295,6.12291982 C14.0694656,6.10400898 14.1388043,6.10085722 14.2144477,6.11346445 L15.1788955,6.09455371 Z M13.6282147,9.21482599 L13.6282147,9.23373673 C13.6912508,9.2211295 13.7731965,9.21797774 13.8740543,9.22428136 C13.9749121,9.23058497 14.0757684,9.23058497 14.1766262,9.22428136 C14.277484,9.21797774 14.3720367,9.21797774 14.4602873,9.22428136 C14.5485379,9.23058497 14.6178766,9.22743321 14.6683054,9.21482599 C14.6556982,9.16439709 14.6336359,9.0572373 14.6021179,8.89334339 C14.5705998,8.72944948 14.5390822,8.57186155 14.5075641,8.42057486 C14.4760461,8.26928817 14.4476803,8.13061079 14.4224658,8.00453856 C14.3972514,7.87846632 14.3846443,7.82173466 14.3846443,7.83434189 L14.3090014,7.39939484 C14.2837869,7.44982374 14.2617246,7.50025187 14.2428138,7.55068077 L14.1860815,7.7019667 C14.1671707,7.75239559 14.1545637,7.7902167 14.1482601,7.81543115 C14.1419565,7.84064559 14.1388047,7.85955614 14.1388047,7.87216337 C14.1388047,7.85955614 14.1167424,7.91313604 14.0726171,8.03290467 C14.0284918,8.15267329 13.9780637,8.28504716 13.9213312,8.43003023 C13.8645987,8.5750133 13.8110188,8.72629772 13.7605899,8.88388802 C13.710161,9.04147831 13.6660364,9.15178987 13.6282147,9.21482599 Z M2.7734493,6 L2.7734493,6.01891074 C2.84909264,6.00630352 2.91527957,6.01260703 2.97201208,6.03782148 C3.02874459,6.06303593 3.08232448,6.08825 3.13275338,6.11346445 C3.18318227,6.13867889 3.22730689,6.17965176 3.26512857,6.23638426 C3.30295024,6.29311677 3.32816431,6.35300019 3.34077153,6.4160363 L3.79462932,8.64750375 C3.6811643,8.34493038 3.53303165,8.06442386 3.3502269,7.80597577 C3.16742216,7.54752769 2.94995081,7.30484227 2.69780633,7.07791224 C2.44566186,6.85098221 2.15570006,6.65872494 1.82791224,6.50113464 C1.50012442,6.34354434 1.14082394,6.20801872 0.75,6.09455371 L0.768910741,6.01891074 L2.7734493,6 Z" id="î˜"></path>
        </g>
    </g>
</svg>