<?xml version="1.0" encoding="UTF-8" standalone="no"?>
<svg width="17px" height="17px" viewBox="0 0 17 17" version="1.1" xmlns="http://www.w3.org/2000/svg" xmlns:xlink="http://www.w3.org/1999/xlink">
    <!-- Generator: Sketch 42 (36781) - http://www.bohemiancoding.com/sketch -->
    <title>icon-low</title>
    <desc>Created with Sketch.</desc>
    <defs></defs>
    <g id="Icon-Font" stroke="none" stroke-width="1" fill="none" fill-rule="evenodd">
        <g id="icon-low" fill="#000000">
            <path d="M3.14941406,16.8476562 C3.24902394,16.9472661 3.36800061,16.9970703 3.50634766,16.9970703 C3.6446947,16.9970703 3.75813758,16.9472661 3.84667969,16.8476562 L8.49902344,12.1953125 L13.1513672,16.8476562 C13.2399093,16.9472661 13.3533522,16.9970703 13.4916992,16.9970703 C13.6300463,16.9970703 13.7490229,16.9472661 13.8486328,16.8476562 C13.9482427,16.7480464 13.9980469,16.6290697 13.9980469,16.4907227 C13.9980469,16.3523756 13.9482427,16.2333989 13.8486328,16.1337891 L8.84765625,11.1328125 C8.8033852,11.0885414 8.75081411,11.0553387 8.68994141,11.0332031 C8.62906871,11.0110676 8.56543002,11 8.49902344,11 C8.43261686,11 8.36897817,11.0110676 8.30810547,11.0332031 C8.24723277,11.0553387 8.19466168,11.0885414 8.15039062,11.1328125 L3.14941406,16.1337891 C3.04980419,16.2333989 3,16.3523756 3,16.4907227 C3,16.6290697 3.04980419,16.7480464 3.14941406,16.8476562 Z" id="arrow-up---icomoon" transform="translate(8.499023, 13.998535) scale(1, -1) translate(-8.499023, -13.998535) "></path>
            <rect id="Rectangle" transform="translate(8.500000, 8.000000) scale(1, -1) translate(-8.500000, -8.000000) " x="8" y="0" width="1" height="16" rx="0.5"></rect>
        </g>
    </g>
</svg>