<?xml version="1.0" encoding="UTF-8" standalone="no"?>
<svg width="17px" height="17px" viewBox="0 0 17 17" version="1.1" xmlns="http://www.w3.org/2000/svg" xmlns:xlink="http://www.w3.org/1999/xlink">
    <!-- Generator: Sketch 42 (36781) - http://www.bohemiancoding.com/sketch -->
    <title>icon-external-link</title>
    <desc>Created with Sketch.</desc>
    <defs></defs>
    <g id="Icon-Font" stroke="none" stroke-width="1" fill="none" fill-rule="evenodd">
        <g id="icon-external-link" fill="#000000">
            <g id="Group" transform="translate(8.500000, 8.500000) rotate(90.000000) translate(-8.500000, -8.500000) translate(2.000000, 0.000000)">
                <path d="M1,16 L1,5.5 C1,5.22385763 0.776142375,5 0.5,5 C0.223857625,5 8.8817842e-16,5.22385763 8.8817842e-16,5.5 L8.8817842e-16,17 L13,17 L13,5.5 C13,5.22385763 12.7761424,5 12.5,5 C12.2238576,5 12,5.22385763 12,5.5 L12,16 L1,16 Z" id="Path" fill-rule="nonzero"></path>
                <path d="M7,1.69628906 L9.15136719,3.84765625 C9.2399093,3.94726612 9.35335217,3.99707031 9.49169922,3.99707031 C9.63004626,3.99707031 9.74902294,3.94726612 9.84863281,3.84765625 C9.94824269,3.74804638 9.99804688,3.6290697 9.99804688,3.49072266 C9.99804688,3.35237561 9.94824269,3.23339894 9.84863281,3.13378906 L6.84765625,0.1328125 C6.8033852,0.0885414453 6.75081411,0.0553386523 6.68994141,0.033203125 C6.62906871,0.0110675977 6.56543002,0 6.49902344,0 C6.43261686,0 6.36897817,0.0110675977 6.30810547,0.033203125 C6.24723277,0.0553386523 6.19466168,0.0885414453 6.15039063,0.1328125 L3.14941406,3.13378906 C3.04980419,3.23339894 3,3.35237561 3,3.49072266 C3,3.6290697 3.04980419,3.74804638 3.14941406,3.84765625 C3.24902394,3.94726612 3.36800061,3.99707031 3.50634766,3.99707031 C3.6446947,3.99707031 3.75813758,3.94726612 3.84667969,3.84765625 L6,1.69433594 L6,11.4987692 C6,11.7702494 6.22385763,12 6.5,12 C6.76806641,12 7,11.7755913 7,11.4987692 L7,1.69628906 Z" id="Combined-Shape"></path>
            </g>
        </g>
    </g>
</svg>