<?xml version="1.0" encoding="UTF-8" standalone="no"?>
<svg width="17px" height="17px" viewBox="0 0 17 17" version="1.1" xmlns="http://www.w3.org/2000/svg" xmlns:xlink="http://www.w3.org/1999/xlink">
    <!-- Generator: Sketch 42 (36781) - http://www.bohemiancoding.com/sketch -->
    <title>icon-feed-view</title>
    <desc>Created with Sketch.</desc>
    <defs></defs>
    <g id="Icon-Font" stroke="none" stroke-width="1" fill="none" fill-rule="evenodd">
        <g id="icon-feed-view" fill="#000000">
            <path d="M9,9.99703014 C9,9.4463856 9.45303631,9 9.99703014,9 L16.0029699,9 C16.5536144,9 17,9.45303631 17,9.99703014 L17,16.0029699 C17,16.5536144 16.5469637,17 16.0029699,17 L9.99703014,17 C9.4463856,17 9,16.5469637 9,16.0029699 L9,9.99703014 Z M9,0.997030139 C9,0.446385598 9.45303631,0 9.99703014,0 L16.0029699,0 C16.5536144,0 17,0.453036308 17,0.997030139 L17,7.00296986 C17,7.5536144 16.5469637,8 16.0029699,8 L9.99703014,8 C9.4463856,8 9,7.54696369 9,7.00296986 L9,0.997030139 Z M0,9.99703014 C0,9.4463856 0.453036308,9 0.997030139,9 L7.00296986,9 C7.5536144,9 8,9.45303631 8,9.99703014 L8,16.0029699 C8,16.5536144 7.54696369,17 7.00296986,17 L0.997030139,17 C0.446385598,17 0,16.5469637 0,16.0029699 L0,9.99703014 Z M0,0.997030139 C0,0.446385598 0.453036308,0 0.997030139,0 L7.00296986,0 C7.5536144,0 8,0.453036308 8,0.997030139 L8,7.00296986 C8,7.5536144 7.54696369,8 7.00296986,8 L0.997030139,8 C0.446385598,8 0,7.54696369 0,7.00296986 L0,0.997030139 Z" id="Combined-Shape"></path>
        </g>
    </g>
</svg>