<?xml version="1.0" encoding="UTF-8" standalone="no"?>
<svg width="18px" height="18px" viewBox="0 0 18 18" version="1.1" xmlns="http://www.w3.org/2000/svg" xmlns:xlink="http://www.w3.org/1999/xlink">
    <!-- Generator: Sketch 40.3 (33839) - http://www.bohemiancoding.com/sketch -->
    <title>icon - </title>
    <desc>Created with Sketch.</desc>
    <defs></defs>
    <g id="Icon-Font" stroke="none" stroke-width="1" fill="none" fill-rule="evenodd">
        <g id="icon---" fill="#000000">
            <g id="Page-1" transform="translate(1.000000, 3.000000)">
                <polygon id="Fill-15" points="11.89215 2.54409 11.89215 5.12934 15.5214 5.12934 15.5214 7.32534 11.89215 7.32534 11.89215 11.99859 9.0234 11.99859 9.0234 0.20634 16.00065 0.20634 16.00065 2.54409"></polygon>
                <path d="M0,3.49989 L1.29375,3.49989 L1.29375,4.72164 C2.05425,3.76539 3.0105,3.28839 4.0545,3.28839 C5.84325,3.28839 6.552,4.47414 6.552,5.94339 L6.552,12.00039 L5.25825,12.00039 L5.25825,6.19089 C5.25825,5.12889 4.887,4.45614 3.753,4.45614 C2.79675,4.45614 1.8945,5.18289 1.29375,6.01539 L1.29375,12.00039 L0,12.00039 L0,3.49989 L0,3.49989 Z" id="Fill-1"></path>
            </g>
        </g>
    </g>
</svg>