<?xml version="1.0" encoding="UTF-8" standalone="no"?>
<svg width="17px" height="17px" viewBox="0 0 17 17" version="1.1" xmlns="http://www.w3.org/2000/svg" xmlns:xlink="http://www.w3.org/1999/xlink">
    <!-- Generator: Sketch 42 (36781) - http://www.bohemiancoding.com/sketch -->
    <title>icon-reply</title>
    <desc>Created with Sketch.</desc>
    <defs></defs>
    <g id="Icon-Font" stroke="none" stroke-width="1" fill="none" fill-rule="evenodd">
        <g id="icon-reply" fill="#000000">
            <path d="M2.27380717,9.9414497 C2.34240339,9.97840123 2.41716217,9.99687683 2.49808429,9.99687683 L13.2899106,9.99687683 L11.1481481,12.1372243 C11.0485308,12.2367758 10.9987229,12.3556828 10.9987229,12.4939489 C10.9987229,12.6322149 11.0485308,12.7511219 11.1481481,12.8506734 C11.1924225,12.8949186 11.2449976,12.9308672 11.3058748,12.9585204 C11.3667521,12.9861736 11.4303956,13 11.4968072,13 C11.5632187,13 11.6268622,12.9861736 11.6877395,12.9585204 C11.7486167,12.9308672 11.8011918,12.8949186 11.8454662,12.8506734 L14.8505747,9.84755026 C14.8727119,9.8254277 14.8948488,9.80054019 14.916986,9.77288698 C14.9391231,9.74523377 14.9557258,9.7148157 14.9667944,9.68163186 C14.9889316,9.62632544 15,9.5654893 15,9.49912161 C15,9.43275391 14.9889316,9.36638721 14.9667944,9.30001952 C14.9557258,9.27789695 14.9391231,9.25300944 14.916986,9.22535624 C14.8948488,9.19770303 14.8727119,9.17281552 14.8505747,9.15069295 L11.8454662,6.14756978 C11.7569174,6.04801824 11.643466,5.99824322 11.5051086,5.99824322 C11.3667511,5.99824322 11.2477655,6.04801824 11.1481481,6.14756978 C11.0485308,6.24712133 10.9987229,6.36602833 10.9987229,6.50429436 C10.9987229,6.64256039 11.0485308,6.76146739 11.1481481,6.86101893 L13.2899106,9.00136639 L3.00007513,9.00136639 L3.00007513,4.49066973 C3.00007513,4.22772479 2.77620068,4 2.50003756,4 C2.23195102,4 2,4.21968032 2,4.49066973 L2,9.50523111 C2,9.69065206 2.11132495,9.85855927 2.27380717,9.9414497 Z" id="qpr-icon---icomoon"></path>
        </g>
    </g>
</svg>