<?xml version="1.0" encoding="UTF-8" standalone="no"?>
<svg width="17px" height="17px" viewBox="0 0 17 17" version="1.1" xmlns="http://www.w3.org/2000/svg" xmlns:xlink="http://www.w3.org/1999/xlink">
    <!-- Generator: Sketch 42 (36781) - http://www.bohemiancoding.com/sketch -->
    <title>icon-ncaab</title>
    <desc>Created with Sketch.</desc>
    <defs></defs>
    <g id="Icon-Font" stroke="none" stroke-width="1" fill="none" fill-rule="evenodd">
        <g id="icon-ncaab" fill="#000000">
            <path d="M15.5058594,9.99414062 C15.9153666,9.99414062 16.2667629,10.1407863 16.5600586,10.434082 C16.8533543,10.7273778 17,11.0843078 17,11.5048828 L17,12.0029297 C17,12.1357429 16.9501958,12.2519526 16.8505859,12.3515625 C16.7509761,12.4511724 16.6347663,12.5009766 16.5019531,12.5009766 C16.3580722,12.5009766 16.2390955,12.4511724 16.1450195,12.3515625 C16.0509435,12.2519526 16.0039062,12.1357429 16.0039062,12.0029297 L16.0039062,11.5048828 C16.0039062,11.3610019 15.9541021,11.2420252 15.8544922,11.1479492 C15.7548823,11.0538732 15.6386725,11.0068359 15.5058594,11.0068359 L14.4931641,11.0068359 C14.0836568,11.0068359 13.7322606,11.1534816 13.4389648,11.4467773 C13.1456691,11.7400731 12.9990234,12.0914693 12.9990234,12.5009766 L12.9990234,14.4931641 C12.9990234,14.9137391 13.1456691,15.2706691 13.4389648,15.5639648 C13.7322606,15.8572606 14.0836568,16.0039062 14.4931641,16.0039062 L15.5058594,16.0039062 C15.6386725,16.0039062 15.7548823,15.9541021 15.8544922,15.8544922 C15.9541021,15.7548823 16.0039062,15.6386725 16.0039062,15.5058594 L16.0039062,15.0078125 C16.0039062,14.8639316 16.0509435,14.742188 16.1450195,14.6425781 C16.2390955,14.5429683 16.3580722,14.4931641 16.5019531,14.4931641 C16.6347663,14.4931641 16.7509761,14.5429683 16.8505859,14.6425781 C16.9501958,14.742188 17,14.8639316 17,15.0078125 L17,15.5058594 C17,15.9153666 16.8533543,16.2667629 16.5600586,16.5600586 C16.2667629,16.8533543 15.9153666,17 15.5058594,17 L14.4931641,17 C13.8069627,17 13.22038,16.7565129 12.7333984,16.2695312 C12.2464168,15.7825496 12.0029297,15.1904332 12.0029297,14.4931641 L12.0029297,12.5009766 C12.0029297,11.8147752 12.2464168,11.2254256 12.7333984,10.7329102 C13.22038,10.2403947 13.8069627,9.99414062 14.4931641,9.99414062 L15.5058594,9.99414062 Z M8.99804688,8.99804688 L8.99804688,15.9707031 C9.21940215,15.9485676 9.443521,15.9208986 9.67041016,15.8876953 C9.89729931,15.854492 10.1324858,15.8046878 10.3759766,15.7382812 C10.5087897,15.705078 10.6360671,15.7244463 10.7578125,15.7963867 C10.8795579,15.8683272 10.9570311,15.9707025 10.9902344,16.1035156 C11.0234377,16.2363288 11.0040694,16.3608393 10.9321289,16.4770508 C10.8601884,16.5932623 10.7578132,16.6679686 10.625,16.7011719 C10.248696,16.8007817 9.88346531,16.875488 9.52929688,16.925293 C9.17512844,16.9750979 8.83203291,17 8.5,17 C7.32681705,17 6.22559108,16.7758811 5.19628906,16.3276367 C4.16698704,15.8793923 3.26774473,15.2706744 2.49853516,14.5014648 C1.72932558,13.7322553 1.12060771,12.833013 0.672363281,11.8037109 C0.224118853,10.7744089 0,9.67318295 0,8.5 C0,7.32681705 0.224118853,6.22559108 0.672363281,5.19628906 C1.12060771,4.16698704 1.72932558,3.26774473 2.49853516,2.49853516 C3.26774473,1.72932558 4.16698704,1.12060771 5.19628906,0.672363281 C6.22559108,0.224118853 7.32681705,0 8.5,0 C9.67318295,0 10.7744089,0.224118853 11.8037109,0.672363281 C12.833013,1.12060771 13.7322553,1.72932558 14.5014648,2.49853516 C15.2706744,3.26774473 15.8793923,4.16698704 16.3276367,5.19628906 C16.7758811,6.22559108 17,7.32681705 17,8.5 C17,8.63281316 16.9501958,8.74902294 16.8505859,8.84863281 C16.7509761,8.94824269 16.6347663,8.99804688 16.5019531,8.99804688 L8.99804688,8.99804688 Z M12.1191406,8.00195312 L15.9873047,8.00195312 C15.9430336,7.39322612 15.8323577,6.80941035 15.6552734,6.25048828 C15.4781892,5.69156622 15.2402359,5.16862223 14.9414062,4.68164062 C14.1777306,5.10221564 13.5551782,5.58642304 13.0737305,6.13427734 C12.5922827,6.68213165 12.2740893,7.30468401 12.1191406,8.00195312 Z M14.2939453,3.76855469 C13.9729802,3.3701152 13.618817,3.01041827 13.2314453,2.68945312 C12.8440736,2.36848798 12.4235049,2.09179804 11.9697266,1.859375 C11.5159483,1.62695196 11.0400416,1.4388028 10.5419922,1.29492188 C10.0439428,1.15104095 9.52929953,1.06250017 8.99804688,1.02929688 L8.99804688,8.00195312 L11.0566406,8.00195312 C11.1894538,6.93944781 11.5380831,6.09277659 12.1025391,5.46191406 C12.666995,4.83105153 13.3974565,4.26660405 14.2939453,3.76855469 Z M8.00195312,1.02929688 C7.48176823,1.06250017 6.98095944,1.14550715 6.49951172,1.27832031 C6.018064,1.41113348 5.5587587,1.58821504 5.12158203,1.80957031 C4.68440537,2.03092559 4.27213735,2.29378103 3.88476562,2.59814453 C3.4973939,2.90250803 3.14323077,3.23730286 2.82226562,3.60253906 C3.27604394,3.87923315 3.68554505,4.18359209 4.05078125,4.515625 C4.41601745,4.84765791 4.73144398,5.20182104 4.99707031,5.578125 C5.26269664,5.95442896 5.47851479,6.34456178 5.64453125,6.74853516 C5.81054771,7.15250853 5.91568988,7.57031034 5.95996094,8.00195312 L8.00195312,8.00195312 L8.00195312,1.02929688 Z M2.22460938,4.39941406 C1.8815087,4.93066672 1.60481876,5.4978811 1.39453125,6.10107422 C1.18424374,6.70426734 1.05696637,7.3378873 1.01269531,8.00195312 L4.96386719,8.00195312 C4.86425731,7.30468401 4.57926667,6.64892885 4.10888672,6.03466797 C3.63850676,5.42040708 3.0104206,4.8753279 2.22460938,4.39941406 Z M4.96386719,8.99804688 L1.01269531,8.99804688 C1.05696637,9.6621127 1.18424374,10.2957327 1.39453125,10.8989258 C1.60481876,11.5021189 1.8815087,12.0693333 2.22460938,12.6005859 C3.0104206,12.1246721 3.63850676,11.5795929 4.10888672,10.965332 C4.57926667,10.3510711 4.86425731,9.69531599 4.96386719,8.99804688 Z M8.00195312,15.9707031 L8.00195312,8.99804688 L5.95996094,8.99804688 C5.91568988,9.42968966 5.81054771,9.84749147 5.64453125,10.2514648 C5.47851479,10.6554382 5.26269664,11.045571 4.99707031,11.421875 C4.73144398,11.798179 4.41601745,12.1523421 4.05078125,12.484375 C3.68554505,12.8164079 3.27604394,13.1207668 2.82226562,13.3974609 C3.14323077,13.7626971 3.4973939,14.097492 3.88476562,14.4018555 C4.27213735,14.706219 4.68440537,14.9690744 5.12158203,15.1904297 C5.5587587,15.411785 6.018064,15.5888665 6.49951172,15.7216797 C6.98095944,15.8544929 7.48176823,15.9374998 8.00195312,15.9707031 Z" id="CBB---icomoon"></path>
        </g>
    </g>
</svg>