<?xml version="1.0" encoding="UTF-8" standalone="no"?>
<svg width="17px" height="17px" viewBox="0 0 17 17" version="1.1" xmlns="http://www.w3.org/2000/svg" xmlns:xlink="http://www.w3.org/1999/xlink">
    <!-- Generator: Sketch 42 (36781) - http://www.bohemiancoding.com/sketch -->
    <title>icon-golf</title>
    <desc>Created with Sketch.</desc>
    <defs></defs>
    <g id="Icon-Font" stroke="none" stroke-width="1" fill="none" fill-rule="evenodd">
        <g id="icon-golf" fill="#000000">
            <path d="M7.90154656,2.46169483 C7.90154656,2.5921164 7.8526392,2.70623357 7.75482302,2.80404974 C7.65700685,2.90186592 7.54288968,2.95077328 7.41246811,2.95077328 C7.27117808,2.95077328 7.15434384,2.90186592 7.06196189,2.80404974 C6.96957995,2.70623357 6.92338967,2.5921164 6.92338967,2.46169483 C6.92338967,2.3204048 6.96957995,2.20357056 7.06196189,2.11118862 C7.15434384,2.01880667 7.27117808,1.97261639 7.41246811,1.97261639 C7.54288968,1.97261639 7.65700685,2.01880667 7.75482302,2.11118862 C7.8526392,2.20357056 7.90154656,2.3204048 7.90154656,2.46169483 Z M6.92338967,4.41800861 C6.92338967,4.55929864 6.87448231,4.67613288 6.77666614,4.76851483 C6.67884996,4.86089677 6.56473279,4.90708705 6.43431122,4.90708705 C6.29302119,4.90708705 6.17346988,4.86089677 6.0756537,4.76851483 C5.97783752,4.67613288 5.92893017,4.55929864 5.92893017,4.41800861 C5.92893017,4.28758704 5.97783752,4.17346988 6.0756537,4.0756537 C6.17346988,3.97783752 6.29302119,3.92893017 6.43431122,3.92893017 C6.56473279,3.92893017 6.67884996,3.97783752 6.77666614,4.0756537 C6.87448231,4.17346988 6.92338967,4.28758704 6.92338967,4.41800861 Z M9.85786033,2.46169483 C9.85786033,2.5921164 9.81167005,2.70623357 9.71928811,2.80404974 C9.62690616,2.90186592 9.51007192,2.95077328 9.36878189,2.95077328 C9.23836032,2.95077328 9.12424315,2.90186592 9.02642698,2.80404974 C8.9286108,2.70623357 8.87970344,2.5921164 8.87970344,2.46169483 C8.87970344,2.3204048 8.9286108,2.20357056 9.02642698,2.11118862 C9.12424315,2.01880667 9.23836032,1.97261639 9.36878189,1.97261639 C9.51007192,1.97261639 9.62690616,2.01880667 9.71928811,2.11118862 C9.81167005,2.20357056 9.85786033,2.3204048 9.85786033,2.46169483 Z M11.8304767,3.43985172 C11.8304767,3.57027329 11.7815694,3.68439045 11.6837532,3.78220663 C11.585937,3.88002281 11.4718198,3.92893017 11.3413983,3.92893017 C11.2001082,3.92893017 11.083274,3.88002281 10.9908921,3.78220663 C10.8985101,3.68439045 10.8523198,3.57027329 10.8523198,3.43985172 C10.8523198,3.30943015 10.8985101,3.19531299 10.9908921,3.09749681 C11.083274,2.99968063 11.2001082,2.95077328 11.3413983,2.95077328 C11.4718198,2.95077328 11.585937,2.99968063 11.6837532,3.09749681 C11.7815694,3.19531299 11.8304767,3.30943015 11.8304767,3.43985172 Z M10.8523198,4.41800861 C10.8523198,4.55929864 10.8034125,4.67613288 10.7055963,4.76851483 C10.6077801,4.86089677 10.4882288,4.90708705 10.3469388,4.90708705 C10.2165172,4.90708705 10.1024,4.86089677 10.0045839,4.76851483 C9.90676769,4.67613288 9.85786033,4.55929864 9.85786033,4.41800861 C9.85786033,4.28758704 9.90676769,4.17346988 10.0045839,4.0756537 C10.1024,3.97783752 10.2165172,3.92893017 10.3469388,3.92893017 C10.4882288,3.92893017 10.6077801,3.97783752 10.7055963,4.0756537 C10.8034125,4.17346988 10.8523198,4.28758704 10.8523198,4.41800861 Z M8.87970344,4.41800861 C8.87970344,4.55929864 8.83079609,4.67613288 8.73297991,4.76851483 C8.63516373,4.86089677 8.52104657,4.90708705 8.390625,4.90708705 C8.26020343,4.90708705 8.14608627,4.86089677 8.04827009,4.76851483 C7.95045391,4.67613288 7.90154656,4.55929864 7.90154656,4.41800861 C7.90154656,4.28758704 7.95045391,4.17346988 8.04827009,4.0756537 C8.14608627,3.97783752 8.26020343,3.92893017 8.390625,3.92893017 C8.52104657,3.92893017 8.63516373,3.97783752 8.73297991,4.0756537 C8.83079609,4.17346988 8.87970344,4.28758704 8.87970344,4.41800861 Z M7.90154656,10.3195552 C7.90154656,10.4499767 7.8526392,10.5640939 7.75482302,10.6619101 C7.65700685,10.7597263 7.54288968,10.8086336 7.41246811,10.8086336 C7.27117808,10.8086336 7.15434384,10.7597263 7.06196189,10.6619101 C6.96957995,10.5640939 6.92338967,10.4499767 6.92338967,10.3195552 C6.92338967,10.1782651 6.96957995,10.0614309 7.06196189,9.96904895 C7.15434384,9.876667 7.27117808,9.83047672 7.41246811,9.83047672 C7.54288968,9.83047672 7.65700685,9.876667 7.75482302,9.96904895 C7.8526392,10.0614309 7.90154656,10.1782651 7.90154656,10.3195552 Z M9.85786033,10.3195552 C9.85786033,10.4499767 9.81167005,10.5640939 9.71928811,10.6619101 C9.62690616,10.7597263 9.51007192,10.8086336 9.36878189,10.8086336 C9.23836032,10.8086336 9.12424315,10.7597263 9.02642698,10.6619101 C8.9286108,10.5640939 8.87970344,10.4499767 8.87970344,10.3195552 C8.87970344,10.1782651 8.9286108,10.0614309 9.02642698,9.96904895 C9.12424315,9.876667 9.23836032,9.83047672 9.36878189,9.83047672 C9.51007192,9.83047672 9.62690616,9.876667 9.71928811,9.96904895 C9.81167005,10.0614309 9.85786033,10.1782651 9.85786033,10.3195552 Z M4.95077328,7.36878189 C4.95077328,7.49920346 4.904583,7.61332062 4.81220105,7.7111368 C4.71981911,7.80895298 4.60298487,7.85786033 4.46169483,7.85786033 C4.33127326,7.85786033 4.2171561,7.80895298 4.11933992,7.7111368 C4.02152375,7.61332062 3.97261639,7.49920346 3.97261639,7.36878189 C3.97261639,7.22749185 4.02152375,7.11065762 4.11933992,7.01827567 C4.2171561,6.92589372 4.33127326,6.87970344 4.46169483,6.87970344 C4.60298487,6.87970344 4.71981911,6.92589372 4.81220105,7.01827567 C4.904583,7.11065762 4.95077328,7.22749185 4.95077328,7.36878189 Z M5.92893017,9.32509566 C5.92893017,9.4663857 5.88273989,9.58593701 5.79035794,9.68375319 C5.69797599,9.78156937 5.58114176,9.83047672 5.43985172,9.83047672 C5.30943015,9.83047672 5.19531299,9.78156937 5.09749681,9.68375319 C4.99968063,9.58593701 4.95077328,9.4663857 4.95077328,9.32509566 C4.95077328,9.19467409 4.99968063,9.08055693 5.09749681,8.98274075 C5.19531299,8.88492457 5.30943015,8.83601722 5.43985172,8.83601722 C5.58114176,8.83601722 5.69797599,8.88492457 5.79035794,8.98274075 C5.88273989,9.08055693 5.92893017,9.19467409 5.92893017,9.32509566 Z M4.95077328,5.3961655 C4.95077328,5.53745553 4.904583,5.65700685 4.81220105,5.75482302 C4.71981911,5.8526392 4.60298487,5.90154656 4.46169483,5.90154656 C4.33127326,5.90154656 4.2171561,5.8526392 4.11933992,5.75482302 C4.02152375,5.65700685 3.97261639,5.53745553 3.97261639,5.3961655 C3.97261639,5.26574393 4.02152375,5.15162676 4.11933992,5.05381059 C4.2171561,4.95599441 4.33127326,4.90708705 4.46169483,4.90708705 C4.60298487,4.90708705 4.71981911,4.95599441 4.81220105,5.05381059 C4.904583,5.15162676 4.95077328,5.26574393 4.95077328,5.3961655 Z M5.92893017,3.43985172 C5.92893017,3.57027329 5.88273989,3.68439045 5.79035794,3.78220663 C5.69797599,3.88002281 5.58114176,3.92893017 5.43985172,3.92893017 C5.30943015,3.92893017 5.19531299,3.88002281 5.09749681,3.78220663 C4.99968063,3.68439045 4.95077328,3.57027329 4.95077328,3.43985172 C4.95077328,3.30943015 4.99968063,3.19531299 5.09749681,3.09749681 C5.19531299,2.99968063 5.30943015,2.95077328 5.43985172,2.95077328 C5.58114176,2.95077328 5.69797599,2.99968063 5.79035794,3.09749681 C5.88273989,3.19531299 5.92893017,3.30943015 5.92893017,3.43985172 Z M12.8086336,7.36878189 C12.8086336,7.49920346 12.7597263,7.61332062 12.6619101,7.7111368 C12.5640939,7.80895298 12.4499767,7.85786033 12.3195552,7.85786033 C12.1782651,7.85786033 12.0614309,7.80895298 11.9690489,7.7111368 C11.876667,7.61332062 11.8304767,7.49920346 11.8304767,7.36878189 C11.8304767,7.22749185 11.876667,7.11065762 11.9690489,7.01827567 C12.0614309,6.92589372 12.1782651,6.87970344 12.3195552,6.87970344 C12.4499767,6.87970344 12.5640939,6.92589372 12.6619101,7.01827567 C12.7597263,7.11065762 12.8086336,7.22749185 12.8086336,7.36878189 Z M11.8304767,9.32509566 C11.8304767,9.4663857 11.7815694,9.58593701 11.6837532,9.68375319 C11.585937,9.78156937 11.4718198,9.83047672 11.3413983,9.83047672 C11.2001082,9.83047672 11.083274,9.78156937 10.9908921,9.68375319 C10.8985101,9.58593701 10.8523198,9.4663857 10.8523198,9.32509566 C10.8523198,9.19467409 10.8985101,9.08055693 10.9908921,8.98274075 C11.083274,8.88492457 11.2001082,8.83601722 11.3413983,8.83601722 C11.4718198,8.83601722 11.585937,8.88492457 11.6837532,8.98274075 C11.7815694,9.08055693 11.8304767,9.19467409 11.8304767,9.32509566 Z M10.8523198,8.34693878 C10.8523198,8.48822881 10.8034125,8.60506305 10.7055963,8.69744499 C10.6077801,8.78982694 10.4882288,8.83601722 10.3469388,8.83601722 C10.2165172,8.83601722 10.1024,8.78982694 10.0045839,8.69744499 C9.90676769,8.60506305 9.85786033,8.48822881 9.85786033,8.34693878 C9.85786033,8.21651721 9.90676769,8.10240004 10.0045839,8.00458386 C10.1024,7.90676769 10.2165172,7.85786033 10.3469388,7.85786033 C10.4882288,7.85786033 10.6077801,7.90676769 10.7055963,8.00458386 C10.8034125,8.10240004 10.8523198,8.21651721 10.8523198,8.34693878 Z M12.8086336,5.3961655 C12.8086336,5.53745553 12.7597263,5.65700685 12.6619101,5.75482302 C12.5640939,5.8526392 12.4499767,5.90154656 12.3195552,5.90154656 C12.1782651,5.90154656 12.0614309,5.8526392 11.9690489,5.75482302 C11.876667,5.65700685 11.8304767,5.53745553 11.8304767,5.3961655 C11.8304767,5.26574393 11.876667,5.15162676 11.9690489,5.05381059 C12.0614309,4.95599441 12.1782651,4.90708705 12.3195552,4.90708705 C12.4499767,4.90708705 12.5640939,4.95599441 12.6619101,5.05381059 C12.7597263,5.15162676 12.8086336,5.26574393 12.8086336,5.3961655 Z M10.8523198,6.390625 C10.8523198,6.52104657 10.8034125,6.63516373 10.7055963,6.73297991 C10.6077801,6.83079609 10.4882288,6.87970344 10.3469388,6.87970344 C10.2165172,6.87970344 10.1024,6.83079609 10.0045839,6.73297991 C9.90676769,6.63516373 9.85786033,6.52104657 9.85786033,6.390625 C9.85786033,6.24933497 9.90676769,6.13250073 10.0045839,6.04011878 C10.1024,5.94773684 10.2165172,5.90154656 10.3469388,5.90154656 C10.4882288,5.90154656 10.6077801,5.94773684 10.7055963,6.04011878 C10.8034125,6.13250073 10.8523198,6.24933497 10.8523198,6.390625 Z M8.87970344,6.390625 C8.87970344,6.52104657 8.83079609,6.63516373 8.73297991,6.73297991 C8.63516373,6.83079609 8.52104657,6.87970344 8.390625,6.87970344 C8.26020343,6.87970344 8.14608627,6.83079609 8.04827009,6.73297991 C7.95045391,6.63516373 7.90154656,6.52104657 7.90154656,6.390625 C7.90154656,6.24933497 7.95045391,6.13250073 8.04827009,6.04011878 C8.14608627,5.94773684 8.26020343,5.90154656 8.390625,5.90154656 C8.52104657,5.90154656 8.63516373,5.94773684 8.73297991,6.04011878 C8.83079609,6.13250073 8.87970344,6.24933497 8.87970344,6.390625 Z M8.87970344,8.34693878 C8.87970344,8.48822881 8.83079609,8.60506305 8.73297991,8.69744499 C8.63516373,8.78982694 8.52104657,8.83601722 8.390625,8.83601722 C8.26020343,8.83601722 8.14608627,8.78982694 8.04827009,8.69744499 C7.95045391,8.60506305 7.90154656,8.48822881 7.90154656,8.34693878 C7.90154656,8.21651721 7.95045391,8.10240004 8.04827009,8.00458386 C8.14608627,7.90676769 8.26020343,7.85786033 8.390625,7.85786033 C8.52104657,7.85786033 8.63516373,7.90676769 8.73297991,8.00458386 C8.83079609,8.10240004 8.87970344,8.21651721 8.87970344,8.34693878 Z M6.92338967,6.390625 C6.92338967,6.52104657 6.87448231,6.63516373 6.77666614,6.73297991 C6.67884996,6.83079609 6.56473279,6.87970344 6.43431122,6.87970344 C6.29302119,6.87970344 6.17346988,6.83079609 6.0756537,6.73297991 C5.97783752,6.63516373 5.92893017,6.52104657 5.92893017,6.390625 C5.92893017,6.24933497 5.97783752,6.13250073 6.0756537,6.04011878 C6.17346988,5.94773684 6.29302119,5.90154656 6.43431122,5.90154656 C6.56473279,5.90154656 6.67884996,5.94773684 6.77666614,6.04011878 C6.87448231,6.13250073 6.92338967,6.24933497 6.92338967,6.390625 Z M6.92338967,8.34693878 C6.92338967,8.48822881 6.87448231,8.60506305 6.77666614,8.69744499 C6.67884996,8.78982694 6.56473279,8.83601722 6.43431122,8.83601722 C6.29302119,8.83601722 6.17346988,8.78982694 6.0756537,8.69744499 C5.97783752,8.60506305 5.92893017,8.48822881 5.92893017,8.34693878 C5.92893017,8.21651721 5.97783752,8.10240004 6.0756537,8.00458386 C6.17346988,7.90676769 6.29302119,7.85786033 6.43431122,7.85786033 C6.56473279,7.85786033 6.67884996,7.90676769 6.77666614,8.00458386 C6.87448231,8.10240004 6.92338967,8.21651721 6.92338967,8.34693878 Z M9.85786033,13.7431043 L6.92338967,13.7431043 C6.80383656,13.7431043 6.7005877,13.7811433 6.61363999,13.8572226 C6.52669227,13.9333018 6.46691662,14.0256824 6.43431122,14.134367 C6.4125743,14.2430517 6.42615967,14.3490176 6.47506776,14.452268 C6.52397585,14.5555184 6.59733688,14.6343136 6.69515306,14.6886559 L6.9559949,14.8027742 C7.12989033,14.8897219 7.27932947,15.0065562 7.4043168,15.1532805 C7.52930414,15.3000047 7.62440178,15.4711805 7.68961256,15.6668128 L7.91784917,16.3678253 C7.96132303,16.4656414 8.02381576,16.5444366 8.10532924,16.6042132 C8.18684272,16.6639897 8.28194036,16.6938776 8.390625,16.6938776 C8.49930964,16.6938776 8.59440728,16.6639897 8.67592076,16.6042132 C8.75743424,16.5444366 8.81992697,16.4656414 8.86340083,16.3678253 L9.09163744,15.6668128 C9.15684822,15.4711805 9.25194586,15.3000047 9.3769332,15.1532805 C9.50192053,15.0065562 9.65135967,14.8897219 9.8252551,14.8027742 L10.0860969,14.6886559 C10.1839131,14.6343136 10.2572741,14.5555184 10.3061822,14.452268 C10.3550903,14.3490176 10.3686757,14.2430517 10.3469388,14.134367 C10.3143334,14.0256824 10.2545577,13.9333018 10.16761,13.8572226 C10.0806623,13.7811433 9.97741344,13.7431043 9.85786033,13.7431043 Z M8.390625,0 C9.2709706,0 10.0996786,0.168458668 10.8767738,0.505381059 C11.6538689,0.842303449 12.3304207,1.2987721 12.9064493,1.8748007 C13.4824779,2.4508293 13.9389466,3.12738105 14.2758689,3.90447624 C14.6127913,4.68157143 14.78125,5.5102794 14.78125,6.390625 C14.78125,7.2709706 14.6127913,8.09696149 14.2758689,8.86862245 C13.9389466,9.64028341 13.4824779,10.3168352 12.9064493,10.898298 C12.3304207,11.4797608 11.6538689,11.9362295 10.8767738,12.2677176 C10.0996786,12.5992058 9.2709706,12.7649474 8.390625,12.7649474 C7.5102794,12.7649474 6.68157143,12.5992058 5.90447624,12.2677176 C5.12738105,11.9362295 4.4508293,11.4797608 3.8748007,10.898298 C3.2987721,10.3168352 2.84230345,9.64028341 2.50538106,8.86862245 C2.16845867,8.09696149 2,7.2709706 2,6.390625 C2,5.5102794 2.16845867,4.68157143 2.50538106,3.90447624 C2.84230345,3.12738105 3.2987721,2.4508293 3.8748007,1.8748007 C4.4508293,1.2987721 5.12738105,0.842303449 5.90447624,0.505381059 C6.68157143,0.168458668 7.5102794,0 8.390625,0 Z M8.390625,11.7867905 C9.14054903,11.7867905 9.84155446,11.6455026 10.4936623,11.3629225 C11.1457702,11.0803424 11.716356,10.6945178 12.2054369,10.2054369 C12.6945178,9.71635597 13.0803424,9.14305309 13.3629225,8.485511 C13.6455026,7.82796892 13.7867905,7.12968057 13.7867905,6.390625 C13.7867905,5.64070097 13.6455026,4.93969554 13.3629225,4.28758769 C13.0803424,3.63547984 12.6945178,3.06489403 12.2054369,2.57581314 C11.716356,2.08673225 11.1457702,1.69819048 10.4936623,1.41017618 C9.84155446,1.12216188 9.14054903,0.978156888 8.390625,0.978156888 C7.64070097,0.978156888 6.93969554,1.12216188 6.28758769,1.41017618 C5.63547984,1.69819048 5.06489403,2.08673225 4.57581314,2.57581314 C4.08673225,3.06489403 3.70090756,3.63547984 3.41832749,4.28758769 C3.13574742,4.93969554 2.9944595,5.64070097 2.9944595,6.390625 C2.9944595,7.12968057 3.13574742,7.82796892 3.41832749,8.485511 C3.70090756,9.14305309 4.08673225,9.71635597 4.57581314,10.2054369 C5.06489403,10.6945178 5.63547984,11.0803424 6.28758769,11.3629225 C6.93969554,11.6455026 7.64070097,11.7867905 8.390625,11.7867905 Z" id="golf---icomoon"></path>
        </g>
    </g>
</svg>