<?xml version="1.0" encoding="UTF-8" standalone="no"?>
<svg width="17px" height="17px" viewBox="0 0 17 17" version="1.1" xmlns="http://www.w3.org/2000/svg" xmlns:xlink="http://www.w3.org/1999/xlink">
    <!-- Generator: Sketch 42 (36781) - http://www.bohemiancoding.com/sketch -->
    <title>icon-star-half</title>
    <desc>Created with Sketch.</desc>
    <defs></defs>
    <g id="Icon-Font" stroke="none" stroke-width="1" fill="none" fill-rule="evenodd">
        <g id="icon-star-half" fill="#000000">
            <path d="M15.7022775,7.43973415 C16.3296532,6.89600859 16.169007,6.45523193 15.3403712,6.45523193 L10.5847357,6.45523193 L8.95809603,1.43262519 C8.7018496,0.641408144 8.28602153,0.642552216 8.03014562,1.43262519 L6.40350594,6.45523193 L1.64787049,6.45523193 C0.820619464,6.45523193 0.661243315,6.89830947 1.2859641,7.43973415 L5.10145632,10.7464941 L3.44270215,15.5809827 C3.17380746,16.3646843 3.50710584,16.6312626 4.19872688,16.1686552 L8.49412083,13.2955771 L12.7895148,16.1686552 C13.4759504,16.6277943 13.8148741,16.3659664 13.5455395,15.5809827 L11.8867853,10.7464941 L15.7022775,7.43973415 Z M8.51003216,3.06616272 L9.67226877,6.64972559 L9.88534548,7.42454999 L14.3599564,7.42454999 L11.3768825,9.96209991 L10.8151348,10.4657358 L11.0475821,11.1824483 L12.2485599,14.7078994 L9.11052107,12.6158735 L8.51003216,12.1703495 L8.51003216,3.06616272 Z" id=""></path>
        </g>
    </g>
</svg>