<?xml version="1.0" encoding="UTF-8" standalone="no"?>
<svg width="17px" height="17px" viewBox="0 0 17 17" version="1.1" xmlns="http://www.w3.org/2000/svg" xmlns:xlink="http://www.w3.org/1999/xlink">
    <!-- Generator: Sketch 42 (36781) - http://www.bohemiancoding.com/sketch -->
    <title>icon-create</title>
    <desc>Created with Sketch.</desc>
    <defs></defs>
    <g id="Icon-Font" stroke="none" stroke-width="1" fill="none" fill-rule="evenodd">
        <g id="icon-create" fill="#000000">
            <path d="M13.4384766,4.41210938 C13.5823575,4.5559903 13.6902666,4.71923737 13.762207,4.90185547 C13.8341475,5.08447357 13.8701172,5.27538963 13.8701172,5.47460938 L13.8701172,15.5683594 C13.8701172,15.9778666 13.7234715,16.3292629 13.4301758,16.6225586 C13.13688,16.9158543 12.7854838,17.0625 12.3759766,17.0625 L4.37402344,17.0625 C3.96451618,17.0625 3.61311996,16.9158543 3.31982422,16.6225586 C3.02652848,16.3292629 2.87988281,15.9778666 2.87988281,15.5683594 L2.87988281,1.57324219 C2.87988281,1.15266717 3.02652848,0.795737144 3.31982422,0.502441406 C3.61311996,0.209145669 3.96451618,0.0625 4.37402344,0.0625 L8.45800781,0.0625 C8.65722756,0.0625 8.84814362,0.101236592 9.03076172,0.178710938 C9.21337982,0.256185283 9.37662688,0.36686126 9.52050781,0.510742188 L13.4384766,4.41210938 Z M12.6748047,5.05957031 L8.87304688,1.27441406 L8.87304688,4.56152344 C8.87304688,4.70540437 8.92285106,4.82438104 9.02246094,4.91845703 C9.12207081,5.01253302 9.23828059,5.05957031 9.37109375,5.05957031 L12.6748047,5.05957031 Z M12.3759766,16.0664062 C12.5087897,16.0664062 12.6249995,16.0166021 12.7246094,15.9169922 C12.8242192,15.8173823 12.8740234,15.7011725 12.8740234,15.5683594 L12.8740234,6.07226562 L9.37109375,6.07226562 C8.96158649,6.07226562 8.61019027,5.92561996 8.31689453,5.63232422 C8.02359879,5.33902848 7.87695312,4.98209846 7.87695312,4.56152344 L7.87695312,1.05859375 L4.37402344,1.05859375 C4.24121027,1.05859375 4.1250005,1.10839794 4.02539062,1.20800781 C3.92578075,1.30761769 3.87597656,1.42936126 3.87597656,1.57324219 L3.87597656,15.5683594 C3.87597656,15.7011725 3.92578075,15.8173823 4.02539062,15.9169922 C4.1250005,16.0166021 4.24121027,16.0664062 4.37402344,16.0664062 L12.3759766,16.0664062 Z" id="uniE00C---icomoon"></path>
        </g>
    </g>
</svg>