<?xml version="1.0" encoding="UTF-8" standalone="no"?>
<svg width="17px" height="17px" viewBox="0 0 17 17" version="1.1" xmlns="http://www.w3.org/2000/svg" xmlns:xlink="http://www.w3.org/1999/xlink">
    <!-- Generator: Sketch 42 (36781) - http://www.bohemiancoding.com/sketch -->
    <title>icon-close</title>
    <desc>Created with Sketch.</desc>
    <defs></defs>
    <g id="Icon-Font" stroke="none" stroke-width="1" fill="none" fill-rule="evenodd">
        <g id="icon-close" fill="#000000">
            <path d="M7.77286814,8.5 L4.15242936,12.1204388 C3.95274474,12.3201234 3.94724941,12.6507446 4.14778097,12.8512762 C4.34244784,13.045943 4.67551956,13.0497266 4.87861836,12.8466278 L8.49905714,9.22618899 L12.1204388,12.8475706 C12.3201234,13.0472553 12.6507446,13.0527506 12.8512762,12.852219 C13.045943,12.6575522 13.0497266,12.3244804 12.8466278,12.1213816 L9.22524613,8.5 L12.8475706,4.87767549 C13.0472553,4.67799087 13.0527506,4.34736965 12.852219,4.1468381 C12.6575522,3.95217123 12.3244804,3.94838771 12.1213816,4.1514865 L8.49905714,7.77381101 L4.87767549,4.15242936 C4.67799087,3.95274474 4.34736965,3.94724941 4.1468381,4.14778097 C3.95217123,4.34244784 3.94838771,4.67551956 4.1514865,4.87861836 L7.77286814,8.5 Z" id="Combined-Shape"></path>
        </g>
    </g>
</svg>