<?xml version="1.0" encoding="UTF-8"?>
<svg width="17px" height="17px" viewBox="0 0 17 17" version="1.1" xmlns="http://www.w3.org/2000/svg" xmlns:xlink="http://www.w3.org/1999/xlink">
    <!-- Generator: Sketch 45.2 (43514) - http://www.bohemiancoding.com/sketch -->
    <title>Icon/Help</title>
    <desc>Created with Sketch.</desc>
    <defs></defs>
    <g id="Symbols" stroke="none" stroke-width="1" fill="none" fill-rule="evenodd">
        <g id="Icon/Help" fill-rule="nonzero" fill="#000000">
            <path d="M8.5,15.75 C12.5040644,15.75 15.75,12.5040644 15.75,8.5 C15.75,4.49593556 12.5040644,1.25 8.5,1.25 C4.49593556,1.25 1.25,4.49593556 1.25,8.5 C1.25,12.5040644 4.49593556,15.75 8.5,15.75 Z M8.5,17 C3.80557963,17 0,13.1944204 0,8.5 C0,3.80557963 3.80557963,0 8.5,0 C13.1944204,0 17,3.80557963 17,8.5 C17,13.1944204 13.1944204,17 8.5,17 Z M5.71629151,6.02850885 C5.71629151,6.02850885 5.69805447,6.6527276 6.375,6.6527276 C7.05194553,6.6527276 7.0049878,6.02850885 7.0049878,6.02850885 C7.06101807,5.20673151 7.61509522,4.69000788 8.47422608,4.69000788 C9.32713135,4.69000788 9.8812085,5.20673151 9.8812085,5.91022272 C9.8812085,6.55145807 9.6135083,6.91254206 8.86021241,7.36700983 C8.00730713,7.87750788 7.62754639,8.43781061 7.65867432,9.31561823 L7.66489991,9.8136651 C7.66489991,9.8136651 7.57893817,10.5127778 8.30929426,10.5127778 C9.03965035,10.5127778 8.9535962,9.8136651 8.9535962,9.8136651 L8.9535962,9.43390436 C8.9535962,8.79266901 9.18394287,8.46271296 9.98704346,7.98956842 C10.8088208,7.49774714 11.2944165,6.81915827 11.2944165,5.85419245 C11.2944165,4.52191706 10.1862622,3.54450006 8.54270752,3.54450006 C6.7372876,3.54450006 5.77232178,4.61530085 5.71629151,6.02850885 Z M8.31858643,13.4527276 C8.78550537,13.4527276 9.14036377,13.1040948 9.14036377,12.649627 C9.14036377,12.1951592 8.78550537,11.8465264 8.31858643,11.8465264 C7.86411866,11.8465264 7.50303467,12.1951592 7.50303467,12.649627 C7.50303467,13.1040948 7.86411866,13.4527276 8.31858643,13.4527276 Z" id="Combined-Shape"></path>
        </g>
    </g>
</svg>