<?xml version="1.0" encoding="UTF-8" standalone="no"?>
<svg width="18px" height="18px" viewBox="0 0 18 18" version="1.1" xmlns="http://www.w3.org/2000/svg" xmlns:xlink="http://www.w3.org/1999/xlink">
    <!-- Generator: Sketch 40.3 (33839) - http://www.bohemiancoding.com/sketch -->
    <title>icon - </title>
    <desc>Created with Sketch.</desc>
    <defs>
        <polygon id="path-1" points="8.75729189 12.3019784 17.5144865 12.3019784 17.5144865 0.000194594595 8.75729189 0.000194594595 9.72972973e-05 0.000194594595 9.72972973e-05 12.3019784"></polygon>
    </defs>
    <g id="Icon-Font" stroke="none" stroke-width="1" fill="none" fill-rule="evenodd">
        <g id="icon---">
            <g id="Page-1" transform="translate(0.250000, 3.000000)">
                <mask id="mask-2" fill="white">
                    <use xlink:href="#path-1"></use>
                </mask>
                <g id="Clip-2"></g>
                <path d="M13.3254486,5.69841081 C13.1576108,3.89987027 12.485773,2.32997838 11.5074486,1.29765405 C13.8673946,1.86295135 15.705827,3.12246486 16.3168541,4.64127568 C15.6552324,4.99932973 14.6827459,5.39824865 13.3254486,5.69841081 M8.75782703,9.27797838 C5.65647568,9.27797838 4.0608,8.61392432 4.0608,8.61392432 L4.06128649,7.11797838 C4.06128649,7.11797838 5.33831351,7.61176216 8.75782703,7.61176216 C12.177827,7.61176216 13.4548541,7.11846486 13.4548541,7.11846486 L13.4548541,8.61392432 C13.4548541,8.61392432 11.8596649,9.27797838 8.75782703,9.27797838 M6.00820541,1.29765405 C5.02988108,2.32997838 4.35512432,3.8988973 4.18582703,5.69743784 C2.82901622,5.39678919 1.85652973,4.99738378 1.19539459,4.63884324 C1.80788108,3.12100541 3.64923243,1.86295135 6.00820541,1.29765405 M8.75782703,0.973167568 C10.5836108,0.973167568 12.1432865,3.15797838 12.3729081,5.87938378 C11.351773,6.0443027 10.161827,6.1523027 8.75782703,6.1523027 C7.3548,6.1523027 6.16534054,6.0443027 5.14420541,5.87938378 C5.37431351,3.15846486 6.93204324,0.973167568 8.75782703,0.973167568 M17.5145838,3.79576216 C17.5145838,3.79576216 17.397827,3.92322162 17.147773,4.11441081 C16.0799351,1.73743784 12.7333946,0.000194594595 8.75782703,0.000194594595 C4.78274595,0.000194594595 1.43620541,1.73695135 0.367881081,4.11343784 C0.117827027,3.92224865 0.00107027027,3.79478919 0.00107027027,3.79478919 C0.00107027027,3.79478919 9.72972973e-05,8.01603243 9.72972973e-05,8.77543784 C1.43036757,10.8464108 4.81290811,12.3019784 8.75782703,12.3019784 C12.701773,12.3019784 16.083827,10.8468973 17.5145838,8.7768973 L17.5145838,3.79576216" id="Fill-1" fill="#000000" mask="url(#mask-2)"></path>
            </g>
        </g>
    </g>
</svg>