<?xml version="1.0" encoding="UTF-8" standalone="no"?>
<svg width="17px" height="17px" viewBox="0 0 17 17" version="1.1" xmlns="http://www.w3.org/2000/svg" xmlns:xlink="http://www.w3.org/1999/xlink">
    <!-- Generator: Sketch 42 (36781) - http://www.bohemiancoding.com/sketch -->
    <title>icon-arrow-big-right</title>
    <desc>Created with Sketch.</desc>
    <defs></defs>
    <g id="Icon-Font" stroke="none" stroke-width="1" fill="none" fill-rule="evenodd">
        <g id="icon-arrow-big-right" fill="#000000">
            <path d="M7.97717797,5.10763962 L2.81683057,10.4113276 C2.40037143,10.8281315 2.39391707,11.5158977 2.81378656,11.9361148 L3.0617449,12.1842784 C3.48101278,12.6038934 4.16372017,12.6031316 4.58527082,12.1812319 L9.01873522,7.62461777 L13.4147292,12.1812319 C13.8362798,12.6031316 14.5189872,12.6038934 14.9382551,12.1842784 L15.1862134,11.9361148 C15.6060829,11.5158977 15.5996286,10.8281315 15.1831694,10.4113276 L10.1348739,5.17857823 C10.1042735,5.13736795 10.0703148,5.09789398 10.0329864,5.06053473 L9.7850281,4.81237112 C9.36576021,4.39275613 8.68305283,4.39351801 8.26150218,4.81541765 L8.06093225,5.02155887 L8.01743103,5.0650961 C8.0035474,5.07899123 7.99012991,5.09317889 7.97717797,5.10763962 L7.97717797,5.10763962 Z" id="Combined-Shape" transform="translate(9.000000, 8.498325) rotate(90.000000) translate(-9.000000, -8.498325) "></path>
        </g>
    </g>
</svg>