<?xml version="1.0" encoding="UTF-8" standalone="no"?>
<svg width="17px" height="17px" viewBox="0 0 17 17" version="1.1" xmlns="http://www.w3.org/2000/svg" xmlns:xlink="http://www.w3.org/1999/xlink">
    <!-- Generator: Sketch 42 (36781) - http://www.bohemiancoding.com/sketch -->
    <title>icon-twitter</title>
    <desc>Created with Sketch.</desc>
    <defs>
        <polygon id="path-1" points="16.99575 13.8031972 16.99575 0.000141666667 9.44444444e-05 0.000141666667 9.44444444e-05 13.8031972 16.99575 13.8031972"></polygon>
    </defs>
    <g id="Icon-Font" stroke="none" stroke-width="1" fill="none" fill-rule="evenodd">
        <g id="icon-twitter">
            <g id="Page-1" transform="translate(0.000000, 1.500000)">
                <mask id="mask-2" fill="white">
                    <use xlink:href="#path-1"></use>
                </mask>
                <g id="Clip-2"></g>
                <path d="M16.9958444,1.63875278 C16.5132333,2.34330833 15.9309833,2.943975 15.2486222,3.44028056 C15.2547611,3.54086389 15.2594833,3.691975 15.2594833,3.89314167 C15.2594833,4.82719722 15.1230111,5.76078056 14.8491222,6.69105833 C14.5757056,7.62275278 14.16015,8.51619722 13.6034,9.37091944 C13.04665,10.2270583 12.3831778,10.9835583 11.6144,11.6408917 C10.84515,12.2991694 9.91723333,12.8238083 8.83206667,13.2157528 C7.74548333,13.6076972 6.58476111,13.8031972 5.34848333,13.8031972 C3.40009444,13.8031972 1.61651111,13.2818639 9.44444444e-05,12.2391972 C0.251788889,12.268475 0.531344444,12.2826417 0.841594444,12.2826417 C2.45801111,12.2826417 3.90017778,11.7863361 5.16478889,10.7946694 C4.40970556,10.7805028 3.7349,10.5486417 3.13753889,10.0990861 C2.54159444,9.65000278 2.13076111,9.076725 1.90787222,8.37925278 C2.14492778,8.41561389 2.36545556,8.43261389 2.56662222,8.43261389 C2.87498333,8.43261389 3.18145556,8.39341944 3.48367778,8.31408611 C2.67806667,8.14880833 1.90220556,7.74789167 1.37378889,7.11180833 C0.845372222,6.475725 0.472316667,5.73716944 0.472316667,4.89566944 L0.472316667,4.85269722 C0.944538889,5.12611389 1.59431667,5.272975 2.15578889,5.294225 C1.68073333,4.97830833 1.35773333,4.56558611 1.07770556,4.05416944 C0.796261111,3.54416944 0.6834,2.99025278 0.6834,2.39383611 C0.6834,1.76153056 0.856233333,1.17550278 1.17215,0.636225 C2.04198333,1.707225 3.10684444,2.56525278 4.35398333,3.20841944 C5.60112222,3.85158611 6.94128889,4.20905833 8.36456667,4.28083611 C8.30648333,4.00789167 8.28003889,3.74203056 8.28003889,3.48278056 C8.28003889,2.51944722 8.62051111,1.698725 9.30003889,1.01919722 C9.97909444,0.339669444 10.8007611,0.000141666667 11.7645667,0.000141666667 C12.7713444,0.000141666667 13.6189833,0.366586111 14.3093722,1.09994722 C15.0927889,0.949308333 15.8304,0.668336111 16.5207889,0.258919444 C16.2549278,1.08530833 15.7439833,1.72516944 14.9889,2.17803056 C15.6575667,2.106725 16.3257611,1.92633611 16.9958444,1.63875278" id="Fill-1" fill="#000000" mask="url(#mask-2)"></path>
            </g>
        </g>
    </g>
</svg>