<?xml version="1.0" encoding="UTF-8" standalone="no"?>
<svg width="17px" height="17px" viewBox="0 0 17 17" version="1.1" xmlns="http://www.w3.org/2000/svg" xmlns:xlink="http://www.w3.org/1999/xlink">
    <!-- Generator: Sketch 42 (36781) - http://www.bohemiancoding.com/sketch -->
    <title>icon-high</title>
    <desc>Created with Sketch.</desc>
    <defs></defs>
    <g id="Icon-Font" stroke="none" stroke-width="1" fill="none" fill-rule="evenodd">
        <g id="icon-high" fill="#000000">
            <path d="M9,1.69628906 L13.1513672,5.84765625 C13.2399093,5.94726612 13.3533522,5.99707031 13.4916992,5.99707031 C13.6300463,5.99707031 13.7490229,5.94726612 13.8486328,5.84765625 C13.9482427,5.74804638 13.9980469,5.6290697 13.9980469,5.49072266 C13.9980469,5.35237561 13.9482427,5.23339894 13.8486328,5.13378906 L8.84765625,0.1328125 C8.8033852,0.0885414453 8.75081411,0.0553386523 8.68994141,0.033203125 C8.62906871,0.0110675977 8.56543002,0 8.49902344,0 C8.43261686,0 8.36897817,0.0110675977 8.30810547,0.033203125 C8.24723277,0.0553386523 8.19466168,0.0885414453 8.15039062,0.1328125 L3.14941406,5.13378906 C3.04980419,5.23339894 3,5.35237561 3,5.49072266 C3,5.6290697 3.04980419,5.74804638 3.14941406,5.84765625 C3.24902394,5.94726612 3.36800061,5.99707031 3.50634766,5.99707031 C3.6446947,5.99707031 3.75813758,5.94726612 3.84667969,5.84765625 L8,1.69433594 L8,16.5036068 C8,16.773819 8.22385763,17 8.5,17 C8.76806641,17 9,16.7777572 9,16.5036068 L9,1.69628906 Z" id="Combined-Shape"></path>
        </g>
    </g>
</svg>