<?xml version="1.0" encoding="UTF-8" standalone="no"?>
<svg width="17px" height="17px" viewBox="0 0 17 17" version="1.1" xmlns="http://www.w3.org/2000/svg" xmlns:xlink="http://www.w3.org/1999/xlink">
    <!-- Generator: Sketch 42 (36781) - http://www.bohemiancoding.com/sketch -->
    <title>icon-share</title>
    <desc>Created with Sketch.</desc>
    <defs></defs>
    <g id="Icon-Font" stroke="none" stroke-width="1" fill="none" fill-rule="evenodd">
        <g id="icon-share" fill="#000000">
            <path d="M3,16 L3,5.5 C3,5.22385763 2.77614237,5 2.5,5 C2.22385763,5 2,5.22385763 2,5.5 L2,17 L15,17 L15,5.5 C15,5.22385763 14.7761424,5 14.5,5 C14.2238576,5 14,5.22385763 14,5.5 L14,16 L3,16 Z" id="Path" fill-rule="nonzero"></path>
            <path d="M9,1.69628906 L11.1513672,3.84765625 C11.2399093,3.94726612 11.3533522,3.99707031 11.4916992,3.99707031 C11.6300463,3.99707031 11.7490229,3.94726612 11.8486328,3.84765625 C11.9482427,3.74804638 11.9980469,3.6290697 11.9980469,3.49072266 C11.9980469,3.35237561 11.9482427,3.23339894 11.8486328,3.13378906 L8.84765625,0.1328125 C8.8033852,0.0885414453 8.75081411,0.0553386523 8.68994141,0.033203125 C8.62906871,0.0110675977 8.56543002,0 8.49902344,0 C8.43261686,0 8.36897817,0.0110675977 8.30810547,0.033203125 C8.24723277,0.0553386523 8.19466168,0.0885414453 8.15039062,0.1328125 L5.14941406,3.13378906 C5.04980419,3.23339894 5,3.35237561 5,3.49072266 C5,3.6290697 5.04980419,3.74804638 5.14941406,3.84765625 C5.24902394,3.94726612 5.36800061,3.99707031 5.50634766,3.99707031 C5.6446947,3.99707031 5.75813758,3.94726612 5.84667969,3.84765625 L8,1.69433594 L8,11.4987692 C8,11.7702494 8.22385763,12 8.5,12 C8.76806641,12 9,11.7755913 9,11.4987692 L9,1.69628906 Z" id="Combined-Shape"></path>
        </g>
    </g>
</svg>