<?xml version="1.0" encoding="UTF-8" standalone="no"?>
<svg width="17px" height="17px" viewBox="0 0 17 17" version="1.1" xmlns="http://www.w3.org/2000/svg" xmlns:xlink="http://www.w3.org/1999/xlink">
    <!-- Generator: Sketch 42 (36781) - http://www.bohemiancoding.com/sketch -->
    <title>icon-fd</title>
    <desc>Created with Sketch.</desc>
    <defs></defs>
    <g id="Icon-Font" stroke="none" stroke-width="1" fill="none" fill-rule="evenodd">
        <g id="icon-fd" fill="#000000">
            <path d="M7.01560976,2.80292683 C6.99349582,2.85821166 6.95756122,2.90243886 6.90780488,2.93560976 C6.85804853,2.96878065 6.80552873,2.99089425 6.7502439,3.00195122 C6.08682595,3.07934998 5.44276735,3.20373898 4.81804878,3.37512195 C4.19333021,3.54650492 3.58244201,3.75934832 2.98536585,4.01365854 C3.04065068,4.41170931 3.10975568,4.80422571 3.19268293,5.19121951 C3.27561017,5.57821332 3.37235717,5.95414452 3.48292683,6.31902439 C3.86992063,6.13105597 4.27349383,5.95967557 4.69365854,5.80487805 C5.11382324,5.65008053 5.54503844,5.52292733 5.98731707,5.42341463 C6.009431,5.42341463 6.0287804,5.43170723 6.04536585,5.44829268 C6.0619513,5.46487813 6.0702439,5.48422753 6.0702439,5.50634146 C5.95967424,5.95967706 5.86569144,6.42406266 5.78829268,6.8995122 C5.71089392,7.37496173 5.65560992,7.85040413 5.62243902,8.32585366 C5.62243902,8.39219545 5.60308962,8.45300785 5.56439024,8.50829268 C5.52569086,8.56357751 5.47317106,8.60227631 5.40682927,8.62439024 C5.27414568,8.67967507 5.13869988,8.74048747 5.0004878,8.80682927 C4.86227573,8.87317106 4.72682993,8.93951186 4.59414634,9.00585366 C4.7378869,9.27122084 4.8899179,9.53105564 5.0502439,9.78536585 C5.21056991,10.0396761 5.37918611,10.2884541 5.55609756,10.5317073 C5.57821149,10.5648782 5.59479669,10.5952844 5.60585366,10.6229268 C5.61691062,10.6505692 5.62243902,10.6809754 5.62243902,10.7141463 C5.66666689,11.4328491 5.75512129,12.1404843 5.88780488,12.8370732 C6.02048847,13.533662 6.19739727,14.2081268 6.41853659,14.8604878 L6.55121951,15.2585366 C6.59544738,15.3912202 6.64520298,15.5239018 6.7004878,15.6565854 C6.71154477,15.6897563 6.70325217,15.7146341 6.67560976,15.7312195 C6.64796734,15.747805 6.62308954,15.7505692 6.60097561,15.7395122 C6.46829202,15.6399995 6.34113882,15.5377241 6.2195122,15.4326829 C6.09788557,15.3276418 5.97626077,15.2253664 5.85463415,15.1258537 C5.50081124,14.8162586 5.16081464,14.4928472 4.83463415,14.1556098 C4.50845365,13.8183723 4.19609905,13.4700831 3.89756098,13.1107317 C3.5990229,12.7513803 3.3143103,12.3809775 3.04341463,11.9995122 C2.77251897,11.6180469 2.52097677,11.2227663 2.28878049,10.8136585 C2.03447027,10.3713799 1.79951327,9.9180511 1.58390244,9.45365854 C1.3682916,8.98926597 1.1720334,8.51382357 0.995121951,8.02731707 C0.851381395,7.61820934 0.721463995,7.20357934 0.605365854,6.78341463 C0.489267712,6.36324993 0.386992312,5.93756313 0.298536585,5.50634146 C0.210080859,5.05300586 0.140975859,4.59138446 0.0912195122,4.12146341 C0.0414631659,3.65154237 0.0110569659,3.17333577 0,2.68682927 C0,2.56520264 0.0304062,2.44634204 0.0912195122,2.3302439 C0.152032824,2.21414576 0.243251424,2.12845556 0.364878049,2.07317073 C0.773985785,1.84097445 1.19414419,1.63089525 1.62536585,1.44292683 C2.05658752,1.25495841 2.49885952,1.08357801 2.95219512,0.928780488 C3.38341679,0.773982966 3.82568879,0.638537166 4.27902439,0.522439024 C4.73235999,0.406340883 5.18845299,0.309593883 5.64731707,0.232195122 C6.10618116,0.154796361 6.57333096,0.096748161 7.04878049,0.0580487805 C7.52423002,0.0193494 8.00520082,0 8.49170732,0 L8.64097561,0 C8.67414651,0 8.69626011,0.013821 8.70731707,0.0414634146 C8.71837404,0.0691058293 8.71284564,0.0939836293 8.69073171,0.116097561 C8.60227598,0.22666722 8.51382158,0.33999942 8.42536585,0.456097561 C8.33691013,0.572195702 8.24845573,0.691056302 8.16,0.812682927 C7.93886068,1.12227797 7.73430988,1.44292517 7.54634146,1.77463415 C7.35837304,2.10634312 7.18146424,2.44910392 7.01560976,2.80292683 Z M16.635122,2.07317073 C16.7456916,2.12845556 16.834146,2.21414576 16.9004878,2.3302439 C16.9668296,2.44634204 17,2.56520264 17,2.68682927 C16.988943,3.17333577 16.9557726,3.65154237 16.9004878,4.12146341 C16.845203,4.59138446 16.7733338,5.05300586 16.684878,5.50634146 C16.6074793,5.93756313 16.5107323,6.36324993 16.3946341,6.78341463 C16.278536,7.20357934 16.1486186,7.61820934 16.004878,8.02731707 C15.8279666,8.51382357 15.6317084,8.98926597 15.4160976,9.45365854 C15.2004867,9.9180511 14.9655297,10.3713799 14.7112195,10.8136585 C14.4679663,11.2227663 14.2136599,11.6180469 13.9482927,11.9995122 C13.6829255,12.3809775 13.4009771,12.7513803 13.102439,13.1107317 C12.8039009,13.4700831 12.4915463,13.8183723 12.1653659,14.1556098 C11.8391854,14.4928472 11.4991888,14.8162586 11.1453659,15.1258537 C10.7473151,15.4686196 10.3326851,15.7947952 9.90146341,16.1043902 C9.47024175,16.4139853 9.02244135,16.7014621 8.55804878,16.9668293 C8.54699181,16.9778862 8.53040661,16.9806504 8.50829268,16.975122 C8.48617875,16.9695935 8.46959355,16.9613009 8.45853659,16.9502439 C8.23739727,16.5521931 8.03008227,16.1347989 7.83658537,15.6980488 C7.64308846,15.2612986 7.46894386,14.810734 7.31414634,14.3463415 C7.21463365,14.0035755 7.12065085,13.6552863 7.03219512,13.3014634 C6.9437394,12.9476405 6.8718702,12.5882945 6.81658537,12.2234146 C6.8055284,12.1902437 6.8165852,12.1653659 6.8497561,12.1487805 C6.882927,12.132195 6.910569,12.1404876 6.93268293,12.1736585 C7.17593618,12.4169118 7.42747838,12.654633 7.68731707,12.8868293 C7.94715577,13.1190256 8.21528317,13.3401616 8.49170732,13.5502439 C8.90081505,13.2406489 9.28780305,12.9144733 9.65268293,12.5717073 C10.0175628,12.2289414 10.3630878,11.8668312 10.6892683,11.4853659 C11.0154488,11.1039005 11.322275,10.7058557 11.6097561,10.2912195 C11.8972372,9.87658329 12.1626004,9.44813229 12.4058537,9.00585366 C12.6380499,8.58568896 12.8453649,8.15170956 13.0278049,7.70390244 C13.2102448,7.25609532 13.3733326,6.79447392 13.5170732,6.31902439 C13.6276428,5.94308755 13.7243898,5.56162795 13.8073171,5.17463415 C13.8902443,4.78764034 13.9538209,4.40065234 13.9980488,4.01365854 C13.5778841,3.82569012 13.1466689,3.66260232 12.7043902,3.52439024 C12.2621116,3.38617817 11.811547,3.27008177 11.3526829,3.17609756 C10.8938188,3.08211335 10.426669,3.01024415 9.95121951,2.9604878 C9.47576998,2.91073146 8.98927078,2.88585366 8.49170732,2.88585366 L8.35902439,2.88585366 C8.31479653,2.88585366 8.26504093,2.89138206 8.2097561,2.90243902 C8.18764217,2.90243902 8.17105697,2.89138222 8.16,2.86926829 C8.14894303,2.84715436 8.14894303,2.82504076 8.16,2.80292683 C8.41431021,2.2943064 8.69625861,1.8216282 9.00585366,1.38487805 C9.3154487,0.948127898 9.6471527,0.552847298 10.0009756,0.19902439 C10.0341465,0.154796527 10.0756095,0.124390327 10.1253659,0.107804878 C10.1751222,0.0912194293 10.2221136,0.0884552293 10.2663415,0.0995121951 C10.9297594,0.16585399 11.573818,0.26812939 12.1985366,0.406341463 C12.8232552,0.544553537 13.4396718,0.718698137 14.0478049,0.928780488 C14.5011405,1.08357801 14.9434125,1.25495841 15.3746341,1.44292683 C15.8058558,1.63089525 16.2260142,1.84097445 16.635122,2.07317073 Z" id="uni26B9---icomoon"></path>
        </g>
    </g>
</svg>