<?xml version="1.0" encoding="UTF-8" standalone="no"?>
<svg width="17px" height="17px" viewBox="0 0 17 17" version="1.1" xmlns="http://www.w3.org/2000/svg" xmlns:xlink="http://www.w3.org/1999/xlink">
    <!-- Generator: Sketch 42 (36781) - http://www.bohemiancoding.com/sketch -->
    <title>icon-notification</title>
    <desc>Created with Sketch.</desc>
    <defs></defs>
    <g id="Icon-Font" stroke="none" stroke-width="1" fill="none" fill-rule="evenodd">
        <g id="icon-notification" fill="#000000">
            <path d="M10.6666667,14 L14.0014977,14 C14.5525106,14 15,13.5522847 15,13 L15,12 L15,11.5 C15,11.2319336 14.8310302,10.8500268 14.6225955,10.6650256 L12.8333333,9.07692308 L12.8333333,4.99113678 C12.8333333,2.79253101 11.0408879,1 8.8297944,1 L8.1702056,1 C5.9624056,1 4.16666667,2.7868928 4.16666667,4.99113678 L4.16666667,9.07692308 L2.37740453,10.6650256 C2.1700147,10.8490994 2,11.2217932 2,11.495389 L2,13.0010434 C2,13.5573397 2.44704472,14 2.99850233,14 L6.33333333,14 C6.33333333,15.2745033 7.30338304,16 8.5,16 C9.69661696,16 10.6666667,15.2745033 10.6666667,14 Z" id="Combined-Shape"></path>
        </g>
    </g>
</svg>