<?xml version="1.0" encoding="UTF-8" standalone="no"?>
<svg width="17px" height="17px" viewBox="0 0 17 17" version="1.1" xmlns="http://www.w3.org/2000/svg" xmlns:xlink="http://www.w3.org/1999/xlink">
    <!-- Generator: Sketch 42 (36781) - http://www.bohemiancoding.com/sketch -->
    <title>icon-add</title>
    <desc>Created with Sketch.</desc>
    <defs></defs>
    <g id="Icon-Font" stroke="none" stroke-width="1" fill="none" fill-rule="evenodd">
        <g id="icon-add" fill="#000000">
            <path d="M8,14.5 C8,14.7887249 8.21005052,15 8.5,15 C8.78146971,15 9,14.7936615 9,14.5 L9.04999995,9 L14.4682789,9.02499998 C14.7570038,9.02499998 15,8.78994948 15,8.5 C15,8.21853029 14.7619403,7.97500002 14.4682789,7.97500002 L9,8 L9,2.5 C9,2.2112751 8.78994948,2 8.5,2 C8.21853029,2 8,2.20633854 8,2.5 L8,8 L2.5,8 C2.2112751,8 2,8.21005052 2,8.5 C2,8.78146971 2.20633854,9 2.5,9 L8,9 L8,14.5 Z" id="Combined-Shape"></path>
        </g>
    </g>
</svg>