<?xml version="1.0" encoding="UTF-8"?>
<svg width="17px" height="17px" viewBox="0 0 17 17" version="1.1" xmlns="http://www.w3.org/2000/svg" xmlns:xlink="http://www.w3.org/1999/xlink">
    <!-- Generator: Sketch 45.2 (43514) - http://www.bohemiancoding.com/sketch -->
    <title>Icon/Error</title>
    <desc>Created with Sketch.</desc>
    <defs></defs>
    <g id="Symbols" stroke="none" stroke-width="1" fill="none" fill-rule="evenodd">
        <g id="Icon/Error" fill="#000000">
            <path d="M9.39884026,2.97888655 L15.5433463,13.5033459 L15.5433463,13.5033459 C15.8218036,13.9802945 15.6608947,14.592672 15.1839462,14.8711294 C15.0309345,14.9604623 14.8569351,15.0075376 14.6797545,15.0075376 L2.39074247,15.0075376 L2.39074247,15.0075376 C1.83845772,15.0075376 1.39074247,14.5598223 1.39074247,14.0075376 C1.39074247,13.830357 1.43781772,13.6563576 1.5271507,13.5033459 L7.67165671,2.97888655 L7.67165671,2.97888655 C7.95011409,2.50193798 8.5624916,2.34102908 9.03944016,2.61948645 C9.1881942,2.70633368 9.31199303,2.83013251 9.39884026,2.97888655 L9.39884026,2.97888655 Z M8.49353448,10.670088 C8.77311492,10.670088 9.00425916,10.4522039 9.02075728,10.1731107 L9.19827586,7.17008798 L9.21687834,6.74926828 C9.23438016,6.35334731 8.92761083,6.01820191 8.53168985,6.00070009 C8.52113301,6.00023342 8.51056715,6 8.5,6 C8.09929169,6 7.77445342,6.32483827 7.77445342,6.72554658 C7.77445342,6.73356208 7.77458625,6.74157704 7.77485185,6.74958814 L7.7887931,7.17008798 L7.96631169,10.1731107 L7.96631169,10.1731107 C7.98280981,10.4522039 8.21395405,10.670088 8.49353448,10.670088 Z M7.75,12.25 C7.75,12.6826923 8.08221477,13 8.50503356,13 C8.92785235,13 9.25,12.6826923 9.25,12.25 C9.25,11.8173077 8.92785235,11.5 8.50503356,11.5 C8.08221477,11.5 7.75,11.8173077 7.75,12.25 Z" id="Combined-Shape"></path>
        </g>
    </g>
</svg>