<?xml version="1.0" encoding="UTF-8" standalone="no"?>
<svg width="17px" height="17px" viewBox="0 0 17 17" version="1.1" xmlns="http://www.w3.org/2000/svg" xmlns:xlink="http://www.w3.org/1999/xlink">
    <!-- Generator: Sketch 42 (36781) - http://www.bohemiancoding.com/sketch -->
    <title>icon-create</title>
    <desc>Created with Sketch.</desc>
    <defs></defs>
    <g id="Icon-Font" stroke="none" stroke-width="1" fill="none" fill-rule="evenodd">
        <g id="icon-create" fill="#000000">
            <path d="M10.4921875,12.9990234 C10.6360684,12.9990234 10.757812,13.0488276 10.8574219,13.1484375 C10.9570317,13.2480474 11.0068359,13.3642571 11.0068359,13.4970703 L11.0068359,15.5058594 C11.0068359,15.9153666 10.8601903,16.2667629 10.5668945,16.5600586 C10.2735988,16.8533543 9.91666877,17 9.49609375,17 L1.49414062,17 C1.08463337,17 0.733237144,16.8533543 0.439941406,16.5600586 C0.146645669,16.2667629 0,15.9153666 0,15.5058594 L0,1.51074219 C0,1.09016717 0.146645669,0.733237144 0.439941406,0.439941406 C0.733237144,0.146645669 1.08463337,0 1.49414062,0 L5.578125,0 C5.78841251,0 5.98486237,0.0387365918 6.16748047,0.116210938 C6.35009857,0.193685283 6.50781184,0.30436126 6.640625,0.448242188 L10.5585938,4.34960938 C10.7024747,4.4934903 10.8131507,4.65673737 10.890625,4.83935547 C10.9680993,5.02197357 11.0068359,5.21288963 11.0068359,5.41210938 C11.0068359,5.42317714 11.004069,5.43147784 10.9985352,5.43701172 C10.9930013,5.4425456 10.9902344,5.4508463 10.9902344,5.46191406 C10.9902344,5.47298183 10.9930013,5.48128252 10.9985352,5.48681641 L11.0068359,5.49511719 C11.0068359,5.63899812 10.9570317,5.76074169 10.8574219,5.86035156 C10.757812,5.95996144 10.6360684,6.00976562 10.4921875,6.00976562 L6.5078125,6.00976562 C6.08723748,6.00976562 5.73030746,5.86311996 5.43701172,5.56982422 C5.14371598,5.27652848 4.99707031,4.91959846 4.99707031,4.49902344 L4.99707031,0.99609375 L1.49414062,0.99609375 C1.36132746,0.99609375 1.24511769,1.04589794 1.14550781,1.14550781 C1.04589794,1.24511769 0.99609375,1.36686126 0.99609375,1.51074219 L0.99609375,15.5058594 C0.99609375,15.6386725 1.04589794,15.7548823 1.14550781,15.8544922 C1.24511769,15.9541021 1.36132746,16.0039062 1.49414062,16.0039062 L9.49609375,16.0039062 C9.63997468,16.0039062 9.75895135,15.9541021 9.85302734,15.8544922 C9.94710333,15.7548823 9.99414062,15.6386725 9.99414062,15.5058594 L9.99414062,13.4970703 C9.99414062,13.3642571 10.0439448,13.2480474 10.1435547,13.1484375 C10.2431646,13.0488276 10.3593743,12.9990234 10.4921875,12.9990234 Z M9.79492188,4.99707031 L5.99316406,1.21191406 L5.99316406,4.49902344 C5.99316406,4.64290437 6.04296825,4.76188104 6.14257812,4.85595703 C6.242188,4.95003302 6.36393157,4.99707031 6.5078125,4.99707031 L9.79492188,4.99707031 Z M16.8505859,4.6484375 C16.894857,4.69270855 16.9308267,4.74804654 16.9584961,4.81445312 C16.9861655,4.88085971 17,4.94726529 17,5.01367188 C17,5.08007846 16.9861655,5.14371714 16.9584961,5.20458984 C16.9308267,5.26546254 16.894857,5.31803363 16.8505859,5.36230469 L7.8359375,13.8623047 C7.81380197,13.8844402 7.79166678,13.9038085 7.76953125,13.9204102 C7.74739572,13.9370118 7.71972673,13.9508463 7.68652344,13.9619141 L5.1796875,14.9746094 C5.15755197,14.9856771 5.12988298,14.9939778 5.09667969,14.9995117 C5.0634764,15.0050456 5.0302736,15.0078125 4.99707031,15.0078125 C4.93066373,15.0078125 4.86702504,14.993978 4.80615234,14.9663086 C4.74527964,14.9386392 4.69270855,14.9026695 4.6484375,14.8583984 C4.58203092,14.7809241 4.53776053,14.6951502 4.515625,14.6010742 C4.49348947,14.5069982 4.49902327,14.4101567 4.53222656,14.3105469 L5.54492187,11.8203125 C5.55598964,11.7871092 5.56982414,11.7539064 5.58642578,11.7207031 C5.60302743,11.6874998 5.62792952,11.6598308 5.66113281,11.6376953 L14.6591797,3.13769531 C14.7587896,3.0491532 14.8749993,3.00488281 15.0078125,3.00488281 C15.1406257,3.00488281 15.2568354,3.054687 15.3564453,3.15429688 L16.8505859,4.6484375 Z M7.22167969,13.0820312 L15.7880859,4.99707031 L14.9912109,4.20019531 L6.42480469,12.2851562 L5.89355469,13.6132812 L7.22167969,13.0820312 Z" id="edit---icomoon"></path>
        </g>
    </g>
</svg>