<?xml version="1.0" encoding="UTF-8" standalone="no"?>
<svg width="17px" height="17px" viewBox="0 0 17 17" version="1.1" xmlns="http://www.w3.org/2000/svg" xmlns:xlink="http://www.w3.org/1999/xlink">
    <!-- Generator: Sketch 42 (36781) - http://www.bohemiancoding.com/sketch -->
    <title>icon-player-news</title>
    <desc>Created with Sketch.</desc>
    <defs></defs>
    <g id="Icon-Font" stroke="none" stroke-width="1" fill="none" fill-rule="evenodd">
        <g id="icon-player-news" fill="#000000">
            <g id="Page-1">
                <g>
                    <path d="M3.00747129,0 C2.45106026,0 2,0.443353176 2,1.0093689 L2,4 L1,4 C0.44771525,4 -6.50198308e-06,4.44748943 -1.45081535e-05,4.99850233 L-0.000174380735,16.0014977 C-0.000182393367,16.5529553 0.454520045,17 0.999771312,17 L15.9998509,17 C16.5521137,17 16.9998111,16.5452911 16.9998111,16.0000398 L16.9998111,0.999960201 C16.9998111,0.447697432 16.5508966,0 15.9923398,0 L3.00747129,0 Z M3,14.5017326 C3,14.7769181 3.22563934,15 3.49374104,15 L15.506259,15 C15.7789446,15 16,14.7800934 16,14.5017326 L16,1.49826741 C16,1.22308192 15.7743607,1 15.506259,1 L3.49374104,1 C3.22105539,1 3,1.21990657 3,1.49826741 L3,14.5017326 Z" id="Fill-1"></path>
                    <path d="M10,3 C10,3.55228475 10.4437166,4 10.9998075,4 L14.0001925,4 C14.5523709,4 15,3.55613518 15,3 L15,3 C15,2.44771525 14.5562834,2 14.0001925,2 L10.9998075,2 C10.4476291,2 10,2.44386482 10,3 L10,3 Z" id="Fill-3"></path>
                    <path d="M10,5.5 C10,5.77614237 10.2148438,6 10.4976988,6 L14.5023012,6 C14.7771727,6 15,5.76806641 15,5.5 L15,5.5 C15,5.22385763 14.7851562,5 14.5023012,5 L10.4976988,5 C10.2228273,5 10,5.23193359 10,5.5 L10,5.5 Z" id="Fill-4"></path>
                    <path d="M10,7.5 C10,7.77614237 10.2150574,8 10.4904785,8 L13.5095215,8 C13.7804053,8 14,7.76806641 14,7.5 L14,7.5 C14,7.22385763 13.7849426,7 13.5095215,7 L10.4904785,7 C10.2195947,7 10,7.23193359 10,7.5 L10,7.5 Z" id="Fill-5"></path>
                    <path d="M4,9.5 C4,9.77614237 4.23079681,10 4.50043583,10 L11.4995642,10 C11.7759472,10 12,9.76806641 12,9.5 L12,9.5 C12,9.22385763 11.7692032,9 11.4995642,9 L4.50043583,9 C4.22405275,9 4,9.23193359 4,9.5 L4,9.5 Z" id="Fill-6"></path>
                    <path d="M4,11.5 C4,11.7761424 4.22975063,12 4.50123084,12 L14.4987692,12 C14.7755913,12 15,11.7680664 15,11.5 L15,11.5 C15,11.2238576 14.7702494,11 14.4987692,11 L4.50123084,11 C4.22440869,11 4,11.2319336 4,11.5 L4,11.5 Z" id="Fill-7"></path>
                    <path d="M4,13.5 C4,13.7761424 4.22247314,14 4.50966585,14 L12.4903342,14 C12.7718148,14 13,13.7680664 13,13.5 L13,13.5 C13,13.2238576 12.7775269,13 12.4903342,13 L4.50966585,13 C4.22818517,13 4,13.2319336 4,13.5 L4,13.5 Z" id="Fill-8"></path>
                </g>
                <g id="Group-13" transform="translate(4.000000, 2.000000)">
                    <path d="M1.43833161,3.23161581 C1.57372208,3.46133067 1.73293492,3.64702351 1.91557309,3.78829415 C2.09860831,3.92956478 2.29434878,4 2.5035886,4 C2.7076669,4 2.90142218,3.92956478 3.08406035,3.78829415 C3.26709556,3.64702351 3.42591137,3.46133067 3.56130184,3.23161581 C3.69669231,3.00190095 3.80389297,2.74337169 3.88210976,2.45602801 C3.96032654,2.16868434 3.99963345,1.87893947 3.99963345,1.5871936 C4.00439792,1.29984992 3.96270877,1.05452726 3.87496304,0.850825413 C3.78721731,0.647523762 3.67088474,0.482241121 3.52596532,0.355377689 C3.3810459,0.228514257 3.21825971,0.137668834 3.03800377,0.0824412206 C2.8573508,0.0276138069 2.67908006,0 2.5035886,0 C2.32293563,0 2.14347377,0.0276138069 1.96560007,0.0824412206 C1.78732934,0.137668834 1.62732242,0.227313657 1.48478523,0.351775888 C1.34224805,0.476238119 1.22591548,0.64032016 1.13539047,0.844022011 C1.0452625,1.04732366 1,1.29504752 1,1.5871936 C1,1.87893947 1.03930691,2.16868434 1.11792073,2.45602801 C1.19613751,2.74337169 1.30294114,3.00190095 1.43833161,3.23161581" id="Fill-9"></path>
                    <path d="M5.01000023,4.78692458 C4.91314022,4.75281738 4.81001772,4.7130976 4.69228271,4.66042571 C4.4250827,4.54169811 3.90799889,4.19633443 3.90799889,4.19633443 C3.79237458,4.12095216 3.6127141,4.14473025 3.52174431,4.23065137 C3.52174431,4.23065137 3.35545754,4.41084472 3.14796003,4.52482322 C2.94088002,4.63836998 2.72461501,4.69492749 2.5,4.69492749 C2.25534499,4.69492749 2.02780748,4.63318914 1.81822247,4.5092807 C1.60863746,4.38537225 1.4334339,4.22569639 1.4334339,4.22569639 C1.33143715,4.13971967 1.160605,4.15293275 1.06461133,4.23902297 C1.06461133,4.23902297 0.824145038,4.4851406 0.541915025,4.61422988 C0.333165015,4.7096437 0.158232507,4.77483595 0,4.82491741 L0,6.00096828 L0.170757508,6.00096828 L2.62440512,6.00096828 L5.01000023,6.00096828 L5.01000023,4.78692458 Z" id="Fill-11"></path>
                </g>
            </g>
        </g>
    </g>
</svg>