<?xml version="1.0" encoding="UTF-8" standalone="no"?>
<svg width="17px" height="17px" viewBox="0 0 17 17" version="1.1" xmlns="http://www.w3.org/2000/svg" xmlns:xlink="http://www.w3.org/1999/xlink">
    <!-- Generator: Sketch 42 (36781) - http://www.bohemiancoding.com/sketch -->
    <title>icon-gear</title>
    <desc>Created with Sketch.</desc>
    <defs></defs>
    <g id="Icon-Font" stroke="none" stroke-width="1" fill="none" fill-rule="evenodd">
        <g id="icon-gear" fill="#000000">
            <path d="M5.00520373,8.50776236 C5.00520373,6.57359878 6.57276974,5.0058202 8.50667109,5.0058202 C10.4405724,5.0058202 12.0081385,6.57359878 12.0081385,8.50776236 C12.0081385,10.441926 10.4405724,12.0097045 8.50667109,12.0097045 C6.57276974,12.0097045 5.00520373,10.441926 5.00520373,8.50776236 Z M15.5092454,10.0856107 C15.7812305,10.0444183 16.0009685,9.79661496 15.9999972,9.51871832 L15.9930184,7.52199656 C15.9920681,7.25010294 15.7640168,6.9948807 15.5043008,6.95510423 L14.1377535,6.74581244 C14.0364693,6.42150048 13.8976723,6.09093571 13.7217794,5.75203388 C13.8434873,5.5836251 14.4810045,4.75814786 14.4810045,4.75814786 C14.6491577,4.53995696 14.6302882,4.20556826 14.4291538,4.00141992 L12.9839781,2.5345888 C12.7871885,2.3348504 12.4512825,2.30603235 12.2346089,2.46954433 L11.1892554,3.25841673 C10.9120782,3.11626971 10.6078085,2.99163054 10.2776968,2.8828318 L10.0684279,1.50752964 C10.02724,1.23684556 9.76013211,1.01577726 9.50201059,1.013971 L7.50718239,1.00001182 C7.23554661,0.998110998 6.9730055,1.22571698 6.92520393,1.49783578 C6.92520393,1.49783578 6.82902924,1.96367001 6.72107602,2.8828318 C6.4034685,2.98412718 6.09628117,3.11251803 5.79909723,3.26800436 L4.79768912,2.49126837 C4.57844203,2.32121072 4.24189543,2.3408618 4.04591397,2.53523691 L2.54725274,4.02161448 C2.35130588,4.21595528 2.33143882,4.54757521 2.50429986,4.76547539 C2.50429986,4.76547539 3.00606834,5.387704 3.27615978,5.77287656 C3.10735263,6.08343235 2.97564137,6.39482186 2.88102601,6.70537765 L1.49173881,6.91466945 C1.21830222,6.95586182 0.998106877,7.20363516 1.0000106,7.48149295 L1.0136891,9.47793552 C1.01555171,9.74979112 1.24434254,10.0038069 1.50405855,10.04224 L2.87060581,10.2444632 C2.96522118,10.5758617 3.10401817,10.9101781 3.28657997,11.2478294 C3.1648721,11.4170719 2.52735484,12.2422202 2.52735484,12.2422202 C2.35920164,12.4603625 2.37882058,12.7947418 2.58092629,12.998929 L4.03308082,14.4660393 C4.23082071,14.6658157 4.56621937,14.6946646 4.78132332,14.5311526 L5.819104,13.7422802 C6.09628117,13.8844272 6.39971723,14.0094833 6.73149622,14.1178652 L6.94076509,15.4931673 C6.98195295,15.7638514 7.24906087,15.9848543 7.50718239,15.9865883 L9.50201059,15.9999891 C9.77364636,16.0018139 10.0360107,15.7743231 10.0836307,15.5023859 C10.0836307,15.5023859 10.1793301,15.0370269 10.2872833,14.1178652 C10.6048909,14.0161529 10.9120782,13.8881789 11.2092621,13.7322757 L12.2106702,14.5167731 C12.4299173,14.68853 12.7665239,14.6687875 12.9625793,14.4725996 L14.4618063,12.9723598 C14.6578271,12.7762065 14.6805089,12.4461331 14.5051243,12.2247078 C14.5051243,12.2247078 13.9685296,11.5563009 13.7321996,11.2173991 C13.8672453,10.9677039 13.9989566,10.660066 14.1273334,10.2949024 L15.5092454,10.0856107 Z" id="Fill-1"></path>
        </g>
    </g>
</svg>