<?xml version="1.0" encoding="UTF-8" standalone="no"?>
<svg width="17px" height="17px" viewBox="0 0 17 17" version="1.1" xmlns="http://www.w3.org/2000/svg" xmlns:xlink="http://www.w3.org/1999/xlink">
    <!-- Generator: Sketch 42 (36781) - http://www.bohemiancoding.com/sketch -->
    <title>icon-madness</title>
    <desc>Created with Sketch.</desc>
    <defs>
        <polygon id="path-1" points="12.1005 6.7174291e-05 12.1005 17.86035 0 17.86035 0 6.7174291e-05 12.1005 6.7174291e-05"></polygon>
    </defs>
    <g id="Icon-Font" stroke="none" stroke-width="1" fill="none" fill-rule="evenodd">
        <g id="icon-madness">
            <g id="Page-1" transform="translate(3.000000, 0.000000)">
                <mask id="mask-2" fill="white">
                    <use xlink:href="#path-1"></use>
                </mask>
                <g id="Clip-2"></g>
                <path d="M6.77729986,17 C10.6938786,14.6784802 8.32947768,11.6611708 8.32947768,11.6611708 C7.81178206,13.5952947 5.81690404,13.0537019 5.81690404,13.0537019 C8.62491416,10.0359166 5.15149018,7.40552708 5.15149018,7.40552708 C5.52101304,10.0359166 3.3043304,11.8158436 3.3043304,11.8158436 C3.3043304,11.8158436 2.19576182,12.5121091 2.19576182,14.2920362 C2.19576182,16.0714873 3.8215715,17 3.8215715,17 L3.67385326,17 C-2.4598626,13.9051162 0.939475,9.03030538 0.939475,9.03030538 C2.7870893,6.16719282 0.496320279,6.09009438 0.496320279,6.09009438 C1.01356138,5.16158165 3.15661216,5.39335289 3.15661216,5.39335289 C3.15661216,5.39335289 2.12212996,3.30455618 3.52613502,1.21528356 C4.8560537,-0.873989069 7.66406382,0.364345184 7.66406382,0.364345184 C7.66406382,0.364345184 4.8560537,1.29285792 7.66406382,4.77466168 C10.4720739,8.25646545 13.7977797,14.6784802 6.99910448,17 L6.77729986,17 Z" id="Fill-1" fill="#000000" mask="url(#mask-2)"></path>
            </g>
        </g>
    </g>
</svg>