<?xml version="1.0" encoding="UTF-8" standalone="no"?>
<svg width="17px" height="17px" viewBox="0 0 17 17" version="1.1" xmlns="http://www.w3.org/2000/svg" xmlns:xlink="http://www.w3.org/1999/xlink">
    <!-- Generator: Sketch 42 (36781) - http://www.bohemiancoding.com/sketch -->
    <title>icon-user-o</title>
    <desc>Created with Sketch.</desc>
    <defs></defs>
    <g id="Icon-Font" stroke="none" stroke-width="1" fill="none" fill-rule="evenodd">
        <g id="icon-user-o" fill="#000000">
            <path d="M2.4631264,13.0186604 C3.3437971,12.7942114 5.52862058,12.0369752 5.52862058,12.0369752 C5.79724236,11.945148 6.16230787,12.0237326 6.36252476,12.2067256 C6.36252476,12.2067256 6.99307163,13 8.5,13 C10.0069284,13 10.6374752,12.2067256 10.6374752,12.2067256 C10.8425165,12.03176 11.2064257,11.9500328 11.4610647,12.0421125 C11.4610647,12.0421125 13.7387582,12.8807073 14.5331813,13.0236389 C15.458974,11.7764389 16,10.2164729 16,8.5 C16,4.27614237 12.7238576,1 8.5,1 L8.5,1.13686838e-13 C13.2761424,-6.97638964e-15 17,3.72385763 17,8.5 C17,13.2761424 13.2761424,17 8.5,17 L8.5,16.7872773 L8.5,17 C3.72385763,17 -8.8817842e-16,13.2761424 -8.8817842e-16,8.5 C-8.8817842e-16,3.72385763 3.72385763,-6.97638964e-15 8.5,1.13686838e-13 L8.5,1 C4.27614237,1 1,4.27614237 1,8.5 C1,10.2141897 1.53958764,11.7722887 2.4631264,13.0186604 Z M12.0338058,6.55092062 C12.0456113,9.17680282 10.4839724,11.9917228 8.54172243,11.9999818 C6.59947243,12.0082407 5.01233354,9.20708558 5.00005577,6.58120338 C4.98825021,3.95532118 6.85305577,3.00737908 8.5006391,3.00003781 C10.1482224,2.99315536 12.021528,3.92503842 12.0338058,6.55092062 Z" id="Combined-Shape"></path>
        </g>
    </g>
</svg>