<?xml version="1.0" encoding="UTF-8"?>
<svg width="17px" height="17px" viewBox="0 0 17 17" version="1.1" xmlns="http://www.w3.org/2000/svg" xmlns:xlink="http://www.w3.org/1999/xlink">
    <!-- Generator: Sketch 45.2 (43514) - http://www.bohemiancoding.com/sketch -->
    <title>Icon/MLB Field</title>
    <desc>Created with Sketch.</desc>
    <defs></defs>
    <g id="Symbols" stroke="none" stroke-width="1" fill="none" fill-rule="evenodd">
        <g id="Icon/MLB-Field" fill="#000000">
            <path d="M0.293895998,8.80821907 L7.77627734,16.6552556 L7.77627734,16.6552556 C8.15740405,17.0549566 8.79038996,17.0700141 9.19009095,16.6888874 C9.20156657,16.677945 9.21278031,16.6667313 9.22372266,16.6552556 L16.7100577,8.80407274 L16.7100577,8.80407275 C16.9010293,8.60379412 17.0004686,8.33333251 16.9847129,8.05704744 C16.8892356,6.38279584 16.3684469,4.88337193 15.4223466,3.55877573 C13.8791744,1.39824341 11.2559392,-3.98986399e-17 8.5,-3.98986399e-17 C5.59348966,3.01240864e-16 3.10391542,1.41287399 1.5836317,3.55999994 C0.652141853,4.87556099 0.13086425,6.37293775 0.0197988977,8.05213021 L0.0197988921,8.0521302 C0.0013265532,8.33141273 0.100744538,8.60565434 0.293895998,8.80821907 Z M15.5611389,7.93569444 L8.5,15.4106102 L1.43886111,7.93569444 C1.72738889,4.2925 4.78408333,1.41666667 8.5,1.41666667 C12.2159167,1.41666667 15.2726111,4.2925 15.5611389,7.93569444 Z" id="Icon/MLB-Field-Copy"></path>
        </g>
    </g>
</svg>