<?xml version="1.0" encoding="UTF-8" standalone="no"?>
<svg width="17px" height="17px" viewBox="0 0 17 17" version="1.1" xmlns="http://www.w3.org/2000/svg" xmlns:xlink="http://www.w3.org/1999/xlink">
    <!-- Generator: Sketch 42 (36781) - http://www.bohemiancoding.com/sketch -->
    <title>icon-checkmark-c-o</title>
    <desc>Created with Sketch.</desc>
    <defs></defs>
    <g id="Icon-Font" stroke="none" stroke-width="1" fill="none" fill-rule="evenodd">
        <g id="icon-checkmark-c-o" fill="#000000">
            <path d="M8.5,0 C9.67318295,0 10.7771758,0.221351953 11.8120117,0.6640625 C12.8468476,1.10677305 13.7488568,1.71272402 14.5180664,2.48193359 C15.287276,3.25114317 15.893227,4.15315238 16.3359375,5.18798828 C16.778648,6.22282418 17,7.32681705 17,8.5 C17,9.67318295 16.778648,10.7771758 16.3359375,11.8120117 C15.893227,12.8468476 15.287276,13.7488568 14.5180664,14.5180664 C13.7488568,15.287276 12.8468476,15.893227 11.8120117,16.3359375 C10.7771758,16.778648 9.67318295,17 8.5,17 C7.32681705,17 6.22282418,16.778648 5.18798828,16.3359375 C4.15315238,15.893227 3.25114317,15.287276 2.48193359,14.5180664 C1.71272402,13.7488568 1.10677305,12.8468476 0.6640625,11.8120117 C0.221351953,10.7771758 0,9.67318295 0,8.5 C0,7.32681705 0.221351953,6.22282418 0.6640625,5.18798828 C1.10677305,4.15315238 1.71272402,3.25114317 2.48193359,2.48193359 C3.25114317,1.71272402 4.15315238,1.10677305 5.18798828,0.6640625 C6.22282418,0.221351953 7.32681705,0 8.5,0 Z M8.5,16.0039062 C9.52930202,16.0039062 10.5004837,15.8074564 11.4135742,15.4145508 C12.3266647,15.0216452 13.1235318,14.4848667 13.8041992,13.8041992 C14.4848667,13.1235318 15.0216452,12.3266647 15.4145508,11.4135742 C15.8074564,10.5004837 16.0039062,9.52930202 16.0039062,8.5 C16.0039062,7.47069798 15.8074564,6.49951628 15.4145508,5.58642578 C15.0216452,4.67333528 14.4848667,3.87646825 13.8041992,3.19580078 C13.1235318,2.51513332 12.3266647,1.97835483 11.4135742,1.58544922 C10.5004837,1.19254361 9.52930202,0.99609375 8.5,0.99609375 C7.47069798,0.99609375 6.49951628,1.19254361 5.58642578,1.58544922 C4.67333528,1.97835483 3.87646825,2.51513332 3.19580078,3.19580078 C2.51513332,3.87646825 1.97835483,4.67333528 1.58544922,5.58642578 C1.19254361,6.49951628 0.99609375,7.47069798 0.99609375,8.5 C0.99609375,9.52930202 1.19254361,10.5004837 1.58544922,11.4135742 C1.97835483,12.3266647 2.51513332,13.1235318 3.19580078,13.8041992 C3.87646825,14.4848667 4.67333528,15.0216452 5.58642578,15.4145508 C6.49951628,15.8074564 7.47069798,16.0039062 8.5,16.0039062 Z M12.8486328,6.14941406 C12.7490229,6.04980419 12.6300463,6 12.4916992,6 C12.3533522,6 12.2399093,6.04980419 12.1513672,6.14941406 L7.49902344,10.8017578 L5.84667969,9.14941406 C5.75813758,9.04980419 5.6446947,9 5.50634766,9 C5.36800061,9 5.24902394,9.04980419 5.14941406,9.14941406 C5.04980419,9.24902394 5,9.36800061 5,9.50634766 C5,9.6446947 5.04980419,9.76367138 5.14941406,9.86328125 L7.15039062,11.8642578 C7.19466168,11.9085289 7.24723277,11.9417317 7.30810547,11.9638672 C7.36897817,11.9860027 7.43261686,11.9970703 7.49902344,11.9970703 C7.56543002,11.9970703 7.62906871,11.9860027 7.68994141,11.9638672 C7.75081411,11.9417317 7.8033852,11.9085289 7.84765625,11.8642578 L12.8486328,6.86328125 C12.9482427,6.76367138 12.9980469,6.6446947 12.9980469,6.50634766 C12.9980469,6.36800061 12.9482427,6.24902394 12.8486328,6.14941406 Z" id="Combined-Shape"></path>
        </g>
    </g>
</svg>