<?xml version="1.0" encoding="UTF-8" standalone="no"?>
<svg width="18px" height="18px" viewBox="0 0 18 18" version="1.1" xmlns="http://www.w3.org/2000/svg" xmlns:xlink="http://www.w3.org/1999/xlink">
    <!-- Generator: Sketch 40.3 (33839) - http://www.bohemiancoding.com/sketch -->
    <title>icon -</title>
    <desc>Created with Sketch.</desc>
    <defs>
        <polygon id="path-1" points="0.00015 18 18 18 18 0.0002 0.00015 0.0002"></polygon>
    </defs>
    <g id="Icon-Font" stroke="none" stroke-width="1" fill="none" fill-rule="evenodd">
        <g id="icon--">
            <g id="Page-1">
                <g id="Group-3">
                    <mask id="mask-2" fill="white">
                        <use xlink:href="#path-1"></use>
                    </mask>
                    <g id="Clip-2"></g>
                    <path d="M7.45015,17.2152 C8.02865,16.6277 8.45315,15.6717 8.45315,15.6717 C7.01565,14.7342 5.51565,13.2502 5.51565,13.2502 C4.21865,13.5937 2.76565,13.5937 2.76565,13.5937 C2.89115,14.1357 3.11165,14.6792 3.32465,15.1272 C2.05915,13.9547 1.15165,12.4022 0.79965,10.6472 C0.80665,10.5912 1.16015,7.7132 1.57815,7.1252 C1.57815,7.1252 1.39915,6.3922 1.31965,5.6927 C2.05265,3.9972 3.33115,2.5922 4.93265,1.6967 C5.73215,1.5592 6.57015,1.5237 6.57015,1.5237 C6.82365,1.2702 7.55265,0.9342 8.17515,0.6767 C8.44665,0.6502 8.72165,0.6352 9.00015,0.6352 C10.38215,0.6352 11.68415,0.9777 12.83415,1.5737 C13.01115,2.0162 13.33265,2.8922 13.34365,3.4687 C13.34365,3.4687 14.87515,4.3282 16.18765,5.9217 L16.62415,5.5757 C17.09615,6.6227 17.36515,7.7792 17.36515,9.0002 C17.36515,10.0352 17.16715,11.0232 16.82165,11.9392 C16.52965,10.4602 15.96865,9.5782 15.96865,9.5782 C14.28115,10.5467 13.01565,10.9377 13.01565,10.9377 C13.00015,12.1717 12.10915,14.5627 12.10915,14.5627 C13.16365,15.0442 14.04765,15.1967 14.54665,15.2442 C13.06865,16.5587 11.12915,17.3652 9.00015,17.3652 C8.47015,17.3652 7.95315,17.3097 7.45015,17.2152 M9.00015,0.0002 C4.02965,0.0002 0.00015,4.0292 0.00015,9.0002 C0.00015,13.9707 4.02965,18.0002 9.00015,18.0002 C13.97065,18.0002 18.00015,13.9707 18.00015,9.0002 C18.00015,4.0292 13.97065,0.0002 9.00015,0.0002" id="Fill-1" fill="#000000" mask="url(#mask-2)"></path>
                </g>
                <path d="M4.21875,6.53125 L6.40625,9.73425 L10.18775,8.50025 L10.37525,4.67175 C10.37525,4.67175 6.82825,3.46875 6.78125,3.46875 L4.21875,6.53125 Z" id="Fill-4" fill="#000000"></path>
            </g>
        </g>
    </g>
</svg>