<?xml version="1.0" encoding="UTF-8" standalone="no"?>
<svg width="17px" height="17px" viewBox="0 0 17 17" version="1.1" xmlns="http://www.w3.org/2000/svg" xmlns:xlink="http://www.w3.org/1999/xlink">
    <!-- Generator: Sketch 42 (36781) - http://www.bohemiancoding.com/sketch -->
    <title>icon-checkmark</title>
    <desc>Created with Sketch.</desc>
    <defs></defs>
    <g id="Icon-Font" stroke="none" stroke-width="1" fill="none" fill-rule="evenodd">
        <g id="icon-checkmark" fill="#000000">
            <path d="M2.14941406,12.8476562 C2.24902394,12.9472661 2.36800061,12.9970703 2.50634766,12.9970703 C2.6446947,12.9970703 2.75813758,12.9472661 2.84667969,12.8476562 L10.4990234,5.1953125 L14.1513672,8.84765625 C14.2399093,8.94726612 14.3533522,8.99707031 14.4916992,8.99707031 C14.6300463,8.99707031 14.7490229,8.94726612 14.8486328,8.84765625 C14.9482427,8.74804638 14.9980469,8.6290697 14.9980469,8.49072266 C14.9980469,8.35237561 14.9482427,8.23339894 14.8486328,8.13378906 L10.8476562,4.1328125 C10.8033852,4.08854145 10.7508141,4.05533865 10.6899414,4.03320312 C10.6290687,4.0110676 10.56543,4 10.4990234,4 C10.4326169,4 10.3689782,4.0110676 10.3081055,4.03320312 C10.2472328,4.05533865 10.1946617,4.08854145 10.1503906,4.1328125 L2.14941406,12.1337891 C2.04980419,12.2333989 2,12.3523756 2,12.4907227 C2,12.6290697 2.04980419,12.7480464 2.14941406,12.8476562 Z" id="arrow-up---icomoon" transform="translate(8.499023, 8.498535) scale(-1, -1) translate(-8.499023, -8.498535) "></path>
        </g>
    </g>
</svg>