<?xml version="1.0" encoding="UTF-8" standalone="no"?>
<svg width="17px" height="17px" viewBox="0 0 17 17" version="1.1" xmlns="http://www.w3.org/2000/svg" xmlns:xlink="http://www.w3.org/1999/xlink">
    <!-- Generator: Sketch 42 (36781) - http://www.bohemiancoding.com/sketch -->
    <title>icon-wind</title>
    <desc>Created with Sketch.</desc>
    <defs></defs>
    <g id="Icon-Font" stroke="none" stroke-width="1" fill="none" fill-rule="evenodd">
        <g id="icon-wind" fill="#000000">
            <path d="M9,6.69628906 L10.1513672,7.84765625 C10.2399093,7.94726612 10.3533522,7.99707031 10.4916992,7.99707031 C10.6300463,7.99707031 10.7490229,7.94726612 10.8486328,7.84765625 C10.9482427,7.74804638 10.9980469,7.6290697 10.9980469,7.49072266 C10.9980469,7.35237561 10.9482427,7.23339894 10.8486328,7.13378906 L8.84765625,5.1328125 C8.8033852,5.08854145 8.75081411,5.05533865 8.68994141,5.03320312 C8.62906871,5.0110676 8.56543002,5 8.49902344,5 C8.43261686,5 8.36897817,5.0110676 8.30810547,5.03320312 C8.24723277,5.05533865 8.19466168,5.08854145 8.15039062,5.1328125 L6.14941406,7.13378906 C6.04980419,7.23339894 6,7.35237561 6,7.49072266 C6,7.6290697 6.04980419,7.74804638 6.14941406,7.84765625 C6.24902394,7.94726612 6.36800061,7.99707031 6.50634766,7.99707031 C6.6446947,7.99707031 6.75813758,7.94726612 6.84667969,7.84765625 L8,6.69433594 L8,12.4965773 C8,12.7670975 8.22385763,13 8.5,13 C8.76806641,13 9,12.77461 9,12.4965773 L9,6.69628906 Z" id="Combined-Shape"></path>
        </g>
    </g>
</svg>