<?xml version="1.0" encoding="UTF-8" standalone="no"?>
<svg width="17px" height="17px" viewBox="0 0 17 17" version="1.1" xmlns="http://www.w3.org/2000/svg" xmlns:xlink="http://www.w3.org/1999/xlink">
    <!-- Generator: Sketch 42 (36781) - http://www.bohemiancoding.com/sketch -->
    <title>icon-nba</title>
    <desc>Created with Sketch.</desc>
    <defs></defs>
    <g id="Icon-Font" stroke="none" stroke-width="1" fill="none" fill-rule="evenodd">
        <g id="icon-nba" fill="#000000">
            <path d="M8.5,0 C9.67318295,0 10.7771758,0.224118853 11.8120117,0.672363281 C12.8468476,1.12060771 13.7488568,1.72932558 14.5180664,2.49853516 C15.287276,3.26774473 15.893227,4.16698704 16.3359375,5.19628906 C16.778648,6.22559108 17,7.32681705 17,8.5 C17,9.67318295 16.778648,10.7771758 16.3359375,11.8120117 C15.893227,12.8468476 15.287276,13.7488568 14.5180664,14.5180664 C13.7488568,15.287276 12.8468476,15.893227 11.8120117,16.3359375 C10.7771758,16.778648 9.67318295,17 8.5,17 C7.32681705,17 6.22282418,16.778648 5.18798828,16.3359375 C4.15315238,15.893227 3.25114317,15.287276 2.48193359,14.5180664 C1.71272402,13.7488568 1.10677305,12.8468476 0.6640625,11.8120117 C0.221351953,10.7771758 0,9.67318295 0,8.5 C0,7.32681705 0.221351953,6.22559108 0.6640625,5.19628906 C1.10677305,4.16698704 1.71272402,3.26774473 2.48193359,2.49853516 C3.25114317,1.72932558 4.15315238,1.12060771 5.18798828,0.672363281 C6.22282418,0.224118853 7.32681705,0 8.5,0 Z M15.9707031,8.99804688 L12.0361328,8.99804688 C12.1357427,9.69531599 12.4207333,10.353838 12.8911133,10.9736328 C13.3614932,11.5934276 13.9895794,12.1357399 14.7753906,12.6005859 C15.1184913,12.080401 15.3924143,11.5159536 15.597168,10.9072266 C15.8019216,10.2984996 15.9264321,9.6621127 15.9707031,8.99804688 Z M12.0361328,8.00195312 L15.9707031,8.00195312 C15.9264321,7.3378873 15.8019216,6.70426734 15.597168,6.10107422 C15.3924143,5.4978811 15.1184913,4.93066672 14.7753906,4.39941406 C13.9895794,4.8753279 13.3614932,5.42040708 12.8911133,6.03466797 C12.4207333,6.64892885 12.1357427,7.30468401 12.0361328,8.00195312 Z M14.1611328,3.60253906 C13.8512354,3.23730286 13.5026061,2.90250803 13.1152344,2.59814453 C12.7278626,2.29378103 12.3155946,2.03092559 11.878418,1.80957031 C11.4412413,1.58821504 10.981936,1.41113348 10.5004883,1.27832031 C10.0190406,1.14550715 9.51823177,1.06250017 8.99804688,1.02929688 L8.99804688,8.00195312 L11.0400391,8.00195312 C11.0843101,7.58137811 11.1894523,7.16634319 11.3554688,6.75683594 C11.5214852,6.34732868 11.7373034,5.95719586 12.0029297,5.58642578 C12.268556,5.2156557 12.5812156,4.86149257 12.940918,4.52392578 C13.3006203,4.18635899 13.7073545,3.87923315 14.1611328,3.60253906 Z M8.00195312,1.02929688 C7.48176823,1.06250017 6.98095944,1.14550715 6.49951172,1.27832031 C6.018064,1.41113348 5.5587587,1.58821504 5.12158203,1.80957031 C4.68440537,2.03092559 4.27213735,2.29378103 3.88476562,2.59814453 C3.4973939,2.90250803 3.14876457,3.23730286 2.83886719,3.60253906 C3.2926455,3.87923315 3.69937971,4.18635899 4.05908203,4.52392578 C4.41878435,4.86149257 4.73144398,5.2156557 4.99707031,5.58642578 C5.26269664,5.95719586 5.47851479,6.34732868 5.64453125,6.75683594 C5.81054771,7.16634319 5.91568988,7.58137811 5.95996094,8.00195312 L8.00195312,8.00195312 L8.00195312,1.02929688 Z M1.02929688,8.00195312 L4.96386719,8.00195312 C4.86425731,7.30468401 4.57926667,6.64892885 4.10888672,6.03466797 C3.63850676,5.42040708 3.0104206,4.8753279 2.22460938,4.39941406 C1.8815087,4.93066672 1.60758566,5.4978811 1.40283203,6.10107422 C1.1980784,6.70426734 1.07356793,7.3378873 1.02929688,8.00195312 Z M4.96386719,8.99804688 L1.02929688,8.99804688 C1.07356793,9.6621127 1.1980784,10.2984996 1.40283203,10.9072266 C1.60758566,11.5159536 1.8815087,12.080401 2.22460938,12.6005859 C3.0104206,12.1357399 3.63850676,11.5934276 4.10888672,10.9736328 C4.57926667,10.353838 4.86425731,9.69531599 4.96386719,8.99804688 Z M2.83886719,13.3974609 C3.14876457,13.7626971 3.4973939,14.097492 3.88476562,14.4018555 C4.27213735,14.706219 4.68440537,14.9690744 5.12158203,15.1904297 C5.5587587,15.411785 6.018064,15.5888665 6.49951172,15.7216797 C6.98095944,15.8544929 7.48176823,15.9374998 8.00195312,15.9707031 L8.00195312,8.99804688 L5.95996094,8.99804688 C5.91568988,9.42968966 5.81054771,9.84749147 5.64453125,10.2514648 C5.47851479,10.6554382 5.26269664,11.045571 4.99707031,11.421875 C4.73144398,11.798179 4.41878435,12.1523421 4.05908203,12.484375 C3.69937971,12.8164079 3.2926455,13.1207668 2.83886719,13.3974609 Z M8.99804688,15.9707031 C9.51823177,15.9374998 10.0190406,15.8544929 10.5004883,15.7216797 C10.981936,15.5888665 11.4412413,15.411785 11.878418,15.1904297 C12.3155946,14.9690744 12.7278626,14.706219 13.1152344,14.4018555 C13.5026061,14.097492 13.8512354,13.7626971 14.1611328,13.3974609 C13.7073545,13.1207668 13.3006203,12.8164079 12.940918,12.484375 C12.5812156,12.1523421 12.268556,11.798179 12.0029297,11.421875 C11.7373034,11.045571 11.5214852,10.6554382 11.3554688,10.2514648 C11.1894523,9.84749147 11.0843101,9.42968966 11.0400391,8.99804688 L8.99804688,8.99804688 L8.99804688,15.9707031 Z" id="basketball---icomoon"></path>
        </g>
    </g>
</svg>