<?xml version="1.0" encoding="UTF-8" standalone="no"?>
<svg width="17px" height="17px" viewBox="0 0 17 17" version="1.1" xmlns="http://www.w3.org/2000/svg" xmlns:xlink="http://www.w3.org/1999/xlink">
    <!-- Generator: Sketch 42 (36781) - http://www.bohemiancoding.com/sketch -->
    <title>icon-nfl</title>
    <desc>Created with Sketch.</desc>
    <defs></defs>
    <g id="Icon-Font" stroke="none" stroke-width="1" fill="none" fill-rule="evenodd">
        <g id="icon-nfl" fill="#000000">
            <path d="M16.8757688,2.34937667 C16.9532432,3.0909181 16.9947468,3.96249291 17.0002807,4.96412725 C17.0058146,5.96576158 16.9172737,7.00058373 16.7346552,8.06862476 C16.5520368,9.13666578 16.2449105,10.1853225 15.8132669,11.2146262 C15.3816234,12.24393 14.7618369,13.1625422 13.9538888,13.9704903 C13.3451607,14.5792184 12.6617354,15.080028 11.9035923,15.4729343 C11.1454492,15.8658406 10.3596484,16.1757339 9.54616635,16.4026234 C8.73268433,16.629513 7.9164476,16.7844596 7.09743169,16.867468 C6.27841577,16.9504763 5.4981488,16.9919799 4.75660736,16.9919799 C4.30282827,16.9919799 3.87395812,16.9809123 3.46998406,16.9587767 C3.06600999,16.9366412 2.69247793,16.9089721 2.34937667,16.8757688 C1.76278419,16.8204299 1.25644072,16.5797092 0.830331093,16.1535996 C0.40422146,15.7274899 0.163500799,15.2211465 0.108161885,14.634554 C0.0417551894,13.8930125 0.00578543532,13.0214377 0.000251543988,12.0198034 C-0.00528234734,11.0181691 0.0804916816,9.98611383 0.257576204,8.92360669 C0.434660727,7.86109956 0.739020184,6.81244288 1.17066371,5.7776052 C1.60230723,4.74276752 2.22209376,3.82692225 3.0300419,3.0300419 C3.82692225,2.22209376 4.74276752,1.60230723 5.7776052,1.17066371 C6.81244288,0.739020184 7.86109956,0.434660727 8.92360669,0.257576204 C9.98611383,0.0804916816 11.0181691,-0.00528234734 12.0198034,0.000251543988 C13.0214377,0.00578543532 13.8930125,0.0417551894 14.634554,0.108161885 C15.2211465,0.163500799 15.7274899,0.40422146 16.1535996,0.830331093 C16.5797092,1.25644072 16.8204299,1.76278419 16.8757688,2.34937667 Z M3.72730872,3.72730872 C2.99683506,4.45778237 2.43792042,5.30168814 2.05054803,6.25905134 C1.66317564,7.21641454 1.38648522,8.19313171 1.22046848,9.18923215 C1.05445174,10.1853326 0.976978424,11.1509821 0.988046207,12.0862098 C0.99911399,13.0214374 1.03785065,13.8376741 1.10425734,14.5349444 C1.11532513,14.6234867 1.13192655,14.7092607 1.15406212,14.7922691 C1.17619768,14.8752775 1.20386672,14.9555177 1.23707007,15.0329922 L5.785906,10.5007578 L4.14234849,8.84059874 C4.04273845,8.75205648 3.99293417,8.63861341 3.99293417,8.50026612 C3.99293417,8.36191884 4.04273845,8.24294196 4.14234849,8.14333192 C4.24195854,8.04372187 4.36093541,7.9939176 4.4992827,7.9939176 C4.63762998,7.9939176 4.75660686,8.04372187 4.8562169,8.14333192 L6.49977441,9.78688942 L7.79469851,8.49196533 L6.13453941,6.84840782 C6.04599715,6.74879778 6.00172668,6.6298209 6.00172668,6.49147361 C6.00172668,6.35312633 6.04599715,6.23414945 6.13453941,6.13453941 C6.23414945,6.04599715 6.35312633,6.00172668 6.49147361,6.00172668 C6.6298209,6.00172668 6.74879778,6.04599715 6.84840782,6.13453941 L8.49196533,7.79469851 L9.78688942,6.49977441 L8.14333192,4.8562169 C8.04372187,4.75660686 7.9939176,4.63762998 7.9939176,4.4992827 C7.9939176,4.36093541 8.04372187,4.24195854 8.14333192,4.14234849 C8.24294196,4.04273845 8.36191884,3.99293417 8.50026612,3.99293417 C8.63861341,3.99293417 8.75205648,4.04273845 8.84059874,4.14234849 L10.5007578,5.785906 L15.0329922,1.23707007 C14.9555177,1.20386672 14.8752775,1.17619768 14.7922691,1.15406212 C14.7092607,1.13192655 14.6234867,1.11532513 14.5349444,1.10425734 C14.202911,1.071054 13.8432134,1.04338495 13.455841,1.02124939 C13.0684686,0.999113824 12.6589668,0.988046207 12.2273233,0.988046207 C11.530053,0.988046207 10.7995903,1.02678287 10.0359133,1.10425734 C9.27223628,1.18173182 8.51687145,1.32284393 7.76979612,1.52759791 C7.02272079,1.73235189 6.30332571,2.01180921 5.61158929,2.36597826 C4.91985288,2.7201473 4.29176563,3.17391958 3.72730872,3.72730872 Z M13.2566219,13.2566219 C13.9870956,12.5261483 14.5460102,11.6822425 14.9333826,10.7248793 C15.320755,9.76751611 15.5974454,8.79356585 15.7634622,7.8029993 C15.9294789,6.81243275 16.0069522,5.8467832 15.9958844,4.90602168 C15.9848167,3.96526015 15.94608,3.14625652 15.8796733,2.44898621 C15.8686055,2.36044395 15.8520041,2.27466992 15.8298685,2.19166155 C15.807733,2.10865318 15.7800639,2.02841296 15.7468606,1.95093848 L11.1980247,6.49977441 L12.8415822,8.14333192 C12.9411922,8.24294196 12.9909965,8.36191884 12.9909965,8.50026612 C12.9909965,8.63861341 12.9411922,8.75205648 12.8415822,8.84059874 C12.797311,8.89593765 12.7447399,8.93467431 12.683867,8.95680987 C12.6229942,8.97894544 12.5593554,8.99001306 12.4929488,8.99001306 C12.4265421,8.99001306 12.3629033,8.97894544 12.3020305,8.95680987 C12.2411577,8.93467431 12.1885865,8.89593765 12.1443153,8.84059874 L10.5007578,7.19704123 L9.20583374,8.49196533 L10.8493912,10.1355228 C10.9490013,10.2351329 10.9988056,10.3541098 10.9988056,10.492457 C10.9988056,10.6308043 10.9490013,10.7497812 10.8493912,10.8493912 C10.7940523,10.8936624 10.7359473,10.9296321 10.6750745,10.9573016 C10.6142017,10.984971 10.5560967,10.9988056 10.5007578,10.9988056 C10.4343511,10.9988056 10.3707123,10.984971 10.3098395,10.9573016 C10.2489667,10.9296321 10.1908617,10.8936624 10.1355228,10.8493912 L8.49196533,9.20583374 L7.19704123,10.5007578 L8.84059874,12.1443153 C8.94020878,12.2439254 8.99001306,12.3629023 8.99001306,12.5012495 C8.99001306,12.6395968 8.94020878,12.7530399 8.84059874,12.8415822 C8.79632761,12.8969211 8.74375643,12.9356577 8.68288362,12.9577933 C8.62201082,12.9799289 8.55837202,12.9909965 8.49196533,12.9909965 C8.42555863,12.9909965 8.36191984,12.9799289 8.30104703,12.9577933 C8.24017423,12.9356577 8.18760305,12.8969211 8.14333192,12.8415822 L6.49977441,11.1980247 L1.95093848,15.7468606 C2.02841296,15.7800639 2.10865318,15.807733 2.19166155,15.8298685 C2.27466992,15.8520041 2.36044395,15.8686055 2.44898621,15.8796733 C3.14625652,15.94608 3.96526015,15.9848167 4.90602168,15.9958844 C5.8467832,16.0069522 6.81243275,15.9294789 7.8029993,15.7634622 C8.79356585,15.5974454 9.76751611,15.320755 10.7248793,14.9333826 C11.6822425,14.5460102 12.5261483,13.9870956 13.2566219,13.2566219 Z" id="⚽"></path>
        </g>
    </g>
</svg>