<?xml version="1.0" encoding="UTF-8" standalone="no"?>
<svg width="17px" height="17px" viewBox="0 0 17 17" version="1.1" xmlns="http://www.w3.org/2000/svg" xmlns:xlink="http://www.w3.org/1999/xlink">
    <!-- Generator: Sketch 42 (36781) - http://www.bohemiancoding.com/sketch -->
    <title>icon-locked</title>
    <desc>Created with Sketch.</desc>
    <defs></defs>
    <g id="Icon-Font" stroke="none" stroke-width="1" fill="none" fill-rule="evenodd">
        <g id="icon-locked" fill="#000000">
            <path d="M11,7 L11,4.5 C11,3.12225136 9.87861911,2 8.5,2 C7.12225136,2 6,3.12138089 6,4.5 L6,7 L11,7 Z M8.5,0 C10.9852814,2.7592166e-16 13,2.01977567 13,4.5 L13,9 L4,9 L4,4.5 C4,2.01471863 6.01977567,-2.75360215e-16 8.5,0 Z" id="Combined-Shape"></path>
            <path d="M14.0014977,7 C14.5529553,7 15,7.4556644 15,7.99539757 L15,16.0046024 C15,16.5543453 14.5525106,17 14.0014977,17 L2.99850233,17 C2.44704472,17 2,16.5443356 2,16.0046024 L2,7.99539757 C2,7.44565467 2.44748943,7 2.99850233,7 L14.0014977,7 Z" id="Fill-1"></path>
        </g>
    </g>
</svg>