<?xml version="1.0" encoding="UTF-8" standalone="no"?>
<svg width="17px" height="17px" viewBox="0 0 17 17" version="1.1" xmlns="http://www.w3.org/2000/svg" xmlns:xlink="http://www.w3.org/1999/xlink">
    <!-- Generator: Sketch 42 (36781) - http://www.bohemiancoding.com/sketch -->
    <title>icon-todays-numbers</title>
    <desc>Created with Sketch.</desc>
    <defs></defs>
    <g id="Icon-Font" stroke="none" stroke-width="1" fill="none" fill-rule="evenodd">
        <g id="icon-todays-numbers" fill="#000000">
            <path d="M16.0555556,15.5526767 C16.0555556,15.830409 15.8302161,16.0555556 15.5527818,16.0555556 L1.44721815,16.0555556 C1.1695439,16.0555556 0.944444444,15.8329408 0.944444444,15.5582233 L0.944444444,12.9601389 C1.22305556,13.1225833 1.54322222,13.2222222 1.88888889,13.2222222 C2.93202778,13.2222222 3.77777778,12.3764722 3.77777778,11.3333333 C3.77777778,10.9848333 3.67672222,10.6627778 3.51238889,10.3822778 L5.66005556,8.23461111 C5.94055556,8.39894444 6.26261111,8.5 6.61111111,8.5 C7.25569444,8.5 7.82330556,8.17605556 8.16425,7.68305556 L9.46191667,8.33 C9.45672222,8.38761111 9.44444444,8.44286111 9.44444444,8.50188889 C9.44444444,9.54502778 10.2901944,10.3907778 11.3333333,10.3907778 C12.2130833,10.3907778 12.9459722,9.78633333 13.1561111,8.97222222 L14.23325,8.97222222 C14.4443333,9.78538889 15.1762778,10.3888889 16.0555556,10.3888889 L16.0555556,15.5526767 Z M1.88888889,12.2777778 C1.36802778,12.2777778 0.944444444,11.8541944 0.944444444,11.3333333 C0.944444444,10.8124722 1.36802778,10.3888889 1.88888889,10.3888889 C2.40975,10.3888889 2.83333333,10.8124722 2.83333333,11.3333333 C2.83333333,11.8541944 2.40975,12.2777778 1.88888889,12.2777778 Z M6.61111111,7.55555556 C6.09025,7.55555556 5.66666667,7.13197222 5.66666667,6.61111111 C5.66666667,6.09025 6.09025,5.66666667 6.61111111,5.66666667 C7.13197222,5.66666667 7.55555556,6.09025 7.55555556,6.61111111 C7.55555556,7.13197222 7.13197222,7.55555556 6.61111111,7.55555556 Z M11.3333333,9.44633333 C10.8124722,9.44633333 10.3888889,9.02227778 10.3888889,8.50188889 C10.3888889,7.98102778 10.8124722,7.55744444 11.3333333,7.55744444 C11.8541944,7.55744444 12.2777778,7.98102778 12.2777778,8.50188889 C12.2777778,9.02227778 11.8541944,9.44633333 11.3333333,9.44633333 Z M15.5527818,0.944444444 C15.8304561,0.944444444 16.0555556,1.1596649 16.0555556,1.44732331 L16.0555556,6.61111111 C15.1762778,6.61111111 14.4443333,7.21461111 14.23325,8.02777778 L13.1546944,8.02777778 C12.9436111,7.21555556 12.2116667,6.613 11.3333333,6.613 C10.6873333,6.613 10.1183056,6.93788889 9.77783333,7.43230556 L8.48252778,6.78630556 C8.48772222,6.72775 8.5,6.67108333 8.5,6.61111111 C8.5,5.56797222 7.65425,4.72222222 6.61111111,4.72222222 C5.56797222,4.72222222 4.72222222,5.56797222 4.72222222,6.61111111 C4.72222222,6.96197222 4.82422222,7.28638889 4.99091667,7.56783333 L2.84561111,9.71313889 C2.56416667,9.54644444 2.23975,9.44444444 1.88888889,9.44444444 C1.54322222,9.44444444 1.22305556,9.54408333 0.944444444,9.70652778 L0.944444444,1.44063718 C0.944444444,1.1665975 1.16978395,0.944444444 1.44721815,0.944444444 L15.5527818,0.944444444 Z M16.0555556,9.44444444 C15.5346944,9.44444444 15.1111111,9.02086111 15.1111111,8.5 C15.1111111,7.97913889 15.5346944,7.55555556 16.0555556,7.55555556 L16.0555556,9.44444444 Z M0,16.0000398 C0,16.5523026 0.454708934,17 0.999960201,17 L16.0000398,17 C16.5523026,17 17,16.5452911 17,16.0000398 L17,0.999960201 C17,0.447697432 16.5452911,0 16.0000398,0 L0.999960201,0 C0.447697432,0 0,0.454708934 0,0.999960201 L0,16.0000398 Z" id="Page-1"></path>
        </g>
    </g>
</svg>