<?xml version="1.0" encoding="UTF-8"?>
<svg width="17px" height="17px" viewBox="0 0 17 17" version="1.1" xmlns="http://www.w3.org/2000/svg" xmlns:xlink="http://www.w3.org/1999/xlink">
    <!-- Generator: Sketch 45.2 (43514) - http://www.bohemiancoding.com/sketch -->
    <title>Icon/Low</title>
    <desc>Created with Sketch.</desc>
    <defs></defs>
    <g id="Symbols" stroke="none" stroke-width="1" fill="none" fill-rule="evenodd">
        <g id="Icon/Low" fill="#000000">
            <path d="M8,15.3027344 L3.84667969,11.1494141 C3.75813758,11.0498042 3.6446947,11 3.50634766,11 C3.36800061,11 3.24902394,11.0498042 3.14941406,11.1494141 C3.04980419,11.2490239 3,11.3680006 3,11.5063477 C3,11.6446947 3.04980419,11.7636714 3.14941406,11.8632812 L8.15039062,16.8642578 C8.19466168,16.9085289 8.24723277,16.9417317 8.30810547,16.9638672 C8.36897817,16.9860027 8.43261686,16.9970703 8.49902344,16.9970703 C8.56543002,16.9970703 8.62906871,16.9860027 8.68994141,16.9638672 C8.75081411,16.9417317 8.8033852,16.9085289 8.84765625,16.8642578 L13.8486328,11.8632812 C13.9482427,11.7636714 13.9980469,11.6446947 13.9980469,11.5063477 C13.9980469,11.3680006 13.9482427,11.2490239 13.8486328,11.1494141 C13.7490229,11.0498042 13.6300463,11 13.4916992,11 C13.3533522,11 13.2399093,11.0498042 13.1513672,11.1494141 L9,15.3007813 L9,0.496393204 C9,0.222242807 8.76806641,0 8.5,0 C8.22385763,0 8,0.22618103 8,0.496393204 L8,15.3027344 Z" id="Icon-Low"></path>
        </g>
    </g>
</svg>