<?xml version="1.0" encoding="UTF-8"?>
<svg width="17px" height="17px" viewBox="0 0 17 17" version="1.1" xmlns="http://www.w3.org/2000/svg" xmlns:xlink="http://www.w3.org/1999/xlink">
    <!-- Generator: Sketch 45.2 (43514) - http://www.bohemiancoding.com/sketch -->
    <title>Icon/Dome</title>
    <desc>Created with Sketch.</desc>
    <defs></defs>
    <g id="Symbols" stroke="none" stroke-width="1" fill="none" fill-rule="evenodd">
        <g id="Icon/Dome" fill-rule="nonzero" fill="#000000">
            <g id="stadium-copy" transform="translate(0.000000, 1.000000)">
                <path d="M0.19800464,8.18802784 L0.0861953197,7.51717192 L0.479587511,7.21932134 C0.684418845,7.31027397 0.889250179,7.39774237 1.09408151,7.48172654 L1.28587743,8.63250205 C0.923051573,8.49472304 0.560422319,8.34656075 0.19800464,8.18802784 Z M1.90409741,12.3418219 C4.11680088,13.4501408 6.31233376,14 8.5,14 C10.6876662,14 12.8831991,13.4501408 15.0959026,12.3418219 L15.7141226,8.63250205 C13.3165596,9.54294938 10.9104119,10 8.5,10 C6.08958811,10 3.68344037,9.54294938 1.28587743,8.63250205 L1.90409741,12.3418219 Z M9,3.00920978 C10.0698532,3.04872358 11.0832652,3.21413199 12,3.48117449 L12,2 L12,1 L15,2 L13,2.66666667 L13,3.82789706 C13.8624388,4.17873489 14.6061712,4.62757473 15.1872649,5.14792727 C16.3227668,5.65793686 17,6.30105497 17,7 C17,7.12068104 16.9798103,7.23969777 16.9405579,7.35665238 L16.0822965,12.5062209 C16.0297405,12.8215572 15.8295861,13.0927598 15.543752,13.235931 C13.1958346,14.411977 10.8479173,15 8.5,15 C6.15208268,15 3.80416535,14.411977 1.45624803,13.235931 C1.17041392,13.0927598 0.970259538,12.8215572 0.917703489,12.5062209 L0.0594420634,7.35665238 C0.0201897206,7.23969777 6.66133815e-16,7.12068104 6.66133815e-16,7 C6.66133815e-16,6.30121023 0.676932356,5.65822259 1.81197847,5.14826718 C2.39321251,4.62769435 3.13721307,4.17868044 4,3.82774366 L4,2 L4,1 L7,2 L5,2.66666667 L5,3.48106465 C5.91674337,3.21405526 6.9301545,3.0486793 8,3.00919585 L8,1 L8,0 L11,1 L9,1.66666667 L9,3.00920978 Z M12.5,11 L12.5,11 L12.5,11 C12.7761424,11 13,11.2238576 13,11.5 L13,14 L12,14 L12,11.5 L12,11.5 C12,11.2238576 12.2238576,11 12.5,11 Z M4.5,11 L4.5,11 L4.5,11 C4.77614237,11 5,11.2238576 5,11.5 L5,14 L4,14 L4,11.5 L4,11.5 C4,11.2238576 4.22385763,11 4.5,11 Z M8.5,11 L8.5,11 L8.5,11 C9.32842712,11 10,11.6715729 10,12.5 L10,14 C9.34835209,14.2724402 8.86157172,14.4086603 8.53965892,14.4086603 C8.21774611,14.4086603 7.70452647,14.2724402 7,14 L7,12.5 L7,12.5 C7,11.6715729 7.67157288,11 8.5,11 Z" id="Combined-Shape"></path>
            </g>
        </g>
    </g>
</svg>