<?xml version="1.0" encoding="UTF-8" standalone="no"?>
<svg width="17px" height="17px" viewBox="0 0 17 17" version="1.1" xmlns="http://www.w3.org/2000/svg" xmlns:xlink="http://www.w3.org/1999/xlink">
    <!-- Generator: Sketch 42 (36781) - http://www.bohemiancoding.com/sketch -->
    <title>icon-star-o</title>
    <desc>Created with Sketch.</desc>
    <defs></defs>
    <g id="Icon-Font" stroke="none" stroke-width="1" fill="none" fill-rule="evenodd">
        <g id="icon-star-o" fill-rule="nonzero" fill="#000000">
            <path d="M7.13077867,7.45523193 L2.83072564,7.45523193 L6.2663277,10.4327537 L4.86368156,14.5208079 L8.49412083,12.0925008 L12.1245601,14.5208079 L10.7219139,10.4327537 L14.157516,7.45523193 L9.85746299,7.45523193 L8.49412083,3.24561404 L7.13077867,7.45523193 Z M15.7022775,7.43973415 L11.8867853,10.7464941 L13.5455395,15.5809827 C13.8148741,16.3659664 13.4759504,16.6277943 12.7895148,16.1686552 L8.49412083,13.2955771 L4.19872688,16.1686552 C3.50710584,16.6312626 3.17380746,16.3646843 3.44270215,15.5809827 L5.10145632,10.7464941 L1.2859641,7.43973415 C0.661243315,6.89830947 0.820619464,6.45523193 1.64787049,6.45523193 L6.40350594,6.45523193 L8.03014562,1.43262519 C8.28602153,0.642552216 8.7018496,0.641408144 8.95809603,1.43262519 L10.5847357,6.45523193 L15.3403712,6.45523193 C16.169007,6.45523193 16.3296532,6.89600859 15.7022775,7.43973415 Z" id=""></path>
        </g>
    </g>
</svg>