<?xml version="1.0" encoding="UTF-8" standalone="no"?>
<svg width="18px" height="18px" viewBox="0 0 18 18" version="1.1" xmlns="http://www.w3.org/2000/svg" xmlns:xlink="http://www.w3.org/1999/xlink">
    <!-- Generator: Sketch 40.3 (33839) - http://www.bohemiancoding.com/sketch -->
    <title>icon - </title>
    <desc>Created with Sketch.</desc>
    <defs></defs>
    <g id="Icon-Font" stroke="none" stroke-width="1" fill="none" fill-rule="evenodd">
        <g id="icon---" fill="#000000">
            <path d="M9,18 C13.9705627,18 18,13.9705627 18,9 C18,4.02943725 13.9705627,0 9,0 C4.02943725,0 0,4.02943725 0,9 C0,13.9705627 4.02943725,18 9,18 Z M8.002,10.997 L9.679,10.997 C9.523,9.45 11.473,8.969 11.473,7.357 C11.473,5.823 10.368,5.134 8.899,5.134 C7.937,5.134 7.118,5.615 6.533,6.317 L7.586,7.279 C7.937,6.928 8.288,6.681 8.769,6.681 C9.289,6.681 9.64,6.967 9.64,7.5 C9.64,8.475 7.742,9.216 8.002,10.997 Z M7.69,12.96 C7.69,13.636 8.171,14.156 8.834,14.156 C9.497,14.156 9.991,13.636 9.991,12.96 C9.991,12.271 9.497,11.751 8.834,11.751 C8.171,11.751 7.69,12.271 7.69,12.96 Z" id="Combined-Shape"></path>
        </g>
    </g>
</svg>