<?xml version="1.0" encoding="UTF-8" standalone="no"?>
<svg width="17px" height="17px" viewBox="0 0 17 17" version="1.1" xmlns="http://www.w3.org/2000/svg" xmlns:xlink="http://www.w3.org/1999/xlink">
    <!-- Generator: Sketch 42 (36781) - http://www.bohemiancoding.com/sketch -->
    <title>icon-facebook</title>
    <desc>Created with Sketch.</desc>
    <defs>
        <polygon id="path-1" points="8.50007083 17 17 17 17 0 8.50007083 0 0.000141666667 0 0.000141666667 17 8.50007083 17"></polygon>
    </defs>
    <g id="Icon-Font" stroke="none" stroke-width="1" fill="none" fill-rule="evenodd">
        <g id="icon-facebook">
            <g id="Page-1">
                <mask id="mask-2" fill="white">
                    <use xlink:href="#path-1"></use>
                </mask>
                <g id="Clip-2"></g>
                <path d="M16.0656139,0 C16.3239194,0 16.5425583,0.0930277778 16.726725,0.276722222 C16.9113639,0.461833333 17.0001417,0.682833333 17.0001417,0.941138889 L17.0001417,16.0664167 C17.0001417,16.3247222 16.9113639,16.5424167 16.726725,16.7275278 C16.5425583,16.9116944 16.3239194,17 16.0656139,17 L11.8056972,17 L11.8056972,10.3888889 L13.9396694,10.3888889 L14.2725861,8.02777778 L11.8056972,8.02777778 L11.8056972,6.21161111 C11.8056972,5.79841667 11.8576417,5.48863889 12.0309472,5.28180556 C12.204725,5.07497222 12.4280861,4.97155556 12.9300583,4.97155556 L14.1668083,4.96022222 L14.1668083,2.66852778 C13.6945861,2.60194444 13.1420861,2.56888889 12.2930306,2.56888889 C11.2890861,2.56888889 10.4806417,2.8645 9.87903056,3.45477778 C9.27789167,4.04552778 8.97236389,4.87947222 8.97236389,5.95755556 L8.97236389,8.02777778 L7.083475,8.02777778 L7.083475,10.3888889 L8.97236389,10.3888889 L8.97236389,17 L0.941280556,17 C0.682975,17 0.461030556,16.9116944 0.276863889,16.7275278 C0.092225,16.5424167 0.000141666667,16.3247222 0.000141666667,16.0664167 L0.000141666667,0.941138889 C0.000141666667,0.682833333 0.092225,0.461833333 0.276863889,0.276722222 C0.461030556,0.0930277778 0.682975,0 0.941280556,0 L16.0656139,0 Z" id="Fill-1" fill="#000000" mask="url(#mask-2)"></path>
            </g>
        </g>
    </g>
</svg>