<?xml version="1.0" encoding="UTF-8" standalone="no"?>
<svg width="17px" height="17px" viewBox="0 0 17 17" version="1.1" xmlns="http://www.w3.org/2000/svg" xmlns:xlink="http://www.w3.org/1999/xlink">
    <!-- Generator: Sketch 42 (36781) - http://www.bohemiancoding.com/sketch -->
    <title>icon-lineup</title>
    <desc>Created with Sketch.</desc>
    <defs></defs>
    <g id="Icon-Font" stroke="none" stroke-width="1" fill="none" fill-rule="evenodd">
        <g id="icon-lineup" fill="#000000">
            <path d="M16.1533203,7.02246094 C15.7106098,7.05566423 15.2983418,7.1774078 14.9165039,7.38769531 C14.5346661,7.59798282 14.1998712,7.86913896 13.9121094,8.20117188 C13.6243475,8.53320479 13.4002287,8.90950311 13.2397461,9.33007812 C13.0792635,9.75065314 12.9990234,10.1988908 12.9990234,10.6748047 L12.9990234,15.5058594 C12.9990234,15.6386725 13.0488276,15.7548823 13.1484375,15.8544922 C13.2480474,15.9541021 13.3642571,16.0039062 13.4970703,16.0039062 L16.5019531,16.0039062 C16.6347663,16.0039062 16.7509761,16.0509435 16.8505859,16.1450195 C16.9501958,16.2390955 17,16.3580722 17,16.5019531 C17,16.6347663 16.9501958,16.7509761 16.8505859,16.8505859 C16.7509761,16.9501958 16.6347663,17 16.5019531,17 L13.4970703,17 C13.3089183,17 13.1290699,16.9640303 12.9575195,16.8920898 C12.7859692,16.8201494 12.6337897,16.7288417 12.5009766,16.6181641 C12.3681634,16.7288417 12.2159839,16.8201494 12.0444336,16.8920898 C11.8728833,16.9640303 11.6930348,17 11.5048828,17 L5.49511719,17 C5.30696521,17 5.12711674,16.9640303 4.95556641,16.8920898 C4.78401607,16.8201494 4.6318366,16.7288417 4.49902344,16.6181641 C4.36621027,16.7288417 4.21403081,16.8201494 4.04248047,16.8920898 C3.87093013,16.9640303 3.69108167,17 3.50292969,17 L0.498046875,17 C0.365233711,17 0.249023936,16.9501958 0.149414062,16.8505859 C0.0498041895,16.7509761 0,16.6347663 0,16.5019531 C0,16.3580722 0.0498041895,16.2390955 0.149414062,16.1450195 C0.249023936,16.0509435 0.365233711,16.0039062 0.498046875,16.0039062 L3.50292969,16.0039062 C3.63574285,16.0039062 3.75195263,15.9541021 3.8515625,15.8544922 C3.95117237,15.7548823 4.00097656,15.6386725 4.00097656,15.5058594 L4.00097656,10.6748047 C4.00097656,10.1988908 3.92073648,9.75065314 3.76025391,9.33007812 C3.59977133,8.90950311 3.37565248,8.53320479 3.08789062,8.20117188 C2.80012877,7.86913896 2.46533394,7.59798282 2.08349609,7.38769531 C1.70165825,7.1774078 1.28939023,7.05566423 0.846679688,7.02246094 C0.82454416,7.01139317 0.802408965,7.00309248 0.780273438,6.99755859 C0.75813791,6.99202471 0.736002715,6.98372401 0.713867188,6.97265625 C0.680663896,6.98372401 0.647461104,6.99202471 0.614257812,6.99755859 C0.581054521,7.00309248 0.54231793,7.00585938 0.498046875,7.00585938 C0.365233711,7.00585938 0.249023936,6.95605519 0.149414062,6.85644531 C0.0498041895,6.75683544 0,6.64062566 0,6.5078125 C0,6.36393157 0.0498041895,6.242188 0.149414062,6.14257812 C0.249023936,6.04296825 0.365233711,5.99316406 0.498046875,5.99316406 C1.18424822,5.99316406 1.7735978,5.74967691 2.26611328,5.26269531 C2.75862876,4.77571371 3.00488281,4.18913104 3.00488281,3.50292969 C3.00488281,2.81672834 2.75862876,2.22737876 2.26611328,1.73486328 C1.7735978,1.2423478 1.18424822,0.99609375 0.498046875,0.99609375 C0.365233711,0.99609375 0.249023936,0.94905646 0.149414062,0.854980469 C0.0498041895,0.760904478 0,0.641927803 0,0.498046875 C0,0.365233711 0.0498041895,0.249023936 0.149414062,0.149414062 C0.249023936,0.0498041895 0.365233711,0 0.498046875,0 C0.985028477,0 1.43879998,0.0913076807 1.859375,0.273925781 C2.27995002,0.456543882 2.65071454,0.705564829 2.97167969,1.02099609 C3.29264483,1.33642736 3.54443268,1.70719188 3.72705078,2.13330078 C3.90966888,2.55940968 4.00097656,3.01594809 4.00097656,3.50292969 C4.00097656,4.12272445 3.85156399,4.68993883 3.55273438,5.20458984 C3.25390476,5.71924085 2.86653884,6.13150887 2.390625,6.44140625 C2.84440331,6.66276152 3.25113752,6.95881976 3.61083984,7.32958984 C3.97054216,7.70035993 4.2666004,8.11816174 4.49902344,8.58300781 C4.73144647,8.11816174 5.02750471,7.70035993 5.38720703,7.32958984 C5.74690935,6.95881976 6.15917736,6.66276152 6.62402344,6.44140625 C6.13704184,6.13150887 5.74414212,5.71924085 5.4453125,5.20458984 C5.14648288,4.68993883 4.99707031,4.12272445 4.99707031,3.50292969 C4.99707031,3.01594809 5.08837799,2.55940968 5.27099609,2.13330078 C5.45361419,1.70719188 5.70540204,1.33642736 6.02636719,1.02099609 C6.34733233,0.705564829 6.71809686,0.456543882 7.13867188,0.273925781 C7.55924689,0.0913076807 8.0130184,0 8.5,0 C8.9869816,0 9.44075311,0.0913076807 9.86132812,0.273925781 C10.2819031,0.456543882 10.6526677,0.705564829 10.9736328,1.02099609 C11.294598,1.33642736 11.5463858,1.70719188 11.7290039,2.13330078 C11.911622,2.55940968 12.0029297,3.01594809 12.0029297,3.50292969 C12.0029297,4.12272445 11.8535171,4.68993883 11.5546875,5.20458984 C11.2558579,5.71924085 10.8629582,6.13150887 10.3759766,6.44140625 C10.8408226,6.66276152 11.2530906,6.95881976 11.612793,7.32958984 C11.9724953,7.70035993 12.2685535,8.11816174 12.5009766,8.58300781 C12.7333996,8.11816174 13.0294578,7.70035993 13.3891602,7.32958984 C13.7488625,6.95881976 14.1555967,6.66276152 14.609375,6.44140625 C14.1334612,6.13150887 13.7460952,5.71924085 13.4472656,5.20458984 C13.148436,4.68993883 12.9990234,4.12272445 12.9990234,3.50292969 C12.9990234,3.01594809 13.0903311,2.55940968 13.2729492,2.13330078 C13.4555673,1.70719188 13.7073552,1.33642736 14.0283203,1.02099609 C14.3492855,0.705564829 14.72005,0.456543882 15.140625,0.273925781 C15.5612,0.0913076807 16.0149715,0 16.5019531,0 C16.6347663,0 16.7509761,0.0498041895 16.8505859,0.149414062 C16.9501958,0.249023936 17,0.365233711 17,0.498046875 C17,0.641927803 16.9501958,0.760904478 16.8505859,0.854980469 C16.7509761,0.94905646 16.6347663,0.99609375 16.5019531,0.99609375 C15.8157518,0.99609375 15.2264022,1.2423478 14.7338867,1.73486328 C14.2413712,2.22737876 13.9951172,2.81672834 13.9951172,3.50292969 C13.9951172,4.18913104 14.2413712,4.77571371 14.7338867,5.26269531 C15.2264022,5.74967691 15.8157518,5.99316406 16.5019531,5.99316406 C16.6347663,5.99316406 16.7509761,6.04296825 16.8505859,6.14257812 C16.9501958,6.242188 17,6.36393157 17,6.5078125 C17,6.64062566 16.9501958,6.75683544 16.8505859,6.85644531 C16.7509761,6.95605519 16.6347663,7.00585938 16.5019531,7.00585938 C16.4576821,7.00585938 16.4189455,7.00309248 16.3857422,6.99755859 C16.3525389,6.99202471 16.3193361,6.98372401 16.2861328,6.97265625 C16.2639973,6.98372401 16.2418621,6.99202471 16.2197266,6.99755859 C16.197591,7.00309248 16.1754558,7.01139317 16.1533203,7.02246094 Z M5.99316406,3.50292969 C5.99316406,4.18913104 6.23941811,4.77571371 6.73193359,5.26269531 C7.22444908,5.74967691 7.81379865,5.99316406 8.5,5.99316406 C9.18620135,5.99316406 9.77555092,5.74967691 10.2680664,5.26269531 C10.7605819,4.77571371 11.0068359,4.18913104 11.0068359,3.50292969 C11.0068359,2.81672834 10.7605819,2.22737876 10.2680664,1.73486328 C9.77555092,1.2423478 9.18620135,0.99609375 8.5,0.99609375 C7.81379865,0.99609375 7.22444908,1.2423478 6.73193359,1.73486328 C6.23941811,2.22737876 5.99316406,2.81672834 5.99316406,3.50292969 Z M11.5048828,16.0039062 C11.637696,16.0039062 11.7539058,15.9541021 11.8535156,15.8544922 C11.9531255,15.7548823 12.0029297,15.6386725 12.0029297,15.5058594 L12.0029297,10.6748047 C12.0029297,10.1988908 11.9199227,9.75065314 11.7539062,9.33007812 C11.5878898,8.90950311 11.3637709,8.53320479 11.081543,8.20117188 C10.799315,7.86913896 10.4672871,7.59798282 10.0854492,7.38769531 C9.70361137,7.1774078 9.29134336,7.05566423 8.84863281,7.02246094 C8.82649729,7.01139317 8.80436209,7.00309248 8.78222656,6.99755859 C8.76009104,6.99202471 8.73795584,6.98372401 8.71582031,6.97265625 C8.68261702,6.98372401 8.64664733,6.99202471 8.60791016,6.99755859 C8.56917298,7.00309248 8.53320329,7.00585938 8.5,7.00585938 C8.46679671,7.00585938 8.43082702,7.00309248 8.39208984,6.99755859 C8.35335267,6.99202471 8.31738298,6.98372401 8.28417969,6.97265625 C8.26204416,6.98372401 8.23990896,6.99202471 8.21777344,6.99755859 C8.19563791,7.00309248 8.17350271,7.01139317 8.15136719,7.02246094 C7.70865664,7.05566423 7.29638863,7.1774078 6.91455078,7.38769531 C6.53271293,7.59798282 6.200685,7.86913896 5.91845703,8.20117188 C5.63622906,8.53320479 5.41211021,8.90950311 5.24609375,9.33007812 C5.08007729,9.75065314 4.99707031,10.1988908 4.99707031,10.6748047 L4.99707031,15.5058594 C4.99707031,15.6386725 5.0468745,15.7548823 5.14648438,15.8544922 C5.24609425,15.9541021 5.36230402,16.0039062 5.49511719,16.0039062 L11.5048828,16.0039062 Z" id="lineup2---icomoon"></path>
        </g>
    </g>
</svg>