<?xml version="1.0" encoding="UTF-8" standalone="no"?>
<svg width="17px" height="17px" viewBox="0 0 17 17" version="1.1" xmlns="http://www.w3.org/2000/svg" xmlns:xlink="http://www.w3.org/1999/xlink">
    <!-- Generator: Sketch 42 (36781) - http://www.bohemiancoding.com/sketch -->
    <title>icon-freeform</title>
    <desc>Created with Sketch.</desc>
    <defs></defs>
    <g id="Icon-Font" stroke="none" stroke-width="1" fill="none" fill-rule="evenodd">
        <g id="icon-freeform" fill="#000000">
            <path d="M0.999960201,1 C0.447697432,1 -6.51617036e-16,1.45576096 -6.51763542e-16,2.00247329 L-6.54441966e-16,11.9975267 C-6.54590331e-16,12.5511774 0.443864822,13 1,13 L2,13 L2,15.0010434 C2,15.5527519 2.35497332,15.73377 2.79984599,15.4001155 L6,13 L16.0044225,13 C16.5542648,13 17,12.544239 17,11.9975267 L17,2.00247329 C17,1.44882258 16.5452911,1 16.0000398,1 L0.999960201,1 Z M1,2.50964952 C1,2.22817786 1.2236826,2 1.49907684,2 L15.5009232,2 C15.7765557,2 16,2.22765279 16,2.50964952 L16,11.4903505 C16,11.7718221 15.7806926,12 15.4935632,12 L5.5,12 L3,14 L3,12 L1.50468445,12 C1.22595492,12 1,11.7723472 1,11.4903505 L1,2.50964952 Z" id="Page-1"></path>
        </g>
    </g>
</svg>