<?xml version="1.0" encoding="UTF-8" standalone="no"?>
<svg width="17px" height="17px" viewBox="0 0 17 17" version="1.1" xmlns="http://www.w3.org/2000/svg" xmlns:xlink="http://www.w3.org/1999/xlink">
    <!-- Generator: Sketch 42 (36781) - http://www.bohemiancoding.com/sketch -->
    <title>icon-premium</title>
    <desc>Created with Sketch.</desc>
    <defs></defs>
    <g id="Icon-Font" stroke="none" stroke-width="1" fill="none" fill-rule="evenodd">
        <g id="icon-premium" fill="#000000">
            <path d="M17,8.50071163 C17,9.58192169 16.4472972,10.1981972 16.0212653,10.5122652 C16.2361789,10.9947534 16.4088689,11.8022214 15.8613848,12.7496442 C15.32671,13.6761923 14.5500795,13.9361762 14.0524098,14.0021209 C14.0125583,14.5714286 13.7056066,15.3082075 12.7496442,15.8604359 C12.2842352,16.1289593 11.8245193,16.2651187 11.3833059,16.2651187 C11.0246421,16.2651187 10.7328719,16.1768761 10.5098931,16.069182 C10.1683085,16.5303212 9.53210728,17 8.49928837,17 C7.4674183,17 6.83121703,16.5298468 6.49010688,16.0682332 C6.26665364,16.1768761 5.97393464,16.2655932 5.61432199,16.2655932 C5.17358301,16.2655932 4.71434153,16.1294338 4.25035582,15.8613848 C3.29107248,15.3077331 2.98554405,14.5681076 2.94759021,13.9978511 C2.44327854,13.9290598 1.66854575,13.6652806 1.14003851,12.7496442 C0.586861273,11.7917841 0.77663048,10.9667625 0.993441799,10.486172 C0.57689839,10.1502805 0,9.50364189 0,8.49976279 C0,7.50062791 0.571679737,6.85588703 0.988223146,6.51904669 C0.765244328,6.04177713 0.575475121,5.22529512 1.13861524,4.25035582 C1.68942037,3.29629113 2.48645104,3.04769347 2.97558117,2.9907627 C3.0216002,2.46794854 3.27494209,1.70317863 4.25083024,1.14003851 C4.68729942,0.887645466 5.13135936,0.760025675 5.57020065,0.760025675 C5.93740407,0.760025675 6.24245807,0.848268356 6.47445093,0.95264142 C6.81176569,0.484860324 7.45176234,0 8.50071163,0 C9.54349343,0 10.1820668,0.480116094 10.5208048,0.946473921 C10.7504256,0.840203165 11.0516842,0.751011637 11.4169899,0.751011637 C11.8558312,0.751011637 12.3046354,0.881477967 12.7496442,1.13861524 C13.6875785,1.67993191 13.9916836,2.43948316 14.0362794,3.01733039 C14.5448609,3.09466135 15.3471102,3.3617615 15.8604359,4.25083024 C16.3827757,5.15602936 16.2086624,5.98484637 16.0060838,6.47634862 C16.4335389,6.78662127 17,7.40526889 17,8.50071163 Z M11.1792398,5.35438596 C10.6774854,4.82690058 10.0856725,4.41520468 9.2622807,4.2994152 L9.2622807,3 L8.01432749,3 L8.01432749,4.3251462 C6.80497076,4.56959064 6.05877193,5.44444444 6.05877193,6.70526316 C6.05877193,9.02105263 9.45526316,8.99532164 9.45526316,10.3204678 C9.45526316,10.9122807 9.13362573,11.2081871 8.41315789,11.2081871 C7.79561404,11.2081871 7.22953216,10.9508772 6.57339181,10.4619883 L5.75,11.7356725 C6.35467836,12.2888889 7.25526316,12.6233918 8.01432749,12.7134503 L8.01432749,14 L9.2622807,14 L9.2622807,12.6619883 C10.5874269,12.3789474 11.2692982,11.4269006 11.2692982,10.1918129 C11.2692982,7.73450292 7.87280702,7.8374269 7.87280702,6.61520468 C7.87280702,6.03625731 8.20730994,5.79181287 8.8248538,5.79181287 C9.36520468,5.79181287 9.76403509,6.01052632 10.227193,6.43508772 L11.1792398,5.35438596 Z" id="Combined-Shape"></path>
        </g>
    </g>
</svg>