<?xml version="1.0" encoding="UTF-8" standalone="no"?>
<svg width="17px" height="17px" viewBox="0 0 17 17" version="1.1" xmlns="http://www.w3.org/2000/svg" xmlns:xlink="http://www.w3.org/1999/xlink">
    <!-- Generator: Sketch 42 (36781) - http://www.bohemiancoding.com/sketch -->
    <title>icon-checkmark-c</title>
    <desc>Created with Sketch.</desc>
    <defs></defs>
    <g id="Icon-Font" stroke="none" stroke-width="1" fill="none" fill-rule="evenodd">
        <g id="icon-checkmark-c" fill="#000000">
            <path d="M8.5,0 C9.67318295,0 10.7771758,0.221351953 11.8120117,0.6640625 C12.8468476,1.10677305 13.7488568,1.71272402 14.5180664,2.48193359 C15.287276,3.25114317 15.893227,4.15315238 16.3359375,5.18798828 C16.778648,6.22282418 17,7.32681705 17,8.5 C17,9.67318295 16.778648,10.7771758 16.3359375,11.8120117 C15.893227,12.8468476 15.287276,13.7488568 14.5180664,14.5180664 C13.7488568,15.287276 12.8468476,15.893227 11.8120117,16.3359375 C10.7771758,16.778648 9.67318295,17 8.5,17 C7.32681705,17 6.22282418,16.778648 5.18798828,16.3359375 C4.15315238,15.893227 3.25114317,15.287276 2.48193359,14.5180664 C1.71272402,13.7488568 1.10677305,12.8468476 0.6640625,11.8120117 C0.221351953,10.7771758 0,9.67318295 0,8.5 C0,7.32681705 0.221351953,6.22282418 0.6640625,5.18798828 C1.10677305,4.15315238 1.71272402,3.25114317 2.48193359,2.48193359 C3.25114317,1.71272402 4.15315238,1.10677305 5.18798828,0.6640625 C6.22282418,0.221351953 7.32681705,0 8.5,0 Z M12.8486328,5.14941406 C12.7490229,5.04980419 12.6300463,5 12.4916992,5 C12.3533522,5 12.2399093,5.04980419 12.1513672,5.14941406 L7.49902344,9.80175781 L5.84667969,8.14941406 C5.75813758,8.04980419 5.6446947,8 5.50634766,8 C5.36800061,8 5.24902394,8.04980419 5.14941406,8.14941406 C5.04980419,8.24902394 5,8.36800061 5,8.50634766 C5,8.6446947 5.04980419,8.76367138 5.14941406,8.86328125 L7.15039062,10.8642578 C7.19466168,10.9085289 7.24723277,10.9417317 7.30810547,10.9638672 C7.36897817,10.9860027 7.43261686,10.9970703 7.49902344,10.9970703 C7.56543002,10.9970703 7.62906871,10.9860027 7.68994141,10.9638672 C7.75081411,10.9417317 7.8033852,10.9085289 7.84765625,10.8642578 L12.8486328,5.86328125 C12.9482427,5.76367138 12.9980469,5.6446947 12.9980469,5.50634766 C12.9980469,5.36800061 12.9482427,5.24902394 12.8486328,5.14941406 Z" id="tick-circle---icomoon"></path>
        </g>
    </g>
</svg>