<?xml version="1.0" encoding="UTF-8" standalone="no"?>
<svg width="17px" height="17px" viewBox="0 0 17 17" version="1.1" xmlns="http://www.w3.org/2000/svg" xmlns:xlink="http://www.w3.org/1999/xlink">
    <!-- Generator: Sketch 42 (36781) - http://www.bohemiancoding.com/sketch -->
    <title>icon-dfs-settings</title>
    <desc>Created with Sketch.</desc>
    <defs></defs>
    <g id="Icon-Font" stroke="none" stroke-width="1" fill="none" fill-rule="evenodd">
        <g id="icon-dfs-settings" fill="#000000">
            <path d="M10.4031222,12.5046574 C10.4031222,11.3441593 11.3436618,10.4034921 12.5040027,10.4034921 C13.6643435,10.4034921 14.6048831,11.3441593 14.6048831,12.5046574 C14.6048831,13.6651556 13.6643435,14.6058227 12.5040027,14.6058227 C11.3436618,14.6058227 10.4031222,13.6651556 10.4031222,12.5046574 Z M16.5044776,13.4818186 C16.7787163,13.4402849 17.0002641,13.187273 16.9992559,12.8988013 L16.9965535,12.1256277 C16.9955733,11.8451698 16.7803495,11.5849731 16.4907784,11.5406243 L15.8826521,11.4474875 C15.8218816,11.2529003 15.7386034,11.0545614 15.6330676,10.8512203 C15.7060924,10.7501751 15.9654348,10.4150215 15.9654348,10.4150215 C16.1343505,10.1956681 16.1125295,9.8567139 15.9175044,9.65876646 L15.3303747,9.06283877 C15.1349878,8.86452408 14.7935663,8.84188049 14.5753934,9.00652394 L14.1135532,9.35505004 C13.9472469,9.26976183 13.7646851,9.19497833 13.5666181,9.12969908 L13.4715056,8.50462565 C13.4299764,8.23169868 13.1771762,8.00891422 12.8889781,8.0068975 L12.1165377,8.0014922 C11.8363458,7.9995315 11.5704193,8.21062278 11.5242175,8.48415425 C11.5242175,8.48415425 11.4974175,8.57820201 11.4326456,9.12969908 C11.2420811,9.19047631 11.0577687,9.26751082 10.8794583,9.36080262 L10.4402829,9.02015887 C10.2194471,8.84886896 9.87795959,8.87114413 9.67837628,9.06909157 L9.07752375,9.66501926 C8.87757016,9.86333395 8.85545153,10.1997684 9.02028684,10.4088207 C9.02028684,10.4088207 9.203641,10.6326224 9.36569587,10.8637259 C9.26441158,11.0500594 9.18538482,11.2368931 9.1286156,11.4232266 L8.48403451,11.5203307 C8.21559558,11.5607702 7.99948544,11.8128644 8.00146161,12.1012958 L8.00675822,12.8743613 C8.00867949,13.1547799 8.22466616,13.4138357 8.51423719,13.4566867 L9.12236349,13.5466779 C9.17913271,13.745517 9.2624109,13.9461069 9.37194798,14.1486976 C9.29892326,14.2502431 9.03958082,14.5852089 9.03958082,14.5852089 C8.87066514,14.8045279 8.89325275,15.1434848 9.08921961,15.3414699 L9.67918465,15.9375111 C9.87551508,16.1358635 10.2163755,16.1585377 10.4329679,15.9938942 L10.8914624,15.6453681 C11.0577687,15.7306563 11.2398303,15.80569 11.4388977,15.8707191 L11.5340102,16.4957925 C11.5755394,16.7687195 11.8283395,16.9914426 12.1165377,16.9933787 L12.8889781,16.9985678 C13.16917,17.00045 13.4349382,16.7894534 13.4809787,16.5160833 C13.4809787,16.5160833 13.5075981,16.4222162 13.57237,15.8707191 C13.7629345,15.8096918 13.9472469,15.7329074 14.1255573,15.6393654 L14.5647328,15.983413 C14.7855685,16.1564145 15.1271174,16.1340241 15.3128374,15.9481786 L15.941794,15.318797 C16.134125,15.1263361 16.1452151,14.7881202 15.9767083,14.5741654 C15.9767083,14.5741654 15.7811178,14.3337805 15.6393197,14.1304394 C15.7203472,13.9806223 15.7993739,13.7960396 15.8764,13.5769415 L16.5044776,13.4818186 Z" id="Fill-1"></path>
            <circle id="Oval-2" cx="1.5" cy="2.5" r="1.5"></circle>
            <rect id="Rectangle" x="4" y="1" width="13" height="1" rx="0.5"></rect>
            <rect id="Rectangle" x="4" y="3" width="9" height="1" rx="0.5"></rect>
            <circle id="Oval-2-Copy" cx="1.5" cy="8.5" r="1.5"></circle>
            <rect id="Rectangle-Copy-2" x="4" y="7" width="6" height="1" rx="0.5"></rect>
            <rect id="Rectangle-Copy" x="4" y="9" width="4" height="1" rx="0.5"></rect>
            <circle id="Oval-2-Copy-2" cx="1.5" cy="14.5" r="1.5"></circle>
            <rect id="Rectangle-Copy-4" x="4" y="13" width="3" height="1" rx="0.5"></rect>
            <rect id="Rectangle-Copy-3" x="4" y="15" width="4" height="1" rx="0.5"></rect>
        </g>
    </g>
</svg>