<?xml version="1.0" encoding="UTF-8" standalone="no"?>
<svg width="17px" height="17px" viewBox="0 0 17 17" version="1.1" xmlns="http://www.w3.org/2000/svg" xmlns:xlink="http://www.w3.org/1999/xlink">
    <!-- Generator: Sketch 42 (36781) - http://www.bohemiancoding.com/sketch -->
    <title>icon-yahoo</title>
    <desc>Created with Sketch.</desc>
    <defs>
        <polygon id="path-1" points="13.4649444 16.9999528 13.4649444 0 0 0 0 16.9999528 13.4649444 16.9999528"></polygon>
    </defs>
    <g id="Icon-Font" stroke="none" stroke-width="1" fill="none" fill-rule="evenodd">
        <g id="icon-yahoo">
            <g id="Page-1" transform="translate(1.650000, 0.000000)">
                <mask id="mask-2" fill="white">
                    <use xlink:href="#path-1"></use>
                </mask>
                <g id="Clip-2"></g>
                <path d="M7.66265556,9.77684167 L7.79535,16.9999528 C7.37271111,16.9253417 7.01523889,16.8880361 6.72246111,16.8880361 C6.44337778,16.8880361 6.08543333,16.9253417 5.64957222,16.9999528 L5.78226667,9.77684167 C5.50979444,9.30745278 4.93604444,8.30114722 4.06054444,6.75839722 C3.18551667,5.21564722 2.44885,3.940175 1.84912778,2.93198056 C1.24940556,1.92425833 0.633155556,0.946758333 -9.44444444e-05,-4.72222222e-05 C0.394683333,0.101952778 0.763016667,0.153425 1.10348889,0.153425 C1.39626667,0.153425 1.77357222,0.101952778 2.23729444,-4.72222222e-05 C2.66607222,0.755980556 3.12129444,1.53750833 3.60107222,2.34453611 C4.08179444,3.15203611 4.64987778,4.09364722 5.30721111,5.16936944 C5.96501667,6.24556389 6.43629444,7.01906389 6.72246111,7.48845278 C6.97415556,7.07336944 7.34768333,6.46845278 7.84162778,5.67511944 C8.33462778,4.88178611 8.73554444,4.23436944 9.04154444,3.73381389 C9.34754444,3.23325833 9.70548889,2.63400833 10.1144333,1.93606389 C10.5233778,1.23811944 10.8874611,0.592119444 11.2071556,-4.72222222e-05 C11.5750167,0.0953416667 11.9395722,0.143036111 12.3008222,0.143036111 C12.6823778,0.143036111 13.0705444,0.0953416667 13.4653222,-4.72222222e-05 C13.2745444,0.265341667 13.0705444,0.567091667 12.8519056,0.904258333 C12.6346833,1.24095278 12.4656278,1.50870278 12.3471,1.70609167 C12.2271556,1.90348056 12.0349611,2.23025833 11.7695722,2.68689722 C11.5037111,3.14306389 11.3370167,3.42923056 11.2690167,3.54539722 C10.2745167,5.23406389 9.07223889,7.31184167 7.66265556,9.77684167" id="Fill-1" fill="#000000" mask="url(#mask-2)"></path>
            </g>
        </g>
    </g>
</svg>