<?xml version="1.0" encoding="UTF-8" standalone="no"?>
<svg width="17px" height="17px" viewBox="0 0 17 17" version="1.1" xmlns="http://www.w3.org/2000/svg" xmlns:xlink="http://www.w3.org/1999/xlink">
    <!-- Generator: Sketch 42 (36781) - http://www.bohemiancoding.com/sketch -->
    <title>icon-mlb</title>
    <desc>Created with Sketch.</desc>
    <defs></defs>
    <g id="Icon-Font" stroke="none" stroke-width="1" fill="none" fill-rule="evenodd">
        <g id="icon-mlb" fill="#000000">
            <path d="M12.9979167,3.50625 C12.9979167,3.64791738 12.9506949,3.76597175 12.85625,3.86041667 C12.7618051,3.95486158 12.6437507,4.00208333 12.5020833,4.00208333 C12.360416,4.00208333 12.2423616,3.95486158 12.1479167,3.86041667 C12.0534718,3.76597175 12.00625,3.64791738 12.00625,3.50625 C12.00625,3.36458263 12.0534718,3.24652825 12.1479167,3.15208333 C12.2423616,3.05763842 12.360416,3.01041667 12.5020833,3.01041667 C12.6437507,3.01041667 12.7618051,3.05763842 12.85625,3.15208333 C12.9506949,3.24652825 12.9979167,3.36458263 12.9979167,3.50625 Z M12.9979167,13.5114583 C12.9979167,13.6413201 12.9506949,13.7564231 12.85625,13.8567708 C12.7618051,13.9571186 12.6437507,14.0072917 12.5020833,14.0072917 C12.360416,14.0072917 12.2423616,13.9571186 12.1479167,13.8567708 C12.0534718,13.7564231 12.00625,13.6413201 12.00625,13.5114583 C12.00625,13.369791 12.0534718,13.2487852 12.1479167,13.1484375 C12.2423616,13.0480898 12.360416,12.9979167 12.5020833,12.9979167 C12.6437507,12.9979167 12.7618051,13.0480898 12.85625,13.1484375 C12.9506949,13.2487852 12.9979167,13.369791 12.9979167,13.5114583 Z M12.00625,11.5104167 C12.00625,11.6402784 11.9560769,11.7553814 11.8557292,11.8557292 C11.7553814,11.9560769 11.6343757,12.00625 11.4927083,12.00625 C11.3628466,12.00625 11.2477436,11.9560769 11.1473958,11.8557292 C11.0470481,11.7553814 10.996875,11.6402784 10.996875,11.5104167 C10.996875,11.3687493 11.0470481,11.2477436 11.1473958,11.1473958 C11.2477436,11.0470481 11.3628466,10.996875 11.4927083,10.996875 C11.6343757,10.996875 11.7553814,11.0470481 11.8557292,11.1473958 C11.9560769,11.2477436 12.00625,11.3687493 12.00625,11.5104167 Z M10.996875,7.50833333 C10.996875,7.63819509 10.9496533,7.75329811 10.8552083,7.85364583 C10.7607634,7.95399356 10.642709,8.00416667 10.5010417,8.00416667 C10.3593743,8.00416667 10.2413199,7.95399356 10.146875,7.85364583 C10.0524301,7.75329811 10.0052083,7.63819509 10.0052083,7.50833333 C10.0052083,7.36666596 10.0524301,7.24566022 10.146875,7.1453125 C10.2413199,7.04496478 10.3593743,6.99479167 10.5010417,6.99479167 C10.642709,6.99479167 10.7607634,7.04496478 10.8552083,7.1453125 C10.9496533,7.24566022 10.996875,7.36666596 10.996875,7.50833333 Z M12.00625,5.50729167 C12.00625,5.63715343 11.9560769,5.75225644 11.8557292,5.85260417 C11.7553814,5.95295189 11.6343757,6.003125 11.4927083,6.003125 C11.3628466,6.003125 11.2477436,5.95295189 11.1473958,5.85260417 C11.0470481,5.75225644 10.996875,5.63715343 10.996875,5.50729167 C10.996875,5.36562429 11.0470481,5.24756992 11.1473958,5.153125 C11.2477436,5.05868008 11.3628466,5.01145833 11.4927083,5.01145833 C11.6343757,5.01145833 11.7553814,5.05868008 11.8557292,5.153125 C11.9560769,5.24756992 12.00625,5.36562429 12.00625,5.50729167 Z M10.996875,9.509375 C10.996875,9.63923676 10.9496533,9.75433978 10.8552083,9.8546875 C10.7607634,9.95503522 10.642709,10.0052083 10.5010417,10.0052083 C10.3593743,10.0052083 10.2413199,9.95503522 10.146875,9.8546875 C10.0524301,9.75433978 10.0052083,9.63923676 10.0052083,9.509375 C10.0052083,9.36770762 10.0524301,9.24670189 10.146875,9.14635417 C10.2413199,9.04600644 10.3593743,8.99583333 10.5010417,8.99583333 C10.642709,8.99583333 10.7607634,9.04600644 10.8552083,9.14635417 C10.9496533,9.24670189 10.996875,9.36770762 10.996875,9.509375 Z M4.99375,3.50625 C4.99375,3.64791738 4.94652825,3.76597175 4.85208333,3.86041667 C4.75763842,3.95486158 4.63958404,4.00208333 4.49791667,4.00208333 C4.35624929,4.00208333 4.23819492,3.95486158 4.14375,3.86041667 C4.04930508,3.76597175 4.00208333,3.64791738 4.00208333,3.50625 C4.00208333,3.36458263 4.04930508,3.24652825 4.14375,3.15208333 C4.23819492,3.05763842 4.35624929,3.01041667 4.49791667,3.01041667 C4.63958404,3.01041667 4.75763842,3.05763842 4.85208333,3.15208333 C4.94652825,3.24652825 4.99375,3.36458263 4.99375,3.50625 Z M4.99375,13.5114583 C4.99375,13.6413201 4.94652825,13.7564231 4.85208333,13.8567708 C4.75763842,13.9571186 4.63958404,14.0072917 4.49791667,14.0072917 C4.35624929,14.0072917 4.23819492,13.9571186 4.14375,13.8567708 C4.04930508,13.7564231 4.00208333,13.6413201 4.00208333,13.5114583 C4.00208333,13.369791 4.04930508,13.2487852 4.14375,13.1484375 C4.23819492,13.0480898 4.35624929,12.9979167 4.49791667,12.9979167 C4.63958404,12.9979167 4.75763842,13.0480898 4.85208333,13.1484375 C4.94652825,13.2487852 4.99375,13.369791 4.99375,13.5114583 Z M6.003125,11.5104167 C6.003125,11.6402784 5.95295189,11.7553814 5.85260417,11.8557292 C5.75225644,11.9560769 5.63715343,12.00625 5.50729167,12.00625 C5.36562429,12.00625 5.24461856,11.9560769 5.14427083,11.8557292 C5.04392311,11.7553814 4.99375,11.6402784 4.99375,11.5104167 C4.99375,11.3687493 5.04392311,11.2477436 5.14427083,11.1473958 C5.24461856,11.0470481 5.36562429,10.996875 5.50729167,10.996875 C5.63715343,10.996875 5.75225644,11.0470481 5.85260417,11.1473958 C5.95295189,11.2477436 6.003125,11.3687493 6.003125,11.5104167 Z M6.99479167,7.50833333 C6.99479167,7.63819509 6.94756992,7.75329811 6.853125,7.85364583 C6.75868008,7.95399356 6.64062571,8.00416667 6.49895833,8.00416667 C6.35729096,8.00416667 6.23923658,7.95399356 6.14479167,7.85364583 C6.05034675,7.75329811 6.003125,7.63819509 6.003125,7.50833333 C6.003125,7.36666596 6.05034675,7.24566022 6.14479167,7.1453125 C6.23923658,7.04496478 6.35729096,6.99479167 6.49895833,6.99479167 C6.64062571,6.99479167 6.75868008,7.04496478 6.853125,7.1453125 C6.94756992,7.24566022 6.99479167,7.36666596 6.99479167,7.50833333 Z M6.003125,5.50729167 C6.003125,5.63715343 5.95295189,5.75225644 5.85260417,5.85260417 C5.75225644,5.95295189 5.63715343,6.003125 5.50729167,6.003125 C5.36562429,6.003125 5.24461856,5.95295189 5.14427083,5.85260417 C5.04392311,5.75225644 4.99375,5.63715343 4.99375,5.50729167 C4.99375,5.36562429 5.04392311,5.24756992 5.14427083,5.153125 C5.24461856,5.05868008 5.36562429,5.01145833 5.50729167,5.01145833 C5.63715343,5.01145833 5.75225644,5.05868008 5.85260417,5.153125 C5.95295189,5.24756992 6.003125,5.36562429 6.003125,5.50729167 Z M6.99479167,9.509375 C6.99479167,9.63923676 6.94756992,9.75433978 6.853125,9.8546875 C6.75868008,9.95503522 6.64062571,10.0052083 6.49895833,10.0052083 C6.35729096,10.0052083 6.23923658,9.95503522 6.14479167,9.8546875 C6.05034675,9.75433978 6.003125,9.63923676 6.003125,9.509375 C6.003125,9.36770762 6.05034675,9.24670189 6.14479167,9.14635417 C6.23923658,9.04600644 6.35729096,8.99583333 6.49895833,8.99583333 C6.64062571,8.99583333 6.75868008,9.04600644 6.853125,9.14635417 C6.94756992,9.24670189 6.99479167,9.36770762 6.99479167,9.509375 Z M8.5,0 C9.66875584,0 10.7696129,0.224303312 11.8026042,0.672916667 C12.8355954,1.12153002 13.7387114,1.72951005 14.5119792,2.496875 C15.2852469,3.26423995 15.893227,4.16440456 16.3359375,5.19739583 C16.778648,6.23038711 17,7.33124416 17,8.5 C17,9.68056146 16.778648,10.7843699 16.3359375,11.8114583 C15.893227,12.8385468 15.2852469,13.7387114 14.5119792,14.5119792 C13.7387114,15.2852469 12.8355954,15.893227 11.8026042,16.3359375 C10.7696129,16.778648 9.66875584,17 8.5,17 C7.33124416,17 6.23038711,16.778648 5.19739583,16.3359375 C4.16440456,15.893227 3.26128859,15.2852469 2.48802083,14.5119792 C1.71475308,13.7387114 1.10677305,12.8385468 0.6640625,11.8114583 C0.221351953,10.7843699 0,9.68056146 0,8.5 C0,7.33124416 0.221351953,6.23038711 0.6640625,5.19739583 C1.10677305,4.16440456 1.71475308,3.26423995 2.48802083,2.496875 C3.26128859,1.72951005 4.16440456,1.12153002 5.19739583,0.672916667 C6.23038711,0.224303312 7.33124416,0 8.5,0 Z M8.5,16.0083333 C9.53889408,16.0083333 10.5128427,15.8105923 11.421875,15.4151042 C12.3309073,15.0196161 13.124823,14.4824687 13.8036458,13.8036458 C14.4824687,13.124823 15.0196161,12.3309073 15.4151042,11.421875 C15.8105923,10.5128427 16.0083333,9.53889408 16.0083333,8.5 C16.0083333,7.47291153 15.8105923,6.5019143 15.4151042,5.58697917 C15.0196161,4.67204404 14.4824687,3.87517701 13.8036458,3.19635417 C13.124823,2.51753133 12.3309073,1.98333528 11.421875,1.59375 C10.5128427,1.20416472 9.53889408,1.009375 8.5,1.009375 C7.46110592,1.009375 6.48715732,1.20416472 5.578125,1.59375 C4.66909268,1.98333528 3.87517701,2.51753133 3.19635417,3.19635417 C2.51753133,3.87517701 1.98038392,4.67204404 1.58489583,5.58697917 C1.18940774,6.5019143 0.991666667,7.47291153 0.991666667,8.5 C0.991666667,9.53889408 1.18940774,10.5128427 1.58489583,11.421875 C1.98038392,12.3309073 2.51753133,13.124823 3.19635417,13.8036458 C3.87517701,14.4824687 4.66909268,15.0196161 5.578125,15.4151042 C6.48715732,15.8105923 7.46110592,16.0083333 8.5,16.0083333 Z" id="baseball---icomoon"></path>
        </g>
    </g>
</svg>