<?xml version="1.0" encoding="UTF-8" standalone="no"?>
<svg width="17px" height="17px" viewBox="0 0 17 17" version="1.1" xmlns="http://www.w3.org/2000/svg" xmlns:xlink="http://www.w3.org/1999/xlink">
    <!-- Generator: Sketch 42 (36781) - http://www.bohemiancoding.com/sketch -->
    <title>icon-projections</title>
    <desc>Created with Sketch.</desc>
    <defs></defs>
    <g id="Icon-Font" stroke="none" stroke-width="1" fill="none" fill-rule="evenodd">
        <g id="icon-projections" fill="#000000">
            <g id="Page-1" transform="translate(2.000000, 1.000000)">
                <path d="M8,13.009222 C8,13.5564136 8.44386482,14 9,14 L9,14 C9.55228475,14 10,13.5490248 10,13.009222 L10,8.99077797 C10,8.44358641 9.55613518,8 9,8 L9,8 C8.44771525,8 8,8.45097518 8,8.99077797 L8,13.009222 Z" id="Fill-2"></path>
                <path d="M12,12.9931545 C12,13.5492199 12.4438648,14 13,14 L13,14 C13.5522847,14 14,13.5500512 14,12.9931545 L14,1.00684547 C14,0.450780073 13.5561352,0 13,0 L13,0 C12.4477153,0 12,0.449948758 12,1.00684547 L12,12.9931545 Z" id="Fill-3"></path>
                <path d="M0,13.0029699 C0,13.5536144 0.443864822,14 1,14 L1,14 C1.55228475,14 2,13.5469637 2,13.0029699 L2,6.99703014 C2,6.4463856 1.55613518,6 1,6 L1,6 C0.44771525,6 0,6.45303631 0,6.99703014 L0,13.0029699 Z" id="Fill-4"></path>
                <path d="M4,13.0044225 C4,13.5542648 4.44386482,14 5,14 L5,14 C5.55228475,14 6,13.555163 6,13.0044225 L6,3.9955775 C6,3.44573523 5.55613518,3 5,3 L5,3 C4.44771525,3 4,3.44483697 4,3.9955775 L4,13.0044225 Z" id="Fill-5"></path>
            </g>
            <rect id="Rectangle-5" x="0" y="0" width="1" height="17" rx="0.5"></rect>
            <rect id="Rectangle-5-Copy" transform="translate(8.500000, 16.500000) rotate(90.000000) translate(-8.500000, -16.500000) " x="8" y="8" width="1" height="17" rx="0.5"></rect>
        </g>
    </g>
</svg>