<?xml version="1.0" encoding="UTF-8" standalone="no"?>
<svg width="17px" height="17px" viewBox="0 0 17 17" version="1.1" xmlns="http://www.w3.org/2000/svg" xmlns:xlink="http://www.w3.org/1999/xlink">
    <!-- Generator: Sketch 42 (36781) - http://www.bohemiancoding.com/sketch -->
    <title>icon-search</title>
    <desc>Created with Sketch.</desc>
    <defs></defs>
    <g id="Icon-Font" stroke="none" stroke-width="1" fill="none" fill-rule="evenodd">
        <g id="icon-search" fill-rule="nonzero" fill="#000000">
            <path d="M7,12.425 C9.99614477,12.425 12.425,9.99614477 12.425,7 C12.425,4.00385523 9.99614477,1.575 7,1.575 C4.00385523,1.575 1.575,4.00385523 1.575,7 C1.575,9.99614477 4.00385523,12.425 7,12.425 Z M7,14 C3.13400675,14 0,10.8659932 0,7 C0,3.13400675 3.13400675,0 7,0 C10.8659932,0 14,3.13400675 14,7 C14,10.8659932 10.8659932,14 7,14 Z M10.832321,10.8306298 C11.1408352,10.5221156 11.643199,10.5242791 11.9491127,10.8301927 L16.7825055,15.6635856 C17.0907783,15.9718584 17.0927336,16.4697122 16.7820685,16.7803773 C16.4735543,17.0888915 15.9711904,17.086728 15.6652768,16.7808144 L10.8318839,11.9474215 C10.5236111,11.6391487 10.5216559,11.1412949 10.832321,10.8306298 Z" id="Combined-Shape"></path>
        </g>
    </g>
</svg>