<?xml version="1.0" encoding="UTF-8" standalone="no"?>
<svg width="17px" height="17px" viewBox="0 0 17 17" version="1.1" xmlns="http://www.w3.org/2000/svg" xmlns:xlink="http://www.w3.org/1999/xlink">
    <!-- Generator: Sketch 42 (36781) - http://www.bohemiancoding.com/sketch -->
    <title>icon-nhl</title>
    <desc>Created with Sketch.</desc>
    <defs></defs>
    <g id="Icon-Font" stroke="none" stroke-width="1" fill="none" fill-rule="evenodd">
        <g id="icon-nhl" fill="#000000">
            <path d="M12.3183594,9.54589844 C12.4069015,9.81152477 12.4345705,10.079914 12.4013672,10.3510742 C12.3681639,10.6222344 12.2851569,10.8795561 12.1523438,11.1230469 L9.36328125,15.9873047 C9.18619703,16.2972021 8.94270988,16.5434561 8.6328125,16.7260742 C8.32291512,16.9086923 7.99088719,17 7.63671875,17 L1.9921875,17 C1.44986708,17 0.982261079,16.8035501 0.589355469,16.4106445 C0.196449858,16.0177389 0,15.5501329 0,15.0078125 C0,14.4544243 0.196449858,13.9812845 0.589355469,13.5883789 C0.982261079,13.1954733 1.44986708,12.9990234 1.9921875,12.9990234 L5.61132812,12.9990234 C5.78841234,12.9990234 5.95719321,12.9519861 6.11767578,12.8579102 C6.27815835,12.7638342 6.40266883,12.6393237 6.49121094,12.484375 L8.3671875,9.03125 C8.62174606,8.55533616 9.00634508,8.23714273 9.52099609,8.07666016 C10.0356471,7.91617758 10.5364559,7.95768107 11.0234375,8.20117188 L11.0732422,8.234375 L15.0576172,0.282226563 C15.112956,0.149413398 15.2070306,0.0636395166 15.3398438,0.0249023438 C15.4726569,-0.0138348291 15.5999343,-0.00553413086 15.7216797,0.0498046875 C15.8434251,0.11621127 15.9264321,0.213052749 15.9707031,0.340332031 C16.0149742,0.467611313 16.0094404,0.597655586 15.9541016,0.73046875 L11.953125,8.71582031 C11.9420572,8.73795584 11.9309896,8.75179034 11.9199219,8.75732422 C11.9088541,8.7628581 11.8977865,8.7711588 11.8867188,8.78222656 C11.9863286,8.8929042 12.0721025,9.01188087 12.144043,9.13916016 C12.2159834,9.26643944 12.2740883,9.40201751 12.3183594,9.54589844 Z M11.2724609,10.625 C11.3499353,10.5032546 11.3942057,10.3759772 11.4052734,10.2431641 C11.4163412,10.1103509 11.4052736,9.97753973 11.3720703,9.84472656 C11.3277993,9.7119134 11.2613937,9.59293672 11.1728516,9.48779297 C11.0843095,9.38264921 10.9791673,9.30240913 10.8574219,9.24707031 L10.5751953,9.09765625 C10.3317045,8.97591085 10.0826836,8.95377565 9.828125,9.03125 C9.57356644,9.10872435 9.37988348,9.26920451 9.24707031,9.51269531 L7.37109375,12.9658203 C7.19400953,13.2867855 6.94775548,13.5385733 6.63232422,13.7211914 C6.31689295,13.9038095 5.97656433,13.9951172 5.61132812,13.9951172 L1.9921875,13.9951172 C1.72656117,13.9951172 1.49414162,14.0947256 1.29492188,14.2939453 C1.09570213,14.4931651 0.99609375,14.7311184 0.99609375,15.0078125 C0.99609375,15.2734388 1.09570213,15.5058584 1.29492188,15.7050781 C1.49414162,15.9042979 1.72656117,16.0039062 1.9921875,16.0039062 L7.63671875,16.0039062 C7.81380297,16.0039062 7.97981693,15.9596359 8.13476562,15.8710938 C8.28971432,15.7825516 8.41145789,15.6552743 8.5,15.4892578 L11.2724609,10.625 Z M15.8544922,4.25 C16.2307962,4.89193029 16.5157868,5.57535445 16.7094727,6.30029297 C16.9031585,7.02523149 17,7.75845983 17,8.5 C17,9.37435333 16.8754895,10.2127239 16.6264648,11.0151367 C16.3774402,11.8175496 16.0205101,12.5618455 15.5556641,13.2480469 C15.090818,13.9342482 14.5319043,14.545733 13.8789062,15.0825195 C13.2259082,15.6193061 12.4954467,16.0481755 11.6875,16.3691406 C11.6542967,16.3912762 11.6238608,16.4051106 11.5961914,16.4106445 C11.568522,16.4161784 11.5380861,16.4189453 11.5048828,16.4189453 C11.4052729,16.4189453 11.3111984,16.3912763 11.2226562,16.3359375 C11.1341141,16.2805987 11.0732424,16.2031255 11.0400391,16.1035156 C10.9847002,15.9707025 10.9847002,15.8406582 11.0400391,15.7133789 C11.0953779,15.5860996 11.1839187,15.5003257 11.3056641,15.4560547 C12.0250687,15.1682928 12.6725232,14.7864607 13.2480469,14.3105469 C13.8235706,13.834633 14.3160787,13.2950877 14.7255859,12.6918945 C15.1350932,12.0887014 15.4505197,11.4301794 15.671875,10.7163086 C15.8932303,10.0024378 16.0039062,9.26367569 16.0039062,8.5 C16.0039062,7.84700194 15.9181324,7.20231438 15.746582,6.56591797 C15.5750317,5.92952156 15.3232438,5.32357059 14.9912109,4.74804688 C14.9248044,4.62630147 14.908203,4.4990241 14.9414062,4.36621094 C14.9746095,4.23339777 15.0520827,4.13378939 15.1738281,4.06738281 C15.2955735,4.00097623 15.4228509,3.98437483 15.5556641,4.01757813 C15.6884772,4.05078142 15.7880856,4.1282546 15.8544922,4.25 Z M1.07910156,12.0029297 C0.990559453,12.0029297 0.902018672,11.9752607 0.813476562,11.9199219 C0.724934453,11.8645831 0.664062666,11.7871099 0.630859375,11.6875 C0.420571865,11.1783829 0.262858599,10.6554389 0.157714844,10.1186523 C0.0525710889,9.58186581 0,9.04232042 0,8.5 C0,7.32681705 0.224118853,6.22559108 0.672363281,5.19628906 C1.12060771,4.16698704 1.72932558,3.26774473 2.49853516,2.49853516 C3.26774473,1.72932558 4.16698704,1.12060771 5.19628906,0.672363281 C6.22559108,0.224118853 7.32681705,0 8.5,0 C9.24154017,0 9.97476851,0.0968414795 10.699707,0.290527344 C11.4246456,0.484213208 12.1080697,0.769203848 12.75,1.14550781 C12.8717454,1.21191439 12.9492186,1.31152277 12.9824219,1.44433594 C13.0156252,1.5771491 12.9990238,1.70442647 12.9326172,1.82617187 C12.8662106,1.94791728 12.7666022,2.02539046 12.6337891,2.05859375 C12.5009759,2.09179704 12.3736985,2.07519564 12.2519531,2.00878906 C11.6764294,1.67675615 11.0704784,1.42496831 10.434082,1.25341797 C9.79768562,1.08186763 9.15299806,0.99609375 8.5,0.99609375 C7.47069798,0.99609375 6.49951628,1.19254361 5.58642578,1.58544922 C4.67333528,1.97835483 3.87646825,2.51513332 3.19580078,3.19580078 C2.51513332,3.87646825 1.97835483,4.67333528 1.58544922,5.58642578 C1.19254361,6.49951628 0.99609375,7.47069798 0.99609375,8.5 C0.99609375,8.9869816 1.04313104,9.4656552 1.13720703,9.93603516 C1.23128302,10.4064151 1.36686109,10.8629535 1.54394531,11.3056641 C1.59928413,11.4384772 1.59928413,11.5685215 1.54394531,11.6958008 C1.48860649,11.8230801 1.40006571,11.9143877 1.27832031,11.9697266 C1.24511702,11.9807943 1.21191423,11.989095 1.17871094,11.9946289 C1.14550765,12.0001628 1.11230485,12.0029297 1.07910156,12.0029297 Z" id="hockey---icomoon"></path>
        </g>
    </g>
</svg>