<?xml version="1.0" encoding="UTF-8" standalone="no"?>
<svg width="17px" height="17px" viewBox="0 0 17 17" version="1.1" xmlns="http://www.w3.org/2000/svg" xmlns:xlink="http://www.w3.org/1999/xlink">
    <!-- Generator: Sketch 42 (36781) - http://www.bohemiancoding.com/sketch -->
    <title>icon-instagram</title>
    <desc>Created with Sketch.</desc>
    <defs>
        <polygon id="path-1" points="16.9999056 17 0 17 0 0.000141666667 16.9999056 0.000141666667 16.9999056 17"></polygon>
    </defs>
    <g id="Icon-Font" stroke="none" stroke-width="1" fill="none" fill-rule="evenodd">
        <g id="icon-instagram">
            <g id="Page-1">
                <g id="Group-3">
                    <mask id="mask-2" fill="white">
                        <use xlink:href="#path-1"></use>
                    </mask>
                    <g id="Clip-2"></g>
                    <path d="M1.55115556,11.5303917 C1.55776667,11.5308639 1.56390556,11.5308639 1.57051667,11.5313361 C1.58657222,11.7140861 1.61112778,11.8968361 1.61679444,12.0800583 C1.63190556,12.5640861 1.71973889,13.0315861 1.88879444,13.4858639 C2.08335,14.0090861 2.41626667,14.4222806 2.86015556,14.754725 C3.41029444,15.1665028 4.0511,15.3138361 4.71315556,15.3761694 C5.21796111,15.4238639 5.72701667,15.4455861 6.23418333,15.4451139 C7.90112778,15.4436972 9.56807222,15.4333083 11.2350167,15.4111139 C11.7289611,15.4045028 12.2252667,15.3728639 12.7149611,15.3086417 C13.4502111,15.2123083 14.0844056,14.9081972 14.5929889,14.3401139 C14.9967389,13.8896139 15.2172667,13.3597806 15.3032111,12.7860306 C15.39435,12.1778083 15.4392111,11.5577806 15.4420444,10.9429472 C15.4500722,9.21980833 15.4330722,7.49619722 15.4108778,5.77305833 C15.4047389,5.27391944 15.3749889,4.771475 15.3079333,4.27658611 C15.2092389,3.54889167 14.9131556,2.91658611 14.3464889,2.412725 C13.8955167,2.01133611 13.3685167,1.783725 12.7942944,1.69730833 C12.1865444,1.60569722 11.5660444,1.55658611 10.9512111,1.558475 C8.93812778,1.56508611 6.92315556,1.486225 4.91148889,1.62080833 C4.63098889,1.639225 4.34765556,1.66614167 4.07329444,1.724225 C3.41785,1.86305833 2.84976667,2.15394722 2.39501667,2.67150278 C2.00023889,3.12058611 1.77923889,3.64569722 1.69707222,4.21378056 C1.60546111,4.84466944 1.56343333,5.48689167 1.55729444,6.12439167 C1.53982222,7.92639167 1.55115556,9.72839167 1.55115556,11.5303917 M-9.44444444e-05,11.5695861 L-9.44444444e-05,5.43069722 C0.0112388889,5.40236389 0.0306,5.37450278 0.0329611111,5.34569722 C0.0683777778,4.90841944 0.0877388889,4.469725 0.139211111,4.03433611 C0.193988889,3.568725 0.333294444,3.12200278 0.526905556,2.69369722 C0.793238889,2.10530833 1.17054444,1.60428056 1.6626,1.180225 C2.00685,0.883669444 2.38604444,0.649919444 2.79923889,0.478502778 C3.58501667,0.152669444 4.41376667,0.0331972222 5.26140556,0.032725 C5.3176,0.032725 5.37426667,0.011475 5.43046111,0.000141666667 L11.56935,0.000141666667 C11.5976833,0.011475 11.6255444,0.0303638889 11.65435,0.032725 C12.0916278,0.0681416667 12.5303222,0.0875027778 12.9652389,0.138975 C13.4313222,0.193752778 13.8780444,0.333530556 14.30635,0.527141667 C14.8947389,0.793002778 15.3957667,1.17030833 15.8198222,1.66236389 C16.1163778,2.00708611 16.3501278,2.38628056 16.5210722,2.79900278 C16.8473778,3.58525278 16.96685,4.41353056 16.9673222,5.26116944 C16.9673222,5.31783611 16.9885722,5.37403056 16.9999056,5.43069722 L16.9999056,11.5695861 C16.9885722,11.5979194 16.9696833,11.6253083 16.9673222,11.6545861 C16.9319056,12.0913917 16.9125444,12.5300861 16.8610722,12.965475 C16.8058222,13.4315583 16.6665167,13.8782806 16.4729056,14.3061139 C16.2070444,14.8945028 15.8292667,15.3955306 15.3372111,15.8195861 C14.9929611,16.1166139 14.6137667,16.3498917 14.2005722,16.5213083 C13.4147944,16.8471417 12.5865167,16.9666139 11.7384056,16.9670861 C11.6822111,16.9675583 11.6260167,16.9888083 11.56935,17.0001417 L5.43046111,17.0001417 C5.40212778,16.9888083 5.37473889,16.9694472 5.34546111,16.9670861 C4.90865556,16.9316694 4.46948889,16.9123083 4.03457222,16.8608361 C3.56848889,16.8060583 3.12176667,16.6667528 2.69393333,16.4731417 C2.10554444,16.2068083 1.60451667,15.8295028 1.18046111,15.3374472 C0.883433333,14.9931972 0.650155556,14.6140028 0.478738889,14.2008083 C0.152905556,13.4150306 0.0329611111,12.5862806 0.0324888889,11.7386417 C0.0324888889,11.681975 0.0112388889,11.6257806 -9.44444444e-05,11.5695861" id="Fill-1" fill="#000000" mask="url(#mask-2)"></path>
                </g>
                <path d="M11.3000417,8.50538333 C11.349625,6.96452222 10.0132361,5.77688333 8.71226389,5.69471667 C6.91404167,5.58138333 5.76654167,7.06132778 5.69334722,8.30043889 C5.58851389,10.0793 7.05995833,11.2329389 8.31276389,11.3089667 C10.0415694,11.4133278 11.3689861,9.92818889 11.3000417,8.50538333 M8.50448611,12.8843 C6.09190278,12.8824111 4.06181944,10.9401611 4.11801389,8.38213333 C4.16806944,6.09516111 6.03429167,4.05516111 8.63859722,4.11891111 C10.9062083,4.17510556 12.9485694,6.03093889 12.8800972,8.6428 C12.820125,10.9378 10.9614583,12.8668278 8.50448611,12.8843" id="Fill-4" fill="#000000"></path>
                <path d="M13.0264861,4.991625 C12.5249861,5.04640278 11.9691806,4.52601389 11.9970417,3.912125 C12.0187639,3.44226389 12.4796528,2.89873611 13.0609583,2.92706944 C13.5870139,2.95209722 14.0941806,3.38559722 14.0724583,4.03443056 C14.056875,4.49201389 13.5917361,5.04876389 13.0264861,4.991625" id="Fill-6" fill="#000000"></path>
            </g>
        </g>
    </g>
</svg>