<?xml version="1.0" encoding="UTF-8" standalone="no"?>
<svg width="17px" height="17px" viewBox="0 0 17 17" version="1.1" xmlns="http://www.w3.org/2000/svg" xmlns:xlink="http://www.w3.org/1999/xlink">
    <!-- Generator: Sketch 42 (36781) - http://www.bohemiancoding.com/sketch -->
    <title>icon-arrow-big-up</title>
    <desc>Created with Sketch.</desc>
    <defs></defs>
    <g id="Icon-Font" stroke="none" stroke-width="1" fill="none" fill-rule="evenodd">
        <g id="icon-arrow-big-up" fill="#000000">
            <path d="M7.47550275,4.60931484 L2.31515535,9.91300285 C1.89869621,10.3298068 1.89224186,11.017573 2.31211134,11.4377901 L2.56006968,11.6859537 C2.97933757,12.1055687 3.66204495,12.1048068 4.0835956,11.6829071 L8.51706,7.12629299 L12.913054,11.6829071 C13.3346046,12.1048068 14.017312,12.1055687 14.4365799,11.6859537 L14.6845382,11.4377901 C15.1044077,11.017573 15.0979534,10.3298068 14.6814942,9.91300285 L9.6331987,4.68025345 C9.60259824,4.63904317 9.56863957,4.5995692 9.53131122,4.56220995 L9.28335288,4.31404634 C8.86408499,3.89443135 8.18137761,3.89519323 7.75982696,4.31709286 L7.55925703,4.52323409 L7.51575581,4.56677132 C7.50187218,4.58066644 7.48845469,4.59485411 7.47550275,4.60931484 L7.47550275,4.60931484 Z" id="Combined-Shape"></path>
        </g>
    </g>
</svg>