<?xml version="1.0" encoding="UTF-8" standalone="no"?>
<svg width="17px" height="17px" viewBox="0 0 17 17" version="1.1" xmlns="http://www.w3.org/2000/svg" xmlns:xlink="http://www.w3.org/1999/xlink">
    <!-- Generator: Sketch 42 (36781) - http://www.bohemiancoding.com/sketch -->
    <title>icon-premium-o</title>
    <desc>Created with Sketch.</desc>
    <defs></defs>
    <g id="Icon-Font" stroke="none" stroke-width="1" fill="none" fill-rule="evenodd">
        <g id="icon-premium-o" fill="#000000">
            <path d="M16.0060838,6.47634862 C16.4335389,6.78662127 17,7.40526889 17,8.50071163 C17,9.58192169 16.4472972,10.1981972 16.0212653,10.5122652 C16.2361789,10.9947534 16.4088689,11.8022214 15.8613848,12.7496442 C15.32671,13.6761923 14.5500795,13.9361762 14.0524098,14.0021209 C14.0125583,14.5714286 13.7056066,15.3082075 12.7496442,15.8604359 C12.2842352,16.1289593 11.8245193,16.2651187 11.3833059,16.2651187 C11.0246421,16.2651187 10.7328719,16.1768761 10.5098931,16.069182 C10.1683085,16.5303212 9.53210728,17 8.49928837,17 C7.4674183,17 6.83121703,16.5298468 6.49010688,16.0682332 C6.26665364,16.1768761 5.97393464,16.2655932 5.61432199,16.2655932 C5.17358301,16.2655932 4.71434153,16.1294338 4.25035582,15.8613848 C3.29107248,15.3077331 2.98554405,14.5681076 2.94759021,13.9978511 C2.44327854,13.9290598 1.66854575,13.6652806 1.14003851,12.7496442 C0.586861273,11.7917841 0.77663048,10.9667625 0.993441799,10.486172 C0.57689839,10.1502805 0,9.50364189 0,8.49976279 C0,7.50062791 0.571679737,6.85588703 0.988223146,6.51904669 C0.765244328,6.04177713 0.575475121,5.22529512 1.13861524,4.25035582 C1.68942037,3.29629113 2.48645104,3.04769347 2.97558117,2.9907627 C3.0216002,2.46794854 3.27494209,1.70317863 4.25083024,1.14003851 C4.68729942,0.887645466 5.13135936,0.760025675 5.57020065,0.760025675 C5.93740407,0.760025675 6.24245807,0.848268356 6.47445093,0.95264142 C6.81176569,0.484860324 7.45176234,0 8.50071163,0 C9.54349343,0 10.1820668,0.480116094 10.5208048,0.946473921 C10.7504256,0.840203165 11.0516842,0.751011637 11.4169899,0.751011637 C11.8558312,0.751011637 12.3046354,0.881477967 12.7496442,1.13861524 C13.6875785,1.67993191 13.9916836,2.43948316 14.0362794,3.01733039 C14.5448609,3.09466135 15.3471102,3.3617615 15.8604359,4.25083024 C16.3827757,5.15602936 16.2086624,5.98484637 16.0060838,6.47634862 Z M15.1230151,6.71442525 C15.3017609,6.2807468 15.4553903,5.54943767 14.9945023,4.75073256 C14.5415678,3.96626015 13.8337008,3.73058354 13.3849524,3.66235035 C13.3456032,3.15248514 13.0772751,2.48229286 12.249686,2.00466051 C11.8570312,1.77777468 11.4610275,1.66265733 11.0738146,1.66265733 C10.7514861,1.66265733 10.4856696,1.74135573 10.2830631,1.83512405 C9.9841766,1.42363185 9.4207295,1 8.50062791,1 C7.57508442,1 7.01038149,1.42781793 6.71275082,1.84056596 C6.50805124,1.74847208 6.23888594,1.67061089 5.91488293,1.67061089 C5.52767002,1.67061089 5.13585243,1.78321659 4.75073256,2.00591633 C3.88965479,2.50280468 3.66611782,3.17760165 3.6255128,3.63890827 C3.19392739,3.68914129 2.49066503,3.90849217 2.00466051,4.75031396 C1.50777217,5.61055452 1.67521558,6.33097982 1.8719616,6.75210002 C1.5044233,7.04931209 1,7.6182011 1,8.4997907 C1,9.38556638 1.50902799,9.95612982 1.87656629,10.2525047 C1.68526219,10.6765551 1.51781877,11.4045154 2.00591633,12.249686 C2.47224625,13.0576005 3.15583401,13.2903469 3.60081489,13.3510451 C3.63430357,13.8542126 3.90388748,14.5068233 4.75031396,14.9953395 C5.15971311,15.2318533 5.56492619,15.351994 5.95381352,15.351994 C6.2711188,15.351994 6.52940027,15.2737142 6.7265649,15.1778528 C7.02754444,15.5851589 7.5888985,16 8.49937209,16 C9.41068289,16 9.97203695,15.5855775 10.2734351,15.17869 C10.4701811,15.2737142 10.7276254,15.3515754 11.0440934,15.3515754 C11.4333994,15.3515754 11.8390311,15.2314347 12.249686,14.9945023 C13.0931823,14.5072419 13.364022,13.8571429 13.3991851,13.3548126 C13.8383055,13.296626 14.5235677,13.0672285 14.9953395,12.249686 C15.4784138,11.4137248 15.3260402,10.701253 15.1364106,10.2755281 C15.512321,9.99840929 16,9.45463679 16,8.50062791 C16,7.53406078 15.5001814,6.98819524 15.1230151,6.71442525 Z M11.1792398,5.35438596 L10.227193,6.43508772 C9.76403509,6.01052632 9.36520468,5.79181287 8.8248538,5.79181287 C8.20730994,5.79181287 7.87280702,6.03625731 7.87280702,6.61520468 C7.87280702,7.8374269 11.2692982,7.73450292 11.2692982,10.1918129 C11.2692982,11.4269006 10.5874269,12.3789474 9.2622807,12.6619883 L9.2622807,14 L8.01432749,14 L8.01432749,12.7134503 C7.25526316,12.6233918 6.35467836,12.2888889 5.75,11.7356725 L6.57339181,10.4619883 C7.22953216,10.9508772 7.79561404,11.2081871 8.41315789,11.2081871 C9.13362573,11.2081871 9.45526316,10.9122807 9.45526316,10.3204678 C9.45526316,8.99532164 6.05877193,9.02105263 6.05877193,6.70526316 C6.05877193,5.44444444 6.80497076,4.56959064 8.01432749,4.3251462 L8.01432749,3 L9.2622807,3 L9.2622807,4.2994152 C10.0856725,4.41520468 10.6774854,4.82690058 11.1792398,5.35438596 Z" id="Combined-Shape"></path>
        </g>
    </g>
</svg>