<?xml version="1.0" encoding="utf-8"?>
<!-- Generator: Adobe Illustrator 19.2.1, SVG Export Plug-In . SVG Version: 6.00 Build 0)  -->
<svg version="1.1" xmlns="http://www.w3.org/2000/svg" xmlns:xlink="http://www.w3.org/1999/xlink" x="0px" y="0px"
	 viewBox="0 0 36 36" style="enable-background:new 0 0 36 36;" xml:space="preserve">
<style type="text/css">
	.st0{display:none;}
	.st1{display:inline;fill:#FFFFFF;}
	.st2{display:inline;}
	.st3{fill:none;}
	.st4{fill:#303030;}
</style>
<g id="Layer_2" class="st0">
	<rect x="-301" y="-45" class="st1" width="583" height="601"/>
</g>
<g id="Layer_1">
	<g>
		<path d="M25.2,17.4c-0.3,0.2-0.5,0.4-0.8,0.6s-0.5,0.4-0.7,0.6H10.3c0,0.4,0,0.8,0,1.2s0.1,0.8,0.1,1.2c1.5,0.2,3.1,0.7,4.7,1.6
			s3.2,1.8,4.9,2.8c0.3,0.2,0.6,0.4,0.9,0.6s0.6,0.4,0.9,0.6v0.3v0.6v0.4c-0.4-0.3-0.8-0.5-1.2-0.8s-0.8-0.5-1.2-0.8
			c-1.5-0.9-3-1.8-4.5-2.7s-2.9-1.4-4.3-1.6c0.2,1.4,0.6,2.8,1.1,4.1s1.1,2.5,1.8,3.6s1.5,2,2.4,2.9s1.9,1.6,2.9,2.1
			c0.7,0,1.4-0.1,2.1-0.2s1.4-0.3,2.1-0.5c0.1,0.2,0.2,0.3,0.3,0.5s0.2,0.3,0.4,0.5c-0.9,0.3-1.8,0.5-2.8,0.7S19,36,18,36
			c-2.5,0-4.8-0.5-7-1.4s-4.1-2.2-5.7-3.8S2.3,27.2,1.4,25S0,20.5,0,18s0.5-4.8,1.4-7s2.2-4.1,3.8-5.7S8.8,2.3,11,1.4S15.5,0,18,0
			c1.4,0,2.7,0.1,4,0.4s2.5,0.7,3.7,1.3s2.2,1.2,3.3,2s1.9,1.7,2.8,2.6c0.2,0.2,0.3,0.3,0.5,0.5s0.3,0.4,0.4,0.6l0.3,0.5
			c1,1.4,1.7,3,2.3,4.7s0.8,3.5,0.8,5.3c-0.2-0.1-0.3-0.3-0.5-0.4s-0.4-0.3-0.7-0.4c-0.1-1.9-0.5-3.7-1.2-5.4
			C32.9,10,32,8.4,30.8,7.1c-0.3-0.2-0.5-0.4-0.8-0.6s-0.6-0.3-0.9-0.3c-1.2-0.2-2.6,0.1-4.1,0.9s-3.2,1.8-4.8,3
			c-1.6,1.1-3.2,2-4.9,3s-3.2,1.4-4.7,1.5c0,0.5-0.1,1-0.1,1.5s-0.1,1-0.1,1.5H25.2z M3.5,9.5c-0.7,1.2-1.2,2.4-1.6,3.8
			S1.2,16,1.2,17.4h8c0-0.5,0-1,0.1-1.5s0.1-1,0.2-1.4c-0.1,0-0.3,0-0.4-0.1s-0.3-0.1-0.4-0.1c-1-0.3-2-0.8-2.8-1.6
			S4.2,10.9,3.5,9.5z M9.3,20.8c0-0.4-0.1-0.7-0.1-1.1c0-0.4,0-0.8,0-1.1h-8c0,1.2,0.2,2.4,0.5,3.6s0.7,2.3,1.2,3.3
			c0.7-1.2,1.4-2.2,2.2-2.9s1.7-1.2,2.7-1.5C8,21,8.3,21,8.5,20.9S9.1,20.9,9.3,20.8z M16.6,34.8c-0.9-0.7-1.8-1.5-2.6-2.4
			s-1.5-1.9-2.1-3s-1.1-2.2-1.5-3.5S9.7,23.4,9.5,22c-0.2,0-0.5,0-0.7,0s-0.5,0.1-0.7,0.1c-0.9,0.2-1.7,0.7-2.4,1.4s-1.4,1.7-2,2.9
			l-0.1,0.2c0.7,1.1,1.5,2.1,2.4,3.1s1.9,1.8,3,2.4s2.3,1.3,3.5,1.7S15.2,34.7,16.6,34.8z M16.6,1.2c-1.3,0.1-2.5,0.4-3.7,0.7
			s-2.3,0.9-3.4,1.5s-2,1.3-2.9,2.2S4.9,7.4,4.2,8.4l0.2,0.5c0.6,1.2,1.3,2.2,2,2.9s1.5,1.2,2.3,1.4c0.1,0,0.3,0,0.4,0.1
			s0.3,0,0.4,0c0.2-1.3,0.6-2.5,1-3.7s0.9-2.3,1.5-3.3s1.3-2,2-2.8S15.7,1.9,16.6,1.2z M19.5,9C21.1,8,22.7,7,24.2,6.1
			s3-1.3,4.4-1.2c-1.4-1.1-2.9-2-4.6-2.6s-3.4-1-5.3-1.1c-1,0.6-2,1.3-2.8,2.1S14.3,5,13.6,6s-1.3,2.2-1.8,3.4S11,12,10.8,13.3
			c1.4-0.1,2.8-0.6,4.3-1.5S18,10,19.5,9z M30.4,32.9c1.1,0,1.9-0.2,2.3-0.6s0.7-1.2,0.7-2.2l2.5,0.2c-0.1,1.5-0.5,2.6-1.2,3.5
			s-2.2,1.3-4.3,1.3c-0.5,0-1,0-1.4-0.1s-0.8-0.1-1.2-0.2c-0.4-0.1-0.7-0.2-1-0.3s-0.6-0.3-0.8-0.4c-0.2-0.1-0.3-0.3-0.5-0.4
			s-0.3-0.3-0.4-0.5c-0.4-0.5-0.6-1.1-0.7-1.8s-0.2-1.4-0.2-2.2c0-0.2,0-0.3,0-0.5s0-0.4,0-0.5c0,0,0-0.1,0-0.1s0-0.1,0-0.1
			c0-0.2,0-0.3,0-0.5s0-0.3,0-0.5c0-0.2,0-0.4,0-0.6s0-0.4,0-0.6c0-1.7,0.2-3.2,0.5-4.4s1.3-2,3-2.4c0.4-0.1,0.8-0.2,1.2-0.2
			s0.9-0.1,1.4-0.1c1.1,0,2,0.1,2.7,0.3s1.2,0.5,1.7,0.9c0.2,0.2,0.4,0.5,0.5,0.7s0.3,0.6,0.4,0.9c0.1,0.3,0.2,0.6,0.2,0.9
			s0.1,0.7,0.1,1.1l-2.1,0.2l-0.4,0c-0.1-1.1-0.3-1.8-0.7-2.2s-1.2-0.6-2.3-0.6c-0.6,0-1.2,0-1.6,0.1s-0.8,0.2-1.1,0.4
			c-0.5,0.3-0.8,0.8-0.8,1.5s-0.1,1.6-0.1,2.8c0,0.2,0,0.3,0,0.5s0,0.4,0,0.6s0,0.4,0,0.6s0,0.4,0,0.6c0,0.2,0,0.3,0,0.5
			s0,0.3,0,0.5c0,0.2,0,0.4,0,0.6s0,0.4,0.1,0.6c0,0.4,0.1,0.7,0.2,1s0.2,0.5,0.4,0.8c0.1,0.1,0.1,0.1,0.2,0.2s0.1,0.1,0.2,0.2
			c0.1,0.1,0.2,0.1,0.3,0.2s0.2,0.1,0.3,0.1c0.3,0.1,0.6,0.1,0.9,0.2S30,32.9,30.4,32.9z"/>
	</g>
</g>
<g id="Layer_3">
</g>
</svg>
