<?xml version="1.0" encoding="utf-8"?>
<!-- Generator: Adobe Illustrator 19.2.1, SVG Export Plug-In . SVG Version: 6.00 Build 0)  -->
<svg version="1.1" xmlns="http://www.w3.org/2000/svg" xmlns:xlink="http://www.w3.org/1999/xlink" x="0px" y="0px"
	 viewBox="0 0 36 36" style="enable-background:new 0 0 36 36;" xml:space="preserve">
<style type="text/css">
	.st0{display:none;}
	.st1{display:inline;fill:#FFFFFF;}
	.st2{display:inline;}
	.st3{fill:none;}
	.st4{fill:#303030;}
</style>
<g id="Layer_2" class="st0">
	<rect x="-85" y="-423" class="st1" width="583" height="601"/>
</g>
<g id="Layer_1">
	<path d="M36,18c0-1.9-0.3-3.7-0.8-5.4C34.6,11,33.9,9.4,32.9,8l-0.3-0.5c-0.1-0.2-0.3-0.4-0.4-0.6c-0.1-0.2-0.3-0.4-0.5-0.5
		c-0.8-1-1.7-1.8-2.8-2.6c-1-0.8-2.1-1.5-3.3-2c-1.2-0.5-2.4-1-3.7-1.3C20.7,0.2,19.4,0,18,0c-2.5,0-4.8,0.5-7,1.4
		C8.8,2.4,6.9,3.7,5.3,5.3S2.4,8.8,1.4,11C0.5,13.2,0,15.6,0,18s0.5,4.8,1.4,7c0.9,2.2,2.2,4.1,3.8,5.7c1.6,1.6,3.5,2.9,5.7,3.8
		c2.2,0.9,4.5,1.4,7,1.4c1.4,0,2.9-0.2,4.2-0.5c1.4-0.3,2.7-0.8,3.9-1.4c1.2-0.6,2.4-1.4,3.4-2.2c1-0.9,2-1.8,2.8-2.9
		c0.1-0.1,0.3-0.3,0.4-0.5c0.1-0.2,0.3-0.4,0.4-0.5l0.3-0.4l0.2-0.4l0,0c0.8-1.3,1.4-2.6,1.8-4.1C35.8,21.4,36,19.8,36,18z
		 M18.8,34.4c-1-0.5-2-1.2-2.8-2.1c-0.9-0.8-1.6-1.8-2.3-2.8c-0.7-1-1.2-2.2-1.7-3.5s-0.8-2.6-1-4c1.3,0.2,2.7,0.7,4.2,1.5
		s2.9,1.7,4.4,2.6c1.6,1,3.1,1.9,4.7,2.7c1.5,0.8,3,1.3,4.4,1.3c0.1,0,0.2,0,0.3,0c0.1,0,0.2,0,0.3,0c-0.7,0.6-1.4,1.2-2.2,1.7
		c-0.8,0.5-1.6,0.9-2.5,1.3c-0.9,0.4-1.8,0.7-2.7,0.9C20.7,34.2,19.7,34.3,18.8,34.4z M16.6,1.7c-0.9,0.6-1.7,1.4-2.4,2.2
		c-0.7,0.8-1.4,1.8-2,2.8s-1.1,2.1-1.5,3.2c-0.4,1.1-0.7,2.3-1,3.6c-0.1,0-0.2,0-0.4,0c-0.1,0-0.3,0-0.4-0.1
		c-0.8-0.2-1.6-0.7-2.3-1.4c-0.7-0.7-1.3-1.6-1.9-2.8L4.6,8.7C5.3,7.7,6,6.8,6.9,6c0.9-0.8,1.8-1.5,2.9-2.1c1-0.6,2.1-1.1,3.3-1.5
		C14.2,2.1,15.4,1.8,16.6,1.7z M18.8,1.7c1.8,0.1,3.5,0.5,5.1,1.1c1.6,0.6,3.1,1.5,4.4,2.5c-1.3,0-2.8,0.3-4.3,1.2
		c-1.5,0.8-3,1.8-4.6,2.8c-1.4,1-2.9,1.9-4.3,2.7c-1.4,0.8-2.8,1.3-4.2,1.5c0.3-1.3,0.6-2.6,1.1-3.8s1-2.3,1.7-3.3
		c0.7-1,1.4-1.9,2.3-2.7C16.8,2.9,17.7,2.2,18.8,1.7z M6.1,12.9c0.8,0.8,1.7,1.3,2.7,1.5c0.2,0,0.3,0.1,0.5,0.1c0.1,0,0.3,0,0.4,0.1
		c-0.1,0.5-0.1,0.9-0.2,1.4c0,0.5-0.1,1-0.1,1.4H1.7c0-1.4,0.3-2.7,0.6-4s0.9-2.5,1.6-3.7C4.5,11.1,5.3,12.1,6.1,12.9z M9.4,18.6
		c0,0.4,0,0.7,0,1.1s0.1,0.7,0.1,1.1c-0.3,0-0.5,0-0.8,0.1S8.3,21,8.1,21c-1,0.3-1.8,0.8-2.6,1.5S4,24.2,3.4,25.3
		c-0.5-1-0.9-2.1-1.2-3.2s-0.5-2.3-0.5-3.5H9.4z M4.2,26.3c0.6-1.2,1.2-2.1,1.9-2.8c0.7-0.7,1.5-1.2,2.3-1.4C8.6,22.1,8.8,22,9,22
		c0.2,0,0.5,0,0.7,0c0.2,1.3,0.5,2.6,0.9,3.8c0.4,1.2,0.9,2.3,1.5,3.4c0.6,1,1.2,2,2,2.9c0.8,0.9,1.6,1.6,2.5,2.3
		c-1.3-0.1-2.6-0.4-3.8-0.8c-1.2-0.4-2.4-1-3.4-1.6c-1.1-0.7-2.1-1.5-2.9-2.4c-0.9-0.9-1.7-1.9-2.3-3L4.2,26.3z M26.6,28.7
		c-0.9-0.3-1.9-0.7-3-1.3c-1.1-0.6-2.3-1.3-3.6-2.1c-1.6-1-3.1-1.9-4.7-2.8c-1.6-0.9-3.1-1.4-4.6-1.6c0-0.4-0.1-0.7-0.1-1.1
		c0-0.4,0-0.8,0-1.1h23.8v-1.2H10.5c0-0.5,0-1,0.1-1.4c0-0.5,0.1-0.9,0.1-1.4c1.5-0.1,3-0.6,4.6-1.5s3.1-1.8,4.7-2.9
		c1.6-1.1,3.2-2.1,4.7-2.9s2.8-1.1,4-0.9c0.3,0.1,0.6,0.2,0.9,0.3c0.3,0.1,0.5,0.3,0.8,0.6c0.6,0.7,1.1,1.5,1.6,2.3s0.9,1.7,1.2,2.6
		c0.3,0.9,0.6,1.8,0.8,2.8s0.3,1.9,0.3,3c0,1.9-0.3,3.6-0.9,5.3s-1.4,3.2-2.5,4.6c-0.6,0.6-1.3,0.9-2,1C28.3,29.1,27.5,29,26.6,28.7
		z"/>
</g>
</svg>
