<?xml version="1.0" encoding="utf-8"?>
<!-- Generator: Adobe Illustrator 19.2.1, SVG Export Plug-In . SVG Version: 6.00 Build 0)  -->
<svg version="1.1" xmlns="http://www.w3.org/2000/svg" xmlns:xlink="http://www.w3.org/1999/xlink" x="0px" y="0px"
	 viewBox="0 0 36 36" style="enable-background:new 0 0 36 36;" xml:space="preserve">
<style type="text/css">
	.st0{display:none;}
	.st1{display:inline;fill:#FFFFFF;}
	.st2{display:inline;}
	.st3{fill:none;}
	.st4{fill:#303030;}
	.st5{fill:#FFFFFF;}
	.st6{fill:#333333;}
</style>
<g id="Layer_2" class="st0">
	<rect x="-301" y="-45" class="st1" width="583" height="601"/>
</g>
<g id="Layer_1">
	<g>
		<path d="M35.9,16.3l0-0.4c0-0.4-0.1-0.8-0.2-1.2c0-0.2-0.1-0.4-0.1-0.6c0-0.2-0.1-0.4-0.2-0.7c-0.2-1-0.5-1.7-0.8-2.4
			c-0.1-0.2-0.2-0.4-0.3-0.6l-0.1-0.3c-0.4-0.9-0.9-1.7-1.4-2.4l-0.2-0.3c-0.1-0.2-0.3-0.4-0.4-0.6c-0.1-0.1-0.1-0.1-0.2-0.2
			l-0.1-0.1c-0.4-0.5-0.8-0.9-1.2-1.3c-0.5-0.5-1-1-1.7-1.5l-0.1-0.1C28.5,3.3,28,3,27.6,2.8c-0.2-0.1-0.3-0.2-0.5-0.3
			c-0.3-0.2-0.7-0.4-1-0.5l-0.2-0.1c-0.1,0-0.2-0.1-0.2-0.1c-0.1,0-0.1-0.1-0.2-0.1l-0.3-0.1c-0.1,0-0.1-0.1-0.2-0.1
			c-0.1-0.1-0.3-0.1-0.4-0.2l-0.4-0.1C24,1,23.9,1,23.7,0.9c-0.4-0.1-0.8-0.3-1.3-0.4l-0.1,0c-0.1,0-0.2-0.1-0.3-0.1l-0.1,0
			c-0.5-0.1-0.9-0.2-1.4-0.2l-0.2,0c-0.1,0-0.2,0-0.3,0C19.3,0,18.6,0,18,0c-2.5,0-4.8,0.5-7,1.4C8.8,2.3,6.9,3.6,5.3,5.3
			C3.6,6.9,2.3,8.8,1.4,11C0.5,13.2,0,15.5,0,18c0,0.5,0,1,0.1,1.6c0,0.3,0.1,0.7,0.1,1L0.3,21c0.2,1.4,0.6,2.8,1.1,4
			c0.9,2.2,2.2,4.1,3.8,5.7s3.5,2.9,5.7,3.8c1.9,0.8,3.8,1.3,5.9,1.4l1.1,0c1.8,0,3.6-0.3,5.3-0.8c0.2-0.1,0.4-0.1,0.6-0.2
			c-0.2-0.1-0.4-0.3-0.5-0.5c-0.1-0.1-0.2-0.2-0.3-0.4c-0.1-0.2-0.2-0.3-0.3-0.5c-0.7,0.2-1.3,0.3-2,0.4c-0.7,0.1-1.4,0.2-2.1,0.2
			c-1-0.5-2-1.2-2.8-2.1c-0.9-0.8-1.6-1.8-2.3-2.8c-0.7-1-1.2-2.2-1.7-3.5s-0.8-2.6-1-4c1.3,0.2,2.7,0.7,4.2,1.5
			c1.5,0.8,2.9,1.7,4.4,2.6c0.4,0.3,0.8,0.5,1.2,0.8s0.8,0.5,1.2,0.8v-0.4v-0.6v-0.3c-0.3-0.2-0.6-0.4-0.9-0.5s-0.6-0.4-0.9-0.6
			c-1.6-1-3.1-1.9-4.7-2.8c-1.6-0.9-3.1-1.4-4.6-1.6c0-0.4-0.1-0.7-0.1-1.1c0-0.4,0-0.8,0-1.1h13c0.2-0.2,0.4-0.4,0.6-0.6
			c0.2-0.2,0.5-0.4,0.8-0.5H10.5c0-0.5,0-1,0.1-1.4c0-0.5,0.1-0.9,0.1-1.4c1.5-0.1,3-0.6,4.6-1.5s3.1-1.8,4.7-2.9
			c1.6-1.1,3.2-2.1,4.7-2.9c1.5-0.8,2.9-1.1,4-0.9c0.3,0.1,0.6,0.2,0.9,0.3c0.3,0.1,0.5,0.3,0.8,0.6c1.1,1.3,2.1,2.8,2.7,4.5
			s1.1,3.4,1.2,5.3c0.2,0.1,0.4,0.2,0.6,0.4c0.2,0.1,0.3,0.2,0.4,0.3c0.2,0.2,0.4,0.3,0.6,0.5v-0.4C36,17.4,36,16.9,35.9,16.3z
			 M2.2,22.1c-0.3-1.1-0.5-2.3-0.5-3.5h7.8c0,0.4,0,0.7,0,1.1s0.1,0.7,0.1,1.1c-0.3,0-0.5,0.1-0.8,0.1c-0.3,0-0.5,0.1-0.7,0.2
			c-1,0.3-1.8,0.8-2.6,1.5c-0.8,0.7-1.5,1.7-2.1,2.8C2.9,24.3,2.5,23.2,2.2,22.1z M9.5,16c0,0.5-0.1,1-0.1,1.4H1.6
			c0-1.4,0.3-2.7,0.6-4c0.4-1.3,0.9-2.5,1.6-3.7c0.7,1.3,1.4,2.4,2.2,3.1s1.7,1.3,2.7,1.5c0.1,0,0.3,0.1,0.4,0.1
			c0.1,0,0.3,0,0.4,0.1C9.6,15,9.5,15.5,9.5,16z M0.7,20.9C0.7,20.9,0.7,20.9,0.7,20.9L0.7,20.9L0.7,20.9z M10.6,25.7
			c0.4,1.2,0.9,2.3,1.5,3.4c0.6,1,1.2,2,2,2.9c0.8,0.9,1.6,1.6,2.5,2.3c-1.3-0.1-2.6-0.4-3.8-0.8c-1.2-0.4-2.4-1-3.4-1.6
			s-2.1-1.5-2.9-2.4s-1.7-1.9-2.3-3l0.1-0.2c0.6-1.2,1.2-2.1,1.9-2.8c0.7-0.7,1.5-1.2,2.3-1.4C8.6,22,8.8,22,9,22s0.5,0,0.7,0
			C9.9,23.3,10.2,24.5,10.6,25.7z M9.8,13.5c-0.1,0-0.2,0-0.4,0c-0.1,0-0.3,0-0.4-0.1c-0.8-0.2-1.6-0.7-2.3-1.4
			c-0.7-0.7-1.3-1.6-1.9-2.8L4.6,8.6C5.3,7.7,6,6.8,6.9,6c0.9-0.8,1.8-1.5,2.9-2.1s2.1-1.1,3.3-1.5s2.4-0.6,3.6-0.7
			c-0.9,0.6-1.7,1.4-2.4,2.2s-1.4,1.8-2,2.8c-0.6,1-1.1,2.1-1.5,3.2C10.3,11,10,12.2,9.8,13.5z M24.1,6.4c-1.5,0.8-3,1.8-4.6,2.8
			c-1.4,1-2.9,1.9-4.3,2.7s-2.8,1.3-4.2,1.5c0.3-1.3,0.6-2.6,1.1-3.8c0.5-1.2,1-2.3,1.7-3.3c0.7-1,1.4-1.9,2.3-2.7
			c0.8-0.8,1.8-1.5,2.8-2c1.8,0.1,3.5,0.5,5.1,1.1c1.6,0.6,3.1,1.5,4.4,2.5C27,5.2,25.6,5.6,24.1,6.4z"/>
		<path d="M26.6,27.7c0-0.2,0-0.4,0-0.5s0-0.4,0-0.6c0-0.2,0-0.4,0-0.6s0-0.4,0-0.5c0-1.1,0-2.1,0.1-2.7c0.1-0.7,0.4-1.2,0.8-1.5
			c0.3-0.2,0.6-0.3,1-0.4s0.9-0.1,1.5-0.1c1.1,0,1.9,0.2,2.3,0.6c0.4,0.4,0.6,1.1,0.7,2.2l0.4,0l2.1-0.2c0-0.4-0.1-0.7-0.1-1
			s-0.1-0.6-0.2-0.9c-0.1-0.3-0.2-0.6-0.4-0.9c-0.1-0.3-0.3-0.5-0.5-0.7c-0.4-0.4-1-0.7-1.6-0.9c-0.7-0.2-1.5-0.3-2.6-0.3
			c-0.5,0-1,0-1.4,0.1c-0.4,0-0.8,0.1-1.2,0.2c-1.6,0.4-2.6,1.2-2.9,2.3c-0.3,1.2-0.5,2.6-0.5,4.2c0,0.2,0,0.4,0,0.6s0,0.4,0,0.6
			c0,0.2,0,0.3,0,0.5c0,0.2,0,0.3,0,0.5c0,0,0,0.1,0,0.1c0,0,0,0.1,0,0.1c0,0.2,0,0.3,0,0.5s0,0.4,0,0.5c0,0.8,0.1,1.5,0.2,2.2
			c0.1,0.7,0.3,1.2,0.7,1.7c0.1,0.2,0.2,0.3,0.4,0.4c0.1,0.1,0.3,0.3,0.5,0.4c0.2,0.2,0.5,0.3,0.8,0.4c0.3,0.1,0.6,0.2,0.9,0.3
			c0.4,0.1,0.8,0.2,1.2,0.2c0.4,0,0.9,0.1,1.4,0.1c2.1,0,3.5-0.4,4.2-1.3c0.7-0.9,1.1-2,1.2-3.4l-2.5-0.2c-0.1,1-0.3,1.7-0.7,2.2
			c-0.4,0.4-1.2,0.6-2.3,0.6c-0.4,0-0.8,0-1.1-0.1s-0.6-0.1-0.9-0.2c-0.1,0-0.2-0.1-0.3-0.1c-0.1,0-0.2-0.1-0.3-0.2
			c-0.1,0-0.1-0.1-0.2-0.2s-0.1-0.1-0.2-0.2c-0.1-0.2-0.3-0.5-0.3-0.7c-0.1-0.3-0.1-0.6-0.2-1c0-0.2,0-0.3-0.1-0.5
			c0-0.2,0-0.4,0-0.6c0-0.1,0-0.3,0-0.4S26.6,27.9,26.6,27.7z"/>
	</g>
</g>
</svg>
