<?xml version="1.0" encoding="utf-8"?>
<!-- Generator: Adobe Illustrator 19.2.1, SVG Export Plug-In . SVG Version: 6.00 Build 0)  -->
<svg version="1.1" xmlns="http://www.w3.org/2000/svg" xmlns:xlink="http://www.w3.org/1999/xlink" x="0px" y="0px"
	 viewBox="0 0 36 36" style="enable-background:new 0 0 36 36;" xml:space="preserve">
<style type="text/css">
	.st0{display:none;}
	.st1{display:inline;fill:#FFFFFF;}
	.st2{display:inline;}
	.st3{fill:none;}
	.st4{fill:#303030;}
</style>
<g id="Layer_2" class="st0">
	<rect x="-85" y="-45" class="st1" width="583" height="601"/>
</g>
<g id="Layer_1">
	<g>
		<path d="M36,18c0,1.7-0.2,3.4-0.7,5c-0.5,1.6-1.1,3.1-2,4.4l0.1,0.1L33,27.9c-0.1,0.2-0.2,0.4-0.4,0.5c-0.1,0.2-0.3,0.3-0.4,0.5
			c-0.8,1.1-1.7,2-2.8,2.9s-2.2,1.6-3.4,2.2c-1.2,0.6-2.5,1.1-3.9,1.4S19.5,36,18,36c-2.5,0-4.8-0.5-7-1.4c-2.2-0.9-4.1-2.2-5.7-3.8
			S2.4,27.2,1.4,25S0,20.5,0,18s0.5-4.8,1.4-7s2.2-4.1,3.8-5.7S8.8,2.4,11,1.4S15.5,0,18,0c1.4,0,2.7,0.1,4,0.4s2.5,0.7,3.7,1.3
			c1.2,0.5,2.2,1.2,3.3,2c1,0.8,1.9,1.7,2.8,2.6c0.2,0.2,0.3,0.3,0.5,0.5c0.1,0.2,0.3,0.4,0.4,0.6l0.3,0.5c1,1.5,1.7,3,2.3,4.7
			S36,16.1,36,18z M3.5,9.5c-0.7,1.2-1.2,2.4-1.6,3.8S1.3,16,1.2,17.4h8c0-0.5,0-1,0.1-1.5c0-0.5,0.1-1,0.2-1.4
			c-0.1,0-0.3,0-0.4-0.1s-0.3-0.1-0.5-0.1c-1-0.3-1.9-0.8-2.7-1.6S4.2,10.9,3.5,9.5z M1.2,18.6c0,1.2,0.2,2.4,0.5,3.6
			s0.7,2.3,1.2,3.3c0.7-1.2,1.4-2.2,2.2-2.9s1.7-1.2,2.7-1.5C8,21,8.3,21,8.5,20.9c0.3,0,0.5-0.1,0.8-0.1c0-0.4-0.1-0.8-0.1-1.1
			c0-0.4,0-0.8,0-1.1H1.2z M3.7,26.7c0.7,1.1,1.5,2.1,2.4,3.1c0.9,0.9,1.9,1.7,3,2.4c1.1,0.7,2.3,1.3,3.5,1.7
			c1.3,0.4,2.6,0.7,3.9,0.8c-0.9-0.7-1.8-1.5-2.6-2.4c-0.8-0.9-1.5-1.9-2.1-3c-0.6-1.1-1.1-2.2-1.5-3.5C10,24.7,9.7,23.4,9.5,22
			c-0.2,0-0.5,0-0.7,0c-0.2,0-0.5,0.1-0.7,0.1c-0.9,0.2-1.7,0.7-2.4,1.4s-1.4,1.7-1.9,2.9L3.7,26.7z M16.6,1.3
			c-1.3,0.1-2.5,0.4-3.7,0.7s-2.3,0.9-3.4,1.5s-2,1.3-2.9,2.2S4.9,7.4,4.2,8.4l0.2,0.5c0.6,1.2,1.3,2.2,2,2.9S8,13,8.8,13.2
			c0.1,0,0.3,0,0.4,0.1s0.3,0,0.4,0c0.2-1.3,0.6-2.5,1-3.7s0.9-2.3,1.5-3.3c0.6-1,1.3-2,2-2.8C14.9,2.7,15.7,1.9,16.6,1.3z
			 M31.4,28.2c1.1-1.4,1.9-3,2.5-4.7c0.6-1.7,0.9-3.5,0.9-5.5c0-1.1-0.1-2.1-0.3-3.1c-0.2-1-0.5-1.9-0.8-2.9
			c-0.4-0.9-0.8-1.8-1.3-2.7c-0.5-0.8-1.1-1.6-1.7-2.4c-0.3-0.2-0.5-0.4-0.8-0.6c-0.3-0.2-0.6-0.3-0.9-0.3c-1.2-0.2-2.6,0.1-4.1,0.9
			c-1.5,0.8-3.1,1.8-4.8,2.9c-1.6,1.1-3.2,2-4.8,2.9s-3.2,1.4-4.7,1.5c0,0.5-0.1,1-0.1,1.5c0,0.5-0.1,1-0.1,1.5h24.4v1.2H10.3
			c0,0.4,0,0.8,0,1.2s0.1,0.8,0.1,1.2c1.5,0.2,3.1,0.7,4.7,1.6c1.6,0.9,3.2,1.8,4.8,2.8c1.3,0.8,2.6,1.6,3.7,2.2
			c1.1,0.6,2.1,1.1,3.1,1.4c0.9,0.3,1.8,0.4,2.5,0.3C30.1,29.1,30.8,28.8,31.4,28.2z M18.8,34.8c1,0,2-0.2,2.9-0.4
			c1-0.2,1.9-0.5,2.8-0.9c0.9-0.4,1.7-0.8,2.5-1.3c0.8-0.5,1.6-1.1,2.3-1.7c-0.1,0-0.2,0-0.3,0c-0.1,0-0.2,0-0.3,0
			c-1.4,0-2.9-0.4-4.5-1.3c-1.6-0.9-3.2-1.8-4.8-2.8c-1.5-0.9-3-1.8-4.5-2.7c-1.5-0.8-2.9-1.4-4.3-1.6c0.2,1.4,0.6,2.8,1.1,4.1
			s1.1,2.5,1.8,3.6c0.7,1.1,1.5,2,2.4,2.9C16.7,33.5,17.7,34.2,18.8,34.8z M18.8,1.2c-1,0.6-2,1.3-2.8,2.1c-0.9,0.8-1.6,1.7-2.3,2.8
			c-0.7,1-1.3,2.2-1.7,3.4S11,12,10.8,13.3c1.4-0.1,2.8-0.6,4.3-1.5C16.5,11,18,10,19.5,9c1.6-1.1,3.2-2,4.8-2.9
			c1.5-0.9,3-1.3,4.4-1.2c-1.4-1.1-2.9-2-4.5-2.6C22.4,1.7,20.6,1.3,18.8,1.2z"/>
	</g>
</g>
<g id="Layer_3">
</g>
</svg>
