<?xml version="1.0" encoding="utf-8"?>
<!-- Generator: Adobe Illustrator 19.2.1, SVG Export Plug-In . SVG Version: 6.00 Build 0)  -->
<svg version="1.1" xmlns="http://www.w3.org/2000/svg" xmlns:xlink="http://www.w3.org/1999/xlink" x="0px" y="0px"
	 viewBox="0 0 36 36" style="enable-background:new 0 0 36 36;" xml:space="preserve">
<style type="text/css">
	.st0{display:none;}
	.st1{display:inline;fill:#FFFFFF;}
	.st2{display:inline;}
	.st3{fill:none;}
	.st4{fill:#303030;}
</style>
<g id="Layer_2" class="st0">
	<rect x="-139" y="-315" class="st1" width="583" height="601"/>
</g>
<g id="Layer_1">
	<g>
		<g>
			<path d="M30.9,26.1c-1.5-0.2-4.2-1.5-6.9-2.6c-1.5,1.8-3.5,2.9-5.6,2.9c-2.3,0-4.3-1.2-5.9-3.2c-2.8,1.1-5.6,2.5-7.4,2.9
				c-3,0.7-5.1,2.2-5.1,5.1c3.5,0,33,0,36,0C36,28.1,33.6,26.5,30.9,26.1z"/>
		</g>
		<path d="M18.3,3.7c-3.5,0-7.4,2-7.4,7.8c0,5.7,3.3,11.8,7.4,11.8s7.4-6.1,7.4-11.8C25.8,5.8,21.8,3.7,18.3,3.7z"/>
	</g>
</g>
</svg>
