<?xml version="1.0" encoding="utf-8"?>
<!-- Generator: Adobe Illustrator 19.2.1, SVG Export Plug-In . SVG Version: 6.00 Build 0)  -->
<svg version="1.1" xmlns="http://www.w3.org/2000/svg" xmlns:xlink="http://www.w3.org/1999/xlink" x="0px" y="0px"
	 viewBox="0 0 36 36" style="enable-background:new 0 0 36 36;" xml:space="preserve">
<style type="text/css">
	.st0{display:none;}
	.st1{display:inline;fill:#FFFFFF;}
	.st2{display:inline;}
	.st3{fill:none;}
	.st4{fill:#303030;}
	.st5{fill:#FFFFFF;}
	.st6{fill:#333333;}
</style>
<g id="Layer_2" class="st0">
	<rect x="-85" y="-261" class="st1" width="583" height="601"/>
</g>
<g id="Layer_1">
	<g>
		<path d="M5.5,17.5c0,0.1-0.1,0.1-0.2,0.2s-0.2,0.1-0.2,0.1H3.3C3,18.4,2.7,19,2.5,19.4c-0.2,0.5-0.4,0.9-0.7,1.4
			c-0.2,0.5-0.4,0.9-0.5,1.1c0,0,0,0.1-0.1,0.1c0,0-0.1,0-0.1,0C1,22,0.9,22,0.8,21.9s-0.1-0.3-0.2-0.5c0-0.2,0-0.4,0-0.6
			c0-0.2,0.1-0.4,0.2-0.6c0.2-0.4,0.4-0.8,0.7-1.4C1.8,18.2,2,17.6,2.3,17s0.6-1.3,1-2.2H2.8c-0.6,0-1.1,0.1-1.4,0.3
			C1.2,15.4,1,15.7,1,15.9c0,0.3,0,0.5,0.2,0.7C1.3,16.9,1.5,17,1.8,17c0.1,0,0.2,0,0.2,0.1s-0.1,0.1-0.2,0.1
			c-0.5,0-0.9-0.2-1.3-0.5C0.1,16.4,0,16,0,15.6c0-0.4,0.3-0.8,0.8-1.1C1.3,14.1,2.2,14,3.4,14h4c0,0,0.1,0,0.1,0.1s0,0.1,0,0.2
			c0,0,0,0.1-0.1,0.2c0,0.1-0.1,0.2-0.1,0.2c0,0.1-0.1,0.2-0.2,0.2s-0.2,0.1-0.2,0.1H4.6l-0.9,2h1.9c0,0,0.1,0,0.1,0.1
			c0,0,0,0.1,0,0.1c0,0,0,0.1-0.1,0.2C5.6,17.3,5.6,17.4,5.5,17.5z M15.7,20.1c0.1-0.1,0.1-0.1,0.2,0c0,0.1,0,0.1,0,0.2
			c-0.2,0.3-0.5,0.4-0.8,0.5s-0.5,0.1-0.6,0.1c-0.4,0-0.7-0.1-0.9-0.4c-0.2-0.3-0.2-0.6,0-1c0.2-0.5,0.4-0.8,0.4-0.9
			c0.1-0.2,0.2-0.5,0.3-0.8s-0.1-0.4-0.4-0.4c-0.3,0-0.5,0.1-0.7,0.3c-0.2,0.2-0.4,0.4-0.5,0.7l-1,2.1c-0.2,0.4-0.4,0.5-0.8,0.3
			c-0.3-0.2-0.4-0.4-0.3-0.7c0,0,0-0.1,0-0.1c0,0,0.1-0.1,0.1-0.3c0,0.1-0.1,0.2-0.3,0.3c-0.1,0.1-0.3,0.3-0.5,0.4
			c-0.2,0.1-0.4,0.3-0.7,0.4c-0.2,0.1-0.5,0.2-0.7,0.2c-0.3,0-0.5-0.1-0.6-0.2s-0.2-0.3-0.2-0.5c-0.1,0.2-0.4,0.3-0.7,0.5
			c-0.3,0.1-0.7,0.2-1.1,0.2c-0.3,0-0.6-0.1-0.8-0.3s-0.3-0.5-0.3-0.9c0-0.4,0.1-0.7,0.3-1.1s0.5-0.7,0.8-1s0.7-0.5,1.1-0.7
			s0.8-0.3,1.3-0.3c0.2,0,0.4,0,0.7,0.1s0.4,0.2,0.5,0.4c0.1,0,0.3,0,0.4-0.1c0.1-0.1,0.2-0.2,0.3-0.3c0.1-0.1,0.1-0.1,0.2-0.1
			c0.1,0,0.1,0.1,0,0.2c-0.2,0.4-0.3,0.7-0.4,0.9c-0.1,0.2-0.3,0.6-0.6,1.3c-0.2,0.5-0.3,0.8-0.2,0.9c0.1,0.1,0.3,0.1,0.5,0.1
			c0.2-0.1,0.5-0.2,0.8-0.4c0.3-0.2,0.4-0.4,0.5-0.6c0.1-0.1,0.1-0.3,0.2-0.5s0.2-0.4,0.3-0.6c0.1-0.2,0.2-0.4,0.3-0.7
			c0.1-0.2,0.1-0.2-0.1-0.2s-0.2,0-0.3,0.1c-0.1,0-0.1,0-0.1,0c0,0,0-0.1,0-0.1c0.1-0.1,0.3-0.1,0.5-0.2s0.4-0.1,0.5-0.1
			c0,0,0.1,0,0.1,0s0.1,0,0.1,0c0.3,0,0.5,0.1,0.5,0.3c0.1,0.2,0.1,0.4,0,0.5c0.2-0.2,0.4-0.4,0.7-0.6c0.2-0.2,0.5-0.2,0.8-0.2
			c0.4,0,0.7,0.1,0.8,0.2s0.2,0.4,0.2,0.6s-0.1,0.5-0.2,0.8c-0.1,0.3-0.2,0.5-0.3,0.8c-0.3,0.6-0.3,1-0.2,1.2
			C15.1,20.4,15.3,20.4,15.7,20.1z M8.1,19c0.1-0.3,0.2-0.5,0.2-0.6s0.1-0.3,0.1-0.4c0-0.2,0-0.3-0.1-0.4S8.1,17.5,8,17.5
			c-0.2,0-0.5,0.1-0.7,0.2c-0.2,0.1-0.4,0.3-0.5,0.5c-0.1,0.2-0.3,0.4-0.3,0.6c-0.1,0.2-0.1,0.4-0.1,0.6c0,0.2,0,0.3,0.1,0.4
			c0.1,0.1,0.2,0.2,0.4,0.2c0.3,0,0.5-0.1,0.8-0.3C7.8,19.5,8,19.3,8.1,19z M20.3,14c0.5,0,0.9,0.1,1.3,0.2c0.4,0.1,0.7,0.3,0.9,0.5
			c0.2,0.2,0.4,0.4,0.5,0.7c0.1,0.3,0.2,0.6,0.2,0.9c0,0.6-0.2,1.2-0.5,1.8s-0.8,1.1-1.3,1.5c-0.5,0.4-1.1,0.8-1.7,1
			s-1.2,0.4-1.8,0.4h-0.4c-0.4,0-0.7,0-0.9-0.1c-0.2,0-0.3-0.1-0.3-0.3c0-0.1,0-0.2,0.1-0.3c0.1-0.1,0.1-0.3,0.2-0.5l2-4.2
			c0.2-0.4,0.4-0.5,0.8-0.3s0.4,0.4,0.3,0.8l-1.9,4H18c0.4,0,0.9-0.1,1.3-0.3s0.9-0.5,1.2-0.9c0.4-0.4,0.7-0.8,0.9-1.3
			c0.2-0.5,0.3-0.9,0.3-1.4c0-0.4-0.2-0.8-0.5-0.9c-0.4-0.2-0.7-0.3-1.1-0.3h-1.7c-0.6,0-1.1,0.1-1.4,0.3c-0.3,0.2-0.4,0.5-0.5,0.7
			s0,0.5,0.2,0.7c0.2,0.2,0.3,0.3,0.6,0.3c0.1,0,0.2,0,0.2,0.1s-0.1,0.1-0.2,0.1c-0.5,0-0.9-0.2-1.3-0.5c-0.3-0.3-0.5-0.7-0.5-1.1
			c0-0.4,0.3-0.8,0.8-1.1c0.5-0.3,1.4-0.5,2.6-0.5H20.3z M35.8,15.1L34,19.1c-0.3,0.6-0.3,1-0.2,1.2c0.2,0.2,0.5,0.1,0.8-0.1
			c0.1-0.1,0.1-0.1,0.2,0c0,0,0,0.1,0,0.2c-0.2,0.3-0.5,0.4-0.8,0.5c-0.3,0.1-0.5,0.1-0.6,0.1c-0.4,0-0.7-0.1-0.9-0.3
			s-0.2-0.5-0.1-0.8c-0.2,0.2-0.4,0.3-0.6,0.5c-0.2,0.1-0.4,0.3-0.6,0.4s-0.4,0.2-0.7,0.2s-0.5,0.1-0.7,0.1s-0.5,0-0.8-0.1
			c-0.3-0.1-0.5-0.2-0.7-0.3c-0.4,0.1-0.7,0.2-1,0.3c-0.3,0.1-0.6,0.1-0.8,0.1c-0.4,0-0.7-0.1-0.9-0.2c-0.2-0.2-0.3-0.4-0.3-0.6
			c-0.2,0.2-0.5,0.4-0.7,0.6c-0.3,0.2-0.6,0.3-0.9,0.3c-0.4,0-0.7-0.1-0.8-0.2c-0.1-0.2-0.2-0.4-0.2-0.6c0-0.2,0.1-0.5,0.2-0.7
			c0.1-0.3,0.2-0.5,0.3-0.7l0.6-1.3c0.1-0.2,0-0.2-0.1-0.2c-0.1,0-0.2,0-0.3,0.1c0,0-0.1,0-0.1,0c0,0,0-0.1,0-0.1
			c0.1-0.1,0.3-0.1,0.5-0.2c0.2-0.1,0.4-0.1,0.5-0.1c0,0,0.1,0,0.1,0c0,0,0,0,0.1,0c0,0,0.1,0,0.1,0c0,0,0.1,0,0.1,0c0,0,0,0,0.1,0
			c0,0,0,0,0,0c0.1,0.1,0.2,0.2,0.3,0.3c0.1,0.1,0,0.3,0,0.5l-0.6,1.3c-0.1,0.2-0.2,0.5-0.3,0.8c-0.1,0.3,0,0.4,0.4,0.4
			c0.3,0,0.5-0.1,0.8-0.2c0.2-0.2,0.4-0.4,0.5-0.6l1.1-2.2c0.2-0.4,0.4-0.5,0.8-0.3c0.3,0.2,0.4,0.4,0.3,0.8l-1,2
			c0,0.1-0.1,0.2,0,0.4c0,0.1,0.1,0.2,0.4,0.2c0.1,0,0.2,0,0.4,0c0.1,0,0.3-0.1,0.5-0.1c0-0.1,0-0.1,0-0.2c0-0.1,0-0.1,0-0.2
			c0-0.3,0.1-0.6,0.3-1c0.2-0.3,0.5-0.6,0.8-0.9c0.3-0.3,0.7-0.5,1.1-0.7c0.4-0.2,0.8-0.3,1.2-0.3c0.3,0,0.6,0.1,0.7,0.3
			c0.2,0.2,0.2,0.4,0.2,0.6c0,0.2-0.1,0.4-0.2,0.6c-0.1,0.2-0.3,0.4-0.6,0.6c-0.2,0.2-0.5,0.4-0.8,0.6c-0.3,0.2-0.6,0.4-1,0.6
			c0.1,0,0.2,0.1,0.3,0.1c0.1,0,0.2,0,0.4,0c0.3,0,0.6-0.1,0.9-0.2c0.3-0.1,0.6-0.3,0.8-0.4c0.3-0.2,0.5-0.4,0.7-0.6
			c0.2-0.2,0.4-0.5,0.5-0.7l0,0c0,0,0,0,0,0l1.2-2.6c0,0,0-0.1,0-0.1c0,0,0-0.1,0-0.1l0,0c0.1-0.1,0.1-0.3,0.2-0.5
			c0.1-0.2,0.1-0.2-0.1-0.2c-0.1,0-0.2,0-0.3,0.1c0,0-0.1,0-0.1,0c0,0,0-0.1,0-0.1c0.1-0.1,0.3-0.1,0.5-0.2c0.2-0.1,0.4-0.1,0.5-0.1
			c0,0,0,0,0,0s0,0,0,0c0.2,0,0.3,0,0.5,0.1c0.1,0.1,0.2,0.2,0.2,0.4c0,0.1,0,0.2,0,0.3S35.9,15,35.8,15.1z M30.8,17.5
			c-0.2,0-0.4,0.1-0.6,0.2c-0.2,0.1-0.4,0.3-0.5,0.5c-0.2,0.2-0.3,0.4-0.4,0.6c-0.1,0.2-0.1,0.4-0.1,0.6c0.2-0.1,0.5-0.2,0.7-0.4
			c0.2-0.1,0.4-0.3,0.6-0.4c0.2-0.1,0.3-0.3,0.4-0.4C31,18,31,17.9,31,17.7c0-0.1,0-0.1-0.1-0.2C30.9,17.5,30.9,17.5,30.8,17.5z"/>
	</g>
</g>
</svg>
