<?xml version="1.0" encoding="utf-8"?>
<!-- Generator: Adobe Illustrator 19.2.1, SVG Export Plug-In . SVG Version: 6.00 Build 0)  -->
<svg version="1.1" xmlns="http://www.w3.org/2000/svg" xmlns:xlink="http://www.w3.org/1999/xlink" x="0px" y="0px"
	 viewBox="0 0 36 36" style="enable-background:new 0 0 36 36;" xml:space="preserve">
<style type="text/css">
	.st0{display:none;}
	.st1{display:inline;fill:#FFFFFF;}
	.st2{display:inline;}
	.st3{fill:none;}
	.st4{fill:#303030;}
</style>
<g id="Layer_2" class="st0">
	<rect x="-409" y="-261" class="st1" width="583" height="601"/>
</g>
<g id="Layer_1">
	<g>
		<path d="M4,0v8H0v28h36v-2V0H4z M34,32H6V2h28V32z"/>
		<rect x="22" y="4" width="6" height="2"/>
		<rect x="22" y="8" width="10" height="2"/>
		<rect x="22" y="12" width="10" height="2"/>
		<rect x="22" y="16" width="4" height="2"/>
		<rect x="8" y="20" width="22" height="2"/>
		<rect x="8" y="24" width="18" height="2"/>
		<rect x="8" y="28" width="24" height="2"/>
	</g>
	<path d="M11.7,12.1c0.3,0.6,0.7,1,1.2,1.4s1,0.5,1.5,0.5c0.5,0,1-0.2,1.5-0.5s0.9-0.8,1.2-1.4s0.6-1.2,0.8-1.9s0.3-1.4,0.3-2.2
		c0-0.7-0.1-1.3-0.3-1.8s-0.5-0.9-0.9-1.2s-0.8-0.5-1.2-0.7S14.8,4,14.3,4c-0.5,0-0.9,0.1-1.4,0.2s-0.9,0.4-1.2,0.7
		s-0.7,0.7-0.9,1.2S10.6,7.2,10.6,8s0.1,1.5,0.3,2.2S11.3,11.5,11.7,12.1z"/>
	<path d="M20,15.2c-0.2-0.1-0.5-0.2-0.8-0.3c-0.6-0.3-1.3-0.6-2-0.8c-0.4,0.5-0.8,0.8-1.3,1.1s-1,0.4-1.6,0.4
		c-0.6,0-1.1-0.1-1.6-0.4s-1-0.7-1.4-1.2c-0.7,0.3-1.4,0.6-2.1,0.9C8.8,15,8.4,15.2,8,15.3V18c0.1,0,0.3,0,0.4,0c1.8,0,3.8,0,5.9,0
		c2,0,3.9,0,5.7,0V15.2z"/>
</g>
</svg>
