<?xml version="1.0" encoding="utf-8"?>
<!-- Generator: Adobe Illustrator 19.2.1, SVG Export Plug-In . SVG Version: 6.00 Build 0)  -->
<svg version="1.1" xmlns="http://www.w3.org/2000/svg" xmlns:xlink="http://www.w3.org/1999/xlink" x="0px" y="0px"
	 viewBox="0 0 36 36" style="enable-background:new 0 0 36 36;" xml:space="preserve">
<style type="text/css">
	.st0{display:none;}
	.st1{display:inline;fill:#FFFFFF;}
	.st2{display:inline;}
	.st3{fill:none;}
	.st4{fill:#303030;}
</style>
<g id="Layer_2" class="st0">
	<rect x="-193" y="-45" class="st1" width="583" height="601"/>
</g>
<g id="Layer_1">
	<g>
		<path d="M18,0c2.5,0,4.8,0.5,7,1.4s4.1,2.2,5.7,3.8s2.9,3.5,3.8,5.7s1.4,4.5,1.4,7s-0.5,4.8-1.4,7s-2.2,4.1-3.8,5.7
			s-3.5,2.9-5.7,3.8S20.5,36,18,36s-4.8-0.5-7-1.4s-4.1-2.2-5.7-3.8S2.3,27.2,1.4,25S0,20.5,0,18s0.5-4.8,1.4-7s2.2-4.1,3.8-5.7
			S8.8,2.3,11,1.4S15.5,0,18,0z M18,34.8c1.6,0,3.2-0.2,4.7-0.7c1.5-0.4,2.9-1.1,4.2-1.9s2.4-1.8,3.5-2.9c1-1.1,1.9-2.4,2.6-3.7
			c-0.1,0-0.1,0.1-0.2,0.1c-0.1,0-0.1,0.1-0.2,0.1l-1.2-2c0.1-0.1,0.2-0.2,0.4-0.3c0.1-0.1,0.2-0.2,0.4-0.3l1.3,1.4
			c0.5-1,0.8-2.1,1.1-3.3c0.2-1.1,0.4-2.3,0.4-3.5c0-1.9-0.3-3.8-0.9-5.5s-1.5-3.3-2.6-4.8c-1.1-1.4-2.4-2.7-4-3.7
			c-1.5-1-3.2-1.8-5-2.3v0.3l0,1.2c-0.1,0-0.2,0-0.3,0c-0.1,0-0.2,0-0.3,0.1l-0.5-1.8c-0.5-0.1-1.1-0.2-1.6-0.2
			c-0.5-0.1-1.1-0.1-1.6-0.1c-2.3,0-4.5,0.4-6.5,1.3S7.6,4.6,6.1,6.1s-2.7,3.3-3.6,5.4S1.2,15.7,1.2,18s0.4,4.5,1.3,6.5
			s2.1,3.8,3.6,5.4c1.5,1.5,3.3,2.7,5.4,3.6S15.7,34.8,18,34.8z M1.8,20.7l0.8-2.2c0.1,0.1,0.3,0.1,0.5,0.2s0.3,0.1,0.5,0.1
			l-0.4,2.3c-0.2,0-0.5-0.1-0.7-0.1S2,20.8,1.8,20.7z M5.3,18.8c0.1,0,0.3-0.1,0.4-0.1c0.2,0,0.3-0.1,0.4-0.2l0.9,2.1
			c-0.2,0.1-0.4,0.2-0.7,0.2C6.2,21,6,21,5.8,21.1L5.3,18.8z M8.6,16.7l1.7,1.6c-0.2,0.1-0.3,0.3-0.5,0.4c-0.2,0.2-0.3,0.3-0.5,0.4
			l-1.5-1.8c0.1-0.1,0.3-0.2,0.4-0.4C8.4,17,8.5,16.9,8.6,16.7z M9.5,32.2c0-0.2,0.1-0.4,0.1-0.6c0-0.2,0.1-0.4,0.2-0.6l2.2,0.7
			c0,0.2-0.1,0.3-0.1,0.5c0,0.2-0.1,0.3-0.1,0.5L9.5,32.2z M12.6,15.5c-0.1,0.2-0.2,0.3-0.4,0.5c-0.1,0.2-0.2,0.3-0.4,0.5L10,15
			c0.1-0.1,0.2-0.3,0.3-0.4c0.1-0.2,0.2-0.3,0.3-0.4L12.6,15.5z M11.1,28.5c0.1-0.2,0.3-0.3,0.5-0.5c0.2-0.2,0.3-0.3,0.5-0.5
			l1.4,1.8c-0.1,0.1-0.2,0.2-0.3,0.3c-0.1,0.1-0.2,0.2-0.3,0.4L11.1,28.5z M12.5,11.3l2,1.2c-0.1,0.2-0.2,0.3-0.3,0.5
			c-0.1,0.2-0.2,0.3-0.3,0.5l-2-1.2c0.1-0.2,0.2-0.3,0.3-0.5C12.3,11.6,12.4,11.4,12.5,11.3z M16.2,9.4l-0.6,1l-2-1.2l0.6-1
			L16.2,9.4z M14.4,26.3c0.2-0.1,0.4-0.2,0.6-0.2s0.4-0.1,0.6-0.2l0.6,2.2c-0.2,0-0.4,0.1-0.5,0.2s-0.3,0.1-0.5,0.2L14.4,26.3z
			 M15.5,6.2c0.1-0.2,0.2-0.3,0.3-0.5c0.1-0.2,0.2-0.3,0.3-0.5L18,6.5c-0.1,0.2-0.2,0.3-0.3,0.5c-0.1,0.2-0.2,0.3-0.3,0.5L15.5,6.2z
			 M17.7,3.3c0.2-0.2,0.3-0.3,0.5-0.5c0.2-0.2,0.3-0.3,0.5-0.4l1.5,1.8c-0.1,0.1-0.2,0.2-0.4,0.3s-0.2,0.2-0.4,0.4L17.7,3.3z
			 M18.1,25.4c0.2,0,0.4,0,0.6-0.1c0.2,0,0.4,0,0.6-0.1l0.2,2.3c-0.2,0-0.4,0-0.6,0c-0.2,0-0.4,0-0.6,0.1L18.1,25.4z M21.7,25.2
			c0.2,0,0.4,0,0.6,0c0.2,0,0.4,0,0.6,0l0.1,2.3c-0.2,0-0.4,0-0.6,0c-0.2,0-0.4,0-0.6,0L21.7,25.2z M25.1,25.1c0.2,0,0.4,0,0.6,0
			c0.2,0,0.4,0,0.6,0l0.1,2.3c-0.2,0-0.4,0-0.6,0c-0.2,0-0.4,0-0.6,0L25.1,25.1z M28.5,24.8c0.2,0,0.4-0.1,0.5-0.1
			c0.2,0,0.3-0.1,0.5-0.1l0.5,2.2c-0.2,0-0.4,0.1-0.6,0.1c-0.2,0-0.4,0.1-0.6,0.1L28.5,24.8z"/>
	</g>
</g>
<g id="Layer_3">
</g>
</svg>
