<?xml version="1.0" encoding="utf-8"?>
<!-- Generator: Adobe Illustrator 19.2.1, SVG Export Plug-In . SVG Version: 6.00 Build 0)  -->
<svg version="1.1" xmlns="http://www.w3.org/2000/svg" xmlns:xlink="http://www.w3.org/1999/xlink" x="0px" y="0px"
	 viewBox="0 0 36 36" style="enable-background:new 0 0 36 36;" xml:space="preserve">
<style type="text/css">
	.st0{display:none;}
	.st1{display:inline;fill:#FFFFFF;}
	.st2{display:inline;}
	.st3{fill:none;}
	.st4{fill:#303030;}
</style>
<g id="Layer_2" class="st0">
	<rect x="-193" y="-315" class="st1" width="583" height="601"/>
</g>
<g id="Layer_1">
	<g>
		<g>
			<path d="M18,0C8.1,0,0,8.1,0,18v0c0,9.9,8.1,18,18,18c9.9,0,18-8.1,18-18v0C36,8.1,27.9,0,18,0z M29.8,28.8
				c-1.5-0.5-3.6-1.5-5.8-2.4c-1.5,1.8-3.5,2.9-5.6,2.9c-2.3,0-4.3-1.2-5.9-3.2c-2.3,0.9-4.6,2-6.3,2.6C3.6,25.9,2,22.1,2,18
				C2,9.2,9.2,2,18,2c8.8,0,16,7.2,16,16C34,22.2,32.4,26,29.8,28.8z"/>
		</g>
		<g>
			<path d="M18.3,6.7c-3.5,0-7.4,2-7.4,7.8c0,5.7,3.3,11.8,7.4,11.8s7.4-6.1,7.4-11.8C25.8,8.8,21.8,6.7,18.3,6.7z"/>
		</g>
	</g>
</g>
<g id="Layer_3">
</g>
</svg>
