<?xml version="1.0" encoding="utf-8"?>
<!-- Generator: Adobe Illustrator 19.2.1, SVG Export Plug-In . SVG Version: 6.00 Build 0)  -->
<svg version="1.1" xmlns="http://www.w3.org/2000/svg" xmlns:xlink="http://www.w3.org/1999/xlink" x="0px" y="0px"
	 viewBox="0 0 36 36" style="enable-background:new 0 0 36 36;" xml:space="preserve">
<style type="text/css">
	.st0{display:none;}
	.st1{display:inline;fill:#FFFFFF;}
	.st2{display:inline;}
	.st3{fill:none;}
	.st4{fill:#303030;}
</style>
<g id="Layer_2" class="st0">
	<rect x="-193" y="-369" class="st1" width="583" height="601"/>
</g>
<g id="Layer_1">
	<g>
		<path d="M32.7,16.4V36H3.3V16.4h3.3v-4.9c0-3.1,1.1-5.8,3.4-8.1C12.2,1.1,14.9,0,18,0c3.1,0,5.8,1.1,8.1,3.4
			c2.3,2.3,3.4,4.9,3.4,8.1v4.9H32.7z M11.5,16.4h13.1v-4.9c0-1.8-0.6-3.3-1.9-4.6c-1.3-1.3-2.8-1.9-4.6-1.9c-1.8,0-3.3,0.6-4.6,1.9
			s-1.9,2.8-1.9,4.6V16.4z"/>
	</g>
</g>
<g id="Layer_3">
</g>
</svg>
