<?xml version="1.0" encoding="utf-8"?>
<!-- Generator: Adobe Illustrator 19.2.1, SVG Export Plug-In . SVG Version: 6.00 Build 0)  -->
<svg version="1.1" xmlns="http://www.w3.org/2000/svg" xmlns:xlink="http://www.w3.org/1999/xlink" x="0px" y="0px"
	 viewBox="0 0 36 36" style="enable-background:new 0 0 36 36;" xml:space="preserve">
<style type="text/css">
	.st0{display:none;}
	.st1{display:inline;fill:#FFFFFF;}
	.st2{display:inline;}
	.st3{fill:none;}
	.st4{fill:#303030;}
</style>
<g id="Layer_2" class="st0">
	<rect x="-85" y="-153" class="st1" width="583" height="601"/>
</g>
<g id="Layer_1">
	<path d="M20.6,20.8l2.9-0.4l0-4.7l-2.9-0.4c-0.2-0.5-0.4-1-0.7-1.6c0.2-0.3,0.5-0.6,0.9-1.1c0.4-0.5,0.8-1.1,0.8-1.1L18.3,8L16,9.7
		c-0.4-0.2-0.9-0.4-1.4-0.6l-0.4-2.9l-4.7,0c0,0-0.3,1.5-0.5,3C8.5,9.3,8,9.5,7.6,9.8L5.4,8.1l-3.5,3.4c0,0,1.3,1.6,1.7,2.2
		c-0.3,0.5-0.5,1-0.6,1.5l-3,0.4l0,4.7L3,20.7c0.1,0.5,0.4,1,0.7,1.6c-0.2,0.3-0.5,0.6-0.9,1.1c-0.4,0.5-0.8,1.1-0.8,1.1l3.4,3.4
		l2.2-1.7C8,26.4,8.5,26.6,9,26.8l0.4,2.9l4.7,0c0,0,0.3-1.5,0.5-3c0.5-0.2,1-0.4,1.4-0.6l2.2,1.7l3.5-3.5c0,0-1.3-1.7-1.7-2.2
		C20.2,21.8,20.4,21.4,20.6,20.8z M11.8,24.3c-3.5,0-6.3-2.8-6.3-6.3s2.8-6.3,6.3-6.3s6.3,2.8,6.3,6.3S15.3,24.3,11.8,24.3z"/>
	<path d="M34.1,9.3L36,9l0-3l-1.8-0.3c-0.1-0.3-0.2-0.7-0.4-1C33.8,4.6,34,4.3,34.3,4c0.2-0.3,0.5-0.7,0.5-0.7l-2.2-2.2l-1.4,1.1
		c-0.3-0.1-0.6-0.3-0.9-0.4L30,0l-3,0c0,0-0.2,1-0.3,1.9c-0.3,0.1-0.6,0.2-0.9,0.4l-1.4-1.1l-2.2,2.2c0,0,0.8,1,1.1,1.4
		c-0.2,0.3-0.3,0.6-0.4,0.9L21,6l0,3l1.8,0.3c0.1,0.3,0.2,0.7,0.4,1c-0.1,0.2-0.3,0.4-0.5,0.7c-0.2,0.3-0.5,0.7-0.5,0.7l2.2,2.2
		l1.4-1.1c0.3,0.1,0.6,0.3,0.9,0.4l0.3,1.9l3,0c0,0,0.2-1,0.3-1.9c0.3-0.1,0.6-0.2,0.9-0.4l1.4,1.1l2.2-2.2c0,0-0.8-1.1-1.1-1.4
		C33.9,9.9,34,9.6,34.1,9.3z M28.5,11.5c-2.2,0-4-1.8-4-4s1.8-4,4-4s4,1.8,4,4S30.7,11.5,28.5,11.5z"/>
	<path d="M34.1,30.3L36,30l0-3l-1.8-0.3c-0.1-0.3-0.2-0.7-0.4-1c0.1-0.2,0.3-0.4,0.5-0.7c0.2-0.3,0.5-0.7,0.5-0.7l-2.2-2.2l-1.4,1.1
		c-0.3-0.1-0.6-0.3-0.9-0.4L30,21.1l-3,0c0,0-0.2,1-0.3,1.9c-0.3,0.1-0.6,0.2-0.9,0.4l-1.4-1.1l-2.2,2.2c0,0,0.8,1,1.1,1.4
		c-0.2,0.3-0.3,0.6-0.4,0.9L21,27l0,3l1.8,0.3c0.1,0.3,0.2,0.7,0.4,1c-0.1,0.2-0.3,0.4-0.5,0.7c-0.2,0.3-0.5,0.7-0.5,0.7l2.2,2.2
		l1.4-1.1c0.3,0.1,0.6,0.3,0.9,0.4L27,36l3,0c0,0,0.2-1,0.3-1.9c0.3-0.1,0.6-0.2,0.9-0.4l1.4,1.1l2.2-2.2c0,0-0.8-1.1-1.1-1.4
		C33.9,31,34,30.7,34.1,30.3z M28.5,32.5c-2.2,0-4-1.8-4-4s1.8-4,4-4s4,1.8,4,4S30.7,32.5,28.5,32.5z"/>
</g>
<g id="Layer_3">
</g>
</svg>
