<?xml version="1.0" encoding="utf-8"?>
<!-- Generator: Adobe Illustrator 19.2.1, SVG Export Plug-In . SVG Version: 6.00 Build 0)  -->
<svg version="1.1" xmlns="http://www.w3.org/2000/svg" xmlns:xlink="http://www.w3.org/1999/xlink" x="0px" y="0px"
	 viewBox="0 0 36 36" style="enable-background:new 0 0 36 36;" xml:space="preserve">
<style type="text/css">
	.st0{display:none;}
	.st1{display:inline;fill:#FFFFFF;}
	.st2{display:inline;}
	.st3{fill:none;}
	.st4{fill:#303030;}
</style>
<g id="Layer_2" class="st0">
	<rect x="-31" y="-153" class="st1" width="583" height="601"/>
</g>
<g id="Layer_1">
	<path d="M31.5,22.3l4.5-0.7l0-7.2l-4.4-0.7c-0.2-0.8-0.6-1.6-1-2.4c0.3-0.4,0.7-1,1.3-1.7C32.4,8.9,33.1,8,33.1,8l-5.2-5.3
		l-3.5,2.6c-0.7-0.3-1.4-0.6-2.2-0.9L21.6,0l-7.1,0c0,0-0.4,2.3-0.7,4.5C13,4.7,12.2,5,11.5,5.4L8.1,2.8L2.9,8.1c0,0,2,2.4,2.6,3.4
		c-0.4,0.7-0.7,1.5-0.9,2.2L0,14.3l0,7.2l4.4,0.7c0.2,0.8,0.6,1.6,1,2.4c-0.3,0.4-0.7,1-1.3,1.7c-0.6,0.7-1.2,1.6-1.2,1.6l5.2,5.3
		l3.4-2.6c0.7,0.3,1.4,0.6,2.2,0.9l0.7,4.5l7.1,0c0,0,0.4-2.3,0.7-4.5c0.8-0.2,1.5-0.6,2.2-0.9l3.4,2.6l5.3-5.3c0,0-2-2.5-2.6-3.4
		C30.9,23.9,31.2,23.2,31.5,22.3z M18,27.6c-5.3,0-9.6-4.3-9.6-9.6s4.3-9.6,9.6-9.6s9.6,4.3,9.6,9.6S23.3,27.6,18,27.6z"/>
</g>
</svg>
