<?xml version="1.0" encoding="utf-8"?>
<!-- Generator: Adobe Illustrator 19.2.1, SVG Export Plug-In . SVG Version: 6.00 Build 0)  -->
<svg version="1.1" xmlns="http://www.w3.org/2000/svg" xmlns:xlink="http://www.w3.org/1999/xlink" x="0px" y="0px"
	 viewBox="0 0 36 36" style="enable-background:new 0 0 36 36;" xml:space="preserve">
<style type="text/css">
	.st0{display:none;}
	.st1{display:inline;fill:#FFFFFF;}
	.st2{display:inline;}
	.st3{fill:none;}
	.st4{fill:#303030;}
</style>
<g id="Layer_2" class="st0">
	<rect x="-139" y="-423" class="st1" width="583" height="601"/>
</g>
<g id="Layer_1">
	<path d="M35.5,13.3C35,11.5,34,9.9,32.7,8.6L28.2,4L28,3.9c-0.1-0.1-0.1-0.1-0.2-0.2c-0.1-0.1-0.2-0.3-0.4-0.4
		c-1.1-1.1-2.4-1.9-3.8-2.5c-2.4-0.9-5.2-1-7.9-0.4c-1.1,0.3-2.3,0.6-3.4,1.1C11.2,2,10,2.7,9,3.4C7.9,4.1,6.9,5,5.9,6
		c-1.6,1.6-3,3.5-3.9,5.4c-1,1.9-1.6,3.9-1.8,5.8C-0.1,19.1,0,21,0.5,22.8C1,24.6,2,26.2,3.3,27.5c0.1,0.1,0.3,0.3,0.4,0.4
		c0,0,0,0,0,0l0,0l4.9,4.9c1.1,1.1,2.4,1.9,3.8,2.5c1.4,0.5,2.9,0.8,4.5,0.8c1.1,0,2.3-0.1,3.4-0.4c1.1-0.3,2.3-0.6,3.4-1.1
		c1.1-0.5,2.2-1.1,3.3-1.8c1.1-0.7,2.1-1.6,3.1-2.6c1.6-1.6,3-3.5,3.9-5.4c1-1.9,1.6-3.9,1.8-5.8C36.1,16.9,36,15,35.5,13.3z
		 M4.8,26.7c-0.1-0.1-0.3-0.2-0.4-0.4c-1.1-1.1-1.9-2.5-2.4-4.1c-0.4-1.6-0.5-3.2-0.3-5C2,15.5,2.5,13.8,3.4,12
		c0.9-1.8,2.1-3.4,3.6-4.9c0.9-0.9,1.8-1.6,2.7-2.3c1-0.7,1.9-1.2,3-1.7c1-0.5,2.1-0.8,3.1-1.1C17,1.8,18,1.7,19.1,1.7
		c1.4,0,2.8,0.2,4,0.7s2.3,1.2,3.2,2.1c0.1,0.1,0.2,0.3,0.4,0.4C26.8,5,26.9,5.1,27,5.2c0.1,0.1,0.1,0.1,0.2,0.2s0.1,0.2,0.2,0.2
		c0,0.1,0.1,0.2,0.2,0.3c0.1,0.1,0.1,0.2,0.2,0.2c0.6,1,1,2.1,1.2,3.3c0.2,1.2,0.2,2.5,0.1,3.8c-0.1,0.9-0.3,1.9-0.6,2.8
		c-0.3,0.9-0.7,1.8-1.1,2.7s-1,1.7-1.6,2.5c-0.6,0.8-1.3,1.6-2,2.3c-0.9,0.9-1.8,1.6-2.8,2.3c-1,0.7-2,1.2-3,1.7
		c-1,0.5-2.1,0.8-3.1,1.1c-1.1,0.2-2.1,0.4-3.2,0.4c-1,0-2-0.1-2.9-0.4c-0.9-0.2-1.8-0.6-2.5-1.1c-0.1,0-0.1-0.1-0.2-0.1
		c-0.1,0-0.2-0.1-0.3-0.2c-0.1,0-0.1-0.1-0.2-0.2c-0.1-0.1-0.2-0.1-0.2-0.2C5.1,26.9,4.9,26.8,4.8,26.7z M9.6,30.1
		c0.7,0.1,1.3,0.2,2,0.2c1.1,0,2.2-0.1,3.3-0.4c1.1-0.3,2.2-0.6,3.3-1.1c1.1-0.5,2.2-1.1,3.2-1.8c1-0.7,2-1.6,3-2.5
		c1.3-1.2,2.3-2.6,3.2-4c0.9-1.4,1.5-2.9,1.9-4.3c0.4-1.5,0.7-2.9,0.7-4.4c0-1.4-0.2-2.8-0.6-4.1l2.1,2.1c1.1,1.1,1.9,2.5,2.4,4.1
		c0.4,1.6,0.5,3.2,0.3,5c-0.2,1.7-0.8,3.5-1.7,5.3c-0.9,1.8-2.1,3.4-3.6,4.9c-0.9,0.9-1.8,1.6-2.7,2.3c-1,0.7-2,1.2-3,1.7
		c-1,0.5-2.1,0.8-3.1,1.1c-1.1,0.2-2.1,0.4-3.2,0.4c-1.4,0-2.8-0.2-4-0.7s-2.3-1.2-3.2-2.1l-2-2.1C8.3,29.8,8.9,29.9,9.6,30.1z"/>
</g>
</svg>
