<?xml version="1.0" encoding="utf-8"?>
<!-- Generator: Adobe Illustrator 19.2.1, SVG Export Plug-In . SVG Version: 6.00 Build 0)  -->
<svg version="1.1" xmlns="http://www.w3.org/2000/svg" xmlns:xlink="http://www.w3.org/1999/xlink" x="0px" y="0px"
	 viewBox="0 0 36 36" style="enable-background:new 0 0 36 36;" xml:space="preserve">
<style type="text/css">
	.st0{display:none;}
	.st1{display:inline;fill:#FFFFFF;}
	.st2{display:inline;}
	.st3{fill:none;}
	.st4{fill:#303030;}
	.st5{fill:#FFFFFF;}
	.st6{fill:#333333;}
</style>
<g id="Layer_2" class="st0">
	<rect x="-193" y="-369" class="st1" width="583" height="601"/>
</g>
<g id="Layer_1">
	<g>
		<path d="M32.7,18.8v14.7c0,0.7-0.2,1.3-0.7,1.7C31.5,35.8,31,36,30.3,36H5.7C5,36,4.5,35.8,4,35.3c-0.5-0.5-0.7-1.1-0.7-1.7V18.8
			c0-0.7,0.2-1.3,0.7-1.7s1.1-0.7,1.7-0.7h0.8v-4.9c0-3.1,1.1-5.8,3.4-8.1C12.2,1.1,14.9,0,18,0c3.1,0,5.8,1.1,8.1,3.4
			c2.3,2.3,3.4,4.9,3.4,8.1v4.9h0.8c0.7,0,1.3,0.2,1.7,0.7C32.5,17.6,32.7,18.1,32.7,18.8z M11.5,16.4h13.1v-4.9
			c0-1.8-0.6-3.3-1.9-4.6c-1.3-1.3-2.8-1.9-4.6-1.9c-1.8,0-3.3,0.6-4.6,1.9s-1.9,2.8-1.9,4.6V16.4z"/>
	</g>
</g>
</svg>
