<?xml version="1.0" encoding="utf-8"?>
<!-- Generator: Adobe Illustrator 19.2.1, SVG Export Plug-In . SVG Version: 6.00 Build 0)  -->
<svg version="1.1" xmlns="http://www.w3.org/2000/svg" xmlns:xlink="http://www.w3.org/1999/xlink" x="0px" y="0px"
	 viewBox="0 0 36 36" style="enable-background:new 0 0 36 36;" xml:space="preserve">
<style type="text/css">
	.st0{display:none;}
	.st1{display:inline;fill:#FFFFFF;}
	.st2{display:inline;}
	.st3{fill:none;}
	.st4{fill:#303030;}
</style>
<g id="Layer_2" class="st0">
	<rect x="-139" y="-45" class="st1" width="583" height="601"/>
</g>
<g id="Layer_1">
	<g>
		<path d="M32.8,8.6c1.3,1.3,2.2,2.8,2.7,4.6s0.6,3.6,0.4,5.6c-0.2,1.9-0.9,3.9-1.8,5.8c-1,2-2.3,3.8-4,5.4c-1,1-2,1.8-3.1,2.6
			c-1.1,0.7-2.2,1.4-3.3,1.8s-2.3,0.9-3.4,1.1S18,36,16.9,36c-1.6,0-3.1-0.3-4.5-0.8s-2.7-1.3-3.7-2.4L4,28.1l0,0
			c-0.1-0.1-0.3-0.2-0.4-0.4c-0.1-0.1-0.3-0.2-0.4-0.4c-1.3-1.3-2.2-2.8-2.7-4.6s-0.6-3.6-0.4-5.6s0.9-3.9,1.8-5.8s2.3-3.8,4-5.4
			c1-1,2-1.8,3.1-2.6s2.2-1.4,3.3-1.8s2.3-0.9,3.4-1.1S18,0,19.1,0c1.6,0,3.1,0.3,4.5,0.8s2.7,1.3,3.7,2.4c0.1,0.1,0.3,0.3,0.4,0.4
			C27.9,3.7,28,3.9,28.1,4l0-0.1L32.8,8.6z M26.5,4c-0.9-0.9-2-1.6-3.3-2.1s-2.6-0.7-4.1-0.7c-1.1,0-2.2,0.1-3.3,0.4
			s-2.2,0.6-3.2,1.1s-2.1,1.1-3.1,1.8S7.6,5.9,6.7,6.7C5.2,8.3,3.9,10,3,11.8s-1.5,3.6-1.7,5.4s-0.1,3.5,0.3,5.1s1.3,3,2.4,4.2
			c0.1,0.1,0.3,0.2,0.4,0.4c0.1,0.1,0.3,0.2,0.4,0.3c0.1,0.1,0.1,0.1,0.2,0.2c0.1,0.1,0.2,0.1,0.2,0.2c0.1,0.1,0.2,0.1,0.3,0.2
			c0.1,0,0.2,0.1,0.2,0.1c0.8,0.5,1.7,0.9,2.6,1.1s2,0.4,3,0.4c1.1,0,2.2-0.1,3.3-0.4s2.2-0.6,3.2-1.1s2.1-1.1,3.1-1.8
			c1-0.7,1.9-1.5,2.8-2.4c0.8-0.8,1.5-1.5,2.1-2.4s1.2-1.7,1.6-2.6c0.5-0.9,0.8-1.8,1.1-2.8c0.3-0.9,0.5-1.9,0.6-2.8
			c0.2-1.4,0.1-2.7-0.1-4C29,8,28.5,6.8,27.9,5.8c0-0.1-0.1-0.1-0.2-0.2c-0.1-0.1-0.1-0.2-0.2-0.3c0-0.1-0.1-0.1-0.2-0.2
			c-0.1-0.1-0.1-0.2-0.2-0.2c-0.1-0.1-0.2-0.3-0.3-0.4C26.8,4.3,26.7,4.1,26.5,4z M11.4,30.6c-0.7,0-1.4-0.1-2.1-0.2
			c-0.7-0.1-1.3-0.3-2-0.5L9.5,32c0.9,0.9,2,1.6,3.3,2.1c1.3,0.5,2.6,0.7,4.1,0.7c1.1,0,2.2-0.1,3.3-0.4s2.2-0.6,3.2-1.1
			c1.1-0.5,2.1-1.1,3.1-1.8c1-0.7,1.9-1.5,2.8-2.4c1.6-1.5,2.8-3.2,3.7-5c0.9-1.8,1.5-3.6,1.7-5.4c0.2-1.8,0.1-3.5-0.3-5.1
			c-0.4-1.6-1.3-3-2.4-4.2l-2.1-2.1c0.4,1.3,0.7,2.7,0.7,4.2s-0.2,3-0.7,4.5c-0.4,1.5-1.1,3-2,4.5c-0.9,1.5-2,2.8-3.3,4.1
			c-1,1-2,1.8-3.1,2.6c-1.1,0.7-2.2,1.4-3.3,1.8c-1.1,0.5-2.3,0.9-3.4,1.1C13.7,30.4,12.5,30.6,11.4,30.6z"/>
	</g>
</g>
<g id="Layer_3">
</g>
</svg>
