<?xml version="1.0" encoding="utf-8"?>
<!-- Generator: Adobe Illustrator 19.2.1, SVG Export Plug-In . SVG Version: 6.00 Build 0)  -->
<svg version="1.1" xmlns="http://www.w3.org/2000/svg" xmlns:xlink="http://www.w3.org/1999/xlink" x="0px" y="0px"
	 viewBox="0 0 36 36" style="enable-background:new 0 0 36 36;" xml:space="preserve">
<style type="text/css">
	.st0{display:none;}
	.st1{display:inline;fill:#FFFFFF;}
	.st2{display:inline;}
	.st3{fill:none;}
	.st4{fill:#303030;}
</style>
<g id="Layer_2" class="st0">
	<rect x="-139" y="-207" class="st1" width="583" height="601"/>
</g>
<g id="Layer_1">
	<g>
		<path d="M18.4,15.4h17c0.2,1,0.3,2,0.3,3c0,3.4-0.7,6.4-2.1,9.1s-3.5,4.8-6.1,6.3c-2.6,1.5-5.7,2.3-9.1,2.3c-2.5,0-4.8-0.5-7-1.4
			c-2.2-0.9-4.1-2.2-5.7-3.8C4,29.2,2.7,27.2,1.8,25c-0.9-2.2-1.4-4.6-1.4-7s0.5-4.8,1.4-7C2.7,8.8,4,6.8,5.6,5.2
			c1.6-1.6,3.5-2.9,5.7-3.8s4.6-1.4,7-1.4c4.7,0,8.7,1.6,12.1,4.7l-4.9,4.7c-1.9-1.9-4.3-2.8-7.2-2.8c-2,0-3.9,0.5-5.6,1.5
			c-1.7,1-3.1,2.4-4.1,4.1c-1,1.7-1.5,3.6-1.5,5.7c0,2.1,0.5,4,1.5,5.7c1,1.7,2.4,3.1,4.1,4.1c1.7,1,3.6,1.5,5.6,1.5
			c1.4,0,2.6-0.2,3.8-0.6c1.1-0.4,2.1-0.8,2.8-1.4c0.7-0.6,1.4-1.2,1.9-1.9c0.5-0.7,1-1.4,1.2-2c0.3-0.6,0.4-1.3,0.5-1.8H18.4V15.4z
			"/>
	</g>
</g>
</svg>
