<?xml version="1.0" encoding="utf-8"?>
<!-- Generator: Adobe Illustrator 19.2.1, SVG Export Plug-In . SVG Version: 6.00 Build 0)  -->
<svg version="1.1" xmlns="http://www.w3.org/2000/svg" xmlns:xlink="http://www.w3.org/1999/xlink" x="0px" y="0px"
	 viewBox="0 0 36 36" style="enable-background:new 0 0 36 36;" xml:space="preserve">
<style type="text/css">
	.st0{display:none;}
	.st1{display:inline;fill:#FFFFFF;}
	.st2{display:inline;}
	.st3{fill:none;}
	.st4{fill:#303030;}
</style>
<g id="Layer_2" class="st0">
	<rect x="-139" y="-261" class="st1" width="583" height="601"/>
</g>
<g id="Layer_1">
	<path d="M21.3,35.9h-0.5c8.6-4.9,3.4-11.2,3.4-11.2c-1.1,4.1-5.5,2.9-5.5,2.9c6.2-6.3-1.5-11.9-1.5-11.9c0.8,5.5-4.1,9.3-4.1,9.3
		s-2.4,1.5-2.4,5.2s3.6,5.7,3.6,5.7H14C0.5,29.4,8,19.1,8,19.1c4.1-6-1-6.2-1-6.2c1.1-2,5.9-1.5,5.9-1.5s-2.3-4.4,0.8-8.8
		c2.9-4.4,9.1-1.8,9.1-1.8s-6.2,2,0,9.3S36.3,31,21.3,35.9z"/>
</g>
</svg>
