<?xml version="1.0" encoding="utf-8"?>
<!-- Generator: Adobe Illustrator 19.2.1, SVG Export Plug-In . SVG Version: 6.00 Build 0)  -->
<svg version="1.1" xmlns="http://www.w3.org/2000/svg" xmlns:xlink="http://www.w3.org/1999/xlink" x="0px" y="0px"
	 viewBox="0 0 36 36" style="enable-background:new 0 0 36 36;" xml:space="preserve">
<style type="text/css">
	.st0{display:none;}
	.st1{display:inline;fill:#FFFFFF;}
	.st2{display:inline;}
	.st3{fill:none;}
	.st4{fill:#303030;}
	.st5{fill:#FFFFFF;}
	.st6{fill:#333333;}
</style>
<g id="Layer_2" class="st0">
	<rect x="-355" y="-153" class="st1" width="583" height="601"/>
</g>
<g id="Layer_1">
	<g>
		<path d="M8.5,15.9v4.2c0,0.6-0.2,1.1-0.6,1.5C7.4,22,7,22.2,6.4,22.2H2.1c-0.6,0-1.1-0.2-1.5-0.6S0,20.7,0,20.1v-4.2
			c0-0.6,0.2-1.1,0.6-1.5s0.9-0.6,1.5-0.6h4.2c0.6,0,1.1,0.2,1.5,0.6C8.3,14.8,8.5,15.3,8.5,15.9z M22.2,15.9v4.2
			c0,0.6-0.2,1.1-0.6,1.5s-0.9,0.6-1.5,0.6h-4.2c-0.6,0-1.1-0.2-1.5-0.6s-0.6-0.9-0.6-1.5v-4.2c0-0.6,0.2-1.1,0.6-1.5
			s0.9-0.6,1.5-0.6h4.2c0.6,0,1.1,0.2,1.5,0.6S22.2,15.3,22.2,15.9z M36,15.9v4.2c0,0.6-0.2,1.1-0.6,1.5c-0.4,0.4-0.9,0.6-1.5,0.6
			h-4.2c-0.6,0-1.1-0.2-1.5-0.6s-0.6-0.9-0.6-1.5v-4.2c0-0.6,0.2-1.1,0.6-1.5s0.9-0.6,1.5-0.6h4.2c0.6,0,1.1,0.2,1.5,0.6
			C35.8,14.8,36,15.3,36,15.9z"/>
	</g>
</g>
</svg>
