<?xml version="1.0" encoding="utf-8"?>
<!-- Generator: Adobe Illustrator 19.2.1, SVG Export Plug-In . SVG Version: 6.00 Build 0)  -->
<svg version="1.1" xmlns="http://www.w3.org/2000/svg" xmlns:xlink="http://www.w3.org/1999/xlink" x="0px" y="0px"
	 viewBox="0 0 36 36" style="enable-background:new 0 0 36 36;" xml:space="preserve">
<style type="text/css">
	.st0{display:none;}
	.st1{display:inline;fill:#FFFFFF;}
	.st2{display:inline;}
	.st3{fill:none;}
	.st4{fill:#303030;}
</style>
<g id="Layer_2" class="st0">
	<rect x="-193" y="-261" class="st1" width="583" height="601"/>
</g>
<g id="Layer_1">
	<g>
		<path d="M19.4,20V25c2-0.3,2.8-1.5,2.8-2.6C22.3,21.1,21.1,20.5,19.4,20z"/>
		<path d="M35.9,18c0-2.3-1.2-3.6-2.1-4.3c0.4-1,0.8-2.8-0.3-4.7c-1.1-1.9-2.8-2.4-3.8-2.6c-0.1-1.2-0.7-2.8-2.7-4
			c-0.9-0.5-1.9-0.8-2.8-0.8c-0.8,0-1.4,0.2-1.9,0.4c-0.7-1-2.1-2-4.3-2c-2.2,0-3.6,1-4.3,2c-0.5-0.2-1.1-0.4-1.9-0.4
			C10.9,1.7,10,2,9,2.5C7,3.7,6.5,5.3,6.4,6.4C5.3,6.5,3.6,7,2.5,9c-1.2,2.1-0.8,3.8-0.3,4.8c-0.9,0.7-2.1,2.1-2.1,4.2
			c0,2.1,1.2,3.5,2.1,4.2c-0.5,1-0.9,2.8,0.3,4.8c1.1,1.9,2.7,2.5,3.8,2.6C6.4,30.8,7,32.3,9,33.5c1,0.6,1.9,0.9,2.9,0.9
			c0.8,0,1.4-0.2,1.8-0.4c0.7,1,2.1,2,4.2,2c2.2,0,3.5-1,4.2-2c0.5,0.2,1.1,0.4,1.8,0.4c0.9,0,1.9-0.3,2.9-0.9
			c2-1.2,2.7-2.7,2.7-3.9c1-0.1,2.7-0.7,3.8-2.6c1.2-2,0.8-3.7,0.3-4.7C34.8,21.6,35.9,20.3,35.9,18z M19.4,28.1v2.6h-2.4v-2.6
			c-3.1-0.2-5.3-1.4-6.8-3.1l1.9-2.6c1.1,1.2,2.8,2.3,4.9,2.6v-5.7c-3-0.8-6.2-1.9-6.2-5.7c0-3,2.4-5.4,6.2-5.7V5.2h2.4V8
			c2.4,0.2,4.4,1.2,5.9,2.6l-2,2.6c-1.1-1.1-2.5-1.8-3.9-2.1v5.1c3.1,0.8,6.3,2,6.3,5.9C25.8,25.1,23.8,27.7,19.4,28.1z"/>
		<path d="M14.4,13.4c0,1.1,1.1,1.7,2.7,2.2V11C15.4,11.2,14.4,12.1,14.4,13.4z"/>
	</g>
</g>
</svg>
