<?xml version="1.0" encoding="utf-8"?>
<!-- Generator: Adobe Illustrator 19.2.1, SVG Export Plug-In . SVG Version: 6.00 Build 0)  -->
<svg version="1.1" xmlns="http://www.w3.org/2000/svg" xmlns:xlink="http://www.w3.org/1999/xlink" x="0px" y="0px"
	 viewBox="0 0 36 36" style="enable-background:new 0 0 36 36;" xml:space="preserve">
<style type="text/css">
	.st0{display:none;}
	.st1{display:inline;fill:#FFFFFF;}
	.st2{display:inline;}
	.st3{fill:none;}
	.st4{fill:#303030;}
</style>
<g id="Layer_2" class="st0">
	<rect x="-31" y="-369" class="st1" width="583" height="601"/>
</g>
<g id="Layer_1">
	<path d="M36,8v20c0,0.5-0.2,1-0.6,1.4C35,29.8,34.5,30,34,30H2c-0.5,0-1-0.2-1.4-0.6S0,28.5,0,28V8c0-0.5,0.2-1,0.6-1.4
		C1,6.2,1.5,6,2,6h32c0.5,0,1,0.2,1.4,0.6C35.8,7,36,7.5,36,8z M8.3,18.5l-0.9-4.6C7.3,13.3,6.9,13,6.2,13H2l0,0.2
		C5.2,14,7.3,15.8,8.3,18.5z M11.1,13l-2.5,6.8l-0.3-1.4C8,17.7,7.6,17,7,16.4c-0.6-0.6-1.3-1.1-2-1.4L7,23h2.7l4.1-10H11.1z
		 M13.3,23h2.6l1.6-10h-2.6L13.3,23z M25.3,13.3c-0.7-0.3-1.5-0.4-2.3-0.4c-1.3,0-2.3,0.3-3.1,0.9c-0.8,0.6-1.2,1.4-1.2,2.4
		c0,1.1,0.7,2,2.3,2.7c0.5,0.2,0.8,0.5,1,0.6c0.2,0.2,0.3,0.4,0.3,0.6c0,0.3-0.2,0.6-0.5,0.7s-0.7,0.2-1.1,0.2
		c-0.9,0-1.7-0.2-2.4-0.5l-0.3-0.2l-0.4,2.2c0.8,0.4,1.7,0.5,2.9,0.5c1.4,0,2.4-0.3,3.3-0.9c0.8-0.6,1.2-1.5,1.3-2.5
		c0-1.1-0.7-2-2.2-2.7c-0.5-0.3-0.9-0.5-1.1-0.7c-0.2-0.2-0.3-0.4-0.3-0.6c0-0.2,0.1-0.4,0.4-0.6c0.3-0.2,0.6-0.3,1.1-0.3
		c0.7,0,1.4,0.1,1.9,0.4l0.2,0.1L25.3,13.3z M31.9,13h-2c-0.7,0-1.1,0.3-1.4,0.8L24.7,23h2.7l0.5-1.5h3.3c0.1,0.2,0.2,0.7,0.3,1.5
		H34L31.9,13z M30.9,19.5h-2.2c0.1-0.4,0.5-1.3,1-2.8l0-0.1c0-0.1,0.1-0.2,0.2-0.4c0.1-0.2,0.1-0.3,0.1-0.4l0.2,0.9L30.9,19.5z"/>
</g>
</svg>
