<?xml version="1.0" encoding="utf-8"?>
<!-- Generator: Adobe Illustrator 19.2.1, SVG Export Plug-In . SVG Version: 6.00 Build 0)  -->
<svg version="1.1" xmlns="http://www.w3.org/2000/svg" xmlns:xlink="http://www.w3.org/1999/xlink" x="0px" y="0px"
	 viewBox="0 0 36 36" style="enable-background:new 0 0 36 36;" xml:space="preserve">
<style type="text/css">
	.st0{display:none;}
	.st1{display:inline;fill:#FFFFFF;}
	.st2{display:inline;}
	.st3{fill:none;}
	.st4{fill:#303030;}
</style>
<g id="Layer_2" class="st0">
	<rect x="-301" y="-369" class="st1" width="583" height="601"/>
</g>
<g id="Layer_1">
	<path d="M18,0C8.1,0,0,8.1,0,18c0,9.9,8.1,18,18,18c9.9,0,18-8.1,18-18C36,8.1,27.9,0,18,0z M4.4,18c0-7.5,6.1-13.6,13.6-13.6
		c2.9,0,5.5,0.9,7.7,2.4L6.8,25.7C5.3,23.5,4.4,20.9,4.4,18z M18,31.6c-2.9,0-5.5-0.9-7.7-2.4l18.9-18.9c1.5,2.2,2.4,4.8,2.4,7.7
		C31.6,25.5,25.5,31.6,18,31.6z"/>
</g>
</svg>
