<?xml version="1.0" encoding="utf-8"?>
<!-- Generator: Adobe Illustrator 19.2.1, SVG Export Plug-In . SVG Version: 6.00 Build 0)  -->
<svg version="1.1" xmlns="http://www.w3.org/2000/svg" xmlns:xlink="http://www.w3.org/1999/xlink" x="0px" y="0px"
	 viewBox="0 0 36 36" style="enable-background:new 0 0 36 36;" xml:space="preserve">
<style type="text/css">
	.st0{display:none;}
	.st1{display:inline;fill:#FFFFFF;}
	.st2{display:inline;}
	.st3{fill:none;}
	.st4{fill:#303030;}
</style>
<g id="Layer_2" class="st0">
	<rect x="-85" y="-369" class="st1" width="583" height="601"/>
</g>
<g id="Layer_1">
	<path d="M36,8v20c0,0.5-0.2,1-0.6,1.4C35,29.8,34.5,30,34,30H2c-0.5,0-1-0.2-1.4-0.6S0,28.5,0,28V8c0-0.5,0.2-1,0.6-1.4
		C1,6.2,1.5,6,2,6h32c0.5,0,1,0.2,1.4,0.6C35.8,7,36,7.5,36,8z M31.1,22.3c0.8-1.3,1.1-2.7,1.1-4.3c0-1.5-0.4-3-1.1-4.3
		c-0.8-1.3-1.8-2.3-3.1-3.1c-1.3-0.8-2.7-1.1-4.3-1.1c-1.9,0-3.6,0.6-5.1,1.7c1.3,1.2,2.2,2.7,2.7,4.4h-0.8c-0.5-1.6-1.3-2.9-2.5-4
		c-1.2,1.1-2,2.4-2.5,4h-0.8c0.5-1.7,1.3-3.2,2.7-4.4c-1.5-1.1-3.2-1.7-5.1-1.7c-1.5,0-3,0.4-4.3,1.1c-1.3,0.8-2.3,1.8-3.1,3.1
		C4.2,15,3.8,16.5,3.8,18c0,1.5,0.4,3,1.1,4.3c0.8,1.3,1.8,2.3,3.1,3.1c1.3,0.8,2.7,1.1,4.3,1.1c1.9,0,3.6-0.6,5.1-1.7
		c-1.2-1.2-2.1-2.5-2.6-4.1h0.8c0.5,1.4,1.3,2.7,2.4,3.6c1.1-1,1.9-2.2,2.4-3.6h0.8c-0.5,1.6-1.3,3-2.6,4.1c1.5,1.1,3.2,1.7,5.1,1.7
		c1.5,0,3-0.4,4.3-1.1C29.3,24.6,30.3,23.6,31.1,22.3z M7.5,16h1.4l-0.7,4.1H7.3l0.5-3.1l-1.1,3.1H6.1L6,16.9l-0.5,3.1H4.7L5.3,16
		h1.3l0,2.5L7.5,16z M11.5,17.6c0,0.1,0,0.3-0.1,0.7c-0.2,1.1-0.3,1.6-0.3,1.8h-0.7l0-0.3c-0.2,0.3-0.5,0.4-0.9,0.4
		c-0.2,0-0.4-0.1-0.6-0.3c-0.2-0.2-0.2-0.4-0.2-0.7c0-0.4,0.1-0.7,0.4-0.9c0.3-0.2,0.7-0.3,1.1-0.3c0.1,0,0.3,0,0.4,0
		c0,0,0-0.1,0-0.1c0,0,0,0,0-0.1c0,0,0,0,0,0c0-0.2-0.2-0.3-0.6-0.3c-0.3,0-0.6,0.1-0.9,0.2c0,0,0-0.3,0.1-0.7
		c0.4-0.1,0.7-0.2,1-0.2C11.1,16.7,11.5,17,11.5,17.6z M10.5,18.6h-0.2c-0.5,0-0.7,0.2-0.7,0.5c0,0.2,0.1,0.3,0.3,0.3
		c0.2,0,0.3-0.1,0.4-0.2C10.4,19,10.5,18.8,10.5,18.6z M13.9,16.7l-0.1,0.8c-0.2,0-0.4,0-0.6,0c-0.3,0-0.4,0.1-0.4,0.3
		c0,0.1,0,0.1,0.1,0.2c0,0,0.2,0.1,0.3,0.2c0.4,0.2,0.6,0.5,0.6,0.9c0,0.7-0.5,1.1-1.4,1.1c-0.4,0-0.7,0-0.9-0.1c0,0,0-0.3,0.1-0.8
		c0.3,0.1,0.6,0.1,0.8,0.1c0.3,0,0.5-0.1,0.5-0.3c0-0.1,0-0.1-0.1-0.2c0,0-0.2-0.1-0.3-0.2c-0.4-0.2-0.7-0.5-0.7-0.9
		c0-0.7,0.4-1.1,1.3-1.1C13.4,16.7,13.7,16.7,13.9,16.7z M15.3,16.7h0.4l-0.1,0.8h-0.5c0,0.2-0.1,0.4-0.1,0.6c0,0.2-0.1,0.4-0.1,0.6
		c0,0.2,0,0.3,0,0.3c0,0.2,0.1,0.2,0.3,0.2c0.1,0,0.2,0,0.3,0L15.3,20c-0.2,0.1-0.4,0.1-0.6,0.1c-0.4,0-0.7-0.2-0.7-0.7
		c0-0.1,0-0.4,0.1-0.9c0-0.2,0.2-1,0.4-2.3h0.9L15.3,16.7z M18.4,17.9c0,0.2,0,0.5-0.1,0.8h-1.7c0,0.2,0,0.4,0.2,0.5
		c0.1,0.1,0.3,0.2,0.6,0.2c0.3,0,0.6-0.1,0.9-0.2L18.1,20c-0.3,0.1-0.6,0.1-0.9,0.1c-1,0-1.5-0.5-1.5-1.5c0-0.6,0.1-1,0.4-1.4
		c0.3-0.4,0.6-0.6,1.1-0.6c0.4,0,0.7,0.1,0.9,0.3C18.3,17.2,18.4,17.5,18.4,17.9z M16.7,18h1v0c0,0,0-0.1,0-0.1c0,0,0-0.1,0-0.1
		c0,0,0-0.1,0-0.1c0,0,0-0.1-0.1-0.1c0,0-0.1-0.1-0.1-0.1c0,0-0.1,0-0.2,0C16.9,17.4,16.7,17.6,16.7,18z M20.6,16.7
		c-0.1,0.2-0.2,0.6-0.3,1c-0.2,0-0.4,0.1-0.5,0.4c-0.1,0.3-0.2,0.9-0.4,2h-0.9l0-0.2c0.2-1.4,0.4-2.4,0.5-3.1h0.8l0,0.5
		c0.1-0.2,0.3-0.4,0.4-0.5C20.3,16.7,20.4,16.7,20.6,16.7z M23.5,16.1L23.4,17c-0.3-0.1-0.6-0.2-0.8-0.2c-0.3,0-0.6,0.1-0.8,0.4
		c-0.2,0.3-0.3,0.7-0.3,1.1c0,0.3,0.1,0.6,0.2,0.7s0.3,0.3,0.6,0.3c0.2,0,0.5-0.1,0.7-0.2L22.9,20c-0.3,0.1-0.6,0.1-0.8,0.1
		c-0.5,0-0.8-0.2-1.1-0.5c-0.3-0.3-0.4-0.7-0.4-1.3c0-0.7,0.2-1.3,0.6-1.8c0.4-0.5,0.8-0.7,1.4-0.7C22.8,15.9,23.2,15.9,23.5,16.1z
		 M26.1,17.6c0,0.2,0,0.4-0.1,0.7c-0.1,0.8-0.2,1.4-0.3,1.8H25l0-0.3c-0.2,0.3-0.5,0.4-0.9,0.4c-0.2,0-0.4-0.1-0.6-0.3
		c-0.1-0.2-0.2-0.4-0.2-0.7c0-0.4,0.1-0.7,0.4-0.9c0.3-0.2,0.6-0.3,1.1-0.3c0.2,0,0.3,0,0.4,0c0-0.1,0-0.1,0-0.2
		c0-0.2-0.2-0.3-0.6-0.3c-0.3,0-0.6,0.1-0.9,0.2c0,0,0-0.3,0.1-0.7c0.4-0.1,0.7-0.2,1-0.2C25.7,16.7,26.1,17,26.1,17.6z M25.1,18.6
		h-0.2c-0.5,0-0.8,0.2-0.8,0.5c0,0.2,0.1,0.3,0.3,0.3c0.2,0,0.3-0.1,0.4-0.2C25,19,25.1,18.8,25.1,18.6z M28.3,16.7
		c-0.1,0.3-0.3,0.6-0.3,1c-0.2,0-0.4,0.1-0.5,0.4c-0.1,0.3-0.2,0.9-0.4,2h-0.9l0-0.2c0.2-1.1,0.3-2.1,0.5-3.1h0.8
		c0,0.1,0,0.3-0.1,0.5c0.2-0.2,0.3-0.4,0.4-0.5C28,16.7,28.1,16.7,28.3,16.7z M30.5,16h0.9l-0.7,4.1h-0.8l0-0.3
		c-0.2,0.2-0.5,0.4-0.8,0.4c-0.3,0-0.6-0.1-0.8-0.4c-0.2-0.2-0.3-0.6-0.3-1c0-0.6,0.1-1,0.4-1.4c0.3-0.4,0.6-0.6,1-0.6
		c0.3,0,0.6,0.2,0.8,0.5L30.5,16z M30.1,18.2c0-0.4-0.2-0.6-0.5-0.6c-0.2,0-0.4,0.1-0.5,0.3c-0.1,0.2-0.2,0.5-0.2,0.8
		c0,0.4,0.1,0.7,0.4,0.7c0.2,0,0.4-0.1,0.5-0.3C30,18.8,30.1,18.5,30.1,18.2z"/>
</g>
<g id="Layer_3">
</g>
</svg>
