<?xml version="1.0" encoding="utf-8"?>
<!-- Generator: Adobe Illustrator 19.2.1, SVG Export Plug-In . SVG Version: 6.00 Build 0)  -->
<svg version="1.1" xmlns="http://www.w3.org/2000/svg" xmlns:xlink="http://www.w3.org/1999/xlink" x="0px" y="0px"
	 viewBox="0 0 36 36" style="enable-background:new 0 0 36 36;" xml:space="preserve">
<style type="text/css">
	.st0{display:none;}
	.st1{display:inline;fill:#FFFFFF;}
	.st2{display:inline;}
	.st3{fill:none;}
	.st4{fill:#303030;}
</style>
<g id="Layer_2" class="st0">
	<rect x="-247" y="-45" class="st1" width="583" height="601"/>
</g>
<g id="Layer_1">
	<g>
		<path d="M22.1,31.5c0,0.2,0.1,0.4,0.1,0.6s0.1,0.4,0.2,0.6c-0.6,0.4-1.2,0.7-1.9,1c-0.6,0.3-1.3,0.6-1.9,0.8l-0.2,0.1
			c-0.1,0-0.1,0-0.1,0.1c0,0-0.1,0-0.1,0.1c-1.3,0.4-2.6,0.8-3.9,1C12.8,35.9,11.4,36,10,36c-1.1,0-2.2-0.1-3.3-0.2
			c-1.1-0.1-2.2-0.4-3.3-0.7c-0.6-0.2-1.2-0.5-1.6-1c-0.5-0.5-0.8-1-1-1.7c-1.1-4.2-1.1-8.3-0.2-12.2s2.6-7.4,4.9-10.4
			s5.2-5.4,8.7-7.2S21.5,0,25.5,0c1.1,0,2.2,0.1,3.4,0.2s2.3,0.4,3.4,0.7c0.6,0.1,1.1,0.4,1.5,0.8c0.4,0.4,0.7,0.9,0.8,1.4
			c0.3,1.1,0.5,2.1,0.6,3.2s0.2,2.1,0.2,3.1c0,1,0,2.1-0.1,3.1c-0.1,1-0.3,2-0.5,3c0,0.1,0,0.1,0,0.2c0,0.1,0,0.1,0,0.2l-0.1,0
			c0,0.1-0.1,0.2-0.1,0.3s0,0.2-0.1,0.3c-0.2-0.1-0.3-0.1-0.5-0.2c-0.2-0.1-0.4-0.1-0.6-0.2c0-0.1,0.1-0.2,0.1-0.4
			c0-0.1,0.1-0.3,0.1-0.4c0-0.9,0-1.8-0.2-2.8c-0.2-0.9-0.4-1.8-0.8-2.7c-0.3-0.9-0.8-1.8-1.3-2.6c-0.5-0.8-1.1-1.6-1.8-2.3
			c-1-1.1-2.1-2-3.3-2.6c-1.2-0.6-2.4-0.9-3.5-0.9V1.3c-1.6,0.2-3.2,0.5-4.7,1s-3,1.1-4.4,1.9s-2.7,1.7-4,2.8s-2.4,2.3-3.4,3.6
			c-1.1,1.5-2.1,3-2.8,4.7s-1.4,3.4-1.8,5.2h0c0,1.7,0.4,3.3,1.1,4.9s1.8,3,3.2,4.2C7,30.4,7.8,31,8.8,31.5c0.9,0.5,1.9,0.9,2.9,1.3
			c1,0.3,2,0.6,3.1,0.7s2.1,0.1,3.2,0c0.7-0.3,1.4-0.6,2.1-0.9C20.7,32.2,21.4,31.9,22.1,31.5z M10,34.8c0.6,0,1.3,0,1.9-0.1
			s1.3-0.1,1.9-0.2c-1.5-0.2-3-0.7-4.5-1.4s-2.8-1.5-4-2.6c-1-0.9-1.8-1.9-2.5-2.9c-0.7-1.1-1.2-2.2-1.6-3.3
			c-0.1,1.3-0.1,2.6,0.1,3.9s0.3,2.6,0.6,3.9c0.1,0.4,0.4,0.8,0.7,1.1C3,33.6,3.3,33.8,3.8,34c1,0.3,2.1,0.5,3.1,0.6
			C7.9,34.7,9,34.8,10,34.8z M6.5,18.7c0.6,1.2,1.3,2.2,1.9,2.9c0.7,0.7,1.6,1.3,2.8,1.9c0.1,0.1,0.2,0.2,0.3,0.3
			c0.1,0.2,0.1,0.3,0,0.4c-0.1,0.1-0.2,0.2-0.2,0.3s-0.2,0.1-0.3,0.1c0,0-0.1,0-0.1,0c0,0-0.1,0-0.1-0.1c-1.3-0.7-2.4-1.4-3.1-2.2
			c-0.8-0.8-1.5-1.8-2.1-3.2c-0.1-0.1-0.1-0.3,0-0.4s0.2-0.3,0.3-0.3c0.1-0.1,0.3-0.1,0.4,0C6.3,18.5,6.4,18.6,6.5,18.7z M14.7,19
			c0,0-0.1,0-0.1,0c0,0-0.1,0-0.1-0.1c-1.3-0.7-2.4-1.4-3.1-2.2c-0.8-0.8-1.5-1.8-2.1-3.2c-0.1-0.1-0.1-0.3,0-0.4
			c0-0.2,0.2-0.3,0.3-0.4c0.1-0.1,0.3-0.1,0.4,0c0.2,0.1,0.3,0.2,0.3,0.3c0.6,1.2,1.3,2.2,1.9,2.9c0.7,0.7,1.6,1.3,2.8,1.9
			c0.1,0.1,0.2,0.2,0.3,0.3c0.1,0.2,0.1,0.3,0,0.4c-0.1,0.1-0.2,0.2-0.2,0.3C14.9,19,14.8,19,14.7,19z M18,14.8
			c-0.6-1.2-1.3-2.2-1.9-2.9c-0.7-0.7-1.6-1.3-2.8-1.9C13.1,10,13,9.8,12.9,9.7c0-0.2,0-0.3,0-0.4C13,9.1,13.1,9,13.3,9
			c0.2-0.1,0.3-0.1,0.5,0c1.3,0.7,2.4,1.4,3.1,2.2c0.8,0.8,1.5,1.8,2.1,3.2c0.1,0.1,0.1,0.3,0,0.4c-0.1,0.2-0.2,0.3-0.3,0.4
			c0,0-0.1,0-0.1,0c0,0-0.1,0-0.1,0c-0.1,0-0.2,0-0.3-0.1C18.1,15,18,15,18,14.8z M18.8,5.8c1.3,0.7,2.4,1.4,3.1,2.2
			s1.5,1.8,2.1,3.2c0.1,0.1,0.1,0.3,0,0.4c0,0.2-0.1,0.3-0.3,0.4c0,0-0.1,0-0.1,0c0,0-0.1,0-0.1,0c-0.1,0-0.2,0-0.3-0.1
			c-0.1-0.1-0.2-0.1-0.2-0.2c-0.6-1.2-1.3-2.2-1.9-2.9c-0.7-0.7-1.6-1.3-2.8-1.9c-0.1-0.1-0.2-0.2-0.3-0.3s0-0.3,0-0.4
			c0.1-0.2,0.2-0.3,0.3-0.3C18.5,5.7,18.6,5.7,18.8,5.8z M30.3,32.7c1.2,0,2-0.2,2.4-0.6c0.4-0.4,0.6-1.2,0.7-2.3L36,30
			c-0.1,1.5-0.5,2.7-1.2,3.6S32.6,35,30.3,35c-0.5,0-1,0-1.4-0.1c-0.4,0-0.8-0.1-1.2-0.2c-0.4-0.1-0.7-0.2-1-0.3
			c-0.3-0.1-0.6-0.3-0.8-0.4c-0.2-0.1-0.4-0.3-0.5-0.4c-0.1-0.2-0.3-0.3-0.4-0.5c-0.4-0.5-0.6-1.2-0.7-1.8c-0.1-0.7-0.2-1.4-0.2-2.3
			c0-0.2,0-0.4,0-0.6s0-0.4,0-0.6c0,0,0-0.1,0-0.1s0-0.1,0-0.1c0-0.2,0-0.3,0-0.5s0-0.3,0-0.5c0-0.2,0-0.4,0-0.6s0-0.4,0-0.6
			c0-1.8,0.2-3.2,0.5-4.5c0.3-1.2,1.4-2,3-2.4c0.4-0.1,0.8-0.2,1.2-0.2c0.4,0,0.9-0.1,1.4-0.1c1.1,0,2,0.1,2.7,0.4
			c0.7,0.2,1.3,0.6,1.7,1c0.2,0.2,0.4,0.5,0.6,0.7c0.2,0.3,0.3,0.6,0.4,0.9c0.1,0.3,0.2,0.6,0.2,0.9c0.1,0.3,0.1,0.7,0.1,1.1
			l-2.2,0.2h-0.4c-0.1-1.1-0.3-1.8-0.7-2.2c-0.4-0.4-1.2-0.6-2.4-0.6c-0.6,0-1.2,0-1.6,0.1S28,20.7,27.7,21
			c-0.5,0.3-0.7,0.8-0.8,1.5c-0.1,0.7-0.1,1.7-0.1,2.8c0,0.2,0,0.4,0,0.6s0,0.4,0,0.6s0,0.4,0,0.6s0,0.4,0,0.6c0,0.2,0,0.3,0,0.5
			s0,0.3,0,0.5c0,0.2,0,0.5,0,0.7s0,0.4,0.1,0.6c0,0.4,0.1,0.7,0.2,1c0.1,0.3,0.2,0.5,0.4,0.8c0,0.1,0.1,0.1,0.2,0.2
			c0.1,0.1,0.1,0.1,0.2,0.2c0.1,0.1,0.2,0.1,0.3,0.2c0.1,0.1,0.2,0.1,0.4,0.1c0.2,0.1,0.5,0.2,0.8,0.2
			C29.5,32.7,29.9,32.7,30.3,32.7z M32,2.1c-0.9-0.2-1.7-0.4-2.6-0.6c-0.9-0.1-1.7-0.2-2.6-0.3c0.6,0.3,1.3,0.7,1.9,1.2
			s1.2,1,1.8,1.7c0.9,1,1.7,2,2.3,3.2s1.1,2.3,1.5,3.6c0-1.2,0-2.4-0.1-3.7s-0.3-2.5-0.6-3.7c-0.1-0.3-0.3-0.6-0.5-0.9
			S32.4,2.2,32,2.1z"/>
	</g>
</g>
<g id="Layer_3">
</g>
</svg>
