<?xml version="1.0" encoding="utf-8"?>
<!-- Generator: Adobe Illustrator 19.2.1, SVG Export Plug-In . SVG Version: 6.00 Build 0)  -->
<svg version="1.1" xmlns="http://www.w3.org/2000/svg" xmlns:xlink="http://www.w3.org/1999/xlink" x="0px" y="0px"
	 viewBox="0 0 36 36" style="enable-background:new 0 0 36 36;" xml:space="preserve">
<style type="text/css">
	.st0{display:none;}
	.st1{display:inline;fill:#FFFFFF;}
	.st2{display:inline;}
	.st3{fill:none;}
	.st4{fill:#303030;}
</style>
<g id="Layer_2" class="st0">
	<rect x="-355" y="-45" class="st1" width="583" height="601"/>
</g>
<g id="Layer_1">
	<g>
		<path d="M18,0c2.5,0,4.8,0.5,7,1.4s4.1,2.2,5.7,3.8s2.9,3.5,3.8,5.7s1.4,4.5,1.4,7s-0.5,4.8-1.4,7s-2.2,4.1-3.8,5.7
			s-3.5,2.9-5.7,3.8S20.5,36,18,36s-4.8-0.5-7-1.4s-4.1-2.2-5.7-3.8S2.3,27.2,1.4,25S0,20.5,0,18s0.5-4.8,1.4-7s2.2-4.1,3.8-5.7
			S8.8,2.3,11,1.4S15.5,0,18,0z M29.4,30.2c0.5-0.4,0.9-0.9,1.4-1.4s0.8-1,1.2-1.6c0-0.1-0.1-0.2-0.1-0.3s-0.1-0.2-0.1-0.3
			c0-0.3,0.1-0.5,0.3-0.7s0.4-0.3,0.7-0.3c0,0,0.1,0,0.1,0s0.1,0,0.1,0c0.6-1.1,1-2.3,1.4-3.6s0.5-2.6,0.5-4c0-1.3-0.2-2.6-0.5-3.8
			s-0.7-2.4-1.3-3.6c0,0-0.1,0-0.2,0.1s-0.1,0-0.2,0c-0.3,0-0.5-0.1-0.7-0.3s-0.3-0.5-0.3-0.8c0-0.1,0-0.3,0.1-0.4S32,9,32,8.9
			c-0.4-0.5-0.7-1.1-1.2-1.6s-0.9-1-1.3-1.4c-0.1,0.2-0.2,0.3-0.4,0.4s-0.4,0.2-0.6,0.2c-0.3,0-0.5-0.1-0.7-0.3s-0.3-0.5-0.3-0.7
			c0-0.2,0-0.4,0.1-0.5s0.2-0.3,0.3-0.4c-1.4-1-2.9-1.8-4.6-2.4S19.9,1.3,18,1.3c-2.3,0-4.5,0.4-6.5,1.3S7.7,4.7,6.2,6.2
			s-2.7,3.3-3.6,5.3S1.3,15.7,1.3,18c0,1.2,0.1,2.4,0.4,3.5s0.6,2.2,1.1,3.3s1,2,1.7,2.9s1.4,1.8,2.2,2.5c0.1-0.1,0.2-0.2,0.4-0.3
			s0.3-0.1,0.5-0.1c0.3,0,0.5,0.1,0.7,0.3s0.3,0.5,0.3,0.8c0,0.1,0,0.2-0.1,0.4s-0.1,0.2-0.2,0.3c1,0.7,2.1,1.3,3.2,1.8
			s2.3,0.9,3.6,1.1c0.1-0.1,0.2-0.3,0.4-0.3s0.3-0.1,0.5-0.1c0.2,0,0.4,0.1,0.6,0.2s0.3,0.3,0.4,0.5c0.2,0,0.4,0,0.6,0.1
			c0.2,0,0.4,0,0.6,0c0.2,0,0.4,0,0.6,0c0.2,0,0.4,0,0.6-0.1c0-0.2,0.2-0.3,0.4-0.5s0.4-0.2,0.6-0.2c0.2,0,0.4,0,0.5,0.1
			s0.3,0.2,0.4,0.3c1.2-0.2,2.4-0.6,3.6-1.1s2.2-1.1,3.2-1.8c-0.1-0.1-0.2-0.2-0.2-0.3s-0.1-0.3-0.1-0.4c0-0.3,0.1-0.6,0.3-0.8
			s0.5-0.3,0.7-0.3c0.2,0,0.4,0,0.5,0.1S29.3,30.1,29.4,30.2z M7.4,25.5c0.3,0,0.5,0.1,0.7,0.3s0.3,0.5,0.3,0.7
			c0,0.3-0.1,0.6-0.3,0.8s-0.5,0.3-0.7,0.3c-0.3,0-0.6-0.1-0.8-0.3s-0.3-0.5-0.3-0.8c0-0.3,0.1-0.5,0.3-0.7S7.1,25.5,7.4,25.5z
			 M11.6,25.5c0.3,0,0.6,0.1,0.8,0.3s0.3,0.5,0.3,0.7c0,0.3-0.1,0.6-0.3,0.8s-0.5,0.3-0.8,0.3c-0.3,0-0.5-0.1-0.7-0.3
			c-0.2-0.2-0.3-0.5-0.3-0.8c0-0.3,0.1-0.5,0.3-0.7C11.1,25.6,11.4,25.5,11.6,25.5z M11.6,29.8c0.3,0,0.6,0.1,0.8,0.3
			s0.3,0.5,0.3,0.8c0,0.3-0.1,0.5-0.3,0.7s-0.5,0.3-0.8,0.3c-0.3,0-0.5-0.1-0.7-0.3c-0.2-0.2-0.3-0.5-0.3-0.7c0-0.3,0.1-0.6,0.3-0.8
			C11.1,29.9,11.4,29.8,11.6,29.8z M15.9,21.3c0.3,0,0.5,0.1,0.7,0.3s0.3,0.5,0.3,0.8c0,0.3-0.1,0.5-0.3,0.7s-0.5,0.3-0.7,0.3
			c-0.3,0-0.6-0.1-0.8-0.3s-0.3-0.5-0.3-0.7c0-0.3,0.1-0.6,0.3-0.8S15.6,21.3,15.9,21.3z M15.9,25.5c0.3,0,0.5,0.1,0.7,0.3
			s0.3,0.5,0.3,0.7c0,0.3-0.1,0.6-0.3,0.8s-0.5,0.3-0.7,0.3c-0.3,0-0.6-0.1-0.8-0.3s-0.3-0.5-0.3-0.8c0-0.3,0.1-0.5,0.3-0.7
			S15.6,25.5,15.9,25.5z M15.9,29.8c0.3,0,0.5,0.1,0.7,0.3s0.3,0.5,0.3,0.8c0,0.3-0.1,0.5-0.3,0.7s-0.5,0.3-0.7,0.3
			c-0.3,0-0.6-0.1-0.8-0.3s-0.3-0.5-0.3-0.7c0-0.3,0.1-0.6,0.3-0.8S15.6,29.8,15.9,29.8z M20.1,17.1c0.3,0,0.6,0.1,0.8,0.3
			s0.3,0.5,0.3,0.7c0,0.3-0.1,0.6-0.3,0.8s-0.5,0.3-0.8,0.3c-0.3,0-0.5-0.1-0.7-0.3s-0.3-0.5-0.3-0.8c0-0.3,0.1-0.5,0.3-0.7
			S19.8,17.1,20.1,17.1z M20.1,21.3c0.3,0,0.6,0.1,0.8,0.3s0.3,0.5,0.3,0.8c0,0.3-0.1,0.5-0.3,0.7s-0.5,0.3-0.8,0.3
			c-0.3,0-0.5-0.1-0.7-0.3s-0.3-0.5-0.3-0.7c0-0.3,0.1-0.6,0.3-0.8S19.8,21.3,20.1,21.3z M20.1,25.5c0.3,0,0.6,0.1,0.8,0.3
			s0.3,0.5,0.3,0.7c0,0.3-0.1,0.6-0.3,0.8s-0.5,0.3-0.8,0.3c-0.3,0-0.5-0.1-0.7-0.3s-0.3-0.5-0.3-0.8c0-0.3,0.1-0.5,0.3-0.7
			S19.8,25.5,20.1,25.5z M20.1,29.8c0.3,0,0.6,0.1,0.8,0.3s0.3,0.5,0.3,0.8c0,0.3-0.1,0.5-0.3,0.7s-0.5,0.3-0.8,0.3
			c-0.3,0-0.5-0.1-0.7-0.3s-0.3-0.5-0.3-0.7c0-0.3,0.1-0.6,0.3-0.8S19.8,29.8,20.1,29.8z M24.4,12.8c0.3,0,0.5,0.1,0.7,0.3
			c0.2,0.2,0.3,0.5,0.3,0.8c0,0.3-0.1,0.5-0.3,0.7c-0.2,0.2-0.5,0.3-0.7,0.3c-0.3,0-0.6-0.1-0.8-0.3s-0.3-0.5-0.3-0.7
			c0-0.3,0.1-0.6,0.3-0.8S24.1,12.8,24.4,12.8z M24.4,17.1c0.3,0,0.5,0.1,0.7,0.3c0.2,0.2,0.3,0.5,0.3,0.7c0,0.3-0.1,0.6-0.3,0.8
			c-0.2,0.2-0.5,0.3-0.7,0.3c-0.3,0-0.6-0.1-0.8-0.3s-0.3-0.5-0.3-0.8c0-0.3,0.1-0.5,0.3-0.7S24.1,17.1,24.4,17.1z M24.4,21.3
			c0.3,0,0.5,0.1,0.7,0.3c0.2,0.2,0.3,0.5,0.3,0.8c0,0.3-0.1,0.5-0.3,0.7c-0.2,0.2-0.5,0.3-0.7,0.3c-0.3,0-0.6-0.1-0.8-0.3
			s-0.3-0.5-0.3-0.7c0-0.3,0.1-0.6,0.3-0.8S24.1,21.3,24.4,21.3z M24.4,25.5c0.3,0,0.5,0.1,0.7,0.3c0.2,0.2,0.3,0.5,0.3,0.7
			c0,0.3-0.1,0.6-0.3,0.8c-0.2,0.2-0.5,0.3-0.7,0.3c-0.3,0-0.6-0.1-0.8-0.3s-0.3-0.5-0.3-0.8c0-0.3,0.1-0.5,0.3-0.7
			S24.1,25.5,24.4,25.5z M24.4,29.8c0.3,0,0.5,0.1,0.7,0.3c0.2,0.2,0.3,0.5,0.3,0.8c0,0.3-0.1,0.5-0.3,0.7c-0.2,0.2-0.5,0.3-0.7,0.3
			c-0.3,0-0.6-0.1-0.8-0.3s-0.3-0.5-0.3-0.7c0-0.3,0.1-0.6,0.3-0.8S24.1,29.8,24.4,29.8z M28.6,8.6c0.3,0,0.6,0.1,0.8,0.3
			s0.3,0.5,0.3,0.7c0,0.3-0.1,0.6-0.3,0.8s-0.5,0.3-0.8,0.3c-0.3,0-0.5-0.1-0.7-0.3s-0.3-0.5-0.3-0.8c0-0.3,0.1-0.5,0.3-0.7
			S28.3,8.6,28.6,8.6z M28.6,12.8c0.3,0,0.6,0.1,0.8,0.3s0.3,0.5,0.3,0.8c0,0.3-0.1,0.5-0.3,0.7s-0.5,0.3-0.8,0.3
			c-0.3,0-0.5-0.1-0.7-0.3s-0.3-0.5-0.3-0.7c0-0.3,0.1-0.6,0.3-0.8S28.3,12.8,28.6,12.8z M28.6,17.1c0.3,0,0.6,0.1,0.8,0.3
			s0.3,0.5,0.3,0.7c0,0.3-0.1,0.6-0.3,0.8s-0.5,0.3-0.8,0.3c-0.3,0-0.5-0.1-0.7-0.3s-0.3-0.5-0.3-0.8c0-0.3,0.1-0.5,0.3-0.7
			S28.3,17.1,28.6,17.1z M28.6,21.3c0.3,0,0.6,0.1,0.8,0.3s0.3,0.5,0.3,0.8c0,0.3-0.1,0.5-0.3,0.7s-0.5,0.3-0.8,0.3
			c-0.3,0-0.5-0.1-0.7-0.3s-0.3-0.5-0.3-0.7c0-0.3,0.1-0.6,0.3-0.8S28.3,21.3,28.6,21.3z M28.6,25.5c0.3,0,0.6,0.1,0.8,0.3
			s0.3,0.5,0.3,0.7c0,0.3-0.1,0.6-0.3,0.8s-0.5,0.3-0.8,0.3c-0.3,0-0.5-0.1-0.7-0.3s-0.3-0.5-0.3-0.8c0-0.3,0.1-0.5,0.3-0.7
			S28.3,25.5,28.6,25.5z M32.8,14.9c-0.3,0-0.6-0.1-0.8-0.3s-0.3-0.5-0.3-0.7c0-0.3,0.1-0.6,0.3-0.8s0.5-0.3,0.8-0.3
			c0.3,0,0.5,0.1,0.7,0.3s0.3,0.5,0.3,0.8c0,0.3-0.1,0.5-0.3,0.7S33.1,14.9,32.8,14.9z M32.8,19.2c-0.3,0-0.6-0.1-0.8-0.3
			s-0.3-0.5-0.3-0.8c0-0.3,0.1-0.5,0.3-0.7s0.5-0.3,0.8-0.3c0.3,0,0.5,0.1,0.7,0.3s0.3,0.5,0.3,0.7c0,0.3-0.1,0.6-0.3,0.8
			S33.1,19.2,32.8,19.2z M32.8,23.4c-0.3,0-0.6-0.1-0.8-0.3s-0.3-0.5-0.3-0.7c0-0.3,0.1-0.6,0.3-0.8s0.5-0.3,0.8-0.3
			c0.3,0,0.5,0.1,0.7,0.3s0.3,0.5,0.3,0.8c0,0.3-0.1,0.5-0.3,0.7S33.1,23.4,32.8,23.4z"/>
	</g>
</g>
<g id="Layer_3">
</g>
</svg>
