<?xml version="1.0" encoding="utf-8"?>
<!-- Generator: Adobe Illustrator 19.2.1, SVG Export Plug-In . SVG Version: 6.00 Build 0)  -->
<svg version="1.1" xmlns="http://www.w3.org/2000/svg" xmlns:xlink="http://www.w3.org/1999/xlink" x="0px" y="0px"
	 viewBox="0 0 36 36" style="enable-background:new 0 0 36 36;" xml:space="preserve">
<style type="text/css">
	.st0{display:none;}
	.st1{display:inline;fill:#FFFFFF;}
	.st2{display:inline;}
	.st3{fill:none;}
	.st4{fill:#303030;}
</style>
<g id="Layer_2" class="st0">
	<rect x="-301" y="-315" class="st1" width="583" height="601"/>
</g>
<g id="Layer_1">
	<path d="M12.6,4.7c-1.2,0-1.6,0.8-0.8,1.7l9.7,13.8v9.1l4.4,2V20.2l9.7-13.8c0.8-0.9,0.4-1.7-0.8-1.7H12.6z"/>
	<polygon points="6.4,30.1 6.4,22.8 6.4,22.8 6.4,5.9 10.4,9.9 11.4,8.9 6.7,4.2 5.7,3.2 4.7,4.2 0,8.9 1,9.9 5,5.9 5,30.1 1,26.1 
		0,27.1 4.7,31.8 5.7,32.8 6.7,31.8 11.4,27.1 10.4,26.1 	"/>
</g>
</svg>
