<?xml version="1.0" encoding="utf-8"?>
<!-- Generator: Adobe Illustrator 19.2.1, SVG Export Plug-In . SVG Version: 6.00 Build 0)  -->
<svg version="1.1" xmlns="http://www.w3.org/2000/svg" xmlns:xlink="http://www.w3.org/1999/xlink" x="0px" y="0px"
	 viewBox="0 0 36 36" style="enable-background:new 0 0 36 36;" xml:space="preserve">
<style type="text/css">
	.st0{display:none;}
	.st1{display:inline;fill:#FFFFFF;}
	.st2{display:inline;}
	.st3{fill:none;}
	.st4{fill:#303030;}
	.st5{fill:#FFFFFF;}
	.st6{fill:#333333;}
</style>
<g id="Layer_2" class="st0">
	<rect x="-247" y="-315" class="st1" width="583" height="601"/>
</g>
<g id="Layer_1">
	<g>
		<g>
			<path d="M21.3,28.5c0,1.7-1.4,3.1-3.1,3.1h-0.6c-1.7,0-3.1-1.4-3.1-3.1H21.3 M23.3,26.5h-2h-6.7h-2v2c0,2.8,2.3,5.1,5.1,5.1h0.6
				c2.8,0,5.1-2.3,5.1-5.1V26.5L23.3,26.5z"/>
		</g>
		<g>
			<path d="M18.8,6.4c3.5,0,6.3,2.8,6.3,6.3v7.4V21l0.6,0.6l3,3c0.1,0.1,0.1,0.3,0.1,0.4v1.6H7.2l0-1.6c0-0.1,0.1-0.3,0.1-0.4
				l2.8-2.8l0.6-0.6v-0.8v-7.6c0-3.5,2.8-6.3,6.3-6.3H18.8 M18.8,4.4h-1.7c-4.6,0-8.3,3.7-8.3,8.3v7.6l-2.9,2.9
				c-0.3,0.4-0.6,1.1-0.6,1.6v2.7c0,0.5,0.4,0.9,0.9,0.9h23.7c0.5,0,0.9-0.4,0.9-0.9v-2.7c0-0.5-0.3-1.2-0.6-1.6l-3.1-3.1v-7.4
				C27.1,8.1,23.4,4.4,18.8,4.4L18.8,4.4z"/>
		</g>
	</g>
</g>
</svg>
