<?xml version="1.0" encoding="utf-8"?>
<!-- Generator: Adobe Illustrator 19.2.1, SVG Export Plug-In . SVG Version: 6.00 Build 0)  -->
<svg version="1.1" xmlns="http://www.w3.org/2000/svg" xmlns:xlink="http://www.w3.org/1999/xlink" x="0px" y="0px"
	 viewBox="0 0 36 36" style="enable-background:new 0 0 36 36;" xml:space="preserve">
<style type="text/css">
	.st0{display:none;}
	.st1{display:inline;fill:#FFFFFF;}
	.st2{display:inline;}
	.st3{fill:none;}
	.st4{fill:#303030;}
</style>
<g id="Layer_2" class="st0">
	<rect x="-409" y="-45" class="st1" width="583" height="601"/>
</g>
<g id="Layer_1">
	<g>
		<path d="M18,1.3c9.2,0,16.7,7.5,16.7,16.7S27.2,34.7,18,34.7S1.3,27.2,1.3,18S8.8,1.3,18,1.3 M18,0C8.1,0,0,8.1,0,18s8.1,18,18,18
			s18-8.1,18-18S27.9,0,18,0L18,0z"/>
	</g>
	<g>
		<path d="M13.6,6.9c0.1,0,7.2,2.4,7.2,2.4L20.4,17l-7.6,2.5l-4.4-6.4L13.6,6.9z"/>
		<path d="M25.4,2.6c0,0,1.2,2.8,1.2,4.3c0,0,3.1,1.7,5.7,4.9l1.7-1.3C34,10.5,31.1,4.3,25.4,2.6z"/>
		<path d="M31.9,19.2c0,0,1.4,2.2,1.9,5.9L30,30.5c0,0-2.5,0.1-5.8-1.4c0,0,1.8-4.8,1.8-7.2C26,21.9,28.6,21.1,31.9,19.2z"/>
		<path d="M11,26.5c0,0,3,3,5.9,4.8c0,0-1,2.3-2.3,3.4l-6.8-2.4c0,0-1.7-2.6-2.2-5.2C5.5,27.2,8.4,27.2,11,26.5z"/>
		<path d="M1.6,21.3c0,0,0.7-5.9,1.6-7.1c0,0-0.6-2.3-0.6-3.9C2.6,10.4-1.2,16.7,1.6,21.3z"/>
		<path d="M7.9,3.9c-0.1,0,5.4-3.3,10.4-3.3c0,0-4.3,1.5-5.2,2.5C13.1,3,9.6,3.2,7.9,3.9z"/>
	</g>
</g>
<g id="Layer_3">
</g>
</svg>
