<?xml version="1.0" encoding="utf-8"?>
<!-- Generator: Adobe Illustrator 19.2.1, SVG Export Plug-In . SVG Version: 6.00 Build 0)  -->
<svg version="1.1" xmlns="http://www.w3.org/2000/svg" xmlns:xlink="http://www.w3.org/1999/xlink" x="0px" y="0px"
	 viewBox="0 0 36 36" style="enable-background:new 0 0 36 36;" xml:space="preserve">
<style type="text/css">
	.st0{display:none;}
	.st1{display:inline;fill:#FFFFFF;}
	.st2{display:inline;}
	.st3{fill:none;}
	.st4{fill:#303030;}
	.st5{fill:#FFFFFF;}
	.st6{fill:#333333;}
</style>
<g id="Layer_2" class="st0">
	<rect x="-247" y="-45" class="st1" width="583" height="601"/>
</g>
<g id="Layer_1">
	<g>
		<path d="M14.7,18.9c0,0,0.1,0,0.1,0c0.1,0,0.2,0,0.3-0.1c0.1-0.1,0.2-0.1,0.2-0.3c0.1-0.1,0.1-0.3,0-0.4c-0.1-0.1-0.2-0.3-0.3-0.3
			c-1.2-0.6-2.1-1.2-2.7-1.9c-0.7-0.7-1.3-1.6-1.9-2.8c-0.1-0.1-0.2-0.2-0.3-0.3c-0.1-0.1-0.3-0.1-0.4,0c-0.2,0.1-0.3,0.2-0.3,0.4
			s0,0.3,0,0.4c0.6,1.3,1.3,2.3,2.1,3.1s1.8,1.5,3,2.1C14.6,18.9,14.7,18.9,14.7,18.9z"/>
		<path d="M22.3,31.6c0-0.2-0.1-0.4-0.1-0.6l-0.1-0.3l-0.3,0.2c-0.6,0.4-1.3,0.7-1.9,1c-0.6,0.3-1.3,0.6-2,0.8c-1,0.1-2,0.1-3,0
			c-1-0.1-2-0.3-3-0.6s-1.9-0.7-2.8-1.2c-0.9-0.5-1.7-1.1-2.5-1.7c-1.3-1.2-2.3-2.5-3.1-4c-0.7-1.5-1.1-3-1.1-4.6l0-0.1
			c0.4-1.7,0.9-3.3,1.7-4.8C4.9,14,5.9,12.5,6.9,11c1-1.3,2.1-2.4,3.3-3.5c1.2-1,2.5-1.9,3.8-2.7c1.3-0.8,2.8-1.4,4.2-1.9
			c1.4-0.4,2.8-0.8,4.3-0.9v0h0.2c1,0,2.1,0.3,3.3,0.9c1.1,0.6,2.2,1.4,3.2,2.5c0.6,0.7,1.2,1.4,1.7,2.2c0.5,0.8,0.9,1.6,1.2,2.5
			c0.3,0.9,0.6,1.7,0.7,2.6c0.2,0.9,0.2,1.8,0.2,2.6c0,0.1,0,0.2-0.1,0.4c0,0.1-0.1,0.3-0.1,0.4l0,0.2l0.7,0.3
			c0.2,0.1,0.3,0.1,0.5,0.2l0.3,0.1l0.1-0.3c0,0,0-0.2,0.1-0.4c0.1-0.3,0.1-0.6,0.1-0.6c0.2-0.9,0.4-1.9,0.5-2.9c0.1-1,0.1-2,0.1-3
			c0-1-0.1-2-0.2-3.1c-0.1-1-0.3-2.1-0.6-3.1C34.3,3,34,2.5,33.5,2c-0.4-0.4-1-0.7-1.6-0.9c-1.1-0.3-2.2-0.5-3.4-0.7
			c-1.1-0.1-2.2-0.2-3.3-0.2c-3.9,0-7.7,0.9-11,2.6C10.9,4.7,8,7,5.7,10c-2.3,2.9-3.9,6.3-4.8,10.2C0,24,0,28,1.1,32.1
			c0.2,0.6,0.5,1.2,1,1.7c0.5,0.5,1,0.8,1.7,1C4.9,35.2,6,35.4,7,35.5c1.1,0.1,2.2,0.2,3.2,0.2c1.4,0,2.7-0.1,4.1-0.3
			c1.3-0.2,2.6-0.6,3.9-1c0.1,0,0.1-0.1,0.2-0.1c0,0,0.1,0,0.1,0l0.2-0.1c0.6-0.2,1.3-0.5,1.9-0.8c0.6-0.3,1.2-0.6,1.8-1l0.2-0.1
			l-0.1-0.2C22.4,32,22.4,31.8,22.3,31.6z M12.5,34c-0.1,0-0.3,0-0.4,0c-1.7,0.1-3.3,0.1-4.9-0.1c-1-0.1-2-0.3-3-0.6
			c-0.4-0.1-0.7-0.3-1-0.6c-0.3-0.3-0.5-0.6-0.6-1c-0.3-1.3-0.5-2.5-0.6-3.8c-0.1-0.9-0.1-1.7-0.1-2.6c0.3,0.7,0.7,1.4,1.2,2.1
			c0.7,1,1.5,2,2.5,2.9c1.2,1,2.5,1.9,3.9,2.5C10.5,33.4,11.5,33.7,12.5,34z M27.6,2c0.5,0,1,0.1,1.4,0.2c0.8,0.1,1.7,0.3,2.5,0.5
			c0.3,0.1,0.6,0.2,0.8,0.4c0.2,0.2,0.4,0.4,0.4,0.7c0.3,1.2,0.5,2.4,0.6,3.6c0.1,0.7,0.1,1.4,0.1,2.1c-0.3-0.7-0.6-1.4-1-2.1
			c-0.6-1.1-1.4-2.2-2.3-3.1c-0.6-0.6-1.2-1.2-1.8-1.7C28.3,2.5,27.9,2.2,27.6,2z"/>
		<path d="M21.8,8.3c-0.8-0.8-1.8-1.5-3-2.1c-0.1-0.1-0.3-0.1-0.4,0c-0.1,0-0.3,0.1-0.3,0.3c-0.1,0.1-0.1,0.3,0,0.4
			c0,0.1,0.1,0.3,0.3,0.3c1.2,0.6,2.1,1.2,2.7,1.9c0.7,0.7,1.3,1.6,1.9,2.8c0,0.1,0.1,0.2,0.2,0.2c0.1,0.1,0.2,0.1,0.3,0.1
			c0,0,0.1,0,0.1,0c0,0,0.1,0,0.1,0c0.1-0.1,0.2-0.2,0.3-0.4c0-0.1,0-0.3,0-0.4C23.2,10,22.5,9,21.8,8.3z"/>
		<path d="M32.3,31.6c-0.4,0.4-1.2,0.6-2.3,0.6c-0.4,0-0.8,0-1.1-0.1c-0.3,0-0.6-0.1-0.8-0.2c-0.1,0-0.3-0.1-0.4-0.1
			c-0.1-0.1-0.2-0.1-0.3-0.2c-0.1,0-0.1-0.1-0.2-0.2s-0.1-0.1-0.2-0.2c-0.2-0.2-0.3-0.4-0.4-0.7c-0.1-0.3-0.1-0.6-0.2-1
			c0-0.2,0-0.4-0.1-0.6c0-0.2,0-0.4,0-0.6c0-0.1,0-0.3,0-0.4c0-0.2,0-0.3,0-0.5c0-0.2,0-0.4,0-0.6c0-0.2,0-0.4,0-0.6
			c0-0.2,0-0.4,0-0.6c0-0.2,0-0.4,0-0.6c0-1.2,0-2.1,0.1-2.8s0.4-1.2,0.8-1.5c0.3-0.2,0.6-0.3,1-0.4c0.4-0.1,0.9-0.1,1.5-0.1
			c1.1,0,1.9,0.2,2.3,0.6s0.6,1.1,0.7,2.2h0.4l2.1-0.2c0-0.4-0.1-0.7-0.1-1c-0.1-0.3-0.1-0.6-0.2-0.9c-0.1-0.3-0.2-0.6-0.4-0.9
			c-0.1-0.3-0.3-0.5-0.6-0.7c-0.4-0.4-0.9-0.7-1.6-1c-0.7-0.2-1.6-0.3-2.6-0.3c-0.5,0-1,0-1.4,0.1c-0.4,0-0.8,0.1-1.2,0.2
			c-1.6,0.4-2.6,1.2-3,2.4S24,23.4,24,25.1c0,0.2,0,0.4,0,0.6c0,0.2,0,0.4,0,0.6c0,0.2,0,0.3,0,0.5c0,0.2,0,0.3,0,0.5
			c0,0,0,0.1,0,0.1c0,0,0,0.1,0,0.1c0,0.2,0,0.4,0,0.5s0,0.4,0,0.5c0,0.8,0.1,1.5,0.2,2.2c0.1,0.7,0.3,1.3,0.7,1.8
			c0.1,0.2,0.2,0.3,0.4,0.5c0.1,0.1,0.3,0.3,0.5,0.4c0.2,0.2,0.5,0.3,0.8,0.4c0.3,0.1,0.6,0.2,0.9,0.3c0.4,0.1,0.8,0.2,1.2,0.2
			c0.4,0,0.9,0.1,1.4,0.1c2.2,0,3.6-0.4,4.3-1.3c0.7-0.9,1.1-2,1.2-3.5L33,29.4C32.9,30.5,32.7,31.2,32.3,31.6z"/>
		<path d="M11.4,23.4c-1.2-0.6-2.1-1.2-2.7-1.9c-0.7-0.7-1.3-1.6-1.9-2.8c-0.1-0.1-0.2-0.2-0.3-0.3s-0.3,0-0.4,0
			c-0.2,0.1-0.3,0.2-0.3,0.3s0,0.3,0,0.4c0.6,1.3,1.3,2.3,2.1,3.1c0.8,0.8,1.8,1.5,3,2.1c0,0,0.1,0,0.1,0.1c0,0,0.1,0,0.1,0
			c0.1,0,0.2,0,0.3-0.1c0.1-0.1,0.2-0.1,0.2-0.3c0.1-0.1,0.1-0.3,0-0.4C11.7,23.6,11.6,23.5,11.4,23.4z"/>
		<path d="M18,14.9c0,0.1,0.1,0.2,0.2,0.2s0.2,0.1,0.3,0.1c0,0,0.1,0,0.1,0c0,0,0.1,0,0.1,0c0.1-0.1,0.2-0.2,0.3-0.4
			c0.1-0.1,0.1-0.3,0-0.4c-0.6-1.3-1.3-2.3-2.1-3.1c-0.8-0.8-1.8-1.5-3-2.1c-0.2-0.1-0.3-0.1-0.5,0c-0.1,0.1-0.3,0.2-0.3,0.3
			s-0.1,0.3,0,0.4c0,0.1,0.1,0.3,0.3,0.3c1.2,0.6,2.1,1.2,2.7,1.9C16.8,12.8,17.4,13.7,18,14.9z"/>
	</g>
</g>
</svg>
