<?xml version="1.0" encoding="utf-8"?>
<!-- Generator: Adobe Illustrator 19.2.1, SVG Export Plug-In . SVG Version: 6.00 Build 0)  -->
<svg version="1.1" xmlns="http://www.w3.org/2000/svg" xmlns:xlink="http://www.w3.org/1999/xlink" x="0px" y="0px"
	 viewBox="0 0 36 36" style="enable-background:new 0 0 36 36;" xml:space="preserve">
<style type="text/css">
	.st0{display:none;}
	.st1{display:inline;fill:#FFFFFF;}
	.st2{display:inline;}
	.st3{fill:none;}
	.st4{fill:#303030;}
	.st5{fill:#FFFFFF;}
	.st6{fill:#333333;}
</style>
<g id="Layer_2" class="st0">
	<rect x="-31" y="-45" class="st1" width="583" height="601"/>
</g>
<g id="Layer_1">
	<g>
		<path d="M15.3,17.9c-1.2-0.6-2.1-1.2-2.8-1.9c-0.7-0.7-1.3-1.6-1.9-2.8c-0.1-0.1-0.2-0.2-0.3-0.3c-0.1-0.1-0.3-0.1-0.4,0
			c-0.2,0.1-0.3,0.2-0.3,0.4c0,0.1,0,0.3,0,0.4c0.7,1.3,1.4,2.3,2.1,3.1c0.8,0.8,1.8,1.5,3.1,2.1c0,0,0.1,0,0.1,0.1c0,0,0.1,0,0.1,0
			c0.1,0,0.2,0,0.3-0.1c0.1-0.1,0.2-0.1,0.2-0.3c0.1-0.1,0.1-0.3,0-0.4C15.5,18,15.4,17.9,15.3,17.9z"/>
		<path d="M11.6,23.4c-1.2-0.6-2.1-1.2-2.8-1.9c-0.7-0.7-1.3-1.6-1.9-2.8c-0.1-0.1-0.2-0.2-0.3-0.3c-0.2,0-0.3,0-0.4,0
			c-0.1,0.1-0.2,0.2-0.3,0.3c-0.1,0.1-0.1,0.3,0,0.4c0.7,1.3,1.4,2.3,2.1,3.1c0.8,0.8,1.8,1.5,3.1,2.1c0,0,0.1,0,0.1,0.1
			c0,0,0.1,0,0.1,0c0.1,0,0.2,0,0.3-0.1c0.1-0.1,0.2-0.1,0.2-0.3c0.1-0.1,0.1-0.3,0-0.4C11.8,23.6,11.7,23.5,11.6,23.4z"/>
		<path d="M34.9,3.5L34.9,3.5C34.7,3,34.4,2.5,34,2c-0.4-0.4-1-0.7-1.6-0.9c-1.1-0.3-2.3-0.5-3.4-0.7c-1.1-0.1-2.2-0.2-3.3-0.2
			c-4,0-7.8,0.9-11.2,2.6C11,4.7,8.1,7,5.8,10c-2.3,2.9-4,6.3-4.9,10.2C0,24,0,28,1.1,32.1c0.2,0.7,0.5,1.2,1,1.7
			c0.5,0.5,1.1,0.8,1.7,1c1.1,0.3,2.2,0.5,3.3,0.7c1.1,0.1,2.2,0.2,3.3,0.2c4,0,7.8-0.9,11.2-2.7c3.4-1.8,6.4-4.2,8.7-7.1
			c2.3-3,3.9-6.4,4.8-10.3C36,11.8,35.9,7.7,34.9,3.5z M33.5,3.7l-0.2,0.2c0.5,1.8,0.7,3.7,0.8,5.6c0,1.8-0.1,3.7-0.5,5.5
			c-0.4,1.8-0.9,3.5-1.7,5.2c-0.8,1.7-1.8,3.3-2.9,4.7c-1.1,1.5-2.4,2.8-3.8,3.9c-1.4,1.1-2.9,2.1-4.5,2.9c-1.6,0.8-3.2,1.4-5,1.8
			c-2.7,0.6-5.5,0.8-8.4,0.4c-1-0.1-2.1-0.3-3-0.6c-0.2-0.1-0.3-0.1-0.5-0.2C3.7,33,3.6,33,3.5,32.9c0,0,0,0,0-0.1l2.9-5.6
			c0.1-0.2,0.1-0.3,0-0.5c-0.1-0.2-0.2-0.4-0.4-0.5c-0.2-0.1-0.4-0.1-0.6-0.1c-0.3,0.1-0.4,0.3-0.4,0.4l-2.5,4.9
			c0-0.1-0.1-0.2-0.1-0.4c-0.4-1.8-0.6-3.6-0.6-5.3c0-1.8,0.2-3.5,0.6-5.2c0.4-1.7,1-3.4,1.7-5C5,14,5.9,12.5,7,11.1
			c1.1-1.4,2.4-2.7,3.8-3.9c1.4-1.1,2.9-2.1,4.5-2.9c1.6-0.8,3.3-1.4,5-1.8c2.7-0.6,5.7-0.8,8.5-0.4c1,0.1,2.1,0.3,3.2,0.6l-4.8,2.5
			c-0.2,0.1-0.3,0.2-0.3,0.4c-0.1,0.2-0.1,0.4,0.1,0.6c0.1,0.1,0.1,0.2,0.2,0.2c0.2,0.1,0.4,0.2,0.6,0.1c0,0,0.1,0,0.2-0.1l5.3-2.8
			c0,0,0,0,0,0L33.5,3.7C33.5,3.7,33.5,3.7,33.5,3.7z"/>
		<path d="M17.1,11.4c-0.8-0.8-1.8-1.5-3.1-2.1c-0.1-0.1-0.3-0.1-0.4,0c-0.1,0.1-0.3,0.2-0.3,0.3c-0.1,0.1-0.1,0.3,0,0.4
			c0,0.1,0.1,0.3,0.3,0.3c1.2,0.6,2.1,1.2,2.8,1.9c0.7,0.7,1.3,1.6,1.9,2.8c0,0.1,0.1,0.2,0.2,0.2c0.1,0,0.2,0.1,0.3,0.1
			c0,0,0.1,0,0.1,0c0,0,0.1,0,0.1,0c0.1-0.1,0.2-0.2,0.3-0.4c0.1-0.1,0.1-0.3,0-0.4C18.6,13.1,17.9,12.1,17.1,11.4z"/>
		<path d="M22.1,8.3c-0.8-0.8-1.8-1.5-3.1-2.1c-0.1-0.1-0.3-0.1-0.4,0c-0.1,0-0.3,0.1-0.4,0.3c-0.1,0.1-0.1,0.3,0,0.4
			c0.1,0.1,0.2,0.3,0.3,0.3c1.2,0.6,2.1,1.2,2.8,1.9c0.7,0.7,1.3,1.6,1.9,2.8c0.1,0.1,0.1,0.2,0.2,0.2c0.1,0.1,0.2,0.1,0.3,0.1
			c0,0,0.1,0,0.1,0c0,0,0.1,0,0.1,0c0.1-0.1,0.2-0.2,0.3-0.4c0.1-0.1,0.1-0.3,0-0.4C23.5,10.1,22.8,9,22.1,8.3z"/>
	</g>
</g>
</svg>
