<?xml version="1.0" encoding="utf-8"?>
<!-- Generator: Adobe Illustrator 19.2.1, SVG Export Plug-In . SVG Version: 6.00 Build 0)  -->
<svg version="1.1" xmlns="http://www.w3.org/2000/svg" xmlns:xlink="http://www.w3.org/1999/xlink" x="0px" y="0px"
	 viewBox="0 0 36 36" style="enable-background:new 0 0 36 36;" xml:space="preserve">
<style type="text/css">
	.st0{display:none;}
	.st1{display:inline;fill:#FFFFFF;}
	.st2{display:inline;}
	.st3{fill:none;}
	.st4{fill:#303030;}
	.st5{fill:#FFFFFF;}
	.st6{fill:#333333;}
</style>
<g id="Layer_2" class="st0">
	<rect x="-31" y="-207" class="st1" width="583" height="601"/>
</g>
<g id="Layer_1">
	<g>
		<path d="M34,0c0.5,0,1,0.2,1.4,0.6C35.8,1,36,1.4,36,2v32c0,0.5-0.2,1-0.6,1.4C35,35.8,34.6,36,34,36h-9V22h4.5l0.7-5H25v-3.8
			c0-0.9,0.1-1.5,0.5-2c0.4-0.4,0.8-0.7,1.9-0.7l2.6,0V5.7c-1-0.1-2.2-0.2-4-0.2c-2.1,0-3.8,0.6-5.1,1.9c-1.3,1.3-1.9,3-1.9,5.3V17
			h-4v5h4v14H2c-0.5,0-1-0.2-1.4-0.6C0.2,35,0,34.6,0,34V2c0-0.5,0.2-1,0.6-1.4C1,0.2,1.4,0,2,0H34z"/>
	</g>
</g>
</svg>
