<?xml version="1.0" encoding="utf-8"?>
<!-- Generator: Adobe Illustrator 19.2.1, SVG Export Plug-In . SVG Version: 6.00 Build 0)  -->
<svg version="1.1" xmlns="http://www.w3.org/2000/svg" xmlns:xlink="http://www.w3.org/1999/xlink" x="0px" y="0px"
	 viewBox="0 0 36 36" style="enable-background:new 0 0 36 36;" xml:space="preserve">
<style type="text/css">
	.st0{display:none;}
	.st1{display:inline;fill:#FFFFFF;}
	.st2{display:inline;}
	.st3{fill:none;}
	.st4{fill:#303030;}
</style>
<g id="Layer_2" class="st0">
	<rect x="-193" y="-207" class="st1" width="583" height="601"/>
</g>
<g id="Layer_1">
	<g>
		<path d="M20,20.7L20.3,36c-0.9-0.2-1.7-0.2-2.3-0.2c-0.6,0-1.3,0.1-2.3,0.2L16,20.7c-0.6-1-1.8-3.1-3.6-6.4s-3.4-6-4.7-8.1
			S5.1,2,3.7,0c0.8,0.2,1.6,0.3,2.3,0.3c0.6,0,1.4-0.1,2.4-0.3c0.9,1.6,1.9,3.3,2.9,5c1,1.7,2.2,3.7,3.6,6c1.4,2.3,2.4,3.9,3,4.9
			c0.5-0.9,1.3-2.2,2.4-3.8c1-1.7,1.9-3.1,2.5-4.1s1.4-2.3,2.3-3.8C26,2.6,26.8,1.3,27.5,0c0.8,0.2,1.6,0.3,2.3,0.3
			c0.8,0,1.6-0.1,2.5-0.3c-0.4,0.6-0.8,1.2-1.3,1.9c-0.5,0.7-0.8,1.3-1.1,1.7c-0.3,0.4-0.7,1.1-1.2,2.1c-0.6,1-0.9,1.6-1.1,1.8
			C25.5,11.1,23,15.5,20,20.7z"/>
	</g>
</g>
<g id="Layer_3">
</g>
</svg>
