<?xml version="1.0" encoding="utf-8"?>
<!-- Generator: Adobe Illustrator 19.2.1, SVG Export Plug-In . SVG Version: 6.00 Build 0)  -->
<svg version="1.1" xmlns="http://www.w3.org/2000/svg" xmlns:xlink="http://www.w3.org/1999/xlink" x="0px" y="0px"
	 viewBox="0 0 36 36" style="enable-background:new 0 0 36 36;" xml:space="preserve">
<style type="text/css">
	.st0{display:none;}
	.st1{display:inline;fill:#FFFFFF;}
	.st2{display:inline;}
	.st3{fill:none;}
	.st4{fill:#303030;}
</style>
<g id="Layer_2" class="st0">
	<rect x="-247" y="-369" class="st1" width="583" height="601"/>
</g>
<g id="Layer_1">
	<path d="M18,0C8.1,0,0,8.1,0,18c0,9.9,8.1,18,18,18s18-8.1,18-18C36,8.1,27.9,0,18,0z M18,28.1c-1.1,0-2.1-0.9-2.1-2.1
		c0-1.1,0.9-2.1,2.1-2.1c1.1,0,2.1,0.9,2.1,2.1C20.1,27.2,19.2,28.1,18,28.1z M21.1,17.1c-1.1,0.8-2.1,1.5-2.1,2.7
		c0,0.5,0.3,1,0.6,1.3L17,22c-0.7-0.7-1.1-1.5-1.1-2.5c0-2,1.4-3,2.7-3.9c1.1-0.8,2.1-1.4,2.1-2.6c0-1.1-0.9-2.1-2.8-2.1
		c-1.8,0-3.1,0.8-4.1,2.1l-2-2.2c1.5-1.8,3.8-2.9,6.4-2.9c3.7,0,6,2,6,4.6C24.2,14.9,22.5,16.1,21.1,17.1z"/>
</g>
<g id="Layer_3">
</g>
</svg>
