<?xml version="1.0" encoding="utf-8"?>
<!-- Generator: Adobe Illustrator 19.2.1, SVG Export Plug-In . SVG Version: 6.00 Build 0)  -->
<svg version="1.1" xmlns="http://www.w3.org/2000/svg" xmlns:xlink="http://www.w3.org/1999/xlink" x="0px" y="0px"
	 viewBox="0 0 36 36" style="enable-background:new 0 0 36 36;" xml:space="preserve">
<style type="text/css">
	.st0{display:none;}
	.st1{display:inline;fill:#FFFFFF;}
	.st2{display:inline;}
	.st3{fill:none;}
	.st4{fill:#303030;}
	.st5{fill:#FFFFFF;}
	.st6{fill:#333333;}
</style>
<g id="Layer_2" class="st0">
	<rect x="-301" y="-153" class="st1" width="583" height="601"/>
</g>
<g id="Layer_1">
	<path d="M36,33.9l-9.4-9.4c2.1-2.6,3.4-5.9,3.4-9.5c0-8.3-6.7-15-15-15C6.7,0,0,6.7,0,15c0,8.3,6.7,15,15,15c3.6,0,6.9-1.3,9.5-3.4
		l9.4,9.4L36,33.9z M15,27C8.4,27,3,21.6,3,15S8.4,3,15,3s12,5.4,12,12S21.6,27,15,27z"/>
</g>
</svg>
