<?xml version="1.0" encoding="utf-8"?>
<!-- Generator: Adobe Illustrator 19.2.1, SVG Export Plug-In . SVG Version: 6.00 Build 0)  -->
<svg version="1.1" xmlns="http://www.w3.org/2000/svg" xmlns:xlink="http://www.w3.org/1999/xlink" x="0px" y="0px"
	 viewBox="0 0 36 36" style="enable-background:new 0 0 36 36;" xml:space="preserve">
<style type="text/css">
	.st0{display:none;}
	.st1{display:inline;fill:#FFFFFF;}
	.st2{display:inline;}
	.st3{fill:none;}
	.st4{fill:#303030;}
	.st5{fill:#FFFFFF;}
	.st6{fill:#333333;}
</style>
<g id="Layer_2" class="st0">
	<rect x="-85" y="-207" class="st1" width="583" height="601"/>
</g>
<g id="Layer_1">
	<g>
		<path d="M36,6.9c-1,1.5-2.3,2.8-3.7,3.8c0,0.2,0,0.5,0,1c0,2-0.3,4-0.9,5.9c-0.6,2-1.5,3.9-2.6,5.7c-1.2,1.8-2.6,3.4-4.2,4.8
			c-1.6,1.4-3.6,2.5-5.9,3.3c-2.3,0.8-4.8,1.2-7.4,1.2c-4.1,0-7.9-1.1-11.3-3.3c0.5,0.1,1.1,0.1,1.8,0.1c3.4,0,6.5-1.1,9.2-3.2
			c-1.6,0-3-0.5-4.3-1.5c-1.3-1-2.1-2.2-2.6-3.6c0.5,0.1,1,0.1,1.4,0.1c0.7,0,1.3-0.1,1.9-0.3c-1.7-0.3-3.3-1.2-4.5-2.5
			S1,15.5,1,13.8v-0.1c1,0.6,2.4,0.9,3.6,0.9c-1-0.7-1.7-1.5-2.3-2.6c-0.6-1.1-0.8-2.3-0.8-3.5c0-1.3,0.4-2.6,1-3.7
			C4.3,7,6.6,8.8,9.2,10.2s5.5,2.1,8.5,2.3c-0.1-0.6-0.2-1.1-0.2-1.7c0-2,0.7-3.8,2.2-5.2c1.4-1.4,3.2-2.2,5.2-2.2
			c2.1,0,3.9,0.8,5.4,2.3C32,5.4,33.5,4.8,35,3.9C34.4,5.7,33.3,7,31.7,8C33.2,7.8,34.6,7.5,36,6.9z"/>
	</g>
</g>
</svg>
