<?xml version="1.0" encoding="utf-8"?>
<!-- Generator: Adobe Illustrator 19.2.1, SVG Export Plug-In . SVG Version: 6.00 Build 0)  -->
<svg version="1.1" xmlns="http://www.w3.org/2000/svg" xmlns:xlink="http://www.w3.org/1999/xlink" x="0px" y="0px"
	 viewBox="0 0 36 36" style="enable-background:new 0 0 36 36;" xml:space="preserve">
<style type="text/css">
	.st0{display:none;}
	.st1{display:inline;fill:#FFFFFF;}
	.st2{display:inline;}
	.st3{fill:none;}
	.st4{fill:#303030;}
	.st5{fill:#FFFFFF;}
	.st6{fill:#333333;}
</style>
<g id="Layer_2" class="st0">
	<rect x="-247" y="-261" class="st1" width="583" height="601"/>
</g>
<g id="Layer_1">
	<g>
		<path d="M35.9,18c0-2-0.8-3.4-1.8-4.4c0.3-1.3,0.4-2.9-0.6-4.6c-1-1.7-2.4-2.5-3.6-2.8C29.6,5,28.8,3.5,27,2.5
			c-1-0.6-2.1-0.9-3.2-0.9c-0.5,0-1,0.1-1.5,0.2C21.4,0.9,20,0.1,18,0.1c-2,0-3.4,0.8-4.3,1.7c-0.4-0.1-0.9-0.2-1.5-0.2
			c-1.1,0-2.1,0.3-3.1,0.9c-1.8,1-2.6,2.4-2.9,3.7C5,6.5,3.5,7.2,2.5,9c-1,1.8-1,3.5-0.6,4.7c-0.9,1-1.8,2.4-1.8,4.2
			c0,1.9,0.8,3.3,1.8,4.2c-0.4,1.3-0.4,3,0.6,4.7c1,1.8,2.4,2.5,3.6,2.8c0.3,1.3,1.1,2.7,3,3.7c1.1,0.6,2.2,0.9,3.2,0.9
			c0.5,0,1-0.1,1.4-0.2c0.9,0.9,2.3,1.7,4.3,1.7c2,0,3.4-0.8,4.3-1.7c0.4,0.1,0.9,0.2,1.4,0.2c1.1,0,2.2-0.3,3.2-0.9
			c1.9-1.1,2.7-2.5,3-3.7c1.1-0.3,2.6-1.1,3.6-2.8c1-1.7,1-3.4,0.7-4.6C35.1,21.4,35.9,20,35.9,18z M31.6,21.7c0,0,1.6,1.8,0.2,4.3
			c-1,1.8-2.6,2.1-3.4,2.1c-0.3,0-0.4,0-0.4,0s0.8,2.2-2,3.8c-0.9,0.5-1.6,0.7-2.2,0.7c-1.3,0-2.1-0.8-2.1-0.8S21,33.9,18,33.9
			c-3,0-3.7-2.3-3.7-2.3s-0.7,0.8-2.1,0.8c-0.6,0-1.4-0.2-2.2-0.7C7.3,30.2,8,28,8,28s-0.1,0-0.4,0c-0.7,0-2.4-0.2-3.4-2
			c-1.4-2.4,0.1-4.3,0.1-4.3S2.1,20.5,2.1,18c0-2.5,2.3-3.7,2.3-3.7S2.8,12.5,4.2,10C5.3,8.2,6.8,8,7.6,8C7.8,8,8,8,8,8
			s-0.6-2.3,2-3.8c0.8-0.5,1.5-0.6,2.1-0.6c1.3,0,2.2,0.8,2.2,0.8S15,2.1,18,2.1c3,0,3.7,2.3,3.7,2.3s0.8-0.8,2.1-0.8
			c0.6,0,1.3,0.2,2.2,0.6C28.6,5.7,28,8,28,8s0.1,0,0.2,0c0.7,0,2.5,0.2,3.6,2c1.3,2.3-0.1,4.3-0.1,4.3s2.3,0.9,2.3,3.7
			C33.9,20.8,31.6,21.7,31.6,21.7z"/>
		<path d="M19.4,16.2v-5.1c1.5,0.3,2.8,1,3.9,2.1l2-2.6c-1.5-1.5-3.5-2.4-5.9-2.6V5.2h-2.4V8c-3.8,0.3-6.2,2.7-6.2,5.7
			c0,3.8,3.2,4.9,6.2,5.7V25c-2.1-0.3-3.8-1.4-4.9-2.6l-1.9,2.6c1.6,1.6,3.8,2.8,6.8,3.1v2.6h2.4v-2.6c4.4-0.4,6.3-3,6.3-6
			C25.8,18.2,22.5,17,19.4,16.2z M17.1,15.6c-1.6-0.4-2.7-1-2.7-2.2c0-1.3,1-2.2,2.7-2.4V15.6z M19.4,25V20c1.6,0.5,2.8,1.1,2.8,2.5
			C22.3,23.6,21.5,24.7,19.4,25z"/>
	</g>
</g>
</svg>
