<?xml version="1.0" encoding="utf-8"?>
<!-- Generator: Adobe Illustrator 19.2.1, SVG Export Plug-In . SVG Version: 6.00 Build 0)  -->
<svg version="1.1" xmlns="http://www.w3.org/2000/svg" xmlns:xlink="http://www.w3.org/1999/xlink" x="0px" y="0px"
	 viewBox="0 0 36 36" style="enable-background:new 0 0 36 36;" xml:space="preserve">
<style type="text/css">
	.st0{display:none;}
	.st1{display:inline;fill:#FFFFFF;}
	.st2{display:inline;}
	.st3{fill:none;}
	.st4{fill:#303030;}
</style>
<g id="Layer_2" class="st0">
	<rect x="-139" y="-369" class="st1" width="583" height="601"/>
</g>
<g id="Layer_1">
	<path d="M36,24.3v3.6c0,0.6-0.2,1.1-0.6,1.5C35,29.8,34.5,30,33.9,30H2.1c-0.6,0-1.1-0.2-1.5-0.6C0.2,29,0,28.5,0,27.9V17.3h1.7
		l0.4-1H3l0.4,1h3.4v-0.7l0.3,0.7h1.8l0.3-0.7v0.7h8.5v-1.5l0.2,0c0.1,0,0.2,0.1,0.2,0.2v1.3h4.4V17c0.2,0.1,0.5,0.2,0.9,0.3
		c0.3,0.1,0.6,0.1,0.8,0.1c0.2,0,0.5,0,1,0c0.4,0,0.7,0,0.8,0l0.4-1H27l0.4,1H31v-0.9l0.5,0.9h2.8v-5.9h-2.8v0.7l-0.4-0.7h-2.9v0.7
		l-0.4-0.7H24c-0.7,0-1.3,0.1-1.7,0.3v-0.3h-2.7v0.3c-0.3-0.2-0.6-0.3-1.1-0.3H8.6L8,12.9l-0.7-1.5H4.2v0.7l-0.3-0.7H1.2L0,14.2V8.1
		C0,7.5,0.2,7,0.6,6.6C1,6.2,1.5,6,2.1,6h31.9c0.6,0,1.1,0.2,1.5,0.6C35.8,7,36,7.5,36,8.1v10.6h-1.9c-0.5,0-1,0.1-1.3,0.3v-0.3
		h-2.8c-0.6,0-1,0.1-1.2,0.3v-0.3h-4.9V19c-0.3-0.2-0.8-0.3-1.4-0.3h-3.3V19c-0.2-0.2-0.7-0.3-1.4-0.3h-3.7l-0.8,0.9l-0.8-0.9H7.2
		v5.9h5.4l0.9-0.9l0.8,0.9h3.3v-1.4h0.3c0.6,0,1.1-0.1,1.4-0.2v1.6h2.7V23h0.1c0.1,0,0.1,0,0.2,0c0,0,0,0.1,0,0.2v1.4h8.3
		c0.6,0,1.1-0.1,1.4-0.4v0.4h2.6C35.1,24.6,35.6,24.5,36,24.3z M10.9,12.2v4.2h-1v-3.3l-1.5,3.3H7.5l-1.5-3.3v3.3H4l-0.4-0.9H1.5
		l-0.4,0.9H0l1.8-4.2h1.5l1.7,4v-4h1.7L8,15.1l1.2-2.9H10.9z M1.9,14.7h1.4L2.5,13L1.9,14.7z M19.6,20.9c0,0.2,0,0.4-0.1,0.5
		c-0.1,0.2-0.1,0.3-0.2,0.4c-0.1,0.1-0.2,0.2-0.4,0.3c-0.1,0.1-0.3,0.1-0.4,0.2c-0.1,0-0.3,0.1-0.5,0.1c-0.2,0-0.4,0-0.5,0
		s-0.3,0-0.5,0c-0.2,0-0.4,0-0.5,0v1.4h-2l-1.3-1.4l-1.3,1.4h-4v-4.2h4.1l1.2,1.4l1.3-1.4h3.2C19,19.5,19.6,20,19.6,20.9z
		 M11.6,22.9l1.2-1.2l-1.1-1.2H9.1v0.8h2.2V22H9.1v0.8H11.6z M15.1,15.6v0.9h-3.4v-4.2h3.4v0.9h-2.4v0.8H15v0.9h-2.3v0.8H15.1z
		 M14,21.7l1.5,1.7V20L14,21.7z M19.8,13.4c0,0.2-0.1,0.5-0.2,0.7c-0.1,0.2-0.3,0.4-0.5,0.5c0.3,0.1,0.5,0.2,0.5,0.4
		c0.1,0.2,0.1,0.4,0.1,0.7v0.8h-1c0-0.1,0-0.2,0-0.4c0-0.2,0-0.3,0-0.4c0-0.1,0-0.2,0-0.3c0-0.1-0.1-0.2-0.1-0.2S18.4,15,18.3,15
		c-0.1,0-0.3-0.1-0.5-0.1h-1.1v1.5h-1v-4.2l2.4,0c0.5,0,0.9,0.1,1.2,0.2C19.7,12.6,19.8,12.9,19.8,13.4z M18.5,20.9
		c0-0.3-0.2-0.5-0.6-0.5h-1.3v1.1h1.3C18.3,21.5,18.5,21.3,18.5,20.9z M18.7,13.6c0-0.3-0.2-0.5-0.7-0.5h-1.3v0.9H18
		C18.5,14.1,18.7,13.9,18.7,13.6z M24.2,20.7c0,0.2-0.1,0.5-0.2,0.7c-0.1,0.2-0.3,0.4-0.5,0.5c0.3,0.1,0.4,0.2,0.5,0.4
		c0.1,0.2,0.1,0.4,0.1,0.7v0.8h-1v-0.7c0-0.3-0.1-0.6-0.2-0.7c-0.1-0.1-0.4-0.2-0.7-0.2h-1.1v1.5h-1v-4.2h2.4c0.5,0,0.9,0.1,1.2,0.2
		C24,19.9,24.2,20.2,24.2,20.7z M21.4,12.2v4.2h-1v-4.2H21.4z M23,20.9c0-0.3-0.2-0.5-0.7-0.5h-1.3v1h1.3C22.8,21.4,23,21.2,23,20.9
		z M33.4,12.2v4.2H32l-1.9-3.2v3.2H28l-0.4-0.9h-2.1l-0.4,0.9H24c-1.3,0-2-0.7-2-2.1c0-1.4,0.7-2.2,2.1-2.2h1v0.9
		c-0.1,0-0.2,0-0.4,0c-0.2,0-0.4,0-0.4,0c-0.1,0-0.2,0-0.4,0c-0.2,0-0.3,0.1-0.3,0.1s-0.1,0.1-0.2,0.2c-0.1,0.1-0.1,0.2-0.2,0.4
		c0,0.2,0,0.3,0,0.5c0,0.4,0.1,0.7,0.2,0.9c0.1,0.2,0.4,0.3,0.8,0.3h0.5l1.4-3.3h1.5l1.7,4v-4h1.5l1.8,2.9v-2.9H33.4z M28.1,22.9
		v0.9h-3.4v-4.2h3.4v0.9h-2.4v0.8H28V22h-2.3v0.8L28.1,22.9z M25.9,14.7h1.4L26.6,13L25.9,14.7z M32.3,22.4c0,0.9-0.5,1.3-1.6,1.3
		h-2v-0.9h2c0.4,0,0.5-0.1,0.5-0.4c0-0.2-0.1-0.3-0.3-0.3c-0.2-0.1-0.4-0.1-0.6-0.1c-0.3,0-0.5,0-0.8-0.1c-0.3,0-0.5-0.2-0.7-0.4
		c-0.2-0.2-0.3-0.5-0.3-0.9c0-0.4,0.1-0.7,0.4-0.9c0.3-0.2,0.6-0.3,1-0.3h2v0.9h-1.9c-0.4,0-0.6,0.1-0.6,0.4c0,0.2,0.1,0.3,0.3,0.3
		c0.2,0,0.4,0.1,0.7,0.1c0.3,0,0.5,0,0.8,0c0.3,0,0.5,0.1,0.7,0.3C32.2,21.8,32.3,22,32.3,22.4z M36,21.6v1.6
		c-0.3,0.4-0.7,0.5-1.4,0.5h-2v-0.9h2c0.3,0,0.5-0.1,0.5-0.4c0-0.1-0.1-0.2-0.2-0.3c-0.1-0.1-0.3-0.1-0.5-0.1c-0.2,0-0.4,0-0.6,0
		c-0.2,0-0.4-0.1-0.6-0.1c-0.2-0.1-0.4-0.2-0.5-0.4c-0.1-0.2-0.2-0.4-0.2-0.8c0-0.4,0.1-0.7,0.4-0.9c0.3-0.2,0.6-0.3,1-0.3h2v0.9
		h-1.8c-0.4,0-0.6,0.1-0.6,0.4c0,0.2,0.2,0.3,0.5,0.3c0.3,0,0.7,0,1.1,0.1C35.5,21.3,35.8,21.4,36,21.6z"/>
</g>
<g id="Layer_3">
</g>
</svg>
