<?xml version="1.0" encoding="utf-8"?>
<!-- Generator: Adobe Illustrator 19.2.1, SVG Export Plug-In . SVG Version: 6.00 Build 0)  -->
<svg version="1.1" xmlns="http://www.w3.org/2000/svg" xmlns:xlink="http://www.w3.org/1999/xlink" x="0px" y="0px"
	 viewBox="0 0 36 36" style="enable-background:new 0 0 36 36;" xml:space="preserve">
<style type="text/css">
	.st0{display:none;}
	.st1{display:inline;fill:#FFFFFF;}
	.st2{display:inline;}
	.st3{fill:none;}
	.st4{fill:#303030;}
</style>
<g id="Layer_2" class="st0">
	<rect x="-355" y="-423" class="st1" width="583" height="601"/>
</g>
<g id="Layer_1">
	<g>
		<path d="M34.6,11c-0.9-2.2-2.2-4.1-3.8-5.7c-1.6-1.6-3.5-2.9-5.7-3.8C22.8,0.5,20.5,0,18,0s-4.8,0.5-7,1.4
			C8.8,2.4,6.9,3.7,5.3,5.3C3.6,6.9,2.4,8.8,1.4,11C0.5,13.2,0,15.6,0,18s0.5,4.8,1.4,7c0.9,2.2,2.2,4.1,3.8,5.7
			c1.6,1.6,3.5,2.9,5.7,3.8c2.2,0.9,4.5,1.4,7,1.4s4.8-0.5,7-1.4c2.2-0.9,4.1-2.2,5.7-3.8c1.6-1.6,2.9-3.5,3.8-5.7
			c0.9-2.2,1.4-4.5,1.4-7S35.5,13.2,34.6,11z M31.4,26.7c0,0.1,0.1,0.2,0.1,0.3c-0.3,0.5-0.7,1-1.1,1.5c-0.4,0.5-0.9,1-1.3,1.4
			c-0.1-0.1-0.2-0.2-0.3-0.3s-0.3-0.1-0.5-0.1c-0.3,0-0.5,0.1-0.7,0.3c-0.2,0.2-0.3,0.4-0.3,0.7c0,0.1,0,0.2,0.1,0.4
			c0,0.1,0.1,0.2,0.2,0.3c-1,0.7-2,1.3-3.1,1.8s-2.3,0.8-3.5,1.1c-0.1-0.1-0.2-0.2-0.4-0.3c-0.2-0.1-0.3-0.1-0.5-0.1
			c-0.2,0-0.4,0.1-0.6,0.2c-0.2,0.1-0.3,0.3-0.3,0.5c-0.2,0-0.4,0-0.5,0.1c-0.2,0-0.4,0-0.5,0s-0.4,0-0.5,0c-0.2,0-0.4,0-0.5-0.1
			c0-0.2-0.2-0.3-0.3-0.5c-0.2-0.1-0.4-0.2-0.6-0.2c-0.2,0-0.4,0-0.5,0.1c-0.2,0.1-0.3,0.2-0.4,0.3c-1.2-0.2-2.4-0.6-3.5-1.1
			s-2.2-1.1-3.1-1.8c0.1-0.1,0.2-0.2,0.2-0.3c0-0.1,0.1-0.2,0.1-0.4c0-0.3-0.1-0.5-0.3-0.7c-0.2-0.2-0.4-0.3-0.7-0.3
			c-0.2,0-0.3,0-0.5,0.1S7,29.8,6.9,29.9c-0.8-0.8-1.5-1.6-2.2-2.5s-1.2-1.8-1.6-2.8c-0.4-1-0.8-2.1-1-3.2c-0.2-1.1-0.4-2.2-0.4-3.4
			c0-2.2,0.4-4.3,1.3-6.3S5,8,6.5,6.5S9.7,3.9,11.7,3s4.1-1.3,6.3-1.3c1.8,0,3.6,0.3,5.2,0.9C24.8,3.2,26.3,4,27.7,5
			c-0.1,0.1-0.2,0.2-0.3,0.3s-0.1,0.3-0.1,0.5c0,0.3,0.1,0.5,0.3,0.7s0.4,0.3,0.7,0.3c0.2,0,0.4-0.1,0.5-0.2s0.3-0.2,0.4-0.4
			c0.5,0.4,0.9,0.9,1.3,1.4c0.4,0.5,0.8,1,1.1,1.5c-0.1,0.1-0.1,0.2-0.2,0.3c0,0.1-0.1,0.3-0.1,0.4c0,0.3,0.1,0.5,0.3,0.7
			c0.2,0.2,0.4,0.3,0.6,0.3c0,0,0.1,0,0.2,0c0.1,0,0.1,0,0.2-0.1c0.5,1.1,0.9,2.2,1.2,3.5c0.3,1.2,0.4,2.4,0.4,3.7
			c0,1.3-0.2,2.6-0.5,3.8c-0.3,1.2-0.7,2.4-1.3,3.5c0,0-0.1,0-0.1,0c0,0-0.1,0-0.1,0c-0.3,0-0.5,0.1-0.6,0.3s-0.3,0.4-0.3,0.7
			C31.4,26.5,31.4,26.6,31.4,26.7z"/>
		<path d="M24.2,25.3c-0.3,0-0.5,0.1-0.7,0.3s-0.3,0.4-0.3,0.7c0,0.3,0.1,0.5,0.3,0.7c0.2,0.2,0.4,0.3,0.7,0.3
			c0.3,0,0.5-0.1,0.7-0.3c0.2-0.2,0.3-0.4,0.3-0.7c0-0.3-0.1-0.5-0.3-0.7S24.5,25.3,24.2,25.3z"/>
		<path d="M20.1,29.5c-0.3,0-0.5,0.1-0.7,0.3C19.1,30,19,30.2,19,30.5c0,0.3,0.1,0.5,0.3,0.7s0.4,0.3,0.7,0.3c0.3,0,0.5-0.1,0.7-0.3
			s0.3-0.4,0.3-0.7c0-0.3-0.1-0.5-0.3-0.7C20.6,29.6,20.3,29.5,20.1,29.5z"/>
		<path d="M20.1,21.2c-0.3,0-0.5,0.1-0.7,0.3C19.1,21.7,19,22,19,22.3c0,0.3,0.1,0.5,0.3,0.7s0.4,0.3,0.7,0.3c0.3,0,0.5-0.1,0.7-0.3
			s0.3-0.4,0.3-0.7c0-0.3-0.1-0.5-0.3-0.7C20.6,21.3,20.3,21.2,20.1,21.2z"/>
		<path d="M24.2,29.5c-0.3,0-0.5,0.1-0.7,0.3c-0.2,0.2-0.3,0.4-0.3,0.7c0,0.3,0.1,0.5,0.3,0.7s0.4,0.3,0.7,0.3
			c0.3,0,0.5-0.1,0.7-0.3s0.3-0.4,0.3-0.7c0-0.3-0.1-0.5-0.3-0.7C24.7,29.6,24.5,29.5,24.2,29.5z"/>
		<path d="M20.1,17.1c-0.3,0-0.5,0.1-0.7,0.3S19,17.9,19,18.1c0,0.3,0.1,0.5,0.3,0.7c0.2,0.2,0.4,0.3,0.7,0.3c0.3,0,0.5-0.1,0.7-0.3
			c0.2-0.2,0.3-0.4,0.3-0.7c0-0.3-0.1-0.5-0.3-0.7S20.3,17.1,20.1,17.1z"/>
		<path d="M20.1,25.3c-0.3,0-0.5,0.1-0.7,0.3S19,26.1,19,26.4c0,0.3,0.1,0.5,0.3,0.7c0.2,0.2,0.4,0.3,0.7,0.3c0.3,0,0.5-0.1,0.7-0.3
			c0.2-0.2,0.3-0.4,0.3-0.7c0-0.3-0.1-0.5-0.3-0.7S20.3,25.3,20.1,25.3z"/>
		<path d="M11.8,29.5c-0.3,0-0.5,0.1-0.7,0.3c-0.2,0.2-0.3,0.4-0.3,0.7c0,0.3,0.1,0.5,0.3,0.7s0.4,0.3,0.7,0.3
			c0.3,0,0.5-0.1,0.7-0.3s0.3-0.4,0.3-0.7c0-0.3-0.1-0.5-0.3-0.7C12.4,29.6,12.1,29.5,11.8,29.5z"/>
		<path d="M7.7,25.3c-0.3,0-0.5,0.1-0.7,0.3s-0.3,0.4-0.3,0.7c0,0.3,0.1,0.5,0.3,0.7c0.2,0.2,0.4,0.3,0.7,0.3c0.3,0,0.5-0.1,0.7-0.3
			c0.2-0.2,0.3-0.4,0.3-0.7c0-0.3-0.1-0.5-0.3-0.7S8,25.3,7.7,25.3z"/>
		<path d="M11.8,25.3c-0.3,0-0.5,0.1-0.7,0.3s-0.3,0.4-0.3,0.7c0,0.3,0.1,0.5,0.3,0.7c0.2,0.2,0.4,0.3,0.7,0.3
			c0.3,0,0.5-0.1,0.7-0.3c0.2-0.2,0.3-0.4,0.3-0.7c0-0.3-0.1-0.5-0.3-0.7S12.1,25.3,11.8,25.3z"/>
		<path d="M15.9,21.2c-0.3,0-0.5,0.1-0.7,0.3c-0.2,0.2-0.3,0.4-0.3,0.7c0,0.3,0.1,0.5,0.3,0.7s0.4,0.3,0.7,0.3
			c0.3,0,0.5-0.1,0.7-0.3s0.3-0.4,0.3-0.7c0-0.3-0.1-0.5-0.3-0.7C16.5,21.3,16.2,21.2,15.9,21.2z"/>
		<path d="M15.9,25.3c-0.3,0-0.5,0.1-0.7,0.3s-0.3,0.4-0.3,0.7c0,0.3,0.1,0.5,0.3,0.7c0.2,0.2,0.4,0.3,0.7,0.3
			c0.3,0,0.5-0.1,0.7-0.3c0.2-0.2,0.3-0.4,0.3-0.7c0-0.3-0.1-0.5-0.3-0.7S16.2,25.3,15.9,25.3z"/>
		<path d="M15.9,29.5c-0.3,0-0.5,0.1-0.7,0.3c-0.2,0.2-0.3,0.4-0.3,0.7c0,0.3,0.1,0.5,0.3,0.7s0.4,0.3,0.7,0.3
			c0.3,0,0.5-0.1,0.7-0.3s0.3-0.4,0.3-0.7c0-0.3-0.1-0.5-0.3-0.7C16.5,29.6,16.2,29.5,15.9,29.5z"/>
		<path d="M28.3,17.1c-0.3,0-0.5,0.1-0.7,0.3s-0.3,0.4-0.3,0.7c0,0.3,0.1,0.5,0.3,0.7c0.2,0.2,0.4,0.3,0.7,0.3
			c0.3,0,0.5-0.1,0.7-0.3c0.2-0.2,0.3-0.4,0.3-0.7c0-0.3-0.1-0.5-0.3-0.7S28.6,17.1,28.3,17.1z"/>
		<path d="M32.4,19.2c0.3,0,0.5-0.1,0.7-0.3c0.2-0.2,0.3-0.4,0.3-0.7c0-0.3-0.1-0.5-0.3-0.7s-0.4-0.3-0.7-0.3
			c-0.3,0-0.5,0.1-0.7,0.3s-0.3,0.4-0.3,0.7c0,0.3,0.1,0.5,0.3,0.7C31.9,19.1,32.1,19.2,32.4,19.2z"/>
		<path d="M32.4,23.3c0.3,0,0.5-0.1,0.7-0.3s0.3-0.4,0.3-0.7c0-0.3-0.1-0.5-0.3-0.7c-0.2-0.2-0.4-0.3-0.7-0.3
			c-0.3,0-0.5,0.1-0.7,0.3c-0.2,0.2-0.3,0.4-0.3,0.7c0,0.3,0.1,0.5,0.3,0.7S32.1,23.3,32.4,23.3z"/>
		<path d="M32.4,15.1c0.3,0,0.5-0.1,0.7-0.3s0.3-0.4,0.3-0.7c0-0.3-0.1-0.5-0.3-0.7c-0.2-0.2-0.4-0.3-0.7-0.3
			c-0.3,0-0.5,0.1-0.7,0.3c-0.2,0.2-0.3,0.4-0.3,0.7c0,0.3,0.1,0.5,0.3,0.7S32.1,15.1,32.4,15.1z"/>
		<path d="M28.3,8.9c-0.3,0-0.5,0.1-0.7,0.3s-0.3,0.4-0.3,0.7c0,0.3,0.1,0.5,0.3,0.7c0.2,0.2,0.4,0.3,0.7,0.3c0.3,0,0.5-0.1,0.7-0.3
			c0.2-0.2,0.3-0.4,0.3-0.7c0-0.3-0.1-0.5-0.3-0.7S28.6,8.9,28.3,8.9z"/>
		<path d="M28.3,21.2c-0.3,0-0.5,0.1-0.7,0.3c-0.2,0.2-0.3,0.4-0.3,0.7c0,0.3,0.1,0.5,0.3,0.7s0.4,0.3,0.7,0.3
			c0.3,0,0.5-0.1,0.7-0.3s0.3-0.4,0.3-0.7c0-0.3-0.1-0.5-0.3-0.7C28.8,21.3,28.6,21.2,28.3,21.2z"/>
		<path d="M24.2,17.1c-0.3,0-0.5,0.1-0.7,0.3s-0.3,0.4-0.3,0.7c0,0.3,0.1,0.5,0.3,0.7c0.2,0.2,0.4,0.3,0.7,0.3
			c0.3,0,0.5-0.1,0.7-0.3c0.2-0.2,0.3-0.4,0.3-0.7c0-0.3-0.1-0.5-0.3-0.7S24.5,17.1,24.2,17.1z"/>
		<path d="M28.3,13c-0.3,0-0.5,0.1-0.7,0.3c-0.2,0.2-0.3,0.4-0.3,0.7c0,0.3,0.1,0.5,0.3,0.7s0.4,0.3,0.7,0.3c0.3,0,0.5-0.1,0.7-0.3
			s0.3-0.4,0.3-0.7c0-0.3-0.1-0.5-0.3-0.7C28.8,13.1,28.6,13,28.3,13z"/>
		<path d="M24.2,13c-0.3,0-0.5,0.1-0.7,0.3c-0.2,0.2-0.3,0.4-0.3,0.7c0,0.3,0.1,0.5,0.3,0.7s0.4,0.3,0.7,0.3c0.3,0,0.5-0.1,0.7-0.3
			s0.3-0.4,0.3-0.7c0-0.3-0.1-0.5-0.3-0.7C24.7,13.1,24.5,13,24.2,13z"/>
		<path d="M28.3,25.3c-0.3,0-0.5,0.1-0.7,0.3s-0.3,0.4-0.3,0.7c0,0.3,0.1,0.5,0.3,0.7c0.2,0.2,0.4,0.3,0.7,0.3
			c0.3,0,0.5-0.1,0.7-0.3c0.2-0.2,0.3-0.4,0.3-0.7c0-0.3-0.1-0.5-0.3-0.7S28.6,25.3,28.3,25.3z"/>
		<path d="M24.2,21.2c-0.3,0-0.5,0.1-0.7,0.3c-0.2,0.2-0.3,0.4-0.3,0.7c0,0.3,0.1,0.5,0.3,0.7s0.4,0.3,0.7,0.3
			c0.3,0,0.5-0.1,0.7-0.3s0.3-0.4,0.3-0.7c0-0.3-0.1-0.5-0.3-0.7C24.7,21.3,24.5,21.2,24.2,21.2z"/>
	</g>
</g>
</svg>
