<?xml version="1.0" encoding="utf-8"?>
<!-- Generator: Adobe Illustrator 19.2.1, SVG Export Plug-In . SVG Version: 6.00 Build 0)  -->
<svg version="1.1" xmlns="http://www.w3.org/2000/svg" xmlns:xlink="http://www.w3.org/1999/xlink" x="0px" y="0px"
	 viewBox="0 0 36 36" style="enable-background:new 0 0 36 36;" xml:space="preserve">
<style type="text/css">
	.st0{display:none;}
	.st1{display:inline;fill:#FFFFFF;}
	.st2{display:inline;}
	.st3{fill:none;}
	.st4{fill:#303030;}
</style>
<g id="Layer_2" class="st0">
	<rect x="-31" y="-261" class="st1" width="583" height="601"/>
</g>
<g id="Layer_1">
	<g>
		<path d="M26,15.6c-0.2,0.4-0.4,0.6-0.8,0.9c-0.3,0.2-0.7,0.3-1.1,0.3h-8.3c-1.4,2.9-2.6,5.4-3.5,7.4c-1,2-1.9,4.1-2.9,6.2
			S7.6,34.2,7,35.5c-0.1,0.2-0.2,0.3-0.2,0.4C6.7,36,6.5,36,6.4,36c-0.6,0-1.1-0.3-1.5-0.8c-0.4-0.6-0.6-1.2-0.8-2
			c-0.1-0.8-0.1-1.7,0-2.6c0.1-0.9,0.4-1.8,0.8-2.6c0.8-1.6,1.8-3.7,3.1-6.4s2.5-5.3,3.8-7.9s2.8-5.8,4.6-9.6h-2.4
			C11,4,9,4.5,7.7,5.5s-1.9,2.1-2,3.3c-0.1,1.2,0.2,2.3,0.9,3.3s1.6,1.5,2.5,1.5c0.4,0,0.7,0.2,0.7,0.5s-0.2,0.5-0.7,0.5
			c-2.3,0-4.2-0.8-5.7-2.3s-2.2-3.2-2.1-5s1.3-3.5,3.6-5S11,0,16.3,0h17.8c0.2,0,0.4,0.1,0.5,0.3c0.1,0.2,0.1,0.4,0,0.7
			c-0.1,0.1-0.2,0.4-0.3,0.7c-0.2,0.3-0.3,0.7-0.5,1.1c-0.2,0.4-0.4,0.7-0.8,0.9C32.6,3.9,32.2,4,31.8,4h-9.9l-4.1,8.8h8.6
			c0.2,0,0.3,0.1,0.5,0.2c0.1,0.2,0.2,0.4,0.1,0.6c-0.1,0.2-0.2,0.4-0.4,0.8C26.4,14.8,26.2,15.2,26,15.6z"/>
	</g>
</g>
<g id="Layer_3">
</g>
</svg>
