<?xml version="1.0" encoding="utf-8"?>
<!-- Generator: Adobe Illustrator 19.2.1, SVG Export Plug-In . SVG Version: 6.00 Build 0)  -->
<svg version="1.1" xmlns="http://www.w3.org/2000/svg" xmlns:xlink="http://www.w3.org/1999/xlink" x="0px" y="0px"
	 viewBox="0 0 36 36" style="enable-background:new 0 0 36 36;" xml:space="preserve">
<style type="text/css">
	.st0{display:none;}
	.st1{display:inline;fill:#FFFFFF;}
	.st2{display:inline;}
	.st3{fill:none;}
	.st4{fill:#303030;}
</style>
<g id="Layer_2" class="st0">
	<rect x="-247" y="-207" class="st1" width="583" height="601"/>
</g>
<g id="Layer_1">
	<g>
		<path d="M0,24.5c0-4.3,0-8.7,0-13c0-0.1,0.1-0.1,0.1-0.2c0.1-0.9,0.1-1.9,0.2-2.8c0.1-1,0.4-1.9,0.8-2.8c0.6-1.2,1.4-2.3,2.4-3.2
			C4.3,1.9,5.1,1.4,5.9,1c1.7-0.7,3.4-0.9,5.2-0.9c0.1,0,0.2,0,0.4-0.1c4.3,0,8.7,0,13,0c0.1,0,0.1,0.1,0.2,0.1
			c0.9,0.1,1.9,0.1,2.8,0.2c1,0.1,1.9,0.4,2.8,0.8c1.2,0.6,2.3,1.4,3.2,2.4c0.6,0.7,1.1,1.5,1.5,2.4c0.7,1.7,0.9,3.4,0.9,5.2
			c0,0.1,0,0.2,0.1,0.4c0,4.3,0,8.7,0,13c0,0.1-0.1,0.1-0.1,0.2c-0.1,0.9-0.1,1.9-0.2,2.8c-0.1,1-0.4,1.9-0.8,2.8
			c-0.6,1.2-1.4,2.3-2.4,3.2c-0.7,0.6-1.5,1.1-2.4,1.5c-1.7,0.7-3.4,0.9-5.2,0.9c-0.1,0-0.2,0-0.4,0.1c-4.3,0-8.7,0-13,0
			c-0.1,0-0.1-0.1-0.2-0.1c-0.9-0.1-1.9-0.1-2.8-0.2c-1-0.1-1.9-0.4-2.8-0.8c-1.2-0.6-2.3-1.4-3.2-2.4c-0.6-0.7-1.1-1.5-1.5-2.4
			c-0.7-1.7-0.9-3.4-0.9-5.2C0.1,24.7,0,24.6,0,24.5z M3.3,24.4C3.3,24.4,3.3,24.4,3.3,24.4c0.1,0.4,0.1,0.8,0.1,1.2
			c0,1,0.2,2,0.6,3c0.4,1.1,1.1,2,2.1,2.7c1.2,0.9,2.5,1.2,3.9,1.3c1.1,0.1,2.1,0.1,3.2,0.1c3.5,0,7.1,0,10.6-0.1
			c1,0,2.1-0.1,3.1-0.2c1.6-0.2,2.9-0.8,4-2.1c0.9-1,1.3-2.1,1.5-3.3c0.2-1.3,0.3-2.6,0.3-3.9c0-3.6,0-7.3-0.1-10.9
			c0-1.1-0.1-2.1-0.2-3.2c-0.2-1.5-0.8-2.9-2-3.9c-1-0.8-2.1-1.3-3.3-1.5c-1.3-0.2-2.6-0.3-3.9-0.3c-4.3,0-8.5-0.2-12.8,0.1
			c-0.6,0-1.2,0.1-1.8,0.2C7.2,3.9,6,4.6,5.1,5.7c-0.8,1-1.3,2.1-1.5,3.3c-0.2,1.3-0.3,2.7-0.3,4C3.3,16.8,3.3,20.6,3.3,24.4z"/>
		<path d="M18,27.3c-5.1,0-9.4-4.1-9.3-9.5c0.1-4.8,4.1-9.2,9.6-9c4.8,0.1,9.1,4,9,9.6C27.1,23.2,23.2,27.2,18,27.3z M23.9,18
			c0.1-3.3-2.7-5.8-5.5-6c-3.8-0.2-6.2,2.9-6.4,5.5c-0.2,3.8,2.9,6.2,5.5,6.4C21.3,24.2,24.1,21,23.9,18z"/>
		<path d="M27.6,10.6c-1.1,0.1-2.2-1-2.2-2.3c0-1,1-2.1,2.3-2.1c1.1,0.1,2.2,1,2.1,2.3C29.8,9.5,28.8,10.7,27.6,10.6z"/>
	</g>
</g>
</svg>
