<?xml version="1.0" encoding="utf-8"?>
<!-- Generator: Adobe Illustrator 19.2.1, SVG Export Plug-In . SVG Version: 6.00 Build 0)  -->
<svg version="1.1" xmlns="http://www.w3.org/2000/svg" xmlns:xlink="http://www.w3.org/1999/xlink" x="0px" y="0px"
	 viewBox="0 0 36 36" style="enable-background:new 0 0 36 36;" xml:space="preserve">
<style type="text/css">
	.st0{display:none;}
	.st1{display:inline;fill:#FFFFFF;}
	.st2{display:inline;}
	.st3{fill:none;}
	.st4{fill:#303030;}
	.st5{fill:#FFFFFF;}
	.st6{fill:#333333;}
</style>
<g id="Layer_2" class="st0">
	<rect x="-193" y="-45" class="st1" width="583" height="601"/>
</g>
<g id="Layer_1">
	<g>
		<path d="M34.6,11c-0.9-2.2-2.2-4.1-3.8-5.7S27.2,2.4,25,1.4C22.8,0.5,20.5,0,18,0s-4.8,0.5-7,1.4C8.8,2.4,6.9,3.6,5.3,5.3
			S2.4,8.8,1.4,11C0.5,13.2,0,15.5,0,18s0.5,4.8,1.4,7c0.9,2.2,2.2,4.1,3.8,5.7s3.5,2.9,5.7,3.8c2.2,0.9,4.5,1.4,7,1.4
			s4.8-0.5,7-1.4c2.2-0.9,4.1-2.2,5.7-3.8s2.9-3.5,3.8-5.7c0.9-2.2,1.4-4.5,1.4-7S35.5,13.2,34.6,11z M32.2,25.7
			c0.1,0,0.1-0.1,0.2-0.1c0.1,0,0.1-0.1,0.2-0.1C31.9,26.8,31,28,30,29.1c-1,1.1-2.1,2-3.4,2.8c-1.3,0.8-2.6,1.4-4.1,1.8
			c-1.5,0.4-3,0.6-4.6,0.6c-2.3,0-4.4-0.4-6.4-1.3s-3.7-2-5.2-3.5c-1.5-1.5-2.7-3.2-3.5-5.2S1.6,20.3,1.6,18s0.4-4.4,1.3-6.4
			s2-3.7,3.5-5.2c1.5-1.5,3.2-2.7,5.2-3.5s4.1-1.3,6.4-1.3c0.5,0,1.1,0,1.6,0.1s1,0.1,1.6,0.2l0.4,1.8c0.1,0,0.2,0,0.3-0.1
			s0.2,0,0.3,0l0-1.1V2.2c1.7,0.5,3.3,1.2,4.8,2.2c1.5,1,2.8,2.2,3.8,3.6c1.1,1.4,1.9,2.9,2.5,4.6c0.6,1.7,0.9,3.5,0.9,5.4
			c0,1.2-0.1,2.3-0.4,3.4c-0.2,1.1-0.6,2.2-1,3.2l-1.3-1.3c-0.1,0.1-0.2,0.2-0.3,0.3c-0.1,0.1-0.2,0.2-0.3,0.3L32.2,25.7z"/>
		<path d="M6.1,18.6c-0.1,0-0.3,0.1-0.4,0.1L6.1,21c0.2,0,0.4-0.1,0.6-0.2c0.2-0.1,0.4-0.1,0.6-0.2l-0.9-2.1
			C6.4,18.5,6.2,18.6,6.1,18.6z"/>
		<path d="M10.5,18.3l-1.6-1.6c-0.1,0.1-0.2,0.2-0.4,0.3c-0.1,0.1-0.3,0.2-0.4,0.3l1.5,1.7c0.2-0.1,0.3-0.3,0.5-0.4
			C10.2,18.6,10.4,18.5,10.5,18.3z"/>
		<path d="M9.8,31.2c0,0.2-0.1,0.4-0.1,0.6l2.2,0.4c0-0.2,0.1-0.3,0.1-0.5c0-0.1,0.1-0.3,0.1-0.5L10,30.5C9.9,30.7,9.9,31,9.8,31.2z
			"/>
		<polygon points="16.3,9.7 14.3,8.5 13.8,9.5 15.7,10.6 		"/>
		<path d="M11.7,27.7c-0.2,0.2-0.3,0.3-0.4,0.5l1.7,1.5c0.1-0.1,0.2-0.2,0.3-0.3c0.1-0.1,0.2-0.2,0.3-0.3l-1.4-1.7
			C12.1,27.4,11.9,27.6,11.7,27.7z"/>
		<path d="M12.4,16c0.1-0.2,0.2-0.3,0.3-0.5l-1.9-1.3c-0.1,0.1-0.2,0.3-0.3,0.4c-0.1,0.1-0.2,0.3-0.3,0.4l1.8,1.4
			C12.2,16.3,12.3,16.2,12.4,16z"/>
		<path d="M3,18.5l-0.8,2.2c0.2,0.1,0.4,0.1,0.6,0.2C3,20.9,3.2,21,3.5,21l0.4-2.2c-0.1,0-0.3-0.1-0.4-0.1C3.2,18.6,3.1,18.6,3,18.5
			z"/>
		<path d="M15.1,25.8c-0.2,0.1-0.4,0.1-0.6,0.2l0.8,2.1c0.1,0,0.3-0.1,0.4-0.2c0.2-0.1,0.3-0.1,0.5-0.2l-0.6-2.2
			C15.5,25.7,15.3,25.8,15.1,25.8z"/>
		<path d="M25.5,24.9c-0.2,0-0.4,0-0.6,0l0.1,2.3c0.2,0,0.4,0,0.6,0c0.2,0,0.4,0,0.6,0l-0.1-2.3C25.9,24.8,25.7,24.8,25.5,24.9z"/>
		<path d="M12.6,11.4c-0.1,0.2-0.2,0.3-0.3,0.5s-0.2,0.3-0.3,0.5l1.9,1.2c0.1-0.2,0.2-0.3,0.3-0.5s0.2-0.3,0.3-0.5L12.6,11.4z"/>
		<path d="M22.1,24.9c-0.2,0-0.4,0-0.6,0l0.1,2.3c0.2,0,0.4,0,0.6,0s0.4,0,0.6,0l-0.1-2.3C22.5,24.9,22.3,24.9,22.1,24.9z"/>
		<path d="M28.7,24.5c-0.2,0-0.3,0.1-0.5,0.1l0.3,2.2c0.2,0,0.4-0.1,0.6-0.1c0.2,0,0.4-0.1,0.6-0.1l-0.5-2.2
			C29.1,24.5,28.9,24.5,28.7,24.5z"/>
		<path d="M15.9,6.1c-0.1,0.2-0.2,0.3-0.3,0.5l1.9,1.2c0.1-0.2,0.2-0.3,0.3-0.5S17.9,7,18,6.9l-1.8-1.3C16.1,5.7,16,5.9,15.9,6.1z"
			/>
		<path d="M18.2,3.2c-0.2,0.1-0.3,0.3-0.5,0.5l1.6,1.6c0.1-0.1,0.3-0.3,0.4-0.4s0.2-0.2,0.3-0.3l-1.4-1.7
			C18.5,2.9,18.3,3.1,18.2,3.2z"/>
		<path d="M18.7,25.1c-0.2,0-0.4,0-0.6,0.1l0.3,2.3c0.2,0,0.4,0,0.5-0.1c0.2,0,0.4,0,0.5,0l-0.2-2.3C19,25.1,18.9,25.1,18.7,25.1z"
			/>
	</g>
</g>
</svg>
