<?xml version="1.0" encoding="utf-8"?>
<!-- Generator: Adobe Illustrator 19.2.1, SVG Export Plug-In . SVG Version: 6.00 Build 0)  -->
<svg version="1.1" xmlns="http://www.w3.org/2000/svg" xmlns:xlink="http://www.w3.org/1999/xlink" x="0px" y="0px"
	 viewBox="0 0 36 36" style="enable-background:new 0 0 36 36;" xml:space="preserve">
<style type="text/css">
	.st0{display:none;}
	.st1{display:inline;fill:#FFFFFF;}
	.st2{display:inline;}
	.st3{fill:none;}
	.st4{fill:#303030;}
</style>
<g id="Layer_2" class="st0">
	<rect x="-463" y="-261" class="st1" width="583" height="601"/>
</g>
<g id="Layer_1">
	<path d="M36,0H0v36h36V0z M34,20c-1.1,0-2-0.9-2-2s0.9-2,2-2V20z M34,2v12c-1.9,0-3.4,1.3-3.9,3h-2.3c-0.4-1.7-2-3-3.9-3
		c-1.4,0-2.6,0.7-3.3,1.7L18,14.4c0-0.1,0-0.2,0-0.4c0-2.2-1.8-4-4-4c-2.2,0-4,1.8-4,4c0,0.7,0.2,1.4,0.6,2L6,20.6
		C5.4,20.2,4.7,20,4,20c-0.7,0-1.4,0.2-2,0.6V2H34z M26,18c0,1.1-0.9,2-2,2c-1.1,0-2-0.9-2-2c0-1.1,0.9-2,2-2C25.1,16,26,16.9,26,18
		z M16,14c0,1.1-0.9,2-2,2c-1.1,0-2-0.9-2-2s0.9-2,2-2C15.1,12,16,12.9,16,14z M6,24c0,1.1-0.9,2-2,2c-1.1,0-2-0.9-2-2s0.9-2,2-2
		C5.1,22,6,22.9,6,24z M34,34H2v-6.6C2.6,27.8,3.3,28,4,28c2.2,0,4-1.8,4-4c0-0.7-0.2-1.4-0.6-2l4.5-4.5c0.6,0.3,1.3,0.6,2,0.6
		c1.4,0,2.6-0.7,3.3-1.7l2.7,1.4c0,0.1,0,0.2,0,0.4c0,2.2,1.8,4,4,4c1.9,0,3.4-1.3,3.9-3h2.3c0.4,1.7,2,3,3.9,3V34z"/>
</g>
</svg>
