<?xml version="1.0" encoding="utf-8"?>
<!-- Generator: Adobe Illustrator 19.2.1, SVG Export Plug-In . SVG Version: 6.00 Build 0)  -->
<svg version="1.1" xmlns="http://www.w3.org/2000/svg" xmlns:xlink="http://www.w3.org/1999/xlink" x="0px" y="0px"
	 viewBox="0 0 36 36" style="enable-background:new 0 0 36 36;" xml:space="preserve">
<style type="text/css">
	.st0{display:none;}
	.st1{display:inline;fill:#FFFFFF;}
	.st2{display:inline;}
	.st3{fill:none;}
	.st4{fill:#303030;}
</style>
<g id="Layer_2" class="st0">
	<rect x="-247" y="-477" class="st1" width="583" height="601"/>
</g>
<g id="Layer_1">
	<g>
		<path d="M36,12.7c0,0-0.2,0.3-0.8,0.7C33.1,8.4,26.2,4.9,18,4.9c-8.2,0-15,3.6-17.2,8.5C0.2,12.9,0,12.7,0,12.7s0,8.7,0,10.2
			c2.9,4.3,9.9,7.2,18,7.2c8.1,0,15.1-3,18-7.2C36,21.6,36,12.7,36,12.7z M18,6.9c3.8,0,7,4.5,7.4,10.1c-2.1,0.3-4.5,0.6-7.4,0.6
			c-2.9,0-5.3-0.2-7.4-0.6C11,11.4,14.2,6.9,18,6.9z M12.3,7.5c-2,2.1-3.4,5.3-3.7,9c-2.8-0.6-4.8-1.4-6.1-2.2
			C3.7,11.3,7.5,8.7,12.3,7.5z M18,23.9c-6.4,0-9.7-1.4-9.7-1.4l0-3.1c0,0,2.6,1,9.7,1c7,0,9.7-1,9.7-1l0,3.1
			C27.7,22.6,24.4,23.9,18,23.9z M27.4,16.6c-0.3-3.7-1.7-6.9-3.7-9c4.9,1.2,8.6,3.8,9.9,6.9C32.2,15.2,30.2,16,27.4,16.6z"/>
	</g>
</g>
<g id="Layer_3">
</g>
</svg>
